/* XPM */
static char * closeI_xpm[] = {
"24 48 86 1",
" 	c None",
".	c #60708D",
"+	c #4C5F77",
"@	c #4A5C74",
"#	c #5D6C86",
"$	c #485A72",
"%	c #4D5C74",
"&	c #607FA4",
"*	c #6582A5",
"=	c #6986A8",
"-	c #6785A8",
";	c #6684A7",
">	c #6381A4",
",	c #46586E",
"'	c #6281A5",
")	c #5C7CA1",
"!	c #36495F",
"~	c #5C7BA0",
"{	c #607FA3",
"]	c #44566B",
"^	c #5B7BA0",
"/	c #2C3B4D",
"(	c #425369",
"_	c #6481A4",
":	c #6985A7",
"<	c #3F5066",
"[	c #6482A5",
"}	c #6E8AAB",
"|	c #6C89AB",
"1	c #6B88AA",
"2	c #3D4E63",
"3	c #6784A7",
"4	c #6F8BAC",
"5	c #6583A6",
"6	c #3C4C60",
"7	c #708CAD",
"8	c #394A5E",
"9	c #6B87A9",
"0	c #6E8AAA",
"a	c #37485B",
"b	c #6C88AA",
"c	c #6A87A9",
"d	c #7490AF",
"e	c #708BAB",
"f	c #364558",
"g	c #334355",
"h	c #6E89AA",
"i	c #728EAD",
"j	c #738EAC",
"k	c #314053",
"l	c #2F3D4F",
"m	c #6F8AAB",
"n	c #2D3B4D",
"o	c #2B3949",
"p	c #6683A6",
"q	c #283647",
"r	c #333E4D",
"s	c #273444",
"t	c #6B88A9",
"u	c #6F8BAB",
"v	c #6D8AAB",
"w	c #353E4C",
"x	c #253241",
"y	c #23303F",
"z	c #212D3C",
"A	c #1D2937",
"B	c #5E7DA2",
"C	c #6885A6",
"D	c #6684A6",
"E	c #6986A7",
"F	c #627EA1",
"G	c #6280A4",
"H	c #607EA1",
"I	c #5B7A9F",
"J	c #607EA2",
"K	c #6982A3",
"L	c #728DAB",
"M	c #728CAB",
"N	c #6A85A6",
"O	c #708BAC",
"P	c #728DAC",
"Q	c #6F8AAA",
"R	c #6F89AA",
"S	c #6E87A7",
"T	c #6C86A7",
"U	c #6F819F",
"........................",
"++++++++++++++++++++++++",
"@@@###############@@@@@@",
"$$%&*==---======;>#$$$$$",
",#')!!!!!!!!!!!!!~{#,,,,",
"]^~!!////////////!){]]]]",
"(_!///////////////!:((((",
"<[!///}-/////=|///!1<<<<",
"23!///-45///;4-///!12222",
"63!////-7[/;4-////!16666",
"89!/////-4}7;/////!08888",
"ab!//////cd=//////!eaaaa",
"fb!/////-747=/////!effff",
"gh!////=d-/=i=////!jgggg",
"kh!///=i=///ci=///!jkkkk",
"lm!///4c/////1|///!jllll",
"nh!///////////////!hnnnn",
"op3!/////////////!:coooo",
"qri3!!!!!!!!!!!!!:irqqqq",
"ssrt|7i744444uvvbtwsssss",
"xxxrrrrrrrrrrrrrrrxxxxxx",
"yyyyyyyyyyyyyyyyyyyyyyyy",
"zzzzzzzzzzzzzzzzzzzzzzzz",
"AAAAAAAAAAAAAAAAAAAAAAAA",
"........................",
"++++++++++++++++++++++++",
"@@@###############@@@@@@",
"$$%B_CCDDDCEEEECpF#$$$$$",
",#G)!!!!!!!!!!!!!~H#,,,,",
"]I~!!////////////!)J]]]]",
"(_!///////////////!:((((",
"<[!///}-/////=|///!1<<<<",
"23!///-45///;4-///!12222",
"63!////-7[/;4-////!16666",
"89!/////-4}7;/////!08888",
"ab!//////cd=//////!eaaaa",
"fb!/////-747=/////!effff",
"gh!////=d-/=i=////!jgggg",
"kh!///=i=///ci=///!jkkkk",
"lm!///4c/////1|///!jllll",
"nh!///////////////!hnnnn",
"op3!/////////////!:Koooo",
"qrL3!!!!!!!!!!!!!:Mrqqqq",
"ssrNbOPOQQQQRSTTNUwsssss",
"xxxrrrrrrrrrrrrrrrxxxxxx",
"yyyyyyyyyyyyyyyyyyyyyyyy",
"zzzzzzzzzzzzzzzzzzzzzzzz",
"AAAAAAAAAAAAAAAAAAAAAAAA"};
