/* XPM */
static char * closeA_xpm[] = {
"24 48 132 2",
"  	c None",
". 	c #60708D",
"+ 	c #4C5F77",
"@ 	c #4A5C74",
"# 	c #5B6A86",
"$ 	c #5D6C86",
"% 	c #5C6C86",
"& 	c #4D5E77",
"* 	c #485A72",
"= 	c #5B3334",
"- 	c #562826",
"; 	c #410D0C",
"> 	c #3B0505",
", 	c #380000",
"' 	c #4E1D1C",
") 	c #596882",
"! 	c #46586E",
"~ 	c #5D6C84",
"{ 	c #5E302F",
"] 	c #78302C",
"^ 	c #A85A53",
"/ 	c #C3756D",
"( 	c #C77971",
"_ 	c #44566B",
": 	c #792C28",
"< 	c #C16D66",
"[ 	c #C47068",
"} 	c #425369",
"| 	c #581D1C",
"1 	c #A24941",
"2 	c #BE635A",
"3 	c #3F5066",
"4 	c #480000",
"5 	c #B45047",
"6 	c #B85249",
"7 	c #B64E45",
"8 	c #FFFFFF",
"9 	c #F0DAD8",
"0 	c #B74F45",
"a 	c #582221",
"b 	c #3D4E63",
"c 	c #4F0000",
"d 	c #B14339",
"e 	c #AB352A",
"f 	c #EBD0CD",
"g 	c #EED5D3",
"h 	c #AF3F35",
"i 	c #5D211F",
"j 	c #3C4C60",
"k 	c #570000",
"l 	c #AD382D",
"m 	c #A82B1F",
"n 	c #960000",
"o 	c #E7CCCC",
"p 	c #EDD2D0",
"q 	c #AA3024",
"r 	c #621F1D",
"s 	c #394A5E",
"t 	c #5F0000",
"u 	c #A92E22",
"v 	c #A72A1E",
"w 	c #9F1508",
"x 	c #8E0000",
"y 	c #E6CCCC",
"z 	c #F2E0E0",
"A 	c #681C1A",
"B 	c #37485B",
"C 	c #660000",
"D 	c #A42418",
"E 	c #A22013",
"F 	c #990A00",
"G 	c #870000",
"H 	c #EFE0E0",
"I 	c #6D1A18",
"J 	c #364558",
"K 	c #6D0101",
"L 	c #A11C10",
"M 	c #9D1306",
"N 	c #E8CCCC",
"O 	c #EDE0E0",
"P 	c #741816",
"Q 	c #334355",
"R 	c #730203",
"S 	c #9F170A",
"T 	c #9D1205",
"U 	c #EACCCC",
"V 	c #E3CCCC",
"W 	c #710000",
"X 	c #7A1514",
"Y 	c #314053",
"Z 	c #780304",
"` 	c #800000",
" .	c #8B0000",
"..	c #801412",
"+.	c #2F3D4F",
"@.	c #7E0405",
"#.	c #9F170B",
"$.	c #A0180B",
"%.	c #9A0900",
"&.	c #820000",
"*.	c #950000",
"=.	c #9C0F01",
"-.	c #871210",
";.	c #2D3B4D",
">.	c #A1190E",
",.	c #A82013",
"'.	c #A10F01",
").	c #920000",
"!.	c #900000",
"~.	c #9E0600",
"{.	c #A61C0E",
"].	c #2B3949",
"^.	c #8C231E",
"/.	c #B0281B",
"(.	c #B1291C",
"_.	c #AF2417",
":.	c #AB190B",
"<.	c #AC1B0D",
"[.	c #AF2517",
"}.	c #283647",
"|.	c #333E4D",
"1.	c #A51D10",
"2.	c #B93124",
"3.	c #BA3225",
"4.	c #273444",
"5.	c #9C170B",
"6.	c #96180D",
"7.	c #94180E",
"8.	c #253241",
"9.	c #23303F",
"0.	c #212D3C",
"a.	c #1D2937",
". . . . . . . . . . . . . . . . . . . . . . . . ",
"+ + + + + + + + + + + + + + + + + + + + + + + + ",
"@ @ @ # $ $ $ % $ $ $ $ $ $ $ $ $ # & @ @ @ @ @ ",
"* * $ = - ; ; ; ; ; > , , , , , ' = ) * * * * * ",
"! ~ { ] ^ / ( ( ( ( ( ( ( ( ( / ^ ] = ~ ! ! ! ! ",
"_ = : < [ [ [ [ [ [ [ [ [ [ [ [ [ < : = _ _ _ _ ",
"} | 1 2 2 2 2 2 2 2 2 2 2 2 2 2 2 2 1 | } } } } ",
"3 4 5 6 6 7 8 9 0 6 6 6 0 9 8 7 6 6 5 a 3 3 3 3 ",
"b c d d d e f 8 g h d h g 8 f e d d d i b b b b ",
"j k l l l m n o 8 p q p 8 o n m l l l r j j j j ",
"s t u u u v w x y 8 z 8 y x w v u u u A s s s s ",
"B C D D D D E F G H 8 H G F E D D D D I B B B B ",
"J K L L L L L M N 8 O 8 N M L L L L L P J J J J ",
"Q R S S S S T U 8 V W V 8 U T S S S S X Q Q Q Q ",
"Y Z S S S T U 8 V `  .` V 8 U T S S S ..Y Y Y Y ",
"+.@.#.$.$.%.8 V &.*.=.*.&.V 8 %.$.$.#.-.+.+.+.+.",
";.#.>.,.,.'.).!.~.{.,.{.~.!.).'.,.,.>.#.;.;.;.;.",
"].^.#./.(._.:.<.[.(.(.(.[.<.:._.(./.#.^.].].].].",
"}.|.^.1.(.2.3.3.3.3.3.3.3.3.3.2.(.1.^.|.}.}.}.}.",
"4.4.|.^.#.5.5.5.5.5.6.7.7.7.7.7.#.^.|.4.4.4.4.4.",
"8.8.8.|.|.|.|.|.|.|.|.|.|.|.|.|.|.|.8.8.8.8.8.8.",
"9.9.9.9.9.9.9.9.9.9.9.9.9.9.9.9.9.9.9.9.9.9.9.9.",
"0.0.0.0.0.0.0.0.0.0.0.0.0.0.0.0.0.0.0.0.0.0.0.0.",
"a.a.a.a.a.a.a.a.a.a.a.a.a.a.a.a.a.a.a.a.a.a.a.a.",
". . . . . . . . . . . . . . . . . . . . . . . . ",
"+ + + + + + + + + + + + + + + + + + + + + + + + ",
"@ @ @ # $ $ $ % $ $ $ $ $ $ $ $ $ # & @ @ @ @ @ ",
"* * $ = - ; ; ; ; ; > , , , , , ' = ) * * * * * ",
"! ~ { ] ^ / ( ( ( ( ( ( ( ( ( / ^ ] = ~ ! ! ! ! ",
"_ = : < [ [ [ [ [ [ [ [ [ [ [ [ [ < : = _ _ _ _ ",
"} | 1 2 2 2 2 2 2 2 2 2 2 2 2 2 2 2 1 | } } } } ",
"3 4 5 6 6 7 8 9 0 6 6 6 0 9 8 7 6 6 5 a 3 3 3 3 ",
"b c d d d e f 8 g h d h g 8 f e d d d i b b b b ",
"j k l l l m n o 8 p q p 8 o n m l l l r j j j j ",
"s t u u u v w x y 8 z 8 y x w v u u u A s s s s ",
"B C D D D D E F G H 8 H G F E D D D D I B B B B ",
"J K L L L L L M N 8 O 8 N M L L L L L P J J J J ",
"Q R S S S S T U 8 V W V 8 U T S S S S X Q Q Q Q ",
"Y Z S S S T U 8 V `  .` V 8 U T S S S ..Y Y Y Y ",
"+.@.#.$.$.%.8 V &.*.=.*.&.V 8 %.$.$.#.-.+.+.+.+.",
";.#.>.,.,.'.).!.~.{.,.{.~.!.).'.,.,.>.#.;.;.;.;.",
"].^.#./.(._.:.<.[.(.(.(.[.<.:._.(./.#.^.].].].].",
"}.|.^.1.(.2.3.3.3.3.3.3.3.3.3.2.(.1.^.|.}.}.}.}.",
"4.4.|.^.#.5.5.5.5.5.6.7.7.7.7.7.#.^.|.4.4.4.4.4.",
"8.8.8.|.|.|.|.|.|.|.|.|.|.|.|.|.|.|.8.8.8.8.8.8.",
"9.9.9.9.9.9.9.9.9.9.9.9.9.9.9.9.9.9.9.9.9.9.9.9.",
"0.0.0.0.0.0.0.0.0.0.0.0.0.0.0.0.0.0.0.0.0.0.0.0.",
"a.a.a.a.a.a.a.a.a.a.a.a.a.a.a.a.a.a.a.a.a.a.a.a."};
