/* XPM */
static char * menuButtonO_xpm[] = {
"24 48 135 2",
"  	c None",
". 	c #60708D",
"+ 	c #4C5F77",
"@ 	c #4A5C74",
"# 	c #5D6C86",
"$ 	c #485A72",
"% 	c #005BD9",
"& 	c #004BBD",
"* 	c #00328F",
"= 	c #46586E",
"- 	c #1F87FF",
"; 	c #5BABFF",
"> 	c #5EACFF",
", 	c #44566B",
"' 	c #4FA4FF",
") 	c #4BA1FF",
"! 	c #3796FF",
"~ 	c #FFFFFF",
"{ 	c #459EFF",
"] 	c #4DA3FF",
"^ 	c #425369",
"/ 	c #0A7BFB",
"( 	c #3B99FF",
"_ 	c #2188FF",
": 	c #0070F9",
"< 	c #3F5066",
"[ 	c #003698",
"} 	c #1D86FD",
"| 	c #0779FB",
"1 	c #0061E3",
"2 	c #01338F",
"3 	c #3D4E63",
"4 	c #003697",
"5 	c #006EF8",
"6 	c #0058D4",
"7 	c #DEF9FF",
"8 	c #006DF8",
"9 	c #013390",
"0 	c #3C4C60",
"a 	c #003A9E",
"b 	c #0067F1",
"c 	c #0054CD",
"d 	c #013696",
"e 	c #394A5E",
"f 	c #003DA2",
"g 	c #0069F4",
"h 	c #004DC1",
"i 	c #013A9B",
"j 	c #37485B",
"k 	c #003EA4",
"l 	c #0061E6",
"m 	c #005BDA",
"n 	c #0048B7",
"o 	c #013B9E",
"p 	c #364558",
"q 	c #003FA6",
"r 	c #005CDC",
"s 	c #0056D0",
"t 	c #0045B0",
"u 	c #013CA0",
"v 	c #334355",
"w 	c #0040A9",
"x 	c #0050C6",
"y 	c #0041A9",
"z 	c #0053CA",
"A 	c #013EA4",
"B 	c #314053",
"C 	c #0042AA",
"D 	c #013FA5",
"E 	c #2F3D4F",
"F 	c #0043AF",
"G 	c #005AD7",
"H 	c #0040A7",
"I 	c #0141AA",
"J 	c #2D3B4D",
"K 	c #0043AE",
"L 	c #0057D3",
"M 	c #D1F2FF",
"N 	c #2B3949",
"O 	c #1B5DB3",
"P 	c #0046B3",
"Q 	c #0065ED",
"R 	c #0062E7",
"S 	c #0045B2",
"T 	c #283647",
"U 	c #333E4D",
"V 	c #273444",
"W 	c #0042AC",
"X 	c #0042AD",
"Y 	c #0043AD",
"Z 	c #293646",
"` 	c #253241",
" .	c #23303F",
"..	c #212D3C",
"+.	c #1D2937",
"@.	c #002E85",
"#.	c #001B66",
"$.	c #000B46",
"%.	c #006AF7",
"&.	c #005EDE",
"*.	c #0051C9",
"=.	c #000D49",
"-.	c #0046B6",
";.	c #0044AE",
">.	c #011252",
",.	c #003BA0",
"'.	c #000F4D",
").	c #00399A",
"!.	c #003696",
"~.	c #011456",
"{.	c #001254",
"].	c #00308D",
"^.	c #011659",
"/.	c #002C83",
"(.	c #00287C",
"_.	c #01165A",
":.	c #001559",
"<.	c #002779",
"[.	c #002577",
"}.	c #002372",
"|.	c #01185F",
"1.	c #00165C",
"2.	c #011961",
"3.	c #00175E",
"4.	c #002170",
"5.	c #011A63",
"6.	c #002B80",
"7.	c #002A7D",
"8.	c #CCF0FF",
"9.	c #112870",
"0.	c #002C86",
"a.	c #00165D",
"b.	c #011A64",
"c.	c #001B64",
"d.	c #001B65",
". . . . . . . . . . . . . . . . . . . . . . . . ",
"+ + + + + + + + + + + + + + + + + + + + + + + + ",
"@ @ @ @ @ @ # # # # # # # # # # # # # # # @ @ @ ",
"$ $ $ $ $ # % & * * * * * * * * * * * & % # $ $ ",
"= = = = # % & - ; > > > > > > > > > > - & % # = ",
", , , , % & ' ) ! ~ ~ ~ ~ ~ ~ ~ ~ ~ { ] ' & % , ",
"^ ^ ^ ^ & / ( _ ~ : : : : : : : : : ~ _ ( / & ^ ",
"< < < < [ } } | ~ 1 1 ~ 1 ~ ~ ~ 1 1 ~ | } } 2 < ",
"3 3 3 3 4 / / 5 ~ 6 6 7 6 7 7 7 6 6 ~ 8 / / 9 3 ",
"0 0 0 0 a : : b ~ c c c c c c c c c ~ b : : d 0 ",
"e e e e f g g 1 ~ h h ~ h ~ ~ ~ h h ~ 1 g g i e ",
"j j j j k l l m ~ n n 7 n 7 7 7 n n ~ m l l o j ",
"p p p p q r r s ~ t t t t t t t t t ~ s r r u p ",
"v v v v w 6 6 x ~ y y ~ y ~ ~ ~ y y ~ z 6 6 A v ",
"B B B B C 6 6 x ~ y y 7 y 7 7 7 y y ~ z 6 6 D B ",
"E E E E F 6 G x ~ y y H y H y y y y ~ z G 6 I E ",
"J J J J K m 1 L 7 ~ ~ ~ ~ ~ ~ ~ ~ ~ M 6 1 m I J ",
"N N N N O P Q R 1 7 7 7 7 7 7 7 7 7 l R Q S O N ",
"T T T T U O S Q R r r r r m m m m m R Q S O U T ",
"V V V V V U O W W W W X X X X X X Y Y Y O U Z V ",
"` ` ` ` ` ` U U U U U U U U U U U U U U U ` ` ` ",
" . . . . . . . . . . . . . . . . . . . . . . . .",
"................................................",
"+.+.+.+.+.+.+.+.+.+.+.+.+.+.+.+.+.+.+.+.+.+.+.+.",
". . . . . . . . . . . . . . . . . . . . . . . . ",
"+ + + + + + + + + + + + + + + + + + + + + + + + ",
"@ @ @ @ @ @ # # # # # # # # # # # # # # # @ @ @ ",
"$ $ $ $ $ # @.#.$.$.$.$.$.$.$.$.$.$.$.#.@.# $ $ ",
"= = = = # @.#.n R %.%.%.%.%.%.%.%.%.R n #.@.# = ",
", , , , @.#.&.r g ~ ~ ~ ~ ~ ~ ~ ~ ~ l r &.#.@., ",
"^ ^ ^ ^ #.H c *.~ : : : : : : : : : ~ z c H #.^ ",
"< < < < =.P -.;.~ 1 1 ~ 1 ~ ~ ~ 1 1 ~ P -.P >.< ",
"3 3 3 3 =.k k ,.~ 6 6 7 6 7 7 7 6 6 ~ k k k >.3 ",
"0 0 0 0 '.).).!.~ c c c c c c c c c ~ !.).).~.0 ",
"e e e e {.].].].~ h h ~ h ~ ~ ~ h h ~ ].].].^.e ",
"j j j j {./././.~ n n 7 n 7 7 7 n n ~ /././.^.j ",
"p p p p {.(.(.(.~ t t t t t t t t t ~ (.(.(._.p ",
"v v v v :.<.<.[.~ y y ~ y ~ ~ ~ y y ~ }.<.<.|.v ",
"B B B B 1.<.<.[.~ y y 7 y 7 7 7 y y ~ }.<.<.2.B ",
"E E E E 3.<.<.[.~ y y H y H y y y y ~ 4.<.<.5.E ",
"J J J J 3.(.6.7.7 ~ ~ ~ ~ ~ ~ ~ ~ ~ 8.<.6.(.5.J ",
"N N N N 9.1.]./.].7 7 7 7 7 7 7 7 7 0./.].3.9.N ",
"T T T T U 9.1.]./.(.(.(.(.7.6.6.6.6./.].a.9.U T ",
"V V V V V U 9.b.b.b.b.c.c.c.c.c.d.d.d.d.9.U Z V ",
"` ` ` ` ` ` U U U U U U U U U U U U U U U ` ` ` ",
" . . . . . . . . . . . . . . . . . . . . . . . .",
"................................................",
"+.+.+.+.+.+.+.+.+.+.+.+.+.+.+.+.+.+.+.+.+.+.+.+."};
