/* XPM */
static char * menuButtonI_xpm[] = {
"24 48 60 1",
" 	c None",
".	c #60708D",
"+	c #4C5F77",
"@	c #4A5C74",
"#	c #5D6C86",
"$	c #485A72",
"%	c #6986A8",
"&	c #6684A7",
"*	c #6A87A9",
"=	c #6785A8",
"-	c #4D5C74",
";	c #46586E",
">	c #6885A7",
",	c #36495F",
"'	c #6281A5",
")	c #44566B",
"!	c #2C3B4D",
"~	c #425369",
"{	c #2E3E51",
"]	c #3F5066",
"^	c #6C89AB",
"/	c #6583A6",
"(	c #3D4E63",
"_	c #59779A",
":	c #3C4C60",
"<	c #394A5E",
"[	c #6E8AAB",
"}	c #37485B",
"|	c #36475A",
"1	c #708CAD",
"2	c #6B88AA",
"3	c #364558",
"4	c #354457",
"5	c #334355",
"6	c #324254",
"7	c #738FAE",
"8	c #6D89AA",
"9	c #314053",
"0	c #303F52",
"a	c #2F3D4F",
"b	c #2E3C4E",
"c	c #2D3B4D",
"d	c #2B3949",
"e	c #6A86A8",
"f	c #6885A8",
"g	c #283647",
"h	c #323D4D",
"i	c #6C88A9",
"j	c #333E4D",
"k	c #273444",
"l	c #353E4C",
"m	c #6F8BAC",
"n	c #708BAC",
"o	c #718CAD",
"p	c #728EAD",
"q	c #6D89AB",
"r	c #253241",
"s	c #23303F",
"t	c #212D3C",
"u	c #1D2937",
"........................",
"++++++++++++++++++++++++",
"@@@@@@###############@@@",
"$$$$$#%&%****%===%%%%-$$",
";;;;#>%,,,,,,,,,,,,,%'#;",
"))))%%,!!%%%%%%%%%!!,%%)",
"~~~~%,!!%!!!!!!!!!%{!,%~",
"]]]]^,!!%!!%!%%%!!%!!,/]",
"((((^,!!%!!_!___!!%!!,=(",
"::::^,!!%!!!!!!!!!%!!,=:",
"<<<<[,!!%!!%!%%%!!%!!,*<",
"}}}|1,!!%!!_!___!!%!!,2}",
"33341,!!%!!!!!!!!!%!!,23",
"55567,!!%!!%!%%%!!%!!,85",
"99907,!!%!!_!___!!%!!,89",
"aaab7,!!%!!!!!!!!!%!!,[a",
"ccc![,!!_%%%%%%%%%_!!,8c",
"dddde%,!!_________!!,%fd",
"ggggh%%,,,,,,,,,,,,,%ijg",
"kkkkkle%^^[mmmnnopoq8jkk",
"rrrrrrjjjjjjjjjjjjjjjrrr",
"ssssssssssssssssssssssss",
"tttttttttttttttttttttttt",
"uuuuuuuuuuuuuuuuuuuuuuuu",
"........................",
"++++++++++++++++++++++++",
"@@@@@@###############@@@",
"$$$$$#>&%****%===%%%%-$$",
";;;;#>%,,,,,,,,,,,,,%'#;",
"))))%%,!!%%%%%%%%%!!,%%)",
"~~~~%,!!%!!!!!!!!!%{!,%~",
"]]]]^,!!%!!%!%%%!!%!!,/]",
"((((^,!!%!!_!___!!%!!,=(",
"::::^,!!%!!!!!!!!!%!!,=:",
"<<<<[,!!%!!%!%%%!!%!!,*<",
"}}}|1,!!%!!_!___!!%!!,2}",
"33341,!!%!!!!!!!!!%!!,23",
"55567,!!%!!%!%%%!!%!!,85",
"99907,!!%!!_!___!!%!!,89",
"aaab7,!!%!!!!!!!!!%!!,[a",
"ccc![,!!_%%%%%%%%%_!!,8c",
"dddde%,!!_________!!,%fd",
"ggggh%%,,,,,,,,,,,,,%ijg",
"kkkkkle%^^[mmmnnopoq8jkk",
"rrrrrrjjjjjjjjjjjjjjjrrr",
"ssssssssssssssssssssssss",
"tttttttttttttttttttttttt",
"uuuuuuuuuuuuuuuuuuuuuuuu"};
