/* XPM */
static char * menusep_xpm[] = {
"111 2 144 2",
"  	c None",
". 	c #48484D",
"+ 	c #303033",
"@ 	c #212124",
"# 	c #232326",
"$ 	c #262629",
"% 	c #28292C",
"& 	c #2B2C2F",
"* 	c #2D2E31",
"= 	c #2F3033",
"- 	c #323336",
"; 	c #343538",
"> 	c #353639",
", 	c #36373A",
"' 	c #38393C",
") 	c #393A3D",
"! 	c #3A3B3D",
"~ 	c #3B3C3E",
"{ 	c #3B3C3D",
"] 	c #3C3C3D",
"^ 	c #3C3C3E",
"/ 	c #3D3D3E",
"( 	c #3C3D3E",
"_ 	c #3B3B3D",
": 	c #3A3A3C",
"< 	c #39393B",
"[ 	c #38383A",
"} 	c #373739",
"| 	c #363638",
"1 	c #353637",
"2 	c #343536",
"3 	c #333435",
"4 	c #323334",
"5 	c #313133",
"6 	c #313132",
"7 	c #303032",
"8 	c #2F2F31",
"9 	c #2E2E30",
"0 	c #2D2D2F",
"a 	c #2C2C2E",
"b 	c #2B2B2D",
"c 	c #2A2A2C",
"d 	c #29292B",
"e 	c #28282A",
"f 	c #272829",
"g 	c #262728",
"h 	c #252627",
"i 	c #242526",
"j 	c #242426",
"k 	c #232325",
"l 	c #232426",
"m 	c #242427",
"n 	c #222225",
"o 	c #58585C",
"p 	c #5E5F63",
"q 	c #66676B",
"r 	c #6F7074",
"s 	c #77787C",
"t 	c #7E7F83",
"u 	c #85868A",
"v 	c #8D8E92",
"w 	c #949599",
"x 	c #9C9DA0",
"y 	c #A3A4A7",
"z 	c #A9ABAE",
"A 	c #B1B3B5",
"B 	c #B8B9BB",
"C 	c #BFBFC1",
"D 	c #C6C6C8",
"E 	c #CDCCCE",
"F 	c #D4D3D4",
"G 	c #DBDADB",
"H 	c #E0DFE0",
"I 	c #DFDEDE",
"J 	c #D9D8D8",
"K 	c #D3D2D2",
"L 	c #CDCDCD",
"M 	c #C6C6C6",
"N 	c #BFBFBF",
"O 	c #B8B8B8",
"P 	c #B2B2B2",
"Q 	c #AEAEAE",
"R 	c #ABABAB",
"S 	c #A7A7A7",
"T 	c #A5A5A5",
"U 	c #A3A3A3",
"V 	c #A1A1A1",
"W 	c #9F9F9F",
"X 	c #9E9E9E",
"Y 	c #9D9D9D",
"Z 	c #9C9C9C",
"` 	c #9B9B9B",
" .	c #999999",
"..	c #979797",
"+.	c #969696",
"@.	c #949494",
"#.	c #929292",
"$.	c #919191",
"%.	c #8E8E8E",
"&.	c #8C8C8C",
"*.	c #898989",
"=.	c #868686",
"-.	c #838383",
";.	c #80807F",
">.	c #7D7D7C",
",.	c #797978",
"'.	c #767675",
").	c #727271",
"!.	c #6E6E6D",
"~.	c #6C6C6B",
"{.	c #696968",
"].	c #676766",
"^.	c #656564",
"/.	c #626262",
"(.	c #616161",
"_.	c #5F5F5F",
":.	c #5D5D5D",
"<.	c #5B5B5B",
"[.	c #5A5A5A",
"}.	c #585858",
"|.	c #575757",
"1.	c #565656",
"2.	c #555455",
"3.	c #545354",
"4.	c #535353",
"5.	c #525252",
"6.	c #515151",
"7.	c #4F4F4F",
"8.	c #4E4E4E",
"9.	c #4D4D4D",
"0.	c #4C4C4D",
"a.	c #4B4B4D",
"b.	c #4C4C4E",
"c.	c #4E4E50",
"d.	c #505052",
"e.	c #515153",
"f.	c #515254",
"g.	c #505153",
"h.	c #4E4F51",
"i.	c #4D4E51",
"j.	c #4C4D50",
"k.	c #4B4C4F",
"l.	c #4A4B4F",
"m.	c #46474B",
". + @ # $ % & * = - ; > , ' ' ) ) ! ~ ~ ~ { ] ] ] ] ] ] ] ] ^ ^ ^ ^ / / ( ( ( ( { _ : : < [ } | 1 2 3 4 5 6 6 7 8 9 9 0 0 a a b c c c d d d e e e f g g h h i i j k k k k k k k k k k k k k k k k k l l l l m m # # n n n . . ",
". + o p q r s t u v w x y z A B C D E F G H I J K L M N O P Q R S T U V W W X Y Z `  . ...+.@.#.$.%.&.*.=.-.;.>.,.'.).!.~.{.].^./.(._.:.<.[.}.|.1.2.3.3.4.4.4.4.4.5.5.6.7.8.9.0.0.a.a.b.c.d.d.e.f.f.g.h.i.j.j.j.k.l.m.m.m.. . "};
