/* XPM */
static char * minimizeI_xpm[] = {
"24 48 57 1",
" 	c None",
".	c #60708D",
"+	c #4C5F77",
"@	c #4A5C74",
"#	c #5D6C86",
"$	c #485A72",
"%	c #6A87A9",
"&	c #6D89AA",
"*	c #4D5C74",
"=	c #46586E",
"-	c #6986A8",
";	c #36495F",
">	c #44566B",
",	c #2C3B4D",
"'	c #425369",
")	c #3F5066",
"!	c #6E8AAB",
"~	c #6885A8",
"{	c #3D4E63",
"]	c #3C4C60",
"^	c #718DAC",
"/	c #394A5E",
"(	c #37485B",
"_	c #36475A",
":	c #364558",
"<	c #354457",
"[	c #6F8BAC",
"}	c #334355",
"|	c #324254",
"1	c #314053",
"2	c #303F52",
"3	c #425973",
"4	c #2F3D4F",
"5	c #2E3C4E",
"6	c #2D3B4D",
"7	c #2B3949",
"8	c #6F8BAB",
"9	c #283647",
"0	c #323D4D",
"a	c #708CAB",
"b	c #333E4D",
"c	c #273444",
"d	c #353E4C",
"e	c #7590AF",
"f	c #7692B0",
"g	c #7994B1",
"h	c #7A94B1",
"i	c #7A94B2",
"j	c #7B95B2",
"k	c #7F98B5",
"l	c #7F99B5",
"m	c #7B96B3",
"n	c #7691AF",
"o	c #253241",
"p	c #23303F",
"q	c #212D3C",
"r	c #1D2937",
"........................",
"++++++++++++++++++++++++",
"@@@@@@###############@@@",
"$$$$$#%%%%%%%%%%%%%%&*$$",
"====#-%;;;;;;;;;;;;;%%#=",
">>>>&%;,,,,,,,,,,,,,;%->",
"''''&;,,,,,,,,,,,,,,,;-'",
"))))!;,,,,,,,,,,,,,,,;~)",
"{{{{!;,,,,,,,,,,,,,,,;-{",
"]]]]^;,,,,,,,,,,,,,,,;-]",
"////!;,,,,,,,,,,,,,,,;%/",
"(((_!;,,,,,,,,,,,,,,,;%(",
":::<[;,,,,,,,,,,,,,,,;%:",
"}}}|[;,,,,,,,,,,,,,,,;%}",
"1112[;,,,3[[[[[[[3,,,;%1",
"4445!;,,,3[[[[[[[3,,,;%4",
"666,!;,,,,,,,,,,,,,,,;%6",
"77778-;,,,,,,,,,,,,,;--7",
"99990--;;;;;;;;;;;;;-ab9",
"cccccdefgghiijkklllmnbcc",
"oooooobbbbbbbbbbbbbbbooo",
"pppppppppppppppppppppppp",
"qqqqqqqqqqqqqqqqqqqqqqqq",
"rrrrrrrrrrrrrrrrrrrrrrrr",
"........................",
"++++++++++++++++++++++++",
"@@@@@@###############@@@",
"$$$$$#%%%%%%%%%%%%%%&*$$",
"====#-%;;;;;;;;;;;;;%%#=",
">>>>&%;,,,,,,,,,,,,,;%->",
"''''&;,,,,,,,,,,,,,,,;-'",
"))))!;,,,,,,,,,,,,,,,;~)",
"{{{{!;,,,,,,,,,,,,,,,;-{",
"]]]]^;,,,,,,,,,,,,,,,;-]",
"////!;,,,,,,,,,,,,,,,;%/",
"(((_!;,,,,,,,,,,,,,,,;%(",
":::<[;,,,,,,,,,,,,,,,;%:",
"}}}|[;,,,,,,,,,,,,,,,;%}",
"1112[;,,,3[[[[[[[3,,,;%1",
"4445!;,,,3[[[[[[[3,,,;%4",
"666,!;,,,,,,,,,,,,,,,;%6",
"77778-;,,,,,,,,,,,,,;--7",
"99990--;;;;;;;;;;;;;-ab9",
"cccccdefgghiijkklllmnbcc",
"oooooobbbbbbbbbbbbbbbooo",
"pppppppppppppppppppppppp",
"qqqqqqqqqqqqqqqqqqqqqqqq",
"rrrrrrrrrrrrrrrrrrrrrrrr"};
