/* XPM */
static char * restoreI_xpm[] = {
"24 48 53 1",
" 	c None",
".	c #60708D",
"+	c #4C5F77",
"@	c #4A5C74",
"#	c #5D6C86",
"$	c #485A72",
"%	c #4D5C74",
"&	c #6D89AA",
"*	c #6A87A9",
"=	c #46586E",
"-	c #6B88AA",
";	c #36495F",
">	c #6986A8",
",	c #44566B",
"'	c #2C3B4D",
")	c #425369",
"!	c #3F5066",
"~	c #6E8AAB",
"{	c #3D4E63",
"]	c #3C4C60",
"^	c #718DAC",
"/	c #394A5E",
"(	c #6E8AAA",
"_	c #37485B",
":	c #2D3C4E",
"<	c #364558",
"[	c #2E3E51",
"}	c #6F8BAB",
"|	c #334355",
"1	c #2F3F52",
"2	c #6F8BAC",
"3	c #314053",
"4	c #2F3D4F",
"5	c #2D3B4D",
"6	c #2B3949",
"7	c #283647",
"8	c #333E4D",
"9	c #728EAD",
"0	c #273444",
"a	c #7B95B2",
"b	c #7D97B4",
"c	c #819AB6",
"d	c #7C96B3",
"e	c #7893B1",
"f	c #7691B0",
"g	c #353E4C",
"h	c #253241",
"i	c #23303F",
"j	c #212D3C",
"k	c #1D2937",
"l	c #718CAB",
"m	c #728DAC",
"n	c #7791AF",
"........................",
"++++++++++++++++++++++++",
"@@@###############@@@@@@",
"$$%&**************#$$$$$",
"=#-*;;;;;;;;;;;;;>>#====",
",>*;''''''''''''';*&,,,,",
")>;''''''''''''''';&))))",
"!>;''********''''';~!!!!",
"{>;''********''''';~{{{{",
"]>;''*''''''*''''';^]]]]",
"/*;''*''''''****'';(////",
"_*;':*''''''****'';~____",
"<*;'[********''*'';}<<<<",
"|*;''''1*''''''*'';2||||",
"3*;''''[*''''''*'';23333",
"4*;'''''********'';~4444",
"5*;''''''''''''''';~5555",
"6>*;''''''''''''';>^6666",
"789>;;;;;;;;;;;;;>*87777",
"008abcccccdaaaaaefg00000",
"hhh888888888888888hhhhhh",
"iiiiiiiiiiiiiiiiiiiiiiii",
"jjjjjjjjjjjjjjjjjjjjjjjj",
"kkkkkkkkkkkkkkkkkkkkkkkk",
"........................",
"++++++++++++++++++++++++",
"@@@###############@@@@@@",
"$$%&**************#$$$$$",
"=#-*;;;;;;;;;;;;;>>#====",
",>*;''''''''''''';*&,,,,",
")>;''''''''''''''';&))))",
"!>;''********''''';~!!!!",
"{>;''********''''';~{{{{",
"]>;''*''''''*''''';^]]]]",
"/*;''*''''''****'';(////",
"_*;':*''''''****'';~____",
"<*;'[********''*'';}<<<<",
"|*;''''1*''''''*'';2||||",
"3*;''''[*''''''*'';23333",
"4*;'''''********'';~4444",
"5*;''''''''''''''';~5555",
"6>*;''''''''''''';>l6666",
"78m>;;;;;;;;;;;;;>*87777",
"008abcccccdaaaaaeng00000",
"hhh888888888888888hhhhhh",
"iiiiiiiiiiiiiiiiiiiiiiii",
"jjjjjjjjjjjjjjjjjjjjjjjj",
"kkkkkkkkkkkkkkkkkkkkkkkk"};
