/* XPM */
static char * titleAM_xpm[] = {
"4 24 28 1",
" 	c None",
".	c #B9C2E1",
"+	c #B9C2E2",
"@	c #B9C3E2",
"#	c #99A2C1",
"$	c #99A3C1",
"%	c #939EBE",
"&	c #8F9ABC",
"*	c #8A96B9",
"=	c #8793B6",
"-	c #8390B5",
";	c #818EB4",
">	c #7F8CB2",
",	c #7C89B0",
"'	c #7886AF",
")	c #7684AD",
"!	c #7885AE",
"~	c #717FAA",
"{	c #6272A0",
"]	c #60709F",
"^	c #6574A3",
"/	c #6978A6",
"(	c #6D7CA8",
"_	c #717FA9",
":	c #7381AB",
"<	c #7785AE",
"[	c #9999CC",
"}	c #666699",
".++@",
"###$",
"%%%%",
"&&&&",
"****",
"====",
"----",
";;;;",
">>>>",
",,,,",
"''''",
"))))",
"!!!!",
"~~~~",
"{{{{",
"]]]]",
"^^^^",
"////",
"((((",
"____",
"::::",
"<<<<",
"[[[[",
"}}}}"};
