/* XPM */
static char * titleAR_xpm[] = {
"24 24 143 2",
"  	c None",
". 	c #B9C2E1",
"+ 	c #B9C2E2",
"@ 	c #ACB4D1",
"# 	c #9FA7C2",
"$ 	c #A3A3D9",
"% 	c #666699",
"& 	c #60708D",
"* 	c #99A2C1",
"= 	c #656598",
"- 	c #51637C",
"; 	c #4C5F77",
"> 	c #939EBE",
", 	c #5E6E89",
"' 	c #4A5C74",
") 	c #8F9ABC",
"! 	c #636596",
"~ 	c #4D5F76",
"{ 	c #485A72",
"] 	c #485A71",
"^ 	c #8A96B9",
"/ 	c #4E6078",
"( 	c #46586F",
"_ 	c #46586E",
": 	c #8793B6",
"< 	c #616393",
"[ 	c #475970",
"} 	c #44566C",
"| 	c #44556B",
"1 	c #44566B",
"2 	c #8390B5",
"3 	c #656597",
"4 	c #4E5E77",
"5 	c #425369",
"6 	c #425368",
"7 	c #818EB4",
"8 	c #586680",
"9 	c #405166",
"0 	c #3F5166",
"a 	c #3F5066",
"b 	c #7F8CB2",
"c 	c #636495",
"d 	c #505F77",
"e 	c #3E4F64",
"f 	c #3E4E63",
"g 	c #3D4F64",
"h 	c #3D4E64",
"i 	c #3D4E63",
"j 	c #7C89B0",
"k 	c #9999CC",
"l 	c #4E5C74",
"m 	c #3B4D61",
"n 	c #3C4C61",
"o 	c #3C4C60",
"p 	c #3C4D60",
"q 	c #7886AF",
"r 	c #4B5972",
"s 	c #3A4A5D",
"t 	c #394A5E",
"u 	c #39495E",
"v 	c #39495D",
"w 	c #3A4A5E",
"x 	c #7684AD",
"y 	c #45546B",
"z 	c #38475B",
"A 	c #37485B",
"B 	c #37475B",
"C 	c #7885AE",
"D 	c #394A5D",
"E 	c #354558",
"F 	c #364558",
"G 	c #717FAA",
"H 	c #4A566D",
"I 	c #334355",
"J 	c #344256",
"K 	c #334255",
"L 	c #344255",
"M 	c #6272A0",
"N 	c #39475A",
"O 	c #314153",
"P 	c #314052",
"Q 	c #324152",
"R 	c #314053",
"S 	c #324053",
"T 	c #314152",
"U 	c #60709F",
"V 	c #314051",
"W 	c #303E50",
"X 	c #2F3E50",
"Y 	c #2F3D4F",
"Z 	c #2F3E4F",
"` 	c #303D4F",
" .	c #6574A3",
"..	c #354256",
"+.	c #2D3C4C",
"@.	c #2D3C4D",
"#.	c #2D3B4D",
"$.	c #2D3B4C",
"%.	c #6978A6",
"&.	c #313E50",
"*.	c #2B394B",
"=.	c #2B394A",
"-.	c #2B3A4A",
";.	c #2B3949",
">.	c #6D7CA8",
",.	c #626394",
"'.	c #414D63",
").	c #293747",
"!.	c #2A3747",
"~.	c #293647",
"{.	c #293748",
"].	c #283647",
"^.	c #717FA9",
"/.	c #404B62",
"(.	c #273545",
"_.	c #273444",
":.	c #273445",
"<.	c #263445",
"[.	c #273544",
"}.	c #7381AB",
"|.	c #626293",
"1.	c #343F53",
"2.	c #253341",
"3.	c #243242",
"4.	c #253242",
"5.	c #253241",
"6.	c #243241",
"7.	c #7785AE",
"8.	c #384257",
"9.	c #23303F",
"0.	c #232F3F",
"a.	c #222F3F",
"b.	c #23303E",
"c.	c #232F3E",
"d.	c #22303F",
"e.	c #313D4F",
"f.	c #202E3C",
"g.	c #202D3D",
"h.	c #212D3C",
"i.	c #212E3C",
"j.	c #202D3C",
"k.	c #3E485E",
"l.	c #1D2937",
". + . . + . . + . . + . . + . . . . @ # $ $ % & ",
"* * * * * * * * * * * * * * * * * * $ $ % = - ; ",
"> > > > > > > > > > > > > > > > > $ % % , ' ' ' ",
") ) ) ) ) ) ) ) ) ) ) ) ) ) ) ) $ % ! ~ { ] { { ",
"^ ^ ^ ^ ^ ^ ^ ^ ^ ^ ^ ^ ^ ^ ^ $ % % / ( ( _ _ _ ",
": : : : : : : : : : : : : : $ % < [ } | 1 | 1 1 ",
"2 2 2 2 2 2 2 2 2 2 2 2 2 $ % 3 4 5 5 5 6 5 5 5 ",
"7 7 7 7 7 7 7 7 7 7 7 7 7 $ % 8 9 9 9 0 9 9 a a ",
"b b b b b b b b b b b b $ % c d e f g e h f i i ",
"j j j j j j j j j j j k % % l m n o n o o p o o ",
"q q q q q q q q q q q k % % r s t u v s w s t t ",
"x x x x x x x x x x k % % y z z A B B B z A A A ",
"C C C C C C C C C C k % % D E E F E E F E F F F ",
"G G G G G G G G G k % % H I I J K K I K L K I I ",
"M M M M M M M M M k % % N O P Q R S P P T R R R ",
"U U U U U U U U U k % V W X X Y X Z Y X X ` Y Y ",
" . . . . . . . .k % % ..+.@.@.#.$.#.#.@.@.#.#.#.",
"%.%.%.%.%.%.%.k % % &.*.=.=.=.-.=.=.=.=.=.=.;.;.",
">.>.>.>.>.>.k % ,.'.).!.).~.).).).~.{.~.~.).].].",
"^.^.^.^.^.k % % /.(.(._._._._.:._.:.<._._.[._._.",
"}.}.}.}.k % |.1.2.3.4.5.4.4.6.5.4.5.4.3.3.6.5.5.",
"7.k k k % % 8.9.0.a.b.0.0.b.c.a.0.9.c.0.d.c.9.9.",
"k % % % e.f.g.h.h.h.h.h.h.h.i.h.h.j.j.j.j.h.h.h.",
"% k.l.l.l.l.l.l.l.l.l.l.l.l.l.l.l.l.l.l.l.l.l.l."};
