/* XPM */
static char * stick_toggled_active_xpm[] = {
"20 23 6 1",
" 	c None",
".	c #000000",
"+	c #010003",
"@	c #000001",
"#	c #FFFFFF",
"$	c #C3C7CB",
"                    ",
"                    ",
"                    ",
"....................",
".+@.................",
"....................",
"....................",
"....................",
"....................",
"....................",
"....................",
"........####........",
"........#..#$.......",
"........####$.......",
".........$$$$.......",
"....................",
"....................",
"....................",
"....................",
"....................",
"....................",
"....................",
"...................."};
