/* XPM */
static char * stick_toggled_inactive_xpm[] = {
"20 23 11 1",
" 	c None",
".	c #000000",
"+	c #0D0018",
"@	c #06000C",
"#	c #030005",
"$	c #010002",
"%	c #040007",
"&	c #010003",
"*	c #000001",
"=	c #FFFFFF",
"-	c #C3C7CB",
"                    ",
"                    ",
"                    ",
"....................",
".+@#$...............",
".%&*................",
".**.................",
"....................",
"....................",
"....................",
"....................",
"........====........",
"........=..=-.......",
"........====-.......",
".........----.......",
"....................",
"....................",
"....................",
"....................",
"....................",
"....................",
"....................",
"...................."};
