/* XPM */
static char * title_1_active_xpm[] = {
"8 23 7 1",
" 	c None",
".	c #000000",
"+	c #C3C7CB",
"@	c #000001",
"#	c #010002",
"$	c #010003",
"%	c #020004",
"........",
"++++++++",
"++++++++",
"........",
"@.......",
"........",
"........",
"........",
"........",
"........",
"........",
"........",
"........",
".....@#@",
"....@@#$",
"....@#%%",
".....@##",
"......@@",
"........",
"........",
"........",
"........",
"........"};
