/* XPM */
static char * top_right_active_xpm[] = {
"23 23 5 1",
" 	c None",
".	c #000000",
"+	c #C3C7CB",
"@	c #000001",
"#	c #010002",
".......................",
".+++++++++++++++++++++.",
".+++++++++++++++++++++.",
"....................++.",
"....................++.",
"....................++.",
"....................++.",
"....................++.",
"....................++.",
"....................++.",
"....................++.",
"....................++.",
"....................++.",
"....................++.",
"....................++.",
"....................++.",
"....................++.",
"....................++.",
"....................++.",
"....................++.",
"......@@............++.",
"...@#@@@............++.",
"......................."};
