/* XPM */
static char * top_left_active_xpm[] = {
"23 23 9 1",
" 	c None",
".	c #000000",
"+	c #C3C7CB",
"@	c #0A0013",
"#	c #040008",
"$	c #010002",
"%	c #000001",
"&	c #030006",
"*	c #020005",
".......................",
".+++++++++++++++++++++.",
".+++++++++++++++++++++.",
".++....................",
".++.@#$$%............%$",
".++.&$%................",
".++.%..................",
".++....................",
".++....................",
".++....................",
".++....................",
".++....................",
".++....................",
".++....................",
".++....................",
".++....................",
".++....................",
".++....................",
".++....................",
".++...................%",
".++...................$",
".++..................%*",
"......................."};
