/* XPM */
static char * icewm_xpm[] = {
"72 28 209 2",
"  	c None",
". 	c #627FAB",
"+ 	c #728CB3",
"@ 	c #748EB6",
"# 	c #7590B7",
"$ 	c #7A93B9",
"% 	c #7D94BA",
"& 	c #7E96BA",
"* 	c #8098BD",
"= 	c #6D88B1",
"- 	c #5C7AA7",
"; 	c #6885AF",
"> 	c #6784AD",
", 	c #6986B0",
"' 	c #6F8BB3",
") 	c #607DA9",
"! 	c #6581AC",
"~ 	c #6682AC",
"{ 	c #6F7EAE",
"] 	c #88082B",
"^ 	c #750423",
"/ 	c #6C709F",
"( 	c #617EAA",
"_ 	c #5977A4",
": 	c #55729E",
"< 	c #5E7BA9",
"[ 	c #6377AC",
"} 	c #4C0014",
"| 	c #540018",
"1 	c #4F6B94",
"2 	c #536F9B",
"3 	c #54719D",
"4 	c #526F9A",
"5 	c #5674A1",
"6 	c #5A78A5",
"7 	c #4F6C96",
"8 	c #49648B",
"9 	c #506D97",
"0 	c #4B618A",
"a 	c #5D5692",
"b 	c #4A0012",
"c 	c #500015",
"d 	c #5B5780",
"e 	c #48628A",
"f 	c #4B658C",
"g 	c #4C6790",
"h 	c #4B668E",
"i 	c #4E6992",
"j 	c #486188",
"k 	c #455C82",
"l 	c #3C5374",
"m 	c #3D5477",
"n 	c #40587A",
"o 	c #494C78",
"p 	c #60021C",
"q 	c #4F0015",
"r 	c #520016",
"s 	c #480012",
"t 	c #476086",
"u 	c #ECF4FE",
"v 	c #C4D1E4",
"w 	c #E9F0FB",
"x 	c #435B80",
"y 	c #425A7F",
"z 	c #41597D",
"A 	c #394E6E",
"B 	c #47456C",
"C 	c #40000F",
"D 	c #540017",
"E 	c #3C000E",
"F 	c #40567E",
"G 	c #3B5273",
"H 	c #3A5072",
"I 	c #354968",
"J 	c #354B6B",
"K 	c #344867",
"L 	c #3D0113",
"M 	c #420010",
"N 	c #3E000E",
"O 	c #374D6D",
"P 	c #364C6C",
"Q 	c #324562",
"R 	c #304361",
"S 	c #334665",
"T 	c #374360",
"U 	c #483958",
"V 	c #4B0118",
"W 	c #440010",
"X 	c #97ABCA",
"Y 	c #96AAC9",
"Z 	c #A4B7D2",
"` 	c #CBD7E9",
" .	c #92A7C8",
"..	c #ADBED7",
"+.	c #2F425F",
"@.	c #3D3A5F",
"#.	c #460011",
"$.	c #3C0113",
"%.	c #3A4F74",
"&.	c #BCCAE0",
"*.	c #B4C4DC",
"=.	c #2E415C",
"-.	c #30415F",
";.	c #453261",
">.	c #390112",
",.	c #D9E3F2",
"'.	c #D7E0F0",
").	c #EAF1FC",
"!.	c #2C3F5A",
"~.	c #2D405B",
"{.	c #33405D",
"].	c #40375E",
"^.	c #E2EAF6",
"/.	c #829ABD",
"(.	c #8CA3C4",
"_.	c #2A3C56",
":.	c #142032",
"<.	c #1C2C41",
"[.	c #152133",
"}.	c #162235",
"|.	c #172437",
"1.	c #1A283C",
"2.	c #213048",
"3.	c #413259",
"4.	c #5E021A",
"5.	c #3A000D",
"6.	c #62021C",
"7.	c #C0CFE3",
"8.	c #A3B6D1",
"9.	c #DFE9F6",
"0.	c #23334B",
"a.	c #273750",
"b.	c #24354E",
"c.	c #0F1A2A",
"d.	c #192639",
"e.	c #0E1727",
"f.	c #0D1626",
"g.	c #0A1421",
"h.	c #0E1929",
"i.	c #1B293D",
"j.	c #343B56",
"k.	c #4E2753",
"l.	c #45021F",
"m.	c #3A3E6D",
"n.	c #7A0B35",
"o.	c #3B456F",
"p.	c #C2D0E4",
"q.	c #C8D5E8",
"r.	c #24344D",
"s.	c #08111F",
"t.	c #08101C",
"u.	c #3E315E",
"v.	c #300117",
"w.	c #324362",
"x.	c #32426C",
"y.	c #42021D",
"z.	c #212F47",
"A.	c #323F5A",
"B.	c #552E58",
"C.	c #29021D",
"D.	c #4A0014",
"E.	c #350219",
"F.	c #35486B",
"G.	c #DCE5F4",
"H.	c #B8C6DE",
"I.	c #101B2C",
"J.	c #091320",
"K.	c #070F1B",
"L.	c #3A3A5E",
"M.	c #330322",
"N.	c #3A3E68",
"O.	c #5F0322",
"P.	c #460118",
"Q.	c #41021D",
"R.	c #BAC9DF",
"S.	c #D3DEEF",
"T.	c #060E1A",
"U.	c #2E3E59",
"V.	c #432F53",
"W.	c #3C0223",
"X.	c #39416F",
"Y.	c #59021E",
"Z.	c #300116",
"`.	c #304264",
" +	c #293B55",
".+	c #283A54",
"++	c #BFCDE2",
"@+	c #AABCD6",
"#+	c #353C5B",
"$+	c #390115",
"%+	c #344767",
"&+	c #324269",
"*+	c #403763",
"=+	c #430222",
"-+	c #44021E",
";+	c #370429",
">+	c #1F2D43",
",+	c #162336",
"'+	c #232B41",
")+	c #2E3752",
"!+	c #323C58",
"~+	c #2F4260",
"{+	c #212F49",
"]+	c #1C2943",
"^+	c #131D2F",
"/+	c #111C2D",
"(+	c #19273B",
"_+	c #223249",
":+	c #283952",
"                                                                                                                                                ",
"                                                                                                                                                ",
". + + + + + + + + + + + @ @ @ @ @ @ # $ $ $ $ % % % & & & & & * * * * * * * * * * * * * * * * * * * * * & & & & & & % = - -                     ",
"; ; ; ; ; > > , , ; ; ; ; , ; ; , , , , , , , = = = = + + + + + + + + + + + + + + + + + + + + + + + + ' ' ' ' = = , , + + , ) )                 ",
"! ! ! ! ! ! ! ~ { ] ^ / - - - - - - - ) ) ) ( ( ( ( ( ( ( ( ( ( ! ! ! ! ! ! ~ ; ~ ~ ~ ! ! ! ! ! ! ! ( ( ( ( ( ( ( ) ) ) ) ) ) - _ :             ",
"- - - - - - - < [ } } | 1 1 2 2 3 4 2 3 3 3 : 5 5 5 5 5 5 5 5 5 5 _ - - 6 _ 5 5 5 5 5 5 5 5 5 5 5 5 5 5 5 : : : 3 2 2 4 4 4 7 4 7 4 4           ",
"8 8 8 8 9 8 8 0 a b } c d e e f g h g i i i h g g g g i 1 1 7 1 7 4 2 2 2 4 7 7 7 7 1 1 1 1 7 7 1 1 1 1 1 1 g g g h h h h h h f e j k j         ",
"l m l n m n m o p q r q s t t t t k t t j h u u u v h h h h w u u u i g g g h h h f f j e e f e j j t t t t k k k x x x x x y z z n n z z       ",
"A A A A A A A B C r D s E F n z z n n n y x u u u u k k z n u u u u t t k x x x x x x x y y y z n m n n n n m m l l l G G G H H H H A A A H     ",
"I J I K I I K L M M r D N E z z z l l H n y u u u u t z n _ u u u u z n n n n z z z n n n n m z y z l l G H H H A A A A A A A O P P P P J P     ",
"Q R Q S Q T U V r M r D W E H H G G H H G l u u u u @ H H X u u u u H H H Y u u u Z H H 2 u u % ` u u ' H 2 u u  .O n u u ..J J J J J I I K P   ",
"R +.R R R @.} D D r r r D #.$.%.H H A A A A u u u u &.A A w u u u u A A Z u u u u u Y A 1 u u u u u u u x 4 u u Y A x u u *.O J I I K S K Q K   ",
"+.=.+.+.-.;.} r r r c c r b >.A A A A A A A u u u u u A A u u u u u A l u u ,.m '.u u A 7 u u ).x Y u u # l u u @ !.Q u u X =.R S I J I Q R Q   ",
"~.~.~.{.].W r c q M M q c r W >.A A A A O O u u v u u n 5 u u ^.u u O + u u - P /.u u x 1 u u (.R A u u + _.u u t :.<.u u , [.[.}.|.1.2.!.+.S   ",
"~.!.+.3.4.} r q C 5.6.b q r q } b A A O A A u u v 7.u % 8.u X 9.u u O Y u u u u u u u 5 i u u + 0.a.u u ~ b.u u z c.d.u u ) e.f.g.g.g.g.g.h.i.  ",
"!.!.j.k.#.r c q r l.m.n.q r q b s o.O O P O u u p.; u q.u u h 9.u u O X u u u 9.9.^.^.e t u u 5 d.<.u u ( r.u u n h.d.u u ) f.f.g.g.g.g.s.t.f.  ",
"!.!.u.p b r r b v.Q w.x.} r M E b y.P P J J u u 7.A u u u u P ^.u u P $ u u ' O O P P J z u u 1 :.d.u u ( z.u u g h.|.u u - g.g.g.g.g.s.s.s.e.  ",
"=.A.B.W c r q s C.K K Q D.q q s E E.F.I I I u u 7.I G.u u H.I G.u u I A u u u l J 4 ' ~.J u u f I.d.u u ( I.u u q.:.P u u - g.g.g.J.s.s.s.K.f.  ",
"~.L.r q q #.s M.Q Q K K N.O.P.q } D Q.Q Q Q u u R.R @ u u 4 R S.u u R R Y u u u u u u 2.!.u u j I.|.u u ) e.X u u u u u u 6 g.g.J.s.s.s.t.T.c.  ",
"U.V.s s } W.Q Q Q K K K I K X.Y.b #.Z.`.R R u u .. +R u u .+b.q.u u 2.2.z.7 u u u ++Q }.b.u u t c.|.u u ( e.[.@+u u .+..u _ J.s.s.s.s.K.T.t.<.  ",
"#+c M $+R J J J J J J J I I %+&+*+=+-+;+ +.+b.2.2.z.z.>+<.<.<.<.i.1.d.d.d.|.|.,+[.:.I.I.c.c.h.h.h.h.e.e.f.f.f.g.g.g.g.g.J.s.s.s.s.K.K.T.T.e.    ",
"|.'+)+!+~.~+Q Q Q S Q Q Q Q R +.!.b.{+]+d.[.[.[.:.:.:.:.:.:.^+/+/+/+I.I.I.c.c.c.c.c.c.c.h.e.e.e.e.e.f.f.g.g.g.g.g.g.J.J.s.s.s.K.K.T.T.T.s.|.    ",
"c.^+(+2._+b..+.+.+.+.+.+.+.+:+2.<.d.}.[.[.[.[.[.[.}.[.[.[.:.:.:.:.^+^+/+/+/+I.I.I.c.c.c.h.h.e.e.e.e.f.f.g.g.g.g.J.s.s.s.s.K.K.T.T.T.T.K.I.      ",
"c.c./+[.,+d.1.i.<.<.<.<.i.i.d.|.[.:.:.:.:.:.:.:.:.:.:.:.:.:.^+^+/+/+I.I.I.c.c.c.c.h.h.e.e.e.f.f.f.g.g.g.g.J.J.s.s.s.s.K.T.T.T.T.T.T.K.c.        ",
"c.c.c.c.I./+^+:.:.:.:.:.:.:.:.^+^+^+^+^+:.^+^+^+^+^+/+/+/+I.I.I.c.c.c.c.c.c.h.e.e.e.e.f.f.f.g.g.g.g.g.J.s.s.s.s.t.K.T.T.T.T.T.T.T.K.c.          ",
"h.c.c.c.c.c.c.c.c.c.I.I.I.I.I.I.I.I.I.I./+I.I.I.I.c.c.c.c.c.c.c.c.h.h.e.e.e.f.f.f.g.g.g.g.g.g.g.J.J.s.s.s.t.K.T.T.T.T.T.T.T.T.T.g.:.            ",
"h.h.h.h.c.c.c.c.c.c.c.c.c.c.c.c.c.c.c.c.c.c.c.c.c.h.h.h.h.e.e.e.e.e.f.f.f.f.g.g.g.g.g.g.g.J.s.s.s.s.s.K.T.T.T.T.T.T.T.T.T.T.g.^+                ",
"e.e.e.e.e.e.h.h.h.h.h.h.c.c.c.c.c.c.h.h.h.e.e.e.e.e.e.e.e.e.f.f.f.f.g.g.g.g.g.g.g.J.s.s.s.s.s.s.K.T.T.T.T.T.T.T.T.T.s.I.d.<.                    "};
