/* XPM */
static char * start_xpm[] = {
"58 26 86 1",
" 	c None",
".	c #000316",
"+	c #000012",
"@	c #000114",
"#	c #000B1F",
"$	c #10233C",
"%	c #1A2D47",
"&	c #213652",
"*	c #233854",
"=	c #253A56",
"-	c #273C58",
";	c #03162B",
">	c #000D23",
",	c #1C324D",
"'	c #293F5A",
")	c #1F3450",
"!	c #162943",
"~	c #071A30",
"{	c #1A304B",
"]	c #29415E",
"^	c #2B4361",
"/	c #2D4563",
"(	c #12253F",
"_	c #000518",
":	c #304765",
"<	c #324967",
"[	c #00091C",
"}	c #344B69",
"|	c #506B8D",
"1	c #5E7CA1",
"2	c #3F5878",
"3	c #FFFFFF",
"4	c #567294",
"5	c #364D6B",
"6	c #839CBC",
"7	c #6783A5",
"8	c #415A7A",
"9	c #7C96B6",
"0	c #BFCCDD",
"a	c #496587",
"b	c #87A1C0",
"c	c #6381A5",
"d	c #3C5676",
"e	c #455E7E",
"f	c #476181",
"g	c #496383",
"h	c #3A5474",
"i	c #3A5270",
"j	c #435C7C",
"k	c #A3B8D4",
"l	c #38506D",
"m	c #89A3C3",
"n	c #547092",
"o	c #8DA5C3",
"p	c #7A94B4",
"q	c #9AB2CF",
"r	c #94ABC9",
"s	c #0B1F38",
"t	c #A1B6D2",
"u	c #6985A7",
"v	c #7E98B8",
"w	c #5A789C",
"x	c #859EBE",
"y	c #0D213A",
"z	c #4B6789",
"A	c #E8EEF5",
"B	c #D1DCEB",
"C	c #B8C9DF",
"D	c #58769A",
"E	c #6D89AB",
"F	c #001227",
"G	c #000003",
"H	c #B7C7DE",
"I	c #9CB4D2",
"J	c #587496",
"K	c #001025",
"L	c #6B87A9",
"M	c #0B1F34",
"N	c #92A9C7",
"O	c #748FB2",
"P	c #001328",
"Q	c #001126",
"R	c #04172C",
"S	c #0C2039",
"T	c #0F223B",
"U	c #11243E",
"                                                          ",
"    .++@@@@@@@@@@@@@@@@@@@@@@@@@@@@@@@@@@@@@@@@@@@@@@.    ",
"   #$%&**==========================================-=&;   ",
" .>%,**=--------------------------------------------')!~  ",
" .!{=]]]]^^^^^^^^^^^^^^^^^^^^^^^^^^^^^^^^^^^^^^^^^^^/-{(. ",
" _,='/::::::::::::::::::::::::::::::::::::::::::::::<]=,_ ",
" [&-^::::<<<<<<<<<<<<<<<<<<<<<<<<<<<<<<<<<<<<<<<<<<<<^-&[ ",
" [*-]:::<<<<<<<<::::::<<<:/:<<<<<<<<<<<<<<<<<<<<<<<<<]-*[ ",
" [='/::<<<<<<<<<}<<<<<:<:|1|:<<<<<<<<<<<<<<<<<<<<<<<</'=[ ",
" >-]:<<}}}}}}}}233333345]637-}<://:}}}<<}}}}<<}}}}}}}:]-> ",
" >-]:}}}}}}}}}}83397033a*b3c=}defg8::hddi}}}dd8}}}}}}:]-> ",
" >-]<}}}}}}}}}}j3k]&lm3n=b3c-<o3333pj<pqji}nrmsi}}}}}<]-> ",
" >-]<}}}}}}}}}}e3t&*2q38,b3c-<u%!/v3w&p3x-]r3wyl}}}}}<]-> ",
" >-]<}}55555555e33qk33t{%b3c-5]zuvq3w=ek3-833>h555555<]-> ",
" >']<5555555555e333ABc;,/b3c-dC33333D-^b31p3EFi555555<]'> ",
" >']<5555555555e3k![[s5h]b3c-73qG~w3w=5|33H3Fh5555555<]'> ",
" >'^<5llllllllle3I<88dll^b31-J3333334=i/r33vFdlllllll<]'> ",
" K]:}liiiiiiiii87z,diiii}ww<]iwp6z8u:-d:L33Mliiiiiiii5/]K ",
" F]:}iiiiiiiiiii}::hiiiiii<:5i:5^'^}:5i}N39;diiiiiiii}:]F ",
" K]:}iiiiiiiiiiiihhiiiiiiihhiiiiihhihhlaO6y5iiiiiiiii}:]K ",
" F]:}iiiiiiiiiiiiiiiiiiiiiiiiiiiiiiiiiie:^%hiiiiiiiii}:]F ",
" >]:}iiiiiiiiiiiiiiiiiiiiiiiiiiiiiiiiiiihd2iiiiiiiiii}:]> ",
" #::}iiiiiiiiiiiiiiiiiiiiiiiiiiiiiiiiiiiiiiiiiiiiiiii}:<# ",
" >,]/<5liiiiiiiiiiiiiiiiiiiiiiiiiiiiiiiiiiiiiiiiiiiii:],> ",
"  P$*]:<}}}}}}}}}}}}}}}}}}}}}}}}}}}}}}}}}}}}}}}}}}}5}/(Q  ",
"    RSTUUUUUUUUUUUUU((((((((((((((((((((((((((((((((((    "};
