/* XPM */
static char * toolbuttonbg_xpm[] = {
"30 34 93 2",
"  	c None",
". 	c #424A55",
"+ 	c #575F67",
"@ 	c #5B646B",
"# 	c #2C3543",
"$ 	c #3B4252",
"% 	c #757F87",
"& 	c #68767F",
"* 	c #66747E",
"= 	c #67757E",
"- 	c #66747D",
"; 	c #66757D",
"> 	c #66757E",
", 	c #67747E",
"' 	c #64727C",
") 	c #65727C",
"! 	c #64717C",
"~ 	c #63707A",
"{ 	c #63707B",
"] 	c #62707B",
"^ 	c #62707A",
"/ 	c #626F7A",
"( 	c #636F7A",
"_ 	c #616E79",
": 	c #616D79",
"< 	c #606E79",
"[ 	c #606E78",
"} 	c #616E78",
"| 	c #616D78",
"1 	c #606D79",
"2 	c #606D78",
"3 	c #5E6C77",
"4 	c #5F6B77",
"5 	c #5F6C78",
"6 	c #5E6B78",
"7 	c #5F6C77",
"8 	c #5F6B78",
"9 	c #5E6B77",
"0 	c #5D6A75",
"a 	c #5C6A75",
"b 	c #5D6A76",
"c 	c #5C6976",
"d 	c #5C6A76",
"e 	c #5D6976",
"f 	c #5C6975",
"g 	c #5D6975",
"h 	c #5A6874",
"i 	c #5B6874",
"j 	c #5A6774",
"k 	c #5B6774",
"l 	c #5B6875",
"m 	c #5B6775",
"n 	c #5A6775",
"o 	c #596573",
"p 	c #586572",
"q 	c #596572",
"r 	c #596672",
"s 	c #596673",
"t 	c #586573",
"u 	c #576371",
"v 	c #576472",
"w 	c #566371",
"x 	c #576372",
"y 	c #576471",
"z 	c #566370",
"A 	c #576271",
"B 	c #566271",
"C 	c #576370",
"D 	c #55616F",
"E 	c #556170",
"F 	c #54616F",
"G 	c #55606F",
"H 	c #546070",
"I 	c #546170",
"J 	c #535F6E",
"K 	c #414F5F",
"L 	c #3C4A5C",
"M 	c #3A4659",
"N 	c #384555",
"O 	c #374354",
"P 	c #364051",
"Q 	c #333C4F",
"R 	c #31394C",
"S 	c #2D3748",
"T 	c #2D3648",
"U 	c #252D3F",
"V 	c #262E3F",
"W 	c #272E3F",
"X 	c #091424",
"Y 	c #081424",
"Z 	c #131D2F",
"` 	c #121C2E",
" .	c #1E2436",
". . . . . . . . . . . . . . . . . . . . . . . . . . . . . . ",
"+ + + + + + + + + + + + + + + + + + + + + + + + + + + + + + ",
"@ @ @ @ @ @ @ @ @ @ @ @ @ @ @ @ @ @ @ @ @ @ @ @ @ @ @ @ @ @ ",
"# # # # # # # # # # # # # # # # # # # # # # # # # # # # # # ",
"$ $ $ $ $ $ $ $ $ $ $ $ $ $ $ $ $ $ $ $ $ $ $ $ $ $ $ $ $ $ ",
"% % % % % % % % % % % % % % % % % % % % % % % % % % % % % % ",
"& & & & & & & & & & & & & & & & & & & & & & & & & & & & & & ",
"* = * - * * * ; - - * * - > - ; , * * - * * * * - - , * - * ",
"' ' ) ' ' ) ' ' ' ' ) ' ' ) ' ' ' ' ' ' ) ' ' ' ' ' ' ! ! ' ",
"~ ~ { { ] ~ ] ] ^ ] ^ ] { ] ] ] ^ / ] { ( / ^ ^ { ^ ^ ^ ] / ",
"_ : < _ [ < < _ } | < < [ < 1 [ : | _ : _ < < [ 1 _ 1 2 1 _ ",
"3 4 5 5 6 7 7 7 7 4 3 3 3 8 9 7 3 8 8 7 9 4 7 9 3 3 3 3 3 9 ",
"0 a b a c d e c c f c a e c e b d c e c e d 0 c b e g g f f ",
"h i j j k j k l j j j j k j j i m n j k h j j i j j j k j k ",
"o o o p o o q r q s o s s o o p o t q t q q q o t q o q p o ",
"u v u w u x y u u u y u u w u u u u u u u w z u A B w B C w ",
"D E E E D D E E E F E G H I G D G F H E D E I D H E I F D D ",
"J J J J J J J J J J J J J J J J J J J J J J J J J J J J J J ",
"J J J J J J J J J J J J J J J J J J J J J J J J J J J J J J ",
"J J J J J J J J J J J J J J J J J J J J J J J J J J J J J J ",
"K K K K K K K K K K K K K K K K K K K K K K K K K K K K K K ",
"L L L L L L L L L L L L L L L L L L L L L L L L L L L L L L ",
"M M M M M M M M M M M M M M M M M M M M M M M M M M M M M M ",
"N N N N N N N N N N N N N N N N N N N N N N N N N N N N N N ",
"O O O O O O O O O O O O O O O O O O O O O O O O O O O O O O ",
"P P P P P P P P P P P P P P P P P P P P P P P P P P P P P P ",
"Q Q Q Q Q Q Q Q Q Q Q Q Q Q Q Q Q Q Q Q Q Q Q Q Q Q Q Q Q Q ",
"R R R R R R R R R R R R R R R R R R R R R R R R R R R R R R ",
"S S S S S S S S S S S S S S S S S S S S S S S S S S S S S S ",
"T T T T T T T T T T T T T T T T T T T T T T T T T T T T T T ",
"U U U U U U V V W W U U U U U U U U U U U U U U U U U U U U ",
"X X X X Y Y X X X X Y Y X X X X X X X X X X X X X X X X X X ",
"Z Z Z Z Z Z Z Z Z Z ` ` Z Z Z Z Z Z Z Z Z Z Z Z Z Z Z Z Z Z ",
" . . . . . . . . . . . . . . . . . . . . . . . . . . . . . ."};
