/* XPM */
static char * workspacebuttonactive_xpm[] = {
"30 34 55 1",
" 	c None",
".	c #424A55",
"+	c #575F67",
"@	c #5B646B",
"#	c #2C3543",
"$	c #3B4252",
"%	c #757F87",
"&	c #828C95",
"*	c #000003",
"=	c #7B868E",
"-	c #66737C",
";	c #2B3748",
">	c #2A3647",
",	c #626D77",
"'	c #2E3A4D",
")	c #303D51",
"!	c #5E6670",
"~	c #323F53",
"{	c #758088",
"]	c #2D394C",
"^	c #313E52",
"/	c #68767F",
"(	c #67747E",
"_	c #63707B",
":	c #616E7A",
"<	c #5F6B78",
"[	c #5C6876",
"}	c #586473",
"|	c #2C3849",
"1	c #293444",
"2	c #303C50",
"3	c #283343",
"4	c #535F6E",
"5	c #414F5F",
"6	c #3C4A5C",
"7	c #3A4659",
"8	c #384555",
"9	c #374354",
"0	c #364051",
"a	c #333C4F",
"b	c #31394C",
"c	c #2D3748",
"d	c #293546",
"e	c #394960",
"f	c #38485F",
"g	c #2D3648",
"h	c #222B39",
"i	c #3E4E67",
"j	c #3D4D66",
"k	c #252D3F",
"l	c #091424",
"m	c #081424",
"n	c #131D2F",
"o	c #121C2E",
"p	c #1E2436",
"..............................",
"++++++++++++++++++++++++++++++",
"@@@@@@@@@@@@@@@@@@@@@@@@@@@@@@",
"##############################",
"$$$$$$$$$$$$$$$$$$$$$$$$$$$$$$",
"%&**************************=%",
"-*;;>>>>>>>>>>>>>>>>>>>>>>;;*-",
",*'''))))))))))))))))))))'''*,",
"!*'~~~~~~~~~~~~~~~~~~~~~~~~'*!",
"{*]~~^~~^~~~~~~~~~~~~^~~^~~]*{",
"/*]~~~~~~~~~~~~~~~~~~~~~~~~]*/",
"(*]~~~~~~~~~~~~~~~~~~~~~~~~]*(",
"_*]~^~~~~~~~~~~~~~~~~~~~~^~]*_",
":*]~~~~~~~~~~~~~~~~~~~~~~~~]*:",
"<*]~^~~~~~~~~~~~~~~~~~~~~^~]*<",
"[*]~~~~~~~~~~~~~~~~~~~~~~~~]*[",
"}*|^))))))))))))))))))))))^|*}",
"}*12''''''''''''''''''''''21*}",
"}*3''']]']''']'''''']']]'''3*}",
"4*3''''''''''''''''''''''''1*4",
"5*3''''''''''''''''''''''''3*5",
"6*3''''''''''''''''''''''''3*6",
"7*3''''''''''''''''''''''''3*7",
"8*3''''''''''''''''''''''''3*8",
"9*3''''''''''''''''''''''''3*9",
"0*3''''''''''''''''''''''''3*0",
"a*3''''''''''''''''''''''''1*a",
"b*3']]]]]]]]]]]]]]]]]]]]]]'1*b",
"c*defeffeffeeeffeeeffeffefed*c",
"g*hijjjjjjjjjjjjjjjjjjjjjjih*g",
"kk**************************kk",
"llllmmllllmmllllllllllllllllll",
"nnnnnnnnnnoonnnnnnnnnnnnnnnnnn",
"pppppppppppppppppppppppppppppp"};
