/* XPM */
static char * closeO_xpm[] = {
"24 48 222 2",
"  	c None",
". 	c #60708D",
"+ 	c #4C5F77",
"@ 	c #4A5C74",
"# 	c #5D6C86",
"$ 	c #485A72",
"% 	c #7B413F",
"& 	c #6D2D2C",
"* 	c #570F0F",
"= 	c #46586E",
"- 	c #9A4742",
"; 	c #C9746E",
"> 	c #E5928B",
", 	c #E9988F",
"' 	c #783F3D",
") 	c #44566B",
"! 	c #98443E",
"~ 	c #E38C84",
"{ 	c #E58F86",
"] 	c #425369",
"^ 	c #732E2D",
"/ 	c #C4655E",
"( 	c #E18279",
"_ 	c #3F5066",
": 	c #631312",
"< 	c #D86F66",
"[ 	c #DC7369",
"} 	c #DB6F65",
"| 	c #FFFFFF",
"1 	c #FFF4F2",
"2 	c #DB7066",
"3 	c #622529",
"4 	c #3D4E63",
"5 	c #681413",
"6 	c #D66559",
"7 	c #D1574B",
"8 	c #FFEBE7",
"9 	c #FFF0ED",
"0 	c #D56255",
"a 	c #662325",
"b 	c #3C4C60",
"c 	c #6D1514",
"d 	c #D35A4E",
"e 	c #CF4E41",
"f 	c #BF2615",
"g 	c #FFE2E2",
"h 	c #FFEDEB",
"i 	c #D05346",
"j 	c #682022",
"k 	c #394A5E",
"l 	c #731716",
"m 	c #D05044",
"n 	c #CF4C3F",
"o 	c #C7382B",
"p 	c #B9120F",
"q 	c #FFFAF8",
"r 	c #6C1E20",
"s 	c #37485B",
"t 	c #771717",
"u 	c #CB473A",
"v 	c #CA4336",
"w 	c #C22E20",
"x 	c #B40F0F",
"y 	c #FFF7F7",
"z 	c #701C1D",
"A 	c #364558",
"B 	c #7E1818",
"C 	c #C93F32",
"D 	c #C63729",
"E 	c #FFE3E2",
"F 	c #771A1B",
"G 	c #334355",
"H 	c #841919",
"I 	c #C73A2D",
"J 	c #C53628",
"K 	c #FFE5E2",
"L 	c #A20F0F",
"M 	c #7C1919",
"N 	c #314053",
"O 	c #891919",
"P 	c #AD0F0F",
"Q 	c #B70F0F",
"R 	c #811717",
"S 	c #2F3D4F",
"T 	c #8D1919",
"U 	c #C6392D",
"V 	c #C83B2E",
"W 	c #C32D1E",
"X 	c #AF0F0F",
"Y 	c #BF2112",
"Z 	c #C53225",
"` 	c #861414",
" .	c #2D3B4D",
"..	c #A51D10",
"+.	c #BE352B",
"@.	c #D14436",
"#.	c #CB3426",
"$.	c #BF0F0F",
"%.	c #BD0F0F",
"&.	c #C82B1B",
"*.	c #D03F32",
"=.	c #2B3949",
"-.	c #972E25",
";.	c #D84B3E",
">.	c #DA4D3F",
",.	c #D9483A",
"'.	c #D63D2F",
").	c #D63F31",
"!.	c #D9493B",
"~.	c #283647",
"{.	c #333E4D",
"].	c #CE4338",
"^.	c #E05347",
"/.	c #E35649",
"(.	c #273444",
"_.	c #97100E",
":.	c #98100E",
"<.	c #97100F",
"[.	c #353E4C",
"}.	c #253241",
"|.	c #23303F",
"1.	c #212D3C",
"2.	c #1D2937",
"3.	c #53302F",
"4.	c #431D1C",
"5.	c #2B0000",
"6.	c #56667F",
"7.	c #616F88",
"8.	c #621B1B",
"9.	c #8E3434",
"0.	c #AA4545",
"a.	c #AE4848",
"b.	c #523030",
"c.	c #506178",
"d.	c #4B5C72",
"e.	c #631818",
"f.	c #A84040",
"g.	c #AB4141",
"h.	c #48586F",
"i.	c #491D1C",
"j.	c #8A2828",
"k.	c #A63737",
"l.	c #4F2D2D",
"m.	c #44546B",
"n.	c #360000",
"o.	c #9E2A2A",
"p.	c #A12C2C",
"q.	c #9F2727",
"r.	c #EBD2D2",
"s.	c #9F2828",
"t.	c #3F1415",
"u.	c #405167",
"v.	c #3C0000",
"w.	c #9C2020",
"x.	c #940F0F",
"y.	c #E6CCCC",
"z.	c #E9CDCD",
"A.	c #9A1C1C",
"B.	c #451415",
"C.	c #3E4E63",
"D.	c #400000",
"E.	c #991818",
"F.	c #920909",
"G.	c #7C0000",
"H.	c #E1CCCC",
"I.	c #E8CCCC",
"J.	c #950F0F",
"K.	c #491413",
"L.	c #3A4B5F",
"M.	c #460000",
"N.	c #961111",
"O.	c #940C0C",
"P.	c #8A0000",
"Q.	c #750000",
"R.	c #F0E0E0",
"S.	c #4F1313",
"T.	c #4D0000",
"U.	c #920A0A",
"V.	c #900505",
"W.	c #850000",
"X.	c #6F0000",
"Y.	c #ECE0E0",
"Z.	c #551312",
"`.	c #540000",
" +	c #900404",
".+	c #8B0000",
"++	c #E4CCCC",
"@+	c #E9E0E0",
"#+	c #5B1211",
"$+	c #5A0101",
"%+	c #8E0000",
"&+	c #8C0000",
"*+	c #DECCCC",
"=+	c #580000",
"-+	c #601310",
";+	c #600102",
">+	c #6A0000",
",+	c #760000",
"'+	c #671410",
")+	c #650202",
"!+	c #860000",
"~+	c #810000",
"{+	c #890000",
"]+	c #6A1410",
"^+	c #7E0000",
"/+	c #870000",
"(+	c #930000",
"_+	c #770000",
":+	c #910000",
"<+	c #581D1C",
"[+	c #980000",
"}+	c #990000",
"|+	c #970000",
"1+	c #920000",
"2+	c #820000",
"3+	c #9B0000",
"4+	c #9D0000",
"5+	c #7A0301",
"6+	c #780201",
"7+	c #750302",
"8+	c #720505",
"9+	c #6F0304",
". . . . . . . . . . . . . . . . . . . . . . . . ",
"+ + + + + + + + + + + + + + + + + + + + + + + + ",
"@ @ @ # # # # # # # # # # # # # # # @ @ @ @ @ @ ",
"$ $ # % & * * * * * * * * * * * & % # $ $ $ $ $ ",
"= # % - ; > , , , , , , , , , > ; - ' # = = = = ",
") % ! ~ { { { { { { { { { { { { { ~ ! % ) ) ) ) ",
"] ^ / ( ( ( ( ( ( ( ( ( ( ( ( ( ( ( / ^ ] ] ] ] ",
"_ : < [ [ } | 1 2 [ [ [ 2 1 | } [ [ < 3 _ _ _ _ ",
"4 5 6 6 6 7 8 | 9 0 6 0 9 | 8 7 6 6 6 a 4 4 4 4 ",
"b c d d d e f g | h i h | g f e d d d j b b b b ",
"k l m m m n o p g | q | g p o n m m m r k k k k ",
"s t u u u u v w x y | y x w v u u u u z s s s s ",
"A B C C C C C D E | y | E D C C C C C F A A A A ",
"G H I I I I J K | g L g | K J I I I I M G G G G ",
"N O I I I J K | g P Q P g | K J I I I R N N N N ",
"S T U V V W | g X Y Z Y X g | W V V U ` S S S S ",
" ...+.@.@.#.$.%.&.*.@.*.&.%.$.#.@.@.+... . . . .",
"=.-...;.>.,.'.).!.>.>.>.!.).'.,.>.;...-.=.=.=.=.",
"~.{.-...].^./././././././././.^.]...-.{.~.~.~.~.",
"(.(.{.-..._._._.:.:.<.<.<.<.<.<...-.[.(.(.(.(.(.",
"}.}.}.{.{.{.{.{.{.{.{.{.{.{.{.{.{.{.}.}.}.}.}.}.",
"|.|.|.|.|.|.|.|.|.|.|.|.|.|.|.|.|.|.|.|.|.|.|.|.",
"1.1.1.1.1.1.1.1.1.1.1.1.1.1.1.1.1.1.1.1.1.1.1.1.",
"2.2.2.2.2.2.2.2.2.2.2.2.2.2.2.2.2.2.2.2.2.2.2.2.",
". . . . . . . . . . . . . . . . . . . . . . . . ",
"+ + + + + + + + + + + + + + + + + + + + + + + + ",
"@ @ @ # # # # # # # # # # # # # # # @ @ @ @ @ @ ",
"$ $ # 3.4.5.5.5.5.5.5.5.5.5.5.5.4.3.6.$ $ $ $ $ ",
"= 7.3.8.9.0.a.a.a.a.a.a.a.a.a.0.9.8.b.c.= = = = ",
"d.3.e.f.g.g.g.g.g.g.g.g.g.g.g.g.g.f.e.3.) ) ) ) ",
"h.i.j.k.k.k.k.k.k.k.k.k.k.k.k.k.k.k.j.l.] ] ] ] ",
"m.n.o.p.p.q.| r.s.p.p.p.s.r.| q.p.p.o.t._ _ _ _ ",
"u.v.w.w.w.x.y.| z.A.w.A.z.| y.x.w.w.w.B.4 4 4 4 ",
"C.D.E.E.E.F.G.H.| I.J.I.| H.G.F.E.E.E.K.b b b b ",
"L.M.N.N.N.O.P.Q.H.| R.| H.Q.P.O.N.N.N.S.k k k k ",
"s T.U.U.U.U.V.W.X.Y.| Y.X.W.V.U.U.U.U.Z.s s s s ",
"A `. + + + + +.+++| @+| ++.+ + + + + +#+A A A A ",
"G $+%+%+%+%+&+y.| *+=+*+| y.&+%+%+%+%+-+G G G G ",
"N ;+%+%+%+&+y.| *+>+,+>+*+| y.&+%+%+%+'+N N N N ",
"S )+&+%+%+!+| *+>+~+{+~+>+*+| !+%+%+&+]+S S S S ",
" .^+/+(+(+.+_+Q.!+:+(+:+!+Q._+.+(+(+/+^+ . . . .",
"=.<+^+[+}+|+:+1+|+}+}+}+|+1+:+|+}+[+^+<+=.=.=.=.",
"~.{.<+2+:+3+4+4+4+4+4+4+4+4+4+3+:+2+<+{.~.~.~.~.",
"(.(.{.<+^+5+5+5+6+6+7+8+8+9+9+9+9+<+{.(.(.(.(.(.",
"}.}.}.{.{.{.{.{.{.{.{.{.{.{.{.{.{.{.}.}.}.}.}.}.",
"|.|.|.|.|.|.|.|.|.|.|.|.|.|.|.|.|.|.|.|.|.|.|.|.",
"1.1.1.1.1.1.1.1.1.1.1.1.1.1.1.1.1.1.1.1.1.1.1.1.",
"2.2.2.2.2.2.2.2.2.2.2.2.2.2.2.2.2.2.2.2.2.2.2.2."};
