/* XPM */
static char * dframeIBR_xpm[] = {
"4 4 6 1",
" 	c None",
".	c #091424",
"+	c #252D3F",
"@	c #5A6177",
"#	c #1E2436",
"$	c #323C59",
".+@#",
"+@$ ",
"@$# ",
"#   "};
