/* XPM */
static char * frameITL_xpm[] = {
"16 16 5 1",
" 	c None",
".	c #1E2436",
"+	c #5A6177",
"@	c #252D3F",
"#	c #091424",
"   .............",
"  .+++++++++++++",
" .+@@@@@@@@@@@@@",
".+@#############",
".+@#            ",
".+@#            ",
".+@#            ",
".+@#            ",
".+@#            ",
".+@#            ",
".+@#            ",
".+@#            ",
".+@#            ",
".+@#            ",
".+@#            ",
".+@#            "};
