/* XPM */
static char * frameIBL_xpm[] = {
"4 4 6 1",
" 	c None",
".	c #1E2436",
"+	c #5A6177",
"@	c #252D3F",
"#	c #091424",
"$	c #323C59",
".+@#",
" $+@",
" .$+",
"   ."};
