/* XPM */
static char * maximizeI_xpm[] = {
"24 48 64 1",
" 	c None",
".	c #60708D",
"+	c #4C5F77",
"@	c #4A5C74",
"#	c #5D6C86",
"$	c #485A72",
"%	c #4D5C74",
"&	c #6D89AA",
"*	c #6A87A9",
"=	c #6986A8",
"-	c #46586E",
";	c #6B88AA",
">	c #36495F",
",	c #6784A7",
"'	c #44566B",
")	c #2C3B4D",
"!	c #425369",
"~	c #6C88AA",
"{	c #3F5066",
"]	c #6E8AAB",
"^	c #3D4E63",
"/	c #3C4C60",
"(	c #708CAC",
"_	c #394A5E",
":	c #6E8AAA",
"<	c #37485B",
"[	c #364558",
"}	c #6F8BAB",
"|	c #334355",
"1	c #6F8BAC",
"2	c #314053",
"3	c #2F3D4F",
"4	c #2D3B4D",
"5	c #2B3949",
"6	c #6885A8",
"7	c #283647",
"8	c #333E4D",
"9	c #728EAD",
"0	c #273444",
"a	c #7893B1",
"b	c #7B96B3",
"c	c #7F99B5",
"d	c #7F98B5",
"e	c #7B95B2",
"f	c #7A94B2",
"g	c #7A94B1",
"h	c #7792B0",
"i	c #748FAE",
"j	c #353E4C",
"k	c #253241",
"l	c #23303F",
"m	c #212D3C",
"n	c #1D2937",
"o	c #6C89AA",
"p	c #6885A7",
"q	c #6784A6",
"r	c #6A87A8",
"s	c #6F8AA9",
"t	c #728DAC",
"u	c #6C88A9",
"v	c #7892B0",
"w	c #7B95B3",
"x	c #7993B1",
"y	c #758DAB",
"........................",
"++++++++++++++++++++++++",
"@@@###############@@@@@@",
"$$%&*************=#$$$$$",
"-#;*>>>>>>>>>>>>>=,#----",
"'=*>)))))))))))))>**''''",
"!=>)))))))))))))))>~!!!!",
"{=>))***********))>]{{{{",
"^=>))***********))>]^^^^",
"/=>))*)))))))))*))>(////",
"_*>))*)))))))))*))>:____",
"<*>))*)))))))))*))>]<<<<",
"[*>))*)))))))))*))>}[[[[",
"|*>))*)))))))))*))>1||||",
"2*>))*)))))))))*))>12222",
"3*>))***********))>]3333",
"4*>)))))))))))))))>]4444",
"56*>)))))))))))))>=}5555",
"789=>>>>>>>>>>>>>=~87777",
"008abcccddeffggghij00000",
"kkk888888888888888kkkkkk",
"llllllllllllllllllllllll",
"mmmmmmmmmmmmmmmmmmmmmmmm",
"nnnnnnnnnnnnnnnnnnnnnnnn",
"........................",
"++++++++++++++++++++++++",
"@@@###############@@@@@@",
"$$%o*************p#$$$$$",
"-#;*>>>>>>>>>>>>>=q#----",
"'=*>)))))))))))))>*r''''",
"!=>)))))))))))))))>~!!!!",
"{=>))***********))>]{{{{",
"^=>))***********))>]^^^^",
"/=>))*)))))))))*))>(////",
"_*>))*)))))))))*))>:____",
"<*>))*)))))))))*))>]<<<<",
"[*>))*)))))))))*))>}[[[[",
"|*>))*)))))))))*))>1||||",
"2*>))*)))))))))*))>12222",
"3*>))***********))>]3333",
"4*>)))))))))))))))>]4444",
"56*>)))))))))))))>=s5555",
"78t=>>>>>>>>>>>>>=u87777",
"008vwdcdddegggxxhyj00000",
"kkk888888888888888kkkkkk",
"llllllllllllllllllllllll",
"mmmmmmmmmmmmmmmmmmmmmmmm",
"nnnnnnnnnnnnnnnnnnnnnnnn"};
