/* XPM */
static char * maximizeO_xpm[] = {
"24 48 193 2",
"  	c None",
". 	c #60708D",
"+ 	c #4C5F77",
"@ 	c #4A5C74",
"# 	c #63728D",
"$ 	c #5D6C86",
"% 	c #485A72",
"& 	c #495A73",
"* 	c #31402F",
"= 	c #283826",
"- 	c #0D1F0C",
"; 	c #46586E",
"> 	c #54612F",
", 	c #939C59",
"' 	c #B7BD74",
") 	c #BBC178",
"! 	c #53602E",
"~ 	c #313E2F",
"{ 	c #44566B",
"] 	c #51602B",
"^ 	c #B3BA6D",
"/ 	c #B7BE6F",
"( 	c #425369",
"_ 	c #1E331C",
": 	c #899348",
"< 	c #B0B762",
"[ 	c #2A3D27",
"} 	c #3F5066",
"| 	c #041D00",
"1 	c #A3AB4F",
"2 	c #A8B052",
"3 	c #A6AE4E",
"4 	c #F5F6EC",
"5 	c #FFFFFF",
"6 	c #11270B",
"7 	c #3D4E63",
"8 	c #092200",
"9 	c #A0A942",
"0 	c #99A234",
"a 	c #142B09",
"b 	c #3C4C60",
"c 	c #0C2500",
"d 	c #9BA438",
"e 	c #919B23",
"f 	c #E4E6CC",
"g 	c #6C7A00",
"h 	c #717D00",
"i 	c #172C07",
"j 	c #394A5E",
"k 	c #112A00",
"l 	c #959F2D",
"m 	c #8B9619",
"n 	c #E5E7CC",
"o 	c #818D05",
"p 	c #899415",
"q 	c #193005",
"r 	c #37485B",
"s 	c #162F00",
"t 	c #889210",
"u 	c #1C3403",
"v 	c #364558",
"w 	c #1D3600",
"x 	c #8D971B",
"y 	c #838E08",
"z 	c #223901",
"A 	c #334355",
"B 	c #223B00",
"C 	c #8A9516",
"D 	c #808C02",
"E 	c #E3E6CC",
"F 	c #263D00",
"G 	c #314053",
"H 	c #284000",
"I 	c #2C4200",
"J 	c #2F3D4F",
"K 	c #2B4300",
"L 	c #879316",
"M 	c #8B9617",
"N 	c #818D03",
"O 	c #D7DBB7",
"P 	c #E4E7CC",
"Q 	c #E6E8CD",
"R 	c #2F4700",
"S 	c #2D3B4D",
"T 	c #384D08",
"U 	c #778616",
"V 	c #939E1F",
"W 	c #8D9812",
"X 	c #7F8C00",
"Y 	c #7C8900",
"Z 	c #7E8B00",
"` 	c #2B3949",
" .	c #3B5400",
"..	c #99A527",
"+.	c #9AA625",
"@.	c #96A21C",
"#.	c #94A016",
"$.	c #283647",
"%.	c #3F485A",
"&.	c #7E8C21",
"*.	c #97A22C",
"=.	c #9BA62E",
"-.	c #3E4859",
";.	c #273444",
">.	c #3D4757",
",.	c #434B5B",
"'.	c #253241",
").	c #3E4858",
"!.	c #3E4958",
"~.	c #263342",
"{.	c #23303F",
"].	c #212D3C",
"^.	c #1D2937",
"/.	c #4B5C75",
"(.	c #65738E",
"_.	c #31302F",
":.	c #242721",
"<.	c #1A1B19",
"[.	c #151513",
"}.	c #0D0D0C",
"|.	c #5C6A34",
"1.	c #768645",
"2.	c #7B8B48",
"3.	c #31322F",
"4.	c #738440",
"5.	c #768741",
"6.	c #1F1E1D",
"7.	c #536128",
"8.	c #6F8137",
"9.	c #020202",
"0.	c #63752A",
"a.	c #677A2C",
"b.	c #637727",
"c.	c #EEF0E8",
"d.	c #040900",
"e.	c #030402",
"f.	c #5E7220",
"g.	c #52670F",
"h.	c #060B00",
"i.	c #030903",
"j.	c #596E18",
"k.	c #485F00",
"l.	c #D2D8CC",
"m.	c #0C2A00",
"n.	c #133000",
"o.	c #081000",
"p.	c #040F04",
"q.	c #536911",
"r.	c #435B00",
"s.	c #D4DACC",
"t.	c #324C00",
"u.	c #3F5800",
"v.	c #0A1600",
"w.	c #051504",
"x.	c #4E640A",
"y.	c #3F5700",
"z.	c #D5DACC",
"A.	c #0C1D00",
"B.	c #051D05",
"C.	c #4A6004",
"D.	c #3B5200",
"E.	c #D4D9CC",
"F.	c #0F2401",
"G.	c #072306",
"H.	c #475E00",
"I.	c #375000",
"J.	c #D3D9CC",
"K.	c #122C02",
"L.	c #0D2A06",
"M.	c #183302",
"N.	c #122E07",
"O.	c #455C00",
"P.	c #C0C8B7",
"Q.	c #D7DCCC",
"R.	c #1E3803",
"S.	c #233808",
"T.	c #4B6300",
"U.	c #415A00",
"V.	c #2A4700",
"W.	c #244200",
"X.	c #294500",
"Y.	c #2B380B",
"Z.	c #4F6700",
"`.	c #4E6700",
" +	c #476000",
".+	c #425C00",
"++	c #333E4D",
"@+	c #455E00",
"#+	c #546B00",
"$+	c #566D00",
"%+	c #264100",
"&+	c #243F00",
"*+	c #223E00",
". . . . . . . . . . . . . . . . . . . . . . . . ",
"+ + + + + + + + + + + + + + + + + + + + + + + + ",
"@ @ @ # $ $ $ $ $ $ $ $ $ $ $ $ $ # @ @ @ @ @ @ ",
"% & # * = - - - - - - - - - - - = * # % % % % % ",
"; # * > , ' ) ) ) ) ) ) ) ) ) ' , ! ~ # ; ; ; ; ",
"{ * ] ^ / / / / / / / / / / / / / ^ ] * { { { { ",
"( _ : < < < < < < < < < < < < < < < : [ ( ( ( ( ",
"} | 1 2 3 4 5 5 5 5 5 5 5 5 5 4 3 2 1 6 } } } } ",
"7 8 9 9 0 5 5 5 5 5 5 5 5 5 5 5 0 9 9 a 7 7 7 7 ",
"b c d d e f g h h h h h h h g f e d d i b b b b ",
"j k l l m n o p p p p p p p o n m l l q j j j j ",
"r s e e t n t e e e e e e e t n t e e u r r r r ",
"v w x x y f y x x x x x x x y f y x x z v v v v ",
"A B C C D E D C C C C C C C D E D C C F A A A A ",
"G H C C D E D C C C C C C C D E D C C I G G G G ",
"J K L M N O P Q Q Q Q Q Q Q P O N M L R J J J J ",
"S T U V W X Y Z Z Z Z Z Z Z Y X W V U T S S S S ",
"`  .T ..+.@.#.#.#.#.#.#.#.#.#.@.+...T  .` ` ` ` ",
"$.%. .T &.*.=.=.=.=.=.=.=.=.=.*.&.T  .-.$.$.$.$.",
";.;.>. .T  . . . . . . . . . . .T  .,.;.;.;.;.;.",
"'.'.'.).!.!.!.!.!.!.!.!.!.!.!.!.!.).~.'.'.'.'.'.",
"{.{.{.{.{.{.{.{.{.{.{.{.{.{.{.{.{.{.{.{.{.{.{.{.",
"].].].].].].].].].].].].].].].].].].].].].].].].",
"^.^.^.^.^.^.^.^.^.^.^.^.^.^.^.^.^.^.^.^.^.^.^.^.",
". . . . . . . . . . . . . . . . . . . . . . . . ",
"+ + + + + + + + + + + + + + + + + + + + + + + + ",
"@ @ /.# (.(.(.(.(.(.(.(.(.(.(.(.(.# @ @ @ @ @ @ ",
"% & # _.:.<.<.<.<.<.[.}.}.}.}.}.:._.# % % % % % ",
"; # _.:.|.1.2.2.2.2.2.2.2.2.2.1.|.:.3.# ; ; ; ; ",
"{ _.:.4.5.5.5.5.5.5.5.5.5.5.5.5.5.4.:._.{ { { { ",
"( 6.7.8.8.8.8.8.8.8.8.8.8.8.8.8.8.8.7.:.( ( ( ( ",
"} 9.0.a.b.c.5 5 5 5 5 5 5 5 5 c.b.a.0.d.} } } } ",
"7 e.f.f.g.5 5 5 5 5 5 5 5 5 5 5 g.f.f.h.7 7 7 7 ",
"b i.j.j.k.l.m.n.n.n.n.n.n.n.m.l.k.j.j.o.b b b b ",
"j p.q.q.r.s.t.u.u.u.u.u.u.u.t.s.r.q.q.v.j j j j ",
"r w.x.x.y.z.y.x.x.x.x.x.x.x.y.z.y.x.x.A.r r r r ",
"v B.C.C.D.E.D.C.C.C.C.C.C.C.D.E.D.C.C.F.v v v v ",
"A G.H.H.I.J.I.H.H.H.H.H.H.H.I.J.I.H.H.K.A A A A ",
"G L.H.H.I.J.I.H.H.H.H.H.H.H.I.J.I.H.H.M.G G G G ",
"J N.O.H.I.P.s.Q.Q.Q.Q.Q.Q.Q.s.P.I.H.O.R.J J J J ",
"S S. .T.U.V.W.X.X.X.X.X.X.X.W.V.U.T. .S.S S S S ",
"` Y.S.Z.`. +.+.+.+.+.+.+.+.+.+ +`.Z.S.Y.` ` ` ` ",
"$.++Y.S.@+#+$+$+$+$+$+$+$+$+$+#+@+S.Y.++$.$.$.$.",
";.;.++Y.S.%+%+%+%+%+&+*+*+*+*+*+S.Y.++;.;.;.;.;.",
"'.'.'.++++++++++++++++++++++++++++++'.'.'.'.'.'.",
"{.{.{.{.{.{.{.{.{.{.{.{.{.{.{.{.{.{.{.{.{.{.{.{.",
"].].].].].].].].].].].].].].].].].].].].].].].].",
"^.^.^.^.^.^.^.^.^.^.^.^.^.^.^.^.^.^.^.^.^.^.^.^."};
