/* XPM */
static char * maximizeA_xpm[] = {
"24 48 110 2",
"  	c None",
". 	c #60708D",
"+ 	c #4C5F77",
"@ 	c #4A5C74",
"# 	c #5D6C86",
"$ 	c #485A72",
"% 	c #495A73",
"& 	c #63728D",
"* 	c #313D2F",
"= 	c #1D2A1C",
"- 	c #000F00",
"; 	c #46586E",
"> 	c #48562A",
", 	c #7F8B50",
"' 	c #9FAB69",
") 	c #A4B06E",
"! 	c #4A5C72",
"~ 	c #445627",
"{ 	c #9AA762",
"] 	c #9EAB64",
"^ 	c #44566B",
"/ 	c #46566D",
"( 	c #22331C",
"_ 	c #73823E",
": 	c #95A256",
"< 	c #2E3422",
"[ 	c #425369",
"} 	c #405067",
"| 	c #0B1F00",
"1 	c #869642",
"2 	c #8A9944",
"3 	c #87973F",
"4 	c #F2F4EB",
"5 	c #FFFFFF",
"6 	c #181F06",
"7 	c #3F5066",
"8 	c #3D4E63",
"9 	c #132500",
"0 	c #809034",
"a 	c #768825",
"b 	c #1D2505",
"c 	c #3C4C60",
"d 	c #1D2C00",
"e 	c #798A28",
"f 	c #6B7E12",
"g 	c #DBDFCC",
"h 	c #3B5400",
"i 	c #405800",
"j 	c #232C04",
"k 	c #394A5E",
"l 	c #273301",
"m 	c #72841D",
"n 	c #657808",
"o 	c #DCE0CC",
"p 	c #576C00",
"q 	c #627603",
"r 	c #2A3303",
"s 	c #37485B",
"t 	c #303A02",
"u 	c #5E7300",
"v 	c #303A03",
"w 	c #364558",
"x 	c #3A4002",
"y 	c #66790A",
"z 	c #596E00",
"A 	c #374203",
"B 	c #334355",
"C 	c #444603",
"D 	c #627604",
"E 	c #556A00",
"F 	c #DADECC",
"G 	c #3E4A02",
"H 	c #314053",
"I 	c #4D4B04",
"J 	c #455202",
"K 	c #2F3D4F",
"L 	c #575106",
"M 	c #627605",
"N 	c #637705",
"O 	c #566B00",
"P 	c #CAD0B7",
"Q 	c #DDE1CC",
"R 	c #4C5B02",
"S 	c #2D3B4D",
"T 	c #566000",
"U 	c #647809",
"V 	c #6B7F0D",
"W 	c #627800",
"X 	c #506800",
"Y 	c #4B6400",
"Z 	c #4F6600",
"` 	c #2B3949",
" .	c #4B5400",
"..	c #738715",
"+.	c #728612",
"@.	c #6C8108",
"#.	c #687E02",
"$.	c #283647",
"%.	c #3B4556",
"&.	c #6D8015",
"*.	c #75871C",
"=.	c #76881D",
"-.	c #333E4D",
";.	c #273444",
">.	c #384252",
",.	c #353E4C",
"'.	c #253241",
").	c #23303F",
"!.	c #212D3C",
"~.	c #1D2937",
". . . . . . . . . . . . . . . . . . . . . . . . ",
"+ + + + + + + + + + + + + + + + + + + + + + + + ",
"@ @ @ # # # # # # # # # # # # # # # @ @ @ @ @ @ ",
"$ % & * = - - - - - - - - - - - = * & $ $ $ $ $ ",
"; & * > , ' ) ) ) ) ) ) ) ) ) ' , > * & ; ; ; ; ",
"! * ~ { ] ] ] ] ] ] ] ] ] ] ] ] ] { ~ * ^ ^ ^ ^ ",
"/ ( _ : : : : : : : : : : : : : : : _ < [ [ [ [ ",
"} | 1 2 3 4 5 5 5 5 5 5 5 5 5 4 3 2 1 6 7 7 7 7 ",
"8 9 0 0 a 5 5 5 5 5 5 5 5 5 5 5 a 0 0 b 8 8 8 8 ",
"c d e e f g h i i i i i i i h g f e e j c c c c ",
"k l m m n o p q q q q q q q p o n m m r k k k k ",
"s t f f u o u f f f f f f f u o u f f v s s s s ",
"w x y y z g z y y y y y y y z g z y y A w w w w ",
"B C D D E F E D D D D D D D E F E D D G B B B B ",
"H I D D E F E D D D D D D D E F E D D J H H H H ",
"K L M N O P g Q Q Q Q Q Q Q g P O N M R K K K K ",
"S T U V W X Y Z Z Z Z Z Z Z Y X W V U T S S S S ",
"`  .T ..+.@.#.#.#.#.#.#.#.#.#.@.+...T  .` ` ` ` ",
"$.%. .T &.*.=.=.=.=.=.=.=.=.=.*.&.T  .-.$.$.$.$.",
";.;.>. .T T T T T T T T T T T T T  .,.;.;.;.;.;.",
"'.'.'.-.-.-.-.-.-.-.-.-.-.-.-.-.-.-.'.'.'.'.'.'.",
").).).).).).).).).).).).).).).).).).).).).).).).",
"!.!.!.!.!.!.!.!.!.!.!.!.!.!.!.!.!.!.!.!.!.!.!.!.",
"~.~.~.~.~.~.~.~.~.~.~.~.~.~.~.~.~.~.~.~.~.~.~.~.",
". . . . . . . . . . . . . . . . . . . . . . . . ",
"+ + + + + + + + + + + + + + + + + + + + + + + + ",
"@ @ @ # # # # # # # # # # # # # # # @ @ @ @ @ @ ",
"$ % & * = - - - - - - - - - - - = * & $ $ $ $ $ ",
"; & * > , ' ) ) ) ) ) ) ) ) ) ' , > * & ; ; ; ; ",
"! * ~ { ] ] ] ] ] ] ] ] ] ] ] ] ] { ~ * ^ ^ ^ ^ ",
"/ ( _ : : : : : : : : : : : : : : : _ < [ [ [ [ ",
"} | 1 2 3 4 5 5 5 5 5 5 5 5 5 4 3 2 1 6 7 7 7 7 ",
"8 9 0 0 a 5 5 5 5 5 5 5 5 5 5 5 a 0 0 b 8 8 8 8 ",
"c d e e f g h i i i i i i i h g f e e j c c c c ",
"k l m m n o p q q q q q q q p o n m m r k k k k ",
"s t f f u o u f f f f f f f u o u f f v s s s s ",
"w x y y z g z y y y y y y y z g z y y A w w w w ",
"B C D D E F E D D D D D D D E F E D D G B B B B ",
"H I D D E F E D D D D D D D E F E D D J H H H H ",
"K L M N O P g Q Q Q Q Q Q Q g P O N M R K K K K ",
"S T U V W X Y Z Z Z Z Z Z Z Y X W V U T S S S S ",
"`  .T ..+.@.#.#.#.#.#.#.#.#.#.@.+...T  .` ` ` ` ",
"$.%. .T &.*.=.=.=.=.=.=.=.=.=.*.&.T  .-.$.$.$.$.",
";.;.>. .T T T T T T T T T T T T T  .,.;.;.;.;.;.",
"'.'.'.-.-.-.-.-.-.-.-.-.-.-.-.-.-.-.'.'.'.'.'.'.",
").).).).).).).).).).).).).).).).).).).).).).).).",
"!.!.!.!.!.!.!.!.!.!.!.!.!.!.!.!.!.!.!.!.!.!.!.!.",
"~.~.~.~.~.~.~.~.~.~.~.~.~.~.~.~.~.~.~.~.~.~.~.~."};
