/* XPM */
static char * menuButtonA_xpm[] = {
"24 48 86 1",
" 	c None",
".	c #60708D",
"+	c #4C5F77",
"@	c #4A5C74",
"#	c #5D6C86",
"$	c #485A72",
"%	c #606F89",
"&	c #0448B5",
"*	c #003799",
"=	c #002170",
"-	c #64738A",
";	c #46586E",
">	c #606E88",
",	c #0071F9",
"'	c #3796FF",
")	c #449DFF",
"!	c #0847B1",
"~	c #66738E",
"{	c #44566B",
"]	c #2B8EFF",
"^	c #288DFF",
"/	c #FFFFFF",
"(	c #425369",
"_	c #0065ED",
":	c #1582FD",
"<	c #0779FB",
"[	c #3F5066",
"}	c #012371",
"|	c #006EF8",
"1	c #0066F0",
"2	c #072269",
"3	c #3D4E63",
"4	c #012676",
"5	c #0063EA",
"6	c #005EDE",
"7	c #07246D",
"8	c #3C4C60",
"9	c #012779",
"0	c #005CDC",
"a	c #0056D0",
"b	c #072570",
"c	c #394A5E",
"d	c #012B80",
"e	c #0054CD",
"f	c #004DC1",
"g	c #072978",
"h	c #37485B",
"i	c #012B81",
"j	c #004FC4",
"k	c #0049BA",
"l	c #364558",
"m	c #012B84",
"n	c #0048B7",
"o	c #0045B0",
"p	c #072A7C",
"q	c #334355",
"r	c #012F8B",
"s	c #0041A9",
"t	c #072E82",
"u	c #314053",
"v	c #002F8C",
"w	c #072E83",
"x	c #2F3D4F",
"y	c #0046B3",
"z	c #003EA4",
"A	c #0040A7",
"B	c #062E84",
"C	c #2D3B4D",
"D	c #0046B6",
"E	c #004BBD",
"F	c #2B3949",
"G	c #163E94",
"H	c #0051C9",
"I	c #00308D",
"J	c #283647",
"K	c #374251",
"L	c #3C4656",
"M	c #273444",
"N	c #3E4656",
"O	c #032F88",
"P	c #293646",
"Q	c #253241",
"R	c #333E4D",
"S	c #23303F",
"T	c #212D3C",
"U	c #1D2937",
"........................",
"++++++++++++++++++++++++",
"@@@@@@###############@@@",
"$$$$$%&*===========*&-$$",
";;;;>&*,')))))))))',*!~;",
"{{{{&*]^^/////////^^]*&{",
"((((*_:</<<<<<<<<</<:_*(",
"[[[[}||1/11/1///11/1||2[",
"33334556/66/6///66/65573",
"8888900a/aaaaaaaaa/a00b8",
"ccccdeef/ff/f///ff/feegc",
"hhhhijjk/kk/k///kk/kjjgh",
"llllmnno/ooooooooo/onnpl",
"qqqqroos/ss/s///ss/sootq",
"uuuuvoos/ss/s///ss/soowu",
"xxxxvoys/sszszAsss/syoBx",
"CCCCvDEy///////////yEDBC",
"FFFFGvHjj/////////jjHIGF",
"JJJJKGIHjnnnnnnnnnjHIGLJ",
"MMMMMNGBBBBOOOOOvIIIGLPM",
"QQQQQQRRRRRRRRRRRRRRRQQQ",
"SSSSSSSSSSSSSSSSSSSSSSSS",
"TTTTTTTTTTTTTTTTTTTTTTTT",
"UUUUUUUUUUUUUUUUUUUUUUUU",
"........................",
"++++++++++++++++++++++++",
"@@@@@@###############@@@",
"$$$$$%&*===========*&-$$",
";;;;>&*,')))))))))',*!~;",
"{{{{&*]^^/////////^^]*&{",
"((((*_:</<<<<<<<<</<:_*(",
"[[[[}||1/11/1///11/1||2[",
"33334556/66/6///66/65573",
"8888900a/aaaaaaaaa/a00b8",
"ccccdeef/ff/f///ff/feegc",
"hhhhijjk/kk/k///kk/kjjgh",
"llllmnno/ooooooooo/onnpl",
"qqqqroos/ss/s///ss/sootq",
"uuuuvoos/ss/s///ss/soowu",
"xxxxvoys/sszszAsss/syoBx",
"CCCCvDEy///////////yEDBC",
"FFFFGvHjj/////////jjHIGF",
"JJJJKGIHjnnnnnnnnnjHIGLJ",
"MMMMMNGBBBBOOOOOvIIIGLPM",
"QQQQQQRRRRRRRRRRRRRRRQQQ",
"SSSSSSSSSSSSSSSSSSSSSSSS",
"TTTTTTTTTTTTTTTTTTTTTTTT",
"UUUUUUUUUUUUUUUUUUUUUUUU"};
