/* XPM */
static char * menusel_xpm[] = {
"80 22 321 2",
"  	c None",
". 	c #000000",
"+ 	c #909DB1",
"@ 	c #909EB1",
"# 	c #929FB3",
"$ 	c #93A1B4",
"% 	c #95A1B5",
"& 	c #97A3B7",
"* 	c #99A5B7",
"= 	c #9AA7B8",
"- 	c #9DA7BA",
"; 	c #9EAABA",
"> 	c #9FABBC",
", 	c #A1ACBD",
"' 	c #A3AEBF",
") 	c #A5B0BF",
"! 	c #A6B0C1",
"~ 	c #A9B2C1",
"{ 	c #AAB4C3",
"] 	c #ABB5C4",
"^ 	c #ADB7C6",
"/ 	c #AFB8C6",
"( 	c #B1B9C8",
"_ 	c #B3BBC9",
": 	c #B4BDCA",
"< 	c #B5BECB",
"[ 	c #B7C0CC",
"} 	c #B9C1CE",
"| 	c #BBC2CF",
"1 	c #BCC4D0",
"2 	c #BEC6D1",
"3 	c #C0C7D2",
"4 	c #C1C9D4",
"5 	c #C3CAD5",
"6 	c #C5CCD6",
"7 	c #C6CDD7",
"8 	c #C8CED8",
"9 	c #C9D0D9",
"0 	c #CAD0DA",
"a 	c #C9CFD9",
"b 	c #C7CED7",
"c 	c #C4CAD4",
"d 	c #C2C9D4",
"e 	c #C0C8D3",
"f 	c #BFC6D1",
"g 	c #BDC4D0",
"h 	c #BBC3CF",
"i 	c #BAC2CE",
"j 	c #B8C0CD",
"k 	c #B6BECB",
"l 	c #B5BDCA",
"m 	c #B3BCC9",
"n 	c #B1BAC7",
"o 	c #AFB9C7",
"p 	c #AEB7C5",
"q 	c #ACB6C5",
"r 	c #A9B2C2",
"s 	c #A7B2C1",
"t 	c #A3AFBE",
"u 	c #A2ADBD",
"v 	c #A0ABBC",
"w 	c #9FAABB",
"x 	c #9DA8BA",
"y 	c #9BA6B9",
"z 	c #99A6B8",
"A 	c #97A3B6",
"B 	c #96A2B6",
"C 	c #94A1B4",
"D 	c #939FB2",
"E 	c #919EB2",
"F 	c #6C7D94",
"G 	c #94A1B5",
"H 	c #8997AC",
"I 	c #4C5C72",
"J 	c #919EB1",
"K 	c #57646F",
"L 	c #57636E",
"M 	c #55636E",
"N 	c #4E5C67",
"O 	c #4D5B66",
"P 	c #4D5A66",
"Q 	c #4C5966",
"R 	c #4B5864",
"S 	c #4A5864",
"T 	c #495663",
"U 	c #485662",
"V 	c #485562",
"W 	c #475461",
"X 	c #465360",
"Y 	c #424F5C",
"Z 	c #414E5B",
"` 	c #404E5B",
" .	c #404D5A",
"..	c #3F4D59",
"+.	c #3F4C59",
"@.	c #3E4B58",
"#.	c #3D4A58",
"$.	c #3D4957",
"%.	c #3D4956",
"&.	c #3C4756",
"*.	c #3B4755",
"=.	c #3B4655",
"-.	c #394555",
";.	c #394455",
">.	c #394453",
",.	c #374253",
"'.	c #343F4E",
").	c #333E4D",
"!.	c #2F3948",
"~.	c #23303F",
"{.	c #192737",
"].	c #1A2736",
"^.	c #1A2839",
"/.	c #192838",
"(.	c #1A2738",
"_.	c #192738",
":.	c #192637",
"<.	c #182537",
"[.	c #182637",
"}.	c #172535",
"|.	c #162434",
"1.	c #162435",
"2.	c #152434",
"3.	c #152334",
"4.	c #152234",
"5.	c #142233",
"6.	c #142232",
"7.	c #142132",
"8.	c #142234",
"9.	c #142133",
"0.	c #142032",
"a.	c #132032",
"b.	c #132031",
"c.	c #121F31",
"d.	c #121E30",
"e.	c #111E30",
"f.	c #111E2F",
"g.	c #101D2F",
"h.	c #101D2E",
"i.	c #101C2E",
"j.	c #0F1C2D",
"k.	c #0E1929",
"l.	c #0D1929",
"m.	c #0D1829",
"n.	c #58667B",
"o.	c #57636F",
"p.	c #56636E",
"q.	c #4D5B67",
"r.	c #4C5A66",
"s.	c #4C5965",
"t.	c #4B5965",
"u.	c #4A5764",
"v.	c #485561",
"w.	c #475361",
"x.	c #42505C",
"y.	c #424F5B",
"z.	c #3F4B59",
"A.	c #3E4A58",
"B.	c #3D4A57",
"C.	c #3D4856",
"D.	c #3A4655",
"E.	c #3A4555",
"F.	c #384454",
"G.	c #384353",
"H.	c #374252",
"I.	c #333E4E",
"J.	c #2F3A48",
"K.	c #1A2837",
"L.	c #192638",
"M.	c #172536",
"N.	c #172435",
"O.	c #152133",
"P.	c #142033",
"Q.	c #131F32",
"R.	c #131F31",
"S.	c #121F30",
"T.	c #101E2F",
"U.	c #111D2F",
"V.	c #101C2F",
"W.	c #0F1B2E",
"X.	c #616E82",
"Y.	c #9DA9B9",
"Z.	c #56636F",
"`.	c #4C5A65",
" +	c #4B5865",
".+	c #495764",
"++	c #475561",
"@+	c #465361",
"#+	c #414F5B",
"$+	c #3F4B58",
"%+	c #3D4B59",
"&+	c #3C4755",
"*+	c #384453",
"=+	c #374353",
"-+	c #343F4D",
";+	c #343E4D",
">+	c #192836",
",+	c #1A2838",
"'+	c #1A2638",
")+	c #182536",
"!+	c #162535",
"~+	c #162333",
"{+	c #152333",
"]+	c #142333",
"^+	c #152233",
"/+	c #111D30",
"(+	c #0F1C2E",
"_+	c #657284",
":+	c #9DA9BA",
"<+	c #495763",
"[+	c #485663",
"}+	c #465461",
"|+	c #404E5A",
"1+	c #3E4B59",
"2+	c #3C4856",
"3+	c #394454",
"4+	c #394354",
"5+	c #1A2739",
"6+	c #152232",
"7+	c #132132",
"8+	c #122031",
"9+	c #121E31",
"0+	c #0F1B2D",
"a+	c #0E1A29",
"b+	c #0E1829",
"c+	c #657285",
"d+	c #56626E",
"e+	c #4A5763",
"f+	c #3C4855",
"g+	c #394655",
"h+	c #384354",
"i+	c #384252",
"j+	c #192736",
"k+	c #182535",
"l+	c #162334",
"m+	c #99A5B8",
"n+	c #4E5C68",
"o+	c #475462",
"p+	c #3F4C5A",
"q+	c #3A4554",
"r+	c #333F4D",
"s+	c #303948",
"t+	c #1A2737",
"u+	c #172434",
"v+	c #162433",
"w+	c #111F30",
"x+	c #616E83",
"y+	c #4D5C68",
"z+	c #3C4655",
"A+	c #394554",
"B+	c #35404E",
"C+	c #182636",
"D+	c #101D30",
"E+	c #56646F",
"F+	c #55636D",
"G+	c #4E5B67",
"H+	c #4E5B66",
"I+	c #495864",
"J+	c #414E5A",
"K+	c #303A48",
"L+	c #192739",
"M+	c #132133",
"N+	c #122032",
"O+	c #121E2F",
"P+	c #5F6C81",
"Q+	c #414F5C",
"R+	c #3F4C58",
"S+	c #3D4B58",
"T+	c #3D4958",
"U+	c #1A2836",
"V+	c #162536",
"W+	c #485763",
"X+	c #495562",
"Y+	c #465460",
"Z+	c #3B4856",
"`+	c #101B2E",
" @	c #4B5A66",
".@	c #404D59",
"+@	c #394353",
"@@	c #34404E",
"#@	c #192837",
"$@	c #172534",
"%@	c #5B6A80",
"&@	c #55626D",
"*@	c #475562",
"=@	c #424E5C",
"-@	c #3E4C59",
";@	c #172637",
">@	c #162534",
",@	c #152132",
"'@	c #132232",
")@	c #101C2D",
"!@	c #57646E",
"~@	c #4C5B66",
"{@	c #4B5964",
"]@	c #4A5865",
"^@	c #384253",
"/@	c #333F4E",
"(@	c #131F30",
"_@	c #56646E",
":@	c #56626D",
"<@	c #4E5B68",
"[@	c #4B5966",
"}@	c #495662",
"|@	c #192537",
"1@	c #152332",
"2@	c #111F31",
"3@	c #57657B",
"4@	c #95A2B6",
"5@	c #56636D",
"6@	c #3E4A59",
"7@	c #3E4A57",
"8@	c #182738",
"9@	c #111F2F",
"0@	c #5C6B81",
"a@	c #030304",
"b@	c #020304",
"c@	c #020303",
"d@	c #020203",
"e@	c #020202",
"f@	c #010202",
"  . . . . . . . . . . . . . . . . . . . . . . . . . . . . . . . . . . . . . . . . . . . . . . . . . . . . . . . . . . . . . . . . . . . . . . . . . . . . . . . ",
"+ + + @ # $ % & * = - ; > , ' ) ! ~ { ] ^ / ( _ : < [ } | 1 2 3 4 5 6 7 8 9 0 a b 6 c d e f g h i j k l m n o p q { r s ) t u v w x y z A B C D E + + + + + + + ",
"F G H H H H H H H H H H H H H H H H H H H H H H H H H H H H H H H H H H H H H H H H H H H H H H H H H H H H H H H H H H H H H H H H H H H H H H H H H H H H A I ",
"J K K L M N O P Q R R S T U V W X Y Z `  ...+.@.#.$.%.&.*.=.-.;.>.,.,.'.).!.~.{.].^./.(._.:.<.[.}.}.}.|.1.2.3.4.5.6.7.8.5.9.0.a.b.c.c.d.e.e.f.g.h.i.j.k.l.l.m.n.",
"* K K o.p.N q.r.s.t.R u.T V v.w.X x.y.Z  .+.z.A.B.$.C.&.=.D.E.;.F.G.H.'.I.J.~.K.{.^._.(.{.L.[.<.M.}.}.N.1.|.3.3.5.5.6.4.O.9.P.7.Q.b.R.e.S.e.T.U.V.i.W.k.m.l.m.X.",
"Y.K K Z.p.N q.P `.t. +.+T U ++W @+x.#+Z  ...$+%+$.$.%.&.&+=.E.-.*+=+H.-+;+J.~.K.>+,+/.'+:.[.)+<.M.}.}.!+1.2.~+{+]+5.7.^+9.9.7.a.a.c.c.d.e./+/+g.g.j.(+k.k.k.m._+",
":+K K Z.p.N q.r.s.t.u..+<+[+++}+@+Y Z |+ .+.1+A.#.$.2+&.&+=.D.3+4+=+H.'.-+!.~.>+{.^.5+_._.:.<.M.}.M.}.1.|.|.~+{+5.6+7.8.9.9.P.7+8+c.c.9+e.f.U.g.g.i.0+a+b+l.m.c+",
":+K K L d+N q.r.r.t.S e+T V V W @+x.Z `  .+.$+@.B.$.C.f+*.=.g+3+h+i+H.'.).!.~.{.j+5+,+(.L.:.<.[.M.k+}.!+|.l+{+^+^+9.7.4.O.6.a.b.b.b.R.d.e./+f.g.V.(+0+k.k.l.m.c+",
"m+K K o.d+n+O O `. +R .+T U W o+X Y y.|+ .p+@.1+B.B.%.&.*.D.q+;.4+G.H.'.r+s+~.t+].^./._.:.[.<.)+)+}.}.u+1.l+v+{+6+6.6.8.^+9.0.7+b.R.S.S.w+f.U.h.g.i.j.k.l.m.m.x+",
"m+K K p.p.y+q.P t. +u.u.T V ++w.X x.Z  . .+.z.@.#.$.C.&.z+D.E.A+4+=+,.B+r+s+~.K.j+^._.L.L.:.[.C+M.}.}.|.|.l+{+3.^+5.6.4.5.9.9.a.b.c.c.S.d.f.D+g.g.(+j.k.k.l.m.x+",
"A K K E+F+G+H+P `.t.S I+<+U V W X Y Y J+ .+.1+%+#.$.C.&.z+=.q+-.*+G.,.-+;+K+~.>+{.^.L+_.L.[.[.[.M.}.M.N.|.2.3.l+5.^+6.4.4.9.M+0.N+8+c.S.d.O+U.h.h.i.(+k.k.b+m.P+",
"A K K p.M G+q.P `. +S u.T V V }+X Y Q+`  .+.R+S+T+$.2+&+*.=.E.-.3+G.H.'.;+!.~.U+j+L+/.(.L.[.[.<.M.M.V+}.1.l+{+{+{+6+7.8.5.7.M+a.a.R.c.c.d.e.U.g.i.(+(+k.k.l.m.P+",
"A K K E+d+G+q.O s.t.S e+W+X+v.}+Y+x.Z J+ .p+1+@.T+$.%.Z+*.D.-.3+G.G.H.'.r+J.~.K.j+(.(._.{.L.[.<.M.M.}.1.1.3.~+^+6.9.6.4.5.9.0.7+b.8+c.9+S./+U.g.g.(+`+a+k.m.m.P+",
"G K K K d+G+q.P  @t.S <+<+U W }+@+Y Z Z  ..@1+@.T+$.$.Z+=.D.E.;.+@G.H.@@'.J.~.#@t+^.L+_.{.[.<.)+)+M.M.$@1.l+3.^+6+7.6.8.5.7.M+7+a.c.S.c.d.U.U.h.i.i.j.k.k.l.m.%@",
"G K K p.&@y+G+r.s. +S u.<+V *@W X x.=@Z  .+.-@@.A.$.%.*.*.D.q+3+*+=+H.'.r+J.~.#@].^.,+_._.[.[.;@M.M.}.N.>@|.3.4.5.,@7.5.5.'@7+7+b.c.c.w+e.f.U.U.i.(+)@k.l.m.m.%@",
"G K K !@M N O ~@s.{@]@.+T U V }+@+y.Q+J+ .+.z.S+#.$.%.2+*.D.E.A+*+^@,.'./@J.~.U+].,+/._.{.[.:.<.M.)+}.1.|.|.|.{+5.5.7.5.9.7.7.a.b.c.(@c.e./+U.i.V.i.W.k.l.m.m.%@",
"+ K K _@:@<@G+P [@{@]@.+[+}@*@}+X x.Z J+ .+.+.@.B.$.%.&.&+D.A+A+F.H.,.-+r+s+~.K.j+^._.(.L.[.|@<.)+M.M.N.|.|.{+{+1@5.7.4.5.9.a.7+a.b.R.2@d.f.g.U.h.i.i.k.l.l.m.3@",
"G K K Z.p.N H+P `.t.u.u.T V V }+@+x.Z Z  .+.$+@.#.$.C.&+*.E.D.A+>.,.H.'.I.K+~.].j+^.(._._.:.:.[.)+M.}.!+1.|.l+{+5.6.7.8.5.5.7.7+a.b.c.c.S.O+U.h.V.i.i.k.k.k.m.%@",
"4@K K L 5@N q.r.`.{@S .+T U V }+@+x.y.Z  .p++.6@7@B.%.&.=.D.D.3+G.^@H.'.r+s+~.>+].,+(.(.8@:.[.<.M.M.}.1.|.|.2.{+^+6.6.8.9.9.9.a.a.b.c.c.9@/+/+U.h.i.j.k.k.b+m.0@",
"F G H H H H H H H H H H H H H H H H H H H H H H H H H H H H H H H H H H H H H H H H H H H H H H H H H H H H H H H H H H H H H H H H H H H H H H H H H H H H A I ",
"+ + + @ # $ % & * = - ; > , ' ) ! ~ { ] ^ / ( _ : < [ } | 1 2 3 4 5 6 7 8 9 0 a b 6 c d e f g h i j k l m n o p q { r s ) t u v w x y z A B C D E + + + + + + + ",
"  a@b@c@c@c@c@d@d@d@d@d@d@e@e@f@f@f@b@c@c@c@c@d@d@d@d@d@d@e@e@f@f@f@b@c@c@c@c@d@d@d@d@d@d@e@e@f@f@f@b@c@c@c@c@d@d@d@d@d@d@e@d@d@d@f@c@d@d@d@d@d@d@e@e@f@f@f@f@. "};
