/* XPM */
static char * minimizeA_xpm[] = {
"24 48 97 2",
"  	c None",
". 	c #60708D",
"+ 	c #4C5F77",
"@ 	c #4A5C74",
"# 	c #5D6C86",
"$ 	c #485A72",
"% 	c #606F89",
"& 	c #77302F",
"* 	c #6B1D1C",
"= 	c #580000",
"- 	c #46586E",
"; 	c #606E88",
"> 	c #93482A",
", 	c #BE7F50",
"' 	c #D79F69",
") 	c #DAA46E",
"! 	c #753233",
"~ 	c #63718C",
"{ 	c #44566B",
"] 	c #944427",
"^ 	c #D59A62",
"/ 	c #D89E64",
"( 	c #425369",
"_ 	c #72221C",
": 	c #BA733E",
"< 	c #D49556",
"[ 	c #77302B",
"} 	c #3F5066",
"| 	c #660B00",
"1 	c #CD8642",
"2 	c #CF8A44",
"3 	c #6B1911",
"4 	c #3D4E63",
"5 	c #6D1200",
"6 	c #CB8034",
"7 	c #711E0F",
"8 	c #3C4C60",
"9 	c #751A00",
"0 	c #C87928",
"a 	c #76220E",
"b 	c #394A5E",
"c 	c #7D2100",
"d 	c #C6721D",
"e 	c #7B280F",
"f 	c #37485B",
"g 	c #852900",
"h 	c #C36B12",
"i 	c #812C0E",
"j 	c #364558",
"k 	c #8D3100",
"l 	c #C1660A",
"m 	c #87320D",
"n 	c #334355",
"o 	c #953800",
"p 	c #BF6204",
"q 	c #8E380B",
"r 	c #314053",
"s 	c #9D4000",
"t 	c #BE5F00",
"u 	c #F1DDCC",
"v 	c #FFFFFF",
"w 	c #943F0E",
"x 	c #2F3D4F",
"y 	c #A54700",
"z 	c #BF6205",
"A 	c #C06305",
"B 	c #BC5900",
"C 	c #EFD8CC",
"D 	c #9A460E",
"E 	c #2D3B4D",
"F 	c #AB5311",
"G 	c #C16409",
"H 	c #C86B0D",
"I 	c #C56200",
"J 	c #BB4700",
"K 	c #B23000",
"L 	c #B12C00",
"M 	c #2B3949",
"N 	c #A34B08",
"O 	c #D07315",
"P 	c #D17416",
"Q 	c #D07111",
"R 	c #CE6B06",
"S 	c #CC6600",
"T 	c #CC6400",
"U 	c #283647",
"V 	c #374251",
"W 	c #D97C1E",
"X 	c #DA7D1F",
"Y 	c #3A4251",
"Z 	c #273444",
"` 	c #293646",
" .	c #253241",
"..	c #333E4D",
"+.	c #23303F",
"@.	c #212D3C",
"#.	c #1D2937",
". . . . . . . . . . . . . . . . . . . . . . . . ",
"+ + + + + + + + + + + + + + + + + + + + + + + + ",
"@ @ @ @ @ @ # # # # # # # # # # # # # # # @ @ @ ",
"$ $ $ $ $ % & * = = = = = = = = = = = * & # $ $ ",
"- - - - ; & > , ' ) ) ) ) ) ) ) ) ) ' , > ! ~ - ",
"{ { { { & ] ^ / / / / / / / / / / / / / ^ ] & { ",
"( ( ( ( _ : < < < < < < < < < < < < < < < : [ ( ",
"} } } } | 1 2 2 2 2 2 2 2 2 2 2 2 2 2 2 2 1 3 } ",
"4 4 4 4 5 6 6 6 6 6 6 6 6 6 6 6 6 6 6 6 6 6 7 4 ",
"8 8 8 8 9 0 0 0 0 0 0 0 0 0 0 0 0 0 0 0 0 0 a 8 ",
"b b b b c d d d d d d d d d d d d d d d d d e b ",
"f f f f g h h h h h h h h h h h h h h h h h i f ",
"j j j j k l l l l l l l l l l l l l l l l l m j ",
"n n n n o p p p p p p p p p p p p p p p p p q n ",
"r r r r s p p p t u v v v v v v v u t p p p w r ",
"x x x x y z A A B C v v v v v v v C B A A z D x ",
"E E E E F G H H I J K L L L L L K J I H H G F E ",
"M M M M N F O P Q R S T T T T T S R Q P O F N M ",
"U U U U V N F P W X X X X X X X X X W P F N Y U ",
"Z Z Z Z Z Y N F F F F F F F F F F F F F N Y ` Z ",
" . . . . . ............................... . . .",
"+.+.+.+.+.+.+.+.+.+.+.+.+.+.+.+.+.+.+.+.+.+.+.+.",
"@.@.@.@.@.@.@.@.@.@.@.@.@.@.@.@.@.@.@.@.@.@.@.@.",
"#.#.#.#.#.#.#.#.#.#.#.#.#.#.#.#.#.#.#.#.#.#.#.#.",
". . . . . . . . . . . . . . . . . . . . . . . . ",
"+ + + + + + + + + + + + + + + + + + + + + + + + ",
"@ @ @ @ @ @ # # # # # # # # # # # # # # # @ @ @ ",
"$ $ $ $ $ % & * = = = = = = = = = = = * & # $ $ ",
"- - - - ; & > , ' ) ) ) ) ) ) ) ) ) ' , > ! ~ - ",
"{ { { { & ] ^ / / / / / / / / / / / / / ^ ] & { ",
"( ( ( ( _ : < < < < < < < < < < < < < < < : [ ( ",
"} } } } | 1 2 2 2 2 2 2 2 2 2 2 2 2 2 2 2 1 3 } ",
"4 4 4 4 5 6 6 6 6 6 6 6 6 6 6 6 6 6 6 6 6 6 7 4 ",
"8 8 8 8 9 0 0 0 0 0 0 0 0 0 0 0 0 0 0 0 0 0 a 8 ",
"b b b b c d d d d d d d d d d d d d d d d d e b ",
"f f f f g h h h h h h h h h h h h h h h h h i f ",
"j j j j k l l l l l l l l l l l l l l l l l m j ",
"n n n n o p p p p p p p p p p p p p p p p p q n ",
"r r r r s p p p t u v v v v v v v u t p p p w r ",
"x x x x y z A A B C v v v v v v v C B A A z D x ",
"E E E E F G H H I J K L L L L L K J I H H G F E ",
"M M M M N F O P Q R S T T T T T S R Q P O F N M ",
"U U U U V N F P W X X X X X X X X X W P F N Y U ",
"Z Z Z Z Z Y N F F F F F F F F F F F F F N Y ` Z ",
" . . . . . ............................... . . .",
"+.+.+.+.+.+.+.+.+.+.+.+.+.+.+.+.+.+.+.+.+.+.+.+.",
"@.@.@.@.@.@.@.@.@.@.@.@.@.@.@.@.@.@.@.@.@.@.@.@.",
"#.#.#.#.#.#.#.#.#.#.#.#.#.#.#.#.#.#.#.#.#.#.#.#."};
