/* XPM */
static char * minimizeO_xpm[] = {
"24 48 179 2",
"  	c None",
". 	c #60708D",
"+ 	c #4C5F77",
"@ 	c #4A5C74",
"# 	c #5D6C86",
"$ 	c #485A72",
"% 	c #606F89",
"& 	c #85302F",
"* 	c #7D1D1C",
"= 	c #6D0000",
"- 	c #46586E",
"; 	c #606E88",
"> 	c #A54E30",
", 	c #CC885A",
"' 	c #E2AA75",
") 	c #E5AF79",
"! 	c #84302F",
"~ 	c #66738E",
"{ 	c #44566B",
"] 	c #A44A2B",
"^ 	c #E1A76D",
"/ 	c #E3AA70",
"( 	c #A54B2C",
"_ 	c #425369",
": 	c #801D1C",
"< 	c #C87C49",
"[ 	c #E0A263",
"} 	c #7F201D",
"| 	c #3F5066",
"1 	c #750400",
"2 	c #DA9450",
"3 	c #DD9852",
"4 	c #740703",
"5 	c #3D4E63",
"6 	c #7B0900",
"7 	c #DA8F43",
"8 	c #790C01",
"9 	c #3C4C60",
"0 	c #7F0C00",
"a 	c #D98938",
"b 	c #7D0F01",
"c 	c #394A5E",
"d 	c #841300",
"e 	c #D6832E",
"f 	c #821401",
"g 	c #37485B",
"h 	c #8A1A02",
"i 	c #D47D24",
"j 	c #871901",
"k 	c #364558",
"l 	c #902304",
"m 	c #D3781C",
"n 	c #8D2001",
"o 	c #334355",
"p 	c #962A06",
"q 	c #D27517",
"r 	c #932501",
"s 	c #314053",
"t 	c #9C3108",
"u 	c #D17212",
"v 	c #F5E2CD",
"w 	c #FFFFFF",
"x 	c #982A01",
"y 	c #2F3D4F",
"z 	c #A0360A",
"A 	c #D17317",
"B 	c #D37618",
"C 	c #D06D0A",
"D 	c #F4DDCC",
"E 	c #9C2F01",
"F 	c #2D3B4D",
"G 	c #A9481B",
"H 	c #CC6817",
"I 	c #DB7E20",
"J 	c #D97612",
"K 	c #D25F00",
"L 	c #CD4A00",
"M 	c #CC4700",
"N 	c #2B3949",
"O 	c #B3562B",
"P 	c #E28528",
"Q 	c #E48729",
"R 	c #E38525",
"S 	c #E27F1B",
"T 	c #E17B13",
"U 	c #E17911",
"V 	c #283647",
"W 	c #374251",
"X 	c #DB7724",
"Y 	c #EA8D30",
"Z 	c #ED9032",
"` 	c #3C4656",
" .	c #273444",
"..	c #3A4251",
"+.	c #B14300",
"@.	c #B14200",
"#.	c #B04100",
"$.	c #B04101",
"%.	c #475061",
"&.	c #293646",
"*.	c #253241",
"=.	c #333E4D",
"-.	c #23303F",
";.	c #212D3C",
">.	c #1D2937",
",.	c #5A6982",
"'.	c #77302F",
").	c #702826",
"!.	c #5F0D0C",
"~.	c #57677E",
"{.	c #89331B",
"].	c #AF5C34",
"^.	c #C57645",
"/.	c #C97B48",
"(.	c #76302F",
"_.	c #67748E",
":.	c #893118",
"<.	c #C57340",
"[.	c #C77641",
"}.	c #4B5C72",
"|.	c #721D1C",
"1.	c #AC5328",
"2.	c #C46F37",
"3.	c #70211F",
"4.	c #48586F",
"5.	c #640000",
"6.	c #BE632A",
"7.	c #C1672C",
"8.	c #630604",
"9.	c #44546B",
"0.	c #6A0000",
"a.	c #BE5E20",
"b.	c #6A0704",
"c.	c #405167",
"d.	c #6E0000",
"e.	c #BB5918",
"f.	c #6F0905",
"g.	c #3E4E63",
"h.	c #740100",
"i.	c #B95311",
"j.	c #750B05",
"k.	c #3A4B5F",
"l.	c #7A0200",
"m.	c #B74E0A",
"n.	c #7C0C06",
"o.	c #810400",
"p.	c #B54A04",
"q.	c #820D06",
"r.	c #880701",
"s.	c #B44700",
"t.	c #881106",
"u.	c #8E0F02",
"v.	c #B24300",
"w.	c #EFD8CC",
"x.	c #8D1707",
"y.	c #931504",
"z.	c #B34500",
"A.	c #AF3B00",
"B.	c #ECD1CC",
"C.	c #921D07",
"D.	c #A82C00",
"E.	c #B84B00",
"F.	c #B44000",
"G.	c #A71F00",
"H.	c #9C0300",
"I.	c #9A0000",
"J.	c #B33C12",
"K.	c #BD4F00",
"L.	c #BE5100",
"M.	c #BD4E00",
"N.	c #BA4500",
"O.	c #B73F00",
"P.	c #B73D00",
"Q.	c #B94500",
"R.	c #C25400",
"S.	c #C35600",
"T.	c #384252",
"U.	c #A72A00",
"V.	c #A82E01",
". . . . . . . . . . . . . . . . . . . . . . . . ",
"+ + + + + + + + + + + + + + + + + + + + + + + + ",
"@ @ @ @ @ @ # # # # # # # # # # # # # # # @ @ @ ",
"$ $ $ $ $ % & * = = = = = = = = = = = * & # $ $ ",
"- - - - ; & > , ' ) ) ) ) ) ) ) ) ) ' , > ! ~ - ",
"{ { { { & ] ^ / / / / / / / / / / / / / ^ ( & { ",
"_ _ _ _ : < [ [ [ [ [ [ [ [ [ [ [ [ [ [ [ < } _ ",
"| | | | 1 2 3 3 3 3 3 3 3 3 3 3 3 3 3 3 3 2 4 | ",
"5 5 5 5 6 7 7 7 7 7 7 7 7 7 7 7 7 7 7 7 7 7 8 5 ",
"9 9 9 9 0 a a a a a a a a a a a a a a a a a b 9 ",
"c c c c d e e e e e e e e e e e e e e e e e f c ",
"g g g g h i i i i i i i i i i i i i i i i i j g ",
"k k k k l m m m m m m m m m m m m m m m m m n k ",
"o o o o p q q q q q q q q q q q q q q q q q r o ",
"s s s s t q q q u v w w w w w w w v u q q q x s ",
"y y y y z A B B C D w w w w w w w D C B B A E y ",
"F F F F G H I I J K L M M M M M L K J I I H G F ",
"N N N N O G P Q R S T U U U U U T S R Q P G O N ",
"V V V V W O G X Y Z Z Z Z Z Z Z Z Z Y X G O ` V ",
" . . . . ...O G +.+.+.+.+.@.#.#.#.$.$.G O %.&. .",
"*.*.*.*.*.*.=.=.=.=.=.=.=.=.=.=.=.=.=.=.=.*.*.*.",
"-.-.-.-.-.-.-.-.-.-.-.-.-.-.-.-.-.-.-.-.-.-.-.-.",
";.;.;.;.;.;.;.;.;.;.;.;.;.;.;.;.;.;.;.;.;.;.;.;.",
">.>.>.>.>.>.>.>.>.>.>.>.>.>.>.>.>.>.>.>.>.>.>.>.",
". . . . . . . . . . . . . . . . . . . . . . . . ",
"+ + + + + + + + + + + + + + + + + + + + + + + + ",
"@ @ @ @ @ @ # # # # # # # # # # # # # # # @ @ @ ",
"$ $ $ $ $ ,.'.).!.!.!.!.!.!.!.!.!.!.!.).'.# $ $ ",
"- - - - ~.'.{.].^./././././././././.^.].{.(._.- ",
"{ { { { '.:.<.[.[.[.[.[.[.[.[.[.[.[.[.[.<.:.'.}.",
"_ _ _ _ |.1.2.2.2.2.2.2.2.2.2.2.2.2.2.2.2.1.3.4.",
"| | | | 5.6.7.7.7.7.7.7.7.7.7.7.7.7.7.7.7.6.8.9.",
"5 5 5 5 0.a.a.a.a.a.a.a.a.a.a.a.a.a.a.a.a.a.b.c.",
"9 9 9 9 d.e.e.e.e.e.e.e.e.e.e.e.e.e.e.e.e.e.f.g.",
"c c c c h.i.i.i.i.i.i.i.i.i.i.i.i.i.i.i.i.i.j.k.",
"g g g g l.m.m.m.m.m.m.m.m.m.m.m.m.m.m.m.m.m.n.g ",
"k k k k o.p.p.p.p.p.p.p.p.p.p.p.p.p.p.p.p.p.q.k ",
"o o o o r.s.s.s.s.s.s.s.s.s.s.s.s.s.s.s.s.s.t.o ",
"s s s s u.s.s.s.v.w.w w w w w w w w.v.s.s.s.x.s ",
"y y y y y.z.s.s.A.B.w w w w w w w B.A.s.s.z.C.y ",
"F F F F D.A.E.E.F.G.H.I.I.I.I.I.H.G.F.E.E.A.D.F ",
"N N N N J.D.K.L.M.N.O.P.P.P.P.P.O.N.M.L.K.D.J.N ",
"V V V V W J.D.Q.R.S.S.S.S.S.S.S.S.S.R.Q.D.J.` V ",
" . . . . .T.J.D.U.U.U.U.U.D.V.V.V.V.V.D.J.%.&. .",
"*.*.*.*.*.*.=.=.=.=.=.=.=.=.=.=.=.=.=.=.=.*.*.*.",
"-.-.-.-.-.-.-.-.-.-.-.-.-.-.-.-.-.-.-.-.-.-.-.-.",
";.;.;.;.;.;.;.;.;.;.;.;.;.;.;.;.;.;.;.;.;.;.;.;.",
">.>.>.>.>.>.>.>.>.>.>.>.>.>.>.>.>.>.>.>.>.>.>.>."};
