/* XPM */
static char * restoreO_xpm[] = {
"24 48 241 2",
"  	c None",
". 	c #60708D",
"+ 	c #4C5F77",
"@ 	c #4A5C74",
"# 	c #63728D",
"$ 	c #5D6C86",
"% 	c #485A72",
"& 	c #495A73",
"* 	c #31402F",
"= 	c #283826",
"- 	c #0D1F0C",
"; 	c #46586E",
"> 	c #54612F",
", 	c #939C59",
"' 	c #B7BD74",
") 	c #BBC178",
"! 	c #53602E",
"~ 	c #313E2F",
"{ 	c #44566B",
"] 	c #51602B",
"^ 	c #B3BA6D",
"/ 	c #B7BE6F",
"( 	c #425369",
"_ 	c #1E331C",
": 	c #899348",
"< 	c #B0B762",
"[ 	c #2A3D27",
"} 	c #3F5066",
"| 	c #041D00",
"1 	c #A3AB4F",
"2 	c #A8B052",
"3 	c #A6AE4E",
"4 	c #F5F6EC",
"5 	c #FFFFFF",
"6 	c #11270B",
"7 	c #3D4E63",
"8 	c #092200",
"9 	c #A0A942",
"0 	c #99A234",
"a 	c #142B09",
"b 	c #3C4C60",
"c 	c #0C2500",
"d 	c #9BA438",
"e 	c #919B23",
"f 	c #E4E6CC",
"g 	c #6C7A00",
"h 	c #717D00",
"i 	c #172C07",
"j 	c #394A5E",
"k 	c #112A00",
"l 	c #959F2D",
"m 	c #8B9619",
"n 	c #E5E7CC",
"o 	c #818D05",
"p 	c #899415",
"q 	c #889313",
"r 	c #F3F4E8",
"s 	c #929D28",
"t 	c #193005",
"u 	c #37485B",
"v 	c #162F00",
"w 	c #889210",
"x 	c #7D8800",
"y 	c #899312",
"z 	c #1C3403",
"A 	c #364558",
"B 	c #1D3600",
"C 	c #8D971B",
"D 	c #838E08",
"E 	c #D8DBB7",
"F 	c #E6E8CE",
"G 	c #788400",
"H 	c #687600",
"I 	c #E0E3CC",
"J 	c #818C03",
"K 	c #223901",
"L 	c #334355",
"M 	c #223B00",
"N 	c #8A9516",
"O 	c #838F08",
"P 	c #758200",
"Q 	c #717E00",
"R 	c #748100",
"S 	c #7F8B01",
"T 	c #788500",
"U 	c #E2E5CC",
"V 	c #7F8B00",
"W 	c #263D00",
"X 	c #314053",
"Y 	c #284000",
"Z 	c #889312",
"` 	c #808C02",
" .	c #7D8900",
"..	c #E4E7CC",
"+.	c #E3E6CC",
"@.	c #2C4200",
"#.	c #2F3D4F",
"$.	c #2B4300",
"%.	c #879316",
"&.	c #8B9617",
"*.	c #848F08",
"=.	c #D9DDB7",
"-.	c #E6E8CD",
";.	c #D7DBB7",
">.	c #818D03",
",.	c #2F4700",
"'.	c #2D3B4D",
").	c #384D08",
"!.	c #778616",
"~.	c #939E1F",
"{.	c #8D9812",
"].	c #7F8C00",
"^.	c #7C8900",
"/.	c #7E8B00",
"(.	c #2B3949",
"_.	c #3B5400",
":.	c #99A527",
"<.	c #939D26",
"[.	c #9AA625",
"}.	c #96A21C",
"|.	c #94A016",
"1.	c #283647",
"2.	c #3F485A",
"3.	c #7E8C21",
"4.	c #97A22C",
"5.	c #9BA62E",
"6.	c #3E4859",
"7.	c #273444",
"8.	c #3D4757",
"9.	c #434B5B",
"0.	c #253241",
"a.	c #333E4D",
"b.	c #23303F",
"c.	c #212D3C",
"d.	c #1D2937",
"e.	c #4B5C75",
"f.	c #65738E",
"g.	c #31302F",
"h.	c #242721",
"i.	c #1A1B19",
"j.	c #151513",
"k.	c #0D0D0C",
"l.	c #333A1B",
"m.	c #5C6A34",
"n.	c #768645",
"o.	c #7B8B48",
"p.	c #31322F",
"q.	c #4B5C72",
"r.	c #738440",
"s.	c #768741",
"t.	c #48586F",
"u.	c #1F1E1D",
"v.	c #536128",
"w.	c #6F8137",
"x.	c #44546B",
"y.	c #020202",
"z.	c #63752A",
"A.	c #677A2C",
"B.	c #637727",
"C.	c #EEF0E8",
"D.	c #040900",
"E.	c #405167",
"F.	c #030402",
"G.	c #5E7220",
"H.	c #52670F",
"I.	c #060B00",
"J.	c #3E4E63",
"K.	c #030903",
"L.	c #596E18",
"M.	c #485F00",
"N.	c #D2D8CC",
"O.	c #0C2A00",
"P.	c #133000",
"Q.	c #081000",
"R.	c #3A4B5F",
"S.	c #040F04",
"T.	c #536911",
"U.	c #435B00",
"V.	c #D4DACC",
"W.	c #324C00",
"X.	c #3F5800",
"Y.	c #3E5600",
"Z.	c #ECEFE5",
"`.	c #4F650B",
" +	c #0A1600",
".+	c #051504",
"++	c #4E640A",
"@+	c #3F5700",
"#+	c #D5DACC",
"$+	c #2D4700",
"%+	c #415800",
"&+	c #0C1D00",
"*+	c #051D05",
"=+	c #4A6004",
"-+	c #3B5200",
";+	c #C1C9B7",
">+	c #D8DCCC",
",+	c #294300",
"'+	c #102D00",
")+	c #CED4CC",
"!+	c #374F00",
"~+	c #0F2401",
"{+	c #072306",
"]+	c #475E00",
"^+	c #3C5500",
"/+	c #264100",
"(+	c #203B00",
"_+	c #243F00",
":+	c #365000",
"<+	c #2B4500",
"[+	c #D1D7CC",
"}+	c #364F00",
"|+	c #122C02",
"1+	c #0D2A06",
"2+	c #445B00",
"3+	c #375000",
"4+	c #D3D9CC",
"5+	c #183302",
"6+	c #122E07",
"7+	c #455C00",
"8+	c #C3CAB7",
"9+	c #D5DBCC",
"0+	c #D7DCCC",
"a+	c #C0C8B7",
"b+	c #1E3803",
"c+	c #233808",
"d+	c #4B6300",
"e+	c #415A00",
"f+	c #2A4700",
"g+	c #244200",
"h+	c #294500",
"i+	c #2B380B",
"j+	c #4F6700",
"k+	c #516900",
"l+	c #4E6700",
"m+	c #476000",
"n+	c #425C00",
"o+	c #455E00",
"p+	c #546B00",
"q+	c #566D00",
"r+	c #223E00",
". . . . . . . . . . . . . . . . . . . . . . . . ",
"+ + + + + + + + + + + + + + + + + + + + + + + + ",
"@ @ @ # $ $ $ $ $ $ $ $ $ $ $ $ $ # @ @ @ @ @ @ ",
"% & # * = - - - - - - - - - - - = * # % % % % % ",
"; # * > , ' ) ) ) ) ) ) ) ) ) ' , ! ~ # ; ; ; ; ",
"{ * ] ^ / / / / / / / / / / / / / ^ ] * { { { { ",
"( _ : < < < < < < < < < < < < < < < : [ ( ( ( ( ",
"} | 1 2 3 4 5 5 5 5 5 5 4 3 2 2 2 2 1 6 } } } } ",
"7 8 9 9 0 5 5 5 5 5 5 5 5 0 9 9 9 9 9 a 7 7 7 7 ",
"b c d d e f g h h h h g f e d d d d d i b b b b ",
"j k l l m n o p p p p o n q 5 r s l l t j j j j ",
"u v e e w n w e e e e w n x 5 5 y e e z u u u u ",
"A B C C D E n F F F F n E G H I J C C K A A A A ",
"L M N N O P Q R R R R Q P S T U V N N W L L L L ",
"X Y N N Z O `  ... .` ` O Z ` +.` N N @.X X X X ",
"#.$.%.&.&.&.&.*.=.n -.-.-.-...;.>.&.%.,.#.#.#.#.",
"'.).!.~.~.~.~.{.].^././././.^.].{.~.!.).'.'.'.'.",
"(._.).:.<.<.<.[.}.|.|.|.|.|.|.}.[.:.)._.(.(.(.(.",
"1.2._.).3.4.5.5.5.5.5.5.5.5.5.4.3.)._.6.1.1.1.1.",
"7.7.8._.)._._._._._._._._._._._.)._.9.7.7.7.7.7.",
"0.0.0.a.a.a.a.a.a.a.a.a.a.a.a.a.a.a.0.0.0.0.0.0.",
"b.b.b.b.b.b.b.b.b.b.b.b.b.b.b.b.b.b.b.b.b.b.b.b.",
"c.c.c.c.c.c.c.c.c.c.c.c.c.c.c.c.c.c.c.c.c.c.c.c.",
"d.d.d.d.d.d.d.d.d.d.d.d.d.d.d.d.d.d.d.d.d.d.d.d.",
". . . . . . . . . . . . . . . . . . . . . . . . ",
"+ + + + + + + + + + + + + + + + + + + + + + + + ",
"@ @ e.# f.f.f.f.f.f.f.f.f.f.f.f.f.# @ @ @ @ @ @ ",
"% & # g.h.i.i.i.i.i.j.k.k.k.k.k.h.g.# % % % % % ",
"; # g.l.m.n.o.o.o.o.o.o.o.o.o.n.m.l.p.# ; ; ; ; ",
"q.g.h.r.s.s.s.s.s.s.s.s.s.s.s.s.s.r.h.g.{ { { { ",
"t.u.v.w.w.w.w.w.w.w.w.w.w.w.w.w.w.w.v.h.( ( ( ( ",
"x.y.z.A.B.C.5 5 5 5 5 5 C.B.A.A.A.A.z.D.} } } } ",
"E.F.G.G.H.5 5 5 5 5 5 5 5 H.G.G.G.G.G.I.7 7 7 7 ",
"J.K.L.L.M.N.O.P.P.P.P.O.N.M.L.L.L.L.L.Q.b b b b ",
"R.S.T.T.U.V.W.X.X.X.X.W.V.Y.5 Z.`.T.T. +j j j j ",
"u .+++++@+#+@+++++++++@+#+$+5 5 %+++++&+u u u u ",
"A *+=+=+-+;+#+>+>+>+>+#+;+,+'+)+!+=+=+~+A A A A ",
"L {+]+]+^+/+(+_+_+_+_+(+/+:+<+[+}+]+]+|+L L L L ",
"X 1+]+]+2+^+3+W.#+W.3+3+^+2+3+4+3+]+]+5+X X X X ",
"#.6+7+]+]+]+]+_.8+9+0+0+0+0+V.a+3+]+7+b+#.#.#.#.",
"'.c+_.d+d+d+d+e+f+g+h+h+h+h+g+f+e+d+_.c+'.'.'.'.",
"(.i+c+j+k+k+k+l+m+n+n+n+n+n+n+m+l+j+c+i+(.(.(.(.",
"1.a.i+c+o+p+q+q+q+q+q+q+q+q+q+p+o+c+i+a.1.1.1.1.",
"7.7.a.i+c+/+/+/+/+/+_+r+r+r+r+r+c+i+a.7.7.7.7.7.",
"0.0.0.a.a.a.a.a.a.a.a.a.a.a.a.a.a.a.0.0.0.0.0.0.",
"b.b.b.b.b.b.b.b.b.b.b.b.b.b.b.b.b.b.b.b.b.b.b.b.",
"c.c.c.c.c.c.c.c.c.c.c.c.c.c.c.c.c.c.c.c.c.c.c.c.",
"d.d.d.d.d.d.d.d.d.d.d.d.d.d.d.d.d.d.d.d.d.d.d.d."};
