/* XPM */
static char * restoreA_xpm[] = {
"24 48 122 2",
"  	c None",
". 	c #60708D",
"+ 	c #4C5F77",
"@ 	c #4A5C74",
"# 	c #5D6C86",
"$ 	c #485A72",
"% 	c #313D2F",
"& 	c #1D2A1C",
"* 	c #000F00",
"= 	c #46586E",
"- 	c #48562A",
"; 	c #7F8B50",
"> 	c #9FAB69",
", 	c #A4B06E",
"' 	c #44566B",
") 	c #445627",
"! 	c #9AA762",
"~ 	c #9EAB64",
"{ 	c #425369",
"] 	c #22331C",
"^ 	c #73823E",
"/ 	c #95A256",
"( 	c #303423",
"_ 	c #3F5066",
": 	c #0B1F00",
"< 	c #869642",
"[ 	c #8A9944",
"} 	c #87973F",
"| 	c #F2F4EB",
"1 	c #FFFFFF",
"2 	c #1C200A",
"3 	c #3D4E63",
"4 	c #132500",
"5 	c #809034",
"6 	c #768825",
"7 	c #22270A",
"8 	c #3C4C60",
"9 	c #1D2C00",
"0 	c #798A28",
"a 	c #6B7E12",
"b 	c #DBDFCC",
"c 	c #3B5400",
"d 	c #405800",
"e 	c #292D0A",
"f 	c #394A5E",
"g 	c #273301",
"h 	c #72841D",
"i 	c #657808",
"j 	c #DCE0CC",
"k 	c #576C00",
"l 	c #627603",
"m 	c #617501",
"n 	c #F0F2E6",
"o 	c #6F8118",
"p 	c #30330B",
"q 	c #37485B",
"r 	c #303A02",
"s 	c #5E7300",
"t 	c #4F6600",
"u 	c #607400",
"v 	c #373A0B",
"w 	c #364558",
"x 	c #3A4002",
"y 	c #66790A",
"z 	c #596E00",
"A 	c #CAD1B7",
"B 	c #DEE2CC",
"C 	c #4A6100",
"D 	c #354E00",
"E 	c #D6DBCC",
"F 	c #566B00",
"G 	c #3F400B",
"H 	c #334355",
"I 	c #444603",
"J 	c #627604",
"K 	c #465D00",
"L 	c #405900",
"M 	c #445C00",
"N 	c #546A00",
"O 	c #D8DDCC",
"P 	c #536900",
"Q 	c #46460D",
"R 	c #314053",
"S 	c #4D4B04",
"T 	c #5F7400",
"U 	c #556A00",
"V 	c #506600",
"W 	c #DBE0CC",
"X 	c #DADECC",
"Y 	c #4C4D0D",
"Z 	c #2F3D4F",
"` 	c #575106",
" .	c #627605",
"..	c #637705",
"+.	c #CCD2B7",
"@.	c #DDE1CC",
"#.	c #CAD0B7",
"$.	c #53520D",
"%.	c #2D3B4D",
"&.	c #566000",
"*.	c #647809",
"=.	c #6B7F0D",
"-.	c #627800",
";.	c #506800",
">.	c #4B6400",
",.	c #2B3949",
"'.	c #4B5400",
").	c #738715",
"!.	c #6D8015",
"~.	c #728612",
"{.	c #6C8108",
"].	c #687E02",
"^.	c #283647",
"/.	c #333E4D",
"(.	c #75871C",
"_.	c #76881D",
":.	c #273444",
"<.	c #353E4C",
"[.	c #253241",
"}.	c #23303F",
"|.	c #212D3C",
"1.	c #1D2937",
". . . . . . . . . . . . . . . . . . . . . . . . ",
"+ + + + + + + + + + + + + + + + + + + + + + + + ",
"@ @ @ # # # # # # # # # # # # # # # @ @ @ @ @ @ ",
"$ $ # % & * * * * * * * * * * * & % # $ $ $ $ $ ",
"= # % - ; > , , , , , , , , , > ; - % # = = = = ",
"' % ) ! ~ ~ ~ ~ ~ ~ ~ ~ ~ ~ ~ ~ ~ ! ) % ' ' ' ' ",
"{ ] ^ / / / / / / / / / / / / / / / ^ ( { { { { ",
"_ : < [ } | 1 1 1 1 1 1 | } [ [ [ [ < 2 _ _ _ _ ",
"3 4 5 5 6 1 1 1 1 1 1 1 1 6 5 5 5 5 5 7 3 3 3 3 ",
"8 9 0 0 a b c d d d d c b a 0 0 0 0 0 e 8 8 8 8 ",
"f g h h i j k l l l l k j m 1 n o h h p f f f f ",
"q r a a s j s a a a a s j t 1 1 u a a v q q q q ",
"w x y y z A j B B B B j A C D E F y y G w w w w ",
"H I J J z K L M M M M L K N C O P J J Q H H H H ",
"R S J J T z U V W V U U z T U X U J J Y R R R R ",
"Z `  .........z +.j @.@.@.@.b #.F .. .$.Z Z Z Z ",
"%.&.*.=.=.=.=.-.;.>.t t t t >.;.-.=.*.&.%.%.%.%.",
",.'.&.).!.!.!.~.{.].].].].].].{.~.).&.'.,.,.,.,.",
"^./.'.&.!.(._._._._._._._._._.(.!.&.'./.^.^.^.^.",
":.:./.'.&.&.&.&.&.&.&.&.&.&.&.&.&.'.<.:.:.:.:.:.",
"[.[.[./././././././././././././././.[.[.[.[.[.[.",
"}.}.}.}.}.}.}.}.}.}.}.}.}.}.}.}.}.}.}.}.}.}.}.}.",
"|.|.|.|.|.|.|.|.|.|.|.|.|.|.|.|.|.|.|.|.|.|.|.|.",
"1.1.1.1.1.1.1.1.1.1.1.1.1.1.1.1.1.1.1.1.1.1.1.1.",
". . . . . . . . . . . . . . . . . . . . . . . . ",
"+ + + + + + + + + + + + + + + + + + + + + + + + ",
"@ @ @ # # # # # # # # # # # # # # # @ @ @ @ @ @ ",
"$ $ # % & * * * * * * * * * * * & % # $ $ $ $ $ ",
"= # % - ; > , , , , , , , , , > ; - % # = = = = ",
"' % ) ! ~ ~ ~ ~ ~ ~ ~ ~ ~ ~ ~ ~ ~ ! ) % ' ' ' ' ",
"{ ] ^ / / / / / / / / / / / / / / / ^ ( { { { { ",
"_ : < [ } | 1 1 1 1 1 1 | } [ [ [ [ < 2 _ _ _ _ ",
"3 4 5 5 6 1 1 1 1 1 1 1 1 6 5 5 5 5 5 7 3 3 3 3 ",
"8 9 0 0 a b c d d d d c b a 0 0 0 0 0 e 8 8 8 8 ",
"f g h h i j k l l l l k j m 1 n o h h p f f f f ",
"q r a a s j s a a a a s j t 1 1 u a a v q q q q ",
"w x y y z A j B B B B j A C D E F y y G w w w w ",
"H I J J z K L M M M M L K N C O P J J Q H H H H ",
"R S J J T z U V W V U U z T U X U J J Y R R R R ",
"Z `  .........z +.j @.@.@.@.b #.F .. .$.Z Z Z Z ",
"%.&.*.=.=.=.=.-.;.>.t t t t >.;.-.=.*.&.%.%.%.%.",
",.'.&.).!.!.!.~.{.].].].].].].{.~.).&.'.,.,.,.,.",
"^./.'.&.!.(._._._._._._._._._.(.!.&.'./.^.^.^.^.",
":.:./.'.&.&.&.&.&.&.&.&.&.&.&.&.&.'.<.:.:.:.:.:.",
"[.[.[./././././././././././././././.[.[.[.[.[.[.",
"}.}.}.}.}.}.}.}.}.}.}.}.}.}.}.}.}.}.}.}.}.}.}.}.",
"|.|.|.|.|.|.|.|.|.|.|.|.|.|.|.|.|.|.|.|.|.|.|.|.",
"1.1.1.1.1.1.1.1.1.1.1.1.1.1.1.1.1.1.1.1.1.1.1.1."};
