/* XPM */
static char * titleIL_xpm[] = {
"24 24 143 2",
"  	c None",
". 	c #60708D",
"+ 	c #666699",
"@ 	c #A3A3D9",
"# 	c #9FA7C2",
"$ 	c #ACB4D1",
"% 	c #B9C2E1",
"& 	c #B9C2E2",
"* 	c #4C5F77",
"= 	c #51637C",
"- 	c #656598",
"; 	c #99A2C1",
"> 	c #4A5C74",
", 	c #5E6E89",
"' 	c #939EBE",
") 	c #485A72",
"! 	c #485A71",
"~ 	c #4D5F76",
"{ 	c #636596",
"] 	c #8F9ABC",
"^ 	c #46586E",
"/ 	c #46586F",
"( 	c #4E6078",
"_ 	c #8A96B9",
": 	c #44566B",
"< 	c #44556B",
"[ 	c #44566C",
"} 	c #475970",
"| 	c #616393",
"1 	c #8793B6",
"2 	c #425369",
"3 	c #425368",
"4 	c #4E5E77",
"5 	c #656597",
"6 	c #8390B5",
"7 	c #3F5066",
"8 	c #405166",
"9 	c #3F5166",
"0 	c #586680",
"a 	c #818EB4",
"b 	c #3D4E63",
"c 	c #3E4E63",
"d 	c #3D4E64",
"e 	c #3E4F64",
"f 	c #3D4F64",
"g 	c #505F77",
"h 	c #636495",
"i 	c #7F8CB2",
"j 	c #3C4C60",
"k 	c #3C4D60",
"l 	c #3C4C61",
"m 	c #3B4D61",
"n 	c #4E5C74",
"o 	c #9999CC",
"p 	c #7C89B0",
"q 	c #394A5E",
"r 	c #3A4A5D",
"s 	c #3A4A5E",
"t 	c #39495D",
"u 	c #39495E",
"v 	c #4B5972",
"w 	c #7886AF",
"x 	c #37485B",
"y 	c #38475B",
"z 	c #37475B",
"A 	c #45546B",
"B 	c #7684AD",
"C 	c #364558",
"D 	c #354558",
"E 	c #394A5D",
"F 	c #7885AE",
"G 	c #334355",
"H 	c #334255",
"I 	c #344255",
"J 	c #344256",
"K 	c #4A566D",
"L 	c #717FAA",
"M 	c #314053",
"N 	c #314152",
"O 	c #314052",
"P 	c #324053",
"Q 	c #324152",
"R 	c #314153",
"S 	c #39475A",
"T 	c #6272A0",
"U 	c #2F3D4F",
"V 	c #303D4F",
"W 	c #2F3E50",
"X 	c #2F3E4F",
"Y 	c #303E50",
"Z 	c #314051",
"` 	c #60709F",
" .	c #2D3B4D",
"..	c #2D3C4D",
"+.	c #2D3B4C",
"@.	c #2D3C4C",
"#.	c #354256",
"$.	c #6574A3",
"%.	c #2B3949",
"&.	c #2B394A",
"*.	c #2B3A4A",
"=.	c #2B394B",
"-.	c #313E50",
";.	c #6978A6",
">.	c #283647",
",.	c #293747",
"'.	c #293647",
").	c #293748",
"!.	c #2A3747",
"~.	c #414D63",
"{.	c #626394",
"].	c #6D7CA8",
"^.	c #273444",
"/.	c #273544",
"(.	c #263445",
"_.	c #273445",
":.	c #273545",
"<.	c #404B62",
"[.	c #717FA9",
"}.	c #253241",
"|.	c #243241",
"1.	c #243242",
"2.	c #253242",
"3.	c #253341",
"4.	c #343F53",
"5.	c #626293",
"6.	c #7381AB",
"7.	c #23303F",
"8.	c #232F3E",
"9.	c #22303F",
"0.	c #232F3F",
"a.	c #222F3F",
"b.	c #23303E",
"c.	c #384257",
"d.	c #7785AE",
"e.	c #212D3C",
"f.	c #202D3C",
"g.	c #212E3C",
"h.	c #202D3D",
"i.	c #202E3C",
"j.	c #313D4F",
"k.	c #1D2937",
"l.	c #3E485E",
". + @ @ # $ % % % % & % % & % % & % % & % % & % ",
"* = - + @ @ ; ; ; ; ; ; ; ; ; ; ; ; ; ; ; ; ; ; ",
"> > > , + + @ ' ' ' ' ' ' ' ' ' ' ' ' ' ' ' ' ' ",
") ) ! ) ~ { + @ ] ] ] ] ] ] ] ] ] ] ] ] ] ] ] ] ",
"^ ^ ^ / / ( + + @ _ _ _ _ _ _ _ _ _ _ _ _ _ _ _ ",
": : < : < [ } | + @ 1 1 1 1 1 1 1 1 1 1 1 1 1 1 ",
"2 2 2 3 2 2 2 4 5 + @ 6 6 6 6 6 6 6 6 6 6 6 6 6 ",
"7 7 8 8 9 8 8 8 0 + @ a a a a a a a a a a a a a ",
"b b c d e f c e g h + @ i i i i i i i i i i i i ",
"j j k j j l j l m n + + o p p p p p p p p p p p ",
"q q r s r t u q r v + + o w w w w w w w w w w w ",
"x x x y z z z x y y A + + o B B B B B B B B B B ",
"C C C D C D D C D D E + + o F F F F F F F F F F ",
"G G H I H G H H J G G K + + o L L L L L L L L L ",
"M M M N O O P M Q O R S + + o T T T T T T T T T ",
"U U V W W U X W U W W Y Z + o ` ` ` ` ` ` ` ` ` ",
" . . ..... . .+. .....@.#.+ + o $.$.$.$.$.$.$.$.",
"%.%.&.&.&.&.&.&.*.&.&.&.=.-.+ + o ;.;.;.;.;.;.;.",
">.>.,.'.'.).'.,.,.,.'.,.!.,.~.{.+ o ].].].].].].",
"^.^./.^.^.(._.^._.^.^.^.^.:.:.<.+ + o [.[.[.[.[.",
"}.}.|.1.1.2.}.2.}.|.2.2.}.2.1.3.4.5.+ o 6.6.6.6.",
"7.7.8.9.0.8.7.0.a.8.b.0.0.b.a.0.7.c.+ + o o o d.",
"e.e.e.f.f.f.f.e.e.g.e.e.e.e.e.e.e.h.i.j.+ + + o ",
"k.k.k.k.k.k.k.k.k.k.k.k.k.k.k.k.k.k.k.k.k.k.l.+ "};
