/* XPM */
static char * stick_toggled_pressed_xpm[] = {
"13 13 10 1",
" 	c #0D151D",
".	c #492816",
"+	c #8700d7",
"@	c #8700d7",
"#	c #16181C",
"$	c #8700d7",
"%	c #271D1A",
"&	c #ABADB0",
"*	c #412617",
"=	c #8A3D0F",
"             ",
" .+@@@@@@@+. ",
"#$@@@@@@@@@$#",
"%@@@@@@@@@@@%",
"%@@@@&&&@@@@%",
"%@@@&&&&&@@@%",
"%@@@&&&&&@@@%",
"%@@@&&&&&@@@%",
"%@@@@&&&@@@@%",
"%@@@@@@@@@@@%",
"#$@@@@@@@@@$#",
" *=@@@@@@@=* ",
"             "};
