<svg xmlns="http://www.w3.org/2000/svg" width="32" height="32"><defs><linearGradient id="a" x1="81.246%" x2="22.377%" y1="100%" y2="0%"><stop offset="0%" stop-color="#AEE33E"/><stop offset="100%" stop-color="#D7FF81"/></linearGradient></defs><path fill="url(#a)" fill-rule="evenodd" d="M12.847 5.357h-.95v-.95h.95v.95zm-4.746 0h-.949v-.95h.95v.95zm5.249-2.695l1.243-1.244a.487.487 0 0 0 0-.674.487.487 0 0 0-.674 0L12.515 2.15a5.734 5.734 0 0 0-2.516-.589c-.91 0-1.765.219-2.524.598L6.06.744a.476.476 0 0 0-.665 0 .47.47 0 0 0 0 .674L6.64 2.662C5.225 3.706 4.305 5.357 4.305 7.255h11.39c0-1.898-.95-3.559-2.345-4.593zm4.718 5.543c-.787 0-1.424.637-1.424 1.423v6.644a1.424 1.424 0 1 0 2.847 0V9.628c0-.786-.637-1.423-1.423-1.423zm-16.136 0c-.787 0-1.424.637-1.424 1.423v6.644a1.424 1.424 0 1 0 2.847 0V9.628c0-.786-.637-1.423-1.423-1.423zm2.372 9.491c0 .524.425.95.95.95h.949v3.321a1.424 1.424 0 1 0 2.847 0v-3.322h1.898v3.322a1.424 1.424 0 1 0 2.848 0v-3.322h.949a.95.95 0 0 0 .95-.949V8.205H4.304v9.491z" transform="translate(6 4)"/></svg>