<svg xmlns="http://www.w3.org/2000/svg" width="32" height="32"><defs><linearGradient id="a" x1="50%" x2="50%" y1="0%" y2="100%"><stop offset="0%" stop-color="#B1E8F8"/><stop offset="100%" stop-color="#7ACCEE"/></linearGradient><linearGradient id="b" x1="50%" x2="50%" y1="0%" y2="100%"><stop offset="0%" stop-color="#A3A4ED"/><stop offset="100%" stop-color="#6A6BD7"/></linearGradient><linearGradient id="c" x1="50%" x2="50%" y1="0%" y2="100%"><stop offset="0%" stop-color="#3965BD"/><stop offset="100%" stop-color="#6B9EDF"/></linearGradient></defs><g fill="none" fill-rule="evenodd" transform="translate(2 2)"><rect width="10" height="14" x="12" y="2" fill="url(#a)" rx="1.13" transform="scale(-1 1) rotate(31.47 0 -51.338)"/><path fill="url(#b)" d="M13.982 15h8.036c.542 0 .982.44.982.982v9.036c0 .542-.44.982-.982.982h-8.036a.982.982 0 0 1-.982-.982v-9.036c0-.542.44-.982.982-.982z" transform="scale(-1 1) rotate(-30.988 0 85.431)"/><path fill="url(#c)" d="M6.478 18.206c-.292-.13-3.296.432-3.466.128-.17-.304 1.497-3.261 1.514-3.623.016-.362-1.373-3.507-1.176-3.789.196-.281 3.133.647 3.434.553.302-.094 2.447-2.6 2.739-2.47.29.13.439 3.66.608 3.965.17.304 2.885 1.9 2.869 2.262-.017.362-2.862 1.616-3.058 1.898-.197.281-.664 3.774-.966 3.868-.301.093-2.207-2.662-2.498-2.792z" transform="scale(1 -1) rotate(40.17 49.023 0)"/></g></svg>