<svg xmlns="http://www.w3.org/2000/svg" width="32" height="32"><defs><linearGradient id="a" x1="95.002%" x2="10.217%" y1="100%" y2="0%"><stop offset="0%" stop-color="#AEE33E"/><stop offset="100%" stop-color="#D7FF81"/></linearGradient><linearGradient id="b" x1="50%" x2="50%" y1="0%" y2="100%"><stop offset="0%" stop-color="#B1E8F8"/><stop offset="100%" stop-color="#7ACCEE"/></linearGradient></defs><g fill="none" fill-rule="evenodd"><path fill="url(#a)" d="M11 13H5v-2h5V6h2v6a1 1 0 0 1-1 1z" transform="translate(5 5)"/><path fill="url(#b)" fill-rule="nonzero" d="M20 12c0 4.963-4.037 9-9 9s-9-4.037-9-9 4.037-9 9-9c1.989 0 3.873.65 5.43 1.833l-3.604 3.393 9.167.983L21.562 0l-3.655 3.442A10.915 10.915 0 0 0 11 1C4.935 1 0 5.935 0 12s4.935 11 11 11 11-4.935 11-11h-2z" transform="translate(5 5)"/></g></svg>