<svg xmlns="http://www.w3.org/2000/svg" width="32" height="32"><defs><linearGradient id="a" x1="50%" x2="50%" y1="0%" y2="100%"><stop offset="0%" stop-color="#B1E8F8"/><stop offset="100%" stop-color="#7ACCEE"/></linearGradient><linearGradient id="b" x1="50%" x2="50%" y1="0%" y2="100%"><stop offset="0%" stop-color="#B1E8F8"/><stop offset="100%" stop-color="#7ACCEE"/></linearGradient><linearGradient id="c" x1="50%" x2="50%" y1="0%" y2="100%"><stop offset="0%" stop-color="#6B9EDF"/><stop offset="100%" stop-color="#3965BD"/></linearGradient></defs><g fill="none"><path fill="url(#a)" d="M4 3V0H1a1 1 0 0 0-1 1v2h4z" transform="translate(4 5)"/><path fill="url(#b)" d="M24 3V1a1 1 0 0 0-1-1H6v3h18z" transform="translate(4 5)"/><path fill="url(#c)" d="M0 5v16a1 1 0 0 0 1 1h22a1 1 0 0 0 1-1V5H0zm8.707 8.707L5 17.414 3.586 16l3-3-3-3L5 8.586l3.707 3.707a.999.999 0 0 1 0 1.414zM17 17h-6v-2h6v2z" transform="translate(4 5)"/></g></svg>