<svg xmlns="http://www.w3.org/2000/svg" width="32" height="32"><defs><linearGradient id="a" x1="50%" x2="50%" y1="0%" y2="100%"><stop offset="0%" stop-color="#FAE1AD"/><stop offset="100%" stop-color="#F4BF75"/></linearGradient><linearGradient id="b" x1="50%" x2="50%" y1="0%" y2="100%"><stop offset="0%" stop-color="#CDF082"/><stop offset="100%" stop-color="#9DBD58"/></linearGradient></defs><g fill="none" fill-rule="evenodd"><path fill="url(#a)" fill-rule="nonzero" d="M21 0H1a1 1 0 0 0-1 1v22a1 1 0 0 0 1 1h20a1 1 0 0 0 1-1V1a1 1 0 0 0-1-1zm-2 21H3V3h3v3h3a2 2 0 1 1 4 0h3V3h3v18z" transform="translate(5 4)"/><path fill="url(#b)" d="M10 17a.997.997 0 0 1-.707-.293L6.586 14 8 12.586l2 2 4-4L15.414 12l-4.707 4.707A.997.997 0 0 1 10 17z" transform="translate(5 4)"/></g></svg>