<svg xmlns="http://www.w3.org/2000/svg" width="32" height="32"><defs><linearGradient id="a" x1="50%" x2="50%" y1="0%" y2="100%"><stop offset="0%" stop-color="#FAE1AD"/><stop offset="100%" stop-color="#F4BF75"/></linearGradient><linearGradient id="b" x1="50%" x2="50%" y1="0%" y2="100%"><stop offset="0%" stop-color="#D5AD91"/><stop offset="100%" stop-color="#AB7558"/></linearGradient></defs><g fill="none"><path fill="url(#a)" d="M19 3h-2v5H3V3H1a1 1 0 0 0-1 1v19a1 1 0 0 0 1 1h18a1 1 0 0 0 1-1V4a1 1 0 0 0-1-1zm-3 16H4v-2h12v2zm0-5H4v-2h12v2z" transform="translate(6 3)"/><path fill="url(#b)" d="M12 2a2 2 0 1 0-4 0H5v4h10V2h-3z" transform="translate(6 3)"/></g></svg>