<svg xmlns="http://www.w3.org/2000/svg" width="32" height="32"><defs><linearGradient id="a" x1="50%" x2="50%" y1="0%" y2="100%"><stop offset="0%" stop-color="#6B9EDF"/><stop offset="100%" stop-color="#3965BD"/></linearGradient></defs><path fill="url(#a)" d="M10.74 12.537l.463 2.789c-.294.16-.77.308-1.402.445-.644.149-1.402.229-2.272.229-2.499-.046-4.375-.8-5.63-2.24C.633 12.309 0 10.469 0 8.24.057 5.6.814 3.577 2.26 2.16 3.754.731 5.608 0 7.846 0c.848 0 1.583.08 2.193.217.61.137 1.063.286 1.357.457l-.656 2.846-1.198-.389A6.427 6.427 0 0 0 7.97 2.96c-1.312-.011-2.397.411-3.245 1.257-.859.834-1.3 2.114-1.334 3.817 0 1.555.419 2.766 1.221 3.657.803.88 1.933 1.338 3.38 1.349l1.504-.137a6.007 6.007 0 0 0 1.243-.366zm.564-5.68h2.261V4.571h2.261v2.286h2.261v2.286h-2.26v2.286h-2.262V9.143h-2.26V6.857zm7.913 0h2.261V4.571h2.261v2.286H26v2.286h-2.26v2.286h-2.262V9.143h-2.26V6.857z" transform="translate(3 8)"/></svg>