<svg xmlns="http://www.w3.org/2000/svg" width="32" height="32"><defs><linearGradient id="a" x1="50%" x2="50%" y1="0%" y2="100%"><stop offset="0%" stop-color="#6B9EDF"/><stop offset="100%" stop-color="#3965BD"/></linearGradient></defs><g fill="none"><path fill="url(#a)" d="M21.924.968L19.932 23.44l-8.953 2.5-8.929-2.497L.06.968h21.864zM10.992 11.142h-6.37l.245 2.756h9.485l-.317 3.575-3.052.83h-.003l-3.048-.828-.195-2.199H4.989l.384 4.328 5.606 1.568.013-.004 5.602-1.564.04-.465.644-7.257.067-.74.494-5.58H4.129l.249 2.757h10.461l-.249 2.823h-3.598z" transform="translate(5 3)"/><path fill="#7ACCEE" d="M15.992 24.168l5.602-1.564.04-.465.644-7.257.067-.74.494-5.58h-6.847V3.968h10.934L24.932 26.45l-8.94 2.49v-4.772zm0-2.868v-4.402h3.36l-.317 3.575-3.043.827zm0-7.158v-2.823h3.847l-.249 2.823h-3.598z"/></g></svg>