<svg xmlns="http://www.w3.org/2000/svg" width="32" height="32"><defs><linearGradient id="a" x1="50%" x2="50%" y1="0%" y2="100%"><stop offset="0%" stop-color="#8EFBBC"/><stop offset="100%" stop-color="#2ECC71"/></linearGradient><linearGradient id="b" x1="50%" x2="50%" y1="0%" y2="100%"><stop offset="0%" stop-color="#6B9EDF"/><stop offset="100%" stop-color="#3965BD"/></linearGradient><linearGradient id="c" x1="50%" x2="50%" y1="0%" y2="100%"><stop offset="0%" stop-color="#6B9EDF"/><stop offset="100%" stop-color="#3965BD"/></linearGradient><linearGradient id="d" x1="50%" x2="50%" y1="0%" y2="100%"><stop offset="0%" stop-color="#8EFBBC"/><stop offset="100%" stop-color="#2ECC71"/></linearGradient></defs><g fill="none"><path fill="url(#a)" d="M12.65.616c-.268 0-.536.104-.743.306l-.01.008L4.94 4.95l6.938 6.938v.005l8.339 8.339 1.59-2.864-5.733-13.763L13.4.93a1.059 1.059 0 0 0-.75-.314z" transform="translate(4 4)"/><path fill="url(#b)" d="M4.958 4.934l-4.019 6.95-.007.01a1.053 1.053 0 0 0 .006 1.493l3.33 3.334 13.027 5.124 2.944-1.636-.079-.08-.02.003-8.166-8.18h-.01L4.957 4.934z" transform="translate(4 4)"/><path fill="url(#c)" d="M4.94 4.937l7.097 7.105h.01l8.169 8.177 3.11-.593.004-9.199-3.283-3.218c-.72-.705-1.825-1.159-2.935-1.308l.003-.036L4.94 4.937z" transform="translate(4 4)"/><path fill="url(#d)" d="M4.949 4.945l7.101 7.102v.01l8.173 8.173-.595 3.109H10.43l-3.216-3.285c-.704-.72-1.158-1.825-1.307-2.936l-.036.003L4.95 4.945z" transform="translate(4 4)"/></g></svg>