<svg xmlns="http://www.w3.org/2000/svg" width="32" height="32"><defs><linearGradient id="a" x1="50%" x2="50%" y1="0%" y2="100%"><stop offset="0%" stop-color="#B889D3"/><stop offset="100%" stop-color="#8251A8"/></linearGradient><filter id="b" width="141.7%" height="131.2%" x="-20.8%" y="-15.6%" filterUnits="objectBoundingBox"><feOffset dx="-1" in="SourceAlpha" result="shadowOffsetOuter1"/><feColorMatrix in="shadowOffsetOuter1" result="shadowMatrixOuter1" values="0 0 0 0 0 0 0 0 0 0 0 0 0 0 0 0 0 0 0.2 0"/><feMerge><feMergeNode in="shadowMatrixOuter1"/><feMergeNode in="SourceGraphic"/></feMerge></filter></defs><g fill="none" fill-rule="nonzero"><path fill="url(#a)" d="M7.457 23.304C3.339 23.304 0 19.333 0 14.434 0 10.423 2.96 5.52 5.244 2.534 6.326 1.119 8.371 0 8.371 0s-1.048 5.714 1.794 7.984c2.523 2.014 4.38 4.635 4.38 6.94 0 4.618-2.97 8.38-7.088 8.38z" transform="translate(9 4)"/><g fill="#F4BF75" filter="url(#b)" transform="translate(20 16)"><path d="M10.5 5.333h-.75V3.81C9.75 1.707 8.07 0 6 0 3.93 0 2.25 1.707 2.25 3.81v1.523H1.5c-.825 0-1.5.686-1.5 1.524v7.62C0 15.313.675 16 1.5 16h9c.825 0 1.5-.686 1.5-1.524V6.857c0-.838-.675-1.524-1.5-1.524zM6 12.19c-.825 0-1.5-.685-1.5-1.523 0-.838.675-1.524 1.5-1.524s1.5.686 1.5 1.524S6.825 12.19 6 12.19zm2.325-6.857h-4.65V3.81c0-1.303 1.043-2.362 2.325-2.362 1.282 0 2.325 1.059 2.325 2.362v1.523z"/></g></g></svg>