<svg xmlns="http://www.w3.org/2000/svg" width="32" height="32"><defs><linearGradient id="a" x1="50%" x2="50%" y1="0%" y2="100%"><stop offset="0%" stop-color="#B0C3CB"/><stop offset="100%" stop-color="#78909C"/></linearGradient><linearGradient id="b" x1="50%" x2="50%" y1="0%" y2="100%"><stop offset="0%" stop-color="#B1E8F8"/><stop offset="100%" stop-color="#7ACCEE"/></linearGradient><linearGradient id="c" x1="50%" x2="50%" y1="0%" y2="100%"><stop offset="0%" stop-color="#B1E8F8"/><stop offset="100%" stop-color="#7ACCEE"/></linearGradient><linearGradient id="d" x1="50%" x2="50%" y1="0%" y2="100%"><stop offset="0%" stop-color="#CDF082"/><stop offset="100%" stop-color="#9DBD58"/></linearGradient><linearGradient id="e" x1="50%" x2="50%" y1="0%" y2="100%"><stop offset="0%" stop-color="#F8CC95"/><stop offset="100%" stop-color="#EE9D5C"/></linearGradient><linearGradient id="f" x1="50%" x2="50%" y1="0%" y2="100%"><stop offset="0%" stop-color="#CDF082"/><stop offset="100%" stop-color="#9DBD58"/></linearGradient><linearGradient id="g" x1="50%" x2="50%" y1="0%" y2="100%"><stop offset="0%" stop-color="#F8CC95"/><stop offset="100%" stop-color="#EE9D5C"/></linearGradient></defs><g fill="none" fill-rule="evenodd"><path fill="url(#a)" d="M0 .8L11.2 12 0 23.2z" transform="translate(4 4)"/><path fill="url(#b)" d="M.8 24L12 12.8 23.2 24z" transform="translate(4 4)"/><path fill="url(#c)" d="M12.8 0H24v11.2z" transform="translate(4 4)"/><path fill="url(#d)" d="M.8 0h10.4l4.88 4.88H5.68z" transform="translate(4 4)"/><path fill="url(#e)" d="M6.8 6h10.4L12 11.2z" transform="translate(4 4)"/><path fill="url(#f)" d="M12.8 12L18 6.8l5.2 5.2-5.2 5.2z" transform="translate(4 4)"/><path fill="url(#g)" d="M18.8 18l5.2-5.2v10.4z" transform="translate(4 4)"/></g></svg>