<svg xmlns="http://www.w3.org/2000/svg" width="32" height="32"><defs><linearGradient id="a" x1="50%" x2="50%" y1="0%" y2="100%"><stop offset="0%" stop-color="#B889D3"/><stop offset="100%" stop-color="#8251A8"/></linearGradient><linearGradient id="b" x1="50%" x2="50%" y1="0%" y2="100%"><stop offset="0%" stop-color="#6B9EDF"/><stop offset="100%" stop-color="#3965BD"/></linearGradient></defs><g fill="none"><path fill="url(#a)" d="M7.351 7.648l4.52-2.607a.366.366 0 0 1 .366 0l4.52 2.607a.365.365 0 0 1 .183.317v5.213c0 .13-.07.251-.183.317l-4.52 2.607a.366.366 0 0 1-.365 0l-4.52-2.607a.365.365 0 0 1-.183-.317V7.965c0-.13.07-.251.182-.317" transform="translate(4 6)"/><path fill="url(#b)" d="M23.807 10.023l-5.4-9.385c-.197-.34-.56-.59-.951-.59H6.654c-.393 0-.755.25-.951.59L.302 10.003c-.196.34-.196.768 0 1.107l5.4 9.309c.197.339.56.513.952.513h10.802c.392 0 .754-.169.95-.508l5.401-9.324c.197-.34.197-.737 0-1.077zm-4.472 4.514a.396.396 0 0 1-.203.334l-6.879 3.965a.392.392 0 0 1-.39 0L4.98 14.871a.396.396 0 0 1-.203-.334v-7.93c0-.138.082-.266.202-.335l6.88-3.964c.119-.07.268-.07.388 0l6.885 3.964c.12.07.204.197.204.335v7.93z" transform="translate(4 6)"/></g></svg>