<svg xmlns="http://www.w3.org/2000/svg" width="32" height="32"><defs><linearGradient id="a" x1="50%" x2="50%" y1="0%" y2="100%"><stop offset="0%" stop-color="#FAE1AD"/><stop offset="100%" stop-color="#F4BF75"/></linearGradient></defs><path fill="url(#a)" d="M24.144 8.541l-7.081-1.029L13.9 1.1a1.041 1.041 0 0 0-1.794 0L8.937 7.512 1.856 8.541a1 1 0 0 0-.556 1.705l5.125 4.994-1.209 7.053a1 1 0 0 0 1.451 1.054L13 20.018l6.333 3.329a1 1 0 0 0 1.451-1.054l-1.209-7.053 5.125-4.994a1 1 0 0 0-.554-1.705h-.002z" transform="translate(3 4)"/></svg>