<svg xmlns="http://www.w3.org/2000/svg" width="32" height="32"><defs><linearGradient id="a" x1="50%" x2="50%" y1="0%" y2="100%"><stop offset="0%" stop-color="#636B7A"/><stop offset="100%" stop-color="#343944"/></linearGradient><linearGradient id="b" x1="50%" x2="50%" y1="0%" y2="100%"><stop offset="0%" stop-color="#636B7A"/><stop offset="100%" stop-color="#343944"/></linearGradient><linearGradient id="c" x1="50%" x2="50%" y1="0%" y2="100%"><stop offset="0%" stop-color="#FAE1AD"/><stop offset="100%" stop-color="#F4BF75"/></linearGradient></defs><g fill="none" fill-rule="evenodd"><path fill="url(#a)" d="M.001 7.677h1.225V3.579l2.36 2.566 2.175-2.566v4.046h1.366V0l-3.67 3.874L0 .225z" transform="translate(4 12)"/><path fill="url(#b)" d="M8.842 4.401l.932-.984 1.734 1.83V0h1.26v5.206l1.704-1.799.942.995-3.286 3.568z" transform="translate(4 12)"/><path fill="url(#c)" d="M16.506 6.872l.853.901 2.701-2.852 2.512 2.852.898-1.045-2.644-2.791 2.823-2.98L22.743 0l-2.755 2.907L17.271 0l-.85.957 2.604 2.98z" transform="translate(4 12)"/></g></svg>