<svg xmlns="http://www.w3.org/2000/svg" width="32" height="32"><defs><linearGradient id="a" x1="50%" x2="50%" y1="0%" y2="100%"><stop offset="0%" stop-color="#D67677"/><stop offset="100%" stop-color="#AC4142"/></linearGradient><linearGradient id="b" x1="50%" x2="50%" y1="0%" y2="100%"><stop offset="0%" stop-color="#FAE1AD"/><stop offset="100%" stop-color="#F4BF75"/></linearGradient><linearGradient id="c" x1="50%" x2="50%" y1="0%" y2="100%"><stop offset="0%" stop-color="#F8CC95"/><stop offset="100%" stop-color="#EE9D5C"/></linearGradient></defs><g fill="none" fill-rule="evenodd"><path fill="url(#a)" d="M.89 15.673L3.255.461A.542.542 0 0 1 4.27.289L6.813 5.06.89 15.673z" transform="translate(7 4)"/><path fill="url(#b)" d="M17.685 19.364L15.433 5.365a.543.543 0 0 0-.918-.295L.315 19.364l7.857 4.428a1.62 1.62 0 0 0 1.587 0l7.926-4.428z" transform="translate(7 4)"/><path fill="url(#c)" d="M11.3 7.148L9.48 3.666a.542.542 0 0 0-.96 0L.53 17.984 11.3 7.148z" transform="translate(7 4)"/></g></svg>