<svg xmlns="http://www.w3.org/2000/svg" width="32" height="32"><defs><linearGradient id="a" x1="50%" x2="50%" y1="0%" y2="100%"><stop offset="0%" stop-color="#FAE1AD"/><stop offset="100%" stop-color="#F4BF75"/></linearGradient></defs><path fill="url(#a)" transform="translate(5 4)" d="M.179.146l7.918 7.946H1.782l6.251 6.273H.147l9.554 9.587v-7.913l.001-.001V8.092h-.001V3.588h4.773l2.084 2.091h-4.642v7.85h2.254l2.502 2.51h-1.616l-.001-.001v.001h-3.237l-.001-.001v.001h-.032l.032.032v7.913h11.158l-4.008-4.021v-1.621l.866.868v-7.935H18.23l.001-3.917 3.076 3.085V2.499h-6.631L12.331.146H7.842z"/></svg>