<svg data-name="Layer 1" xmlns="http://www.w3.org/2000/svg" viewBox="0 0 24 24"><defs><linearGradient id="a" x1="12" y1="3.09" x2="12" y2="20.91" gradientUnits="userSpaceOnUse"><stop offset="0" stop-color="#fff" stop-opacity=".18"/><stop offset=".29" stop-color="#e6e6e6" stop-opacity=".16"/><stop offset=".6" stop-color="#9d9d9d" stop-opacity=".11"/><stop offset=".92" stop-color="#242424" stop-opacity=".03"/><stop offset="1" stop-opacity="0"/></linearGradient></defs><path d="M9.8 3.09l2.2 2.2h8.8a2.22 2.22 0 0 1 2.2 2.2v11.2a2.22 2.22 0 0 1-2.2 2.2H3.2a2 2 0 0 1-2.2-2V5.29a2.22 2.22 0 0 1 2.2-2.2z" fill="#424242"/><path d="M9.8 3.09l2.2 2.2h8.8a2.22 2.22 0 0 1 2.2 2.2v11.2a2.22 2.22 0 0 1-2.2 2.2H3.2a2 2 0 0 1-2.2-2V5.29a2.22 2.22 0 0 1 2.2-2.2z" fill="url(#a)"/></svg>