<svg id="Layer_1" data-name="Layer 1" xmlns="http://www.w3.org/2000/svg" viewBox="0 0 24 24"><defs><style>.cls-1{fill:none}</style><linearGradient id="New_Gradient_Swatch_copy" x1="12" y1="3" x2="12" y2="20.82" gradientUnits="userSpaceOnUse"><stop offset="0" stop-color="#fff" stop-opacity=".18"/><stop offset=".29" stop-color="#e6e6e6" stop-opacity=".16"/><stop offset=".6" stop-color="#9d9d9d" stop-opacity=".11"/><stop offset=".92" stop-color="#242424" stop-opacity=".03"/><stop offset="1" stop-opacity="0"/></linearGradient><clipPath id="clip-path"><circle class="cls-1" cx="16.19" cy="16.19" r="1.04"/></clipPath><clipPath id="clip-path-2"><path class="cls-1" d="M9.42 9.94h16.67v16.67H9.42z"/></clipPath></defs><path d="M10.5 13.06a1.52 1.52 0 0 1 1.5-1.52h11V7.4a2.22 2.22 0 0 0-2.2-2.2H12L9.8 3H3.2A2.22 2.22 0 0 0 1 5.2v13.6a2 2 0 0 0 2.2 2h7.3z" fill="#474C60"/><path d="M10.5 13.06a1.52 1.52 0 0 1 1.5-1.52h11V7.4a2.22 2.22 0 0 0-2.2-2.2H12L9.8 3H3.2A2.22 2.22 0 0 0 1 5.2v13.6a2 2 0 0 0 2.2 2h7.3z" fill="url(#New_Gradient_Swatch_copy)"/><g clip-path="url(#clip-path)"><g clip-path="url(#clip-path-2)"><path fill="#f4bf75" d="M12.54 12.54h7.29v7.29h-7.29z"/></g></g><path d="M23 13.58v6.25l-2.61-2.6-3.12 3.65-2.6-2.09-2.09 2.09v-7.3zm.52-1H12a.52.52 0 0 0-.52.52v10.38A.52.52 0 0 0 12 24h11.48a.52.52 0 0 0 .52-.52V13.06a.52.52 0 0 0-.52-.52z" fill="#9dbd58"/></svg>