<svg xmlns="http://www.w3.org/2000/svg" width="32" height="32"><defs><linearGradient id="a" x1="50%" x2="50%" y1="0%" y2="100%"><stop offset="0%" stop-color="#EA7D7F"/><stop offset="100%" stop-color="#D14748"/></linearGradient><linearGradient id="b" x1="50%" x2="50%" y1="0%" y2="100%"><stop offset="0%" stop-color="#EA7D7F"/><stop offset="100%" stop-color="#D14748"/></linearGradient></defs><g fill="none"><path fill="url(#a)" d="M4 20v-1.604l2.63-.155c.31-.023.37-.111.37-.442V2H2.188c-.243 0-.31.022-.354.243L1.481 4H0V0h16v4h-1.481l-.353-1.757c-.044-.22-.111-.243-.354-.243H9v15.799c0 .31.038.398.37.42l2.63.177V20H4z" transform="translate(4 6)"/><path fill="url(#b)" d="M15 20v-1.604l1.63-.155c.31-.023.37-.111.37-.442V9h-2.812c-.243 0-.31.022-.354.243L13.481 11H12V7h12v4h-1.481l-.353-1.757c-.044-.22-.111-.243-.354-.243H19v8.799c0 .31.038.398.37.42l1.63.177V20h-6z" transform="translate(4 6)"/></g></svg>