<svg xmlns="http://www.w3.org/2000/svg" width="32" height="32"><defs><linearGradient id="a" x1="50%" x2="50%" y1="0%" y2="100%"><stop offset="0%" stop-color="#B889D3"/><stop offset="100%" stop-color="#8251A8"/></linearGradient></defs><path fill="url(#a)" d="M12.001.007A11.93 11.93 0 0 0 .007 12 11.93 11.93 0 0 0 12 23.995a11.93 11.93 0 0 0 11.994-11.994A11.929 11.929 0 0 0 12.001.007zM2.614 12.105l9.283 9.283c-5.111 0-9.283-4.172-9.283-9.283zm11.473 9.074L2.823 9.915C3.76 5.743 7.516 2.614 12 2.614a9.476 9.476 0 0 1 7.614 3.86L18.259 7.62a7.657 7.657 0 0 0-6.362-3.337A7.555 7.555 0 0 0 4.7 9.393l9.804 9.805c2.4-.835 4.276-2.92 4.798-5.424h-4.068v-1.773h6.154c0 4.485-3.129 8.24-7.301 9.178z" transform="translate(4 4)"/></svg>