<svg xmlns="http://www.w3.org/2000/svg" width="32" height="32"><defs><linearGradient id="a" x1="50%" x2="50%" y1="0%" y2="100%"><stop offset="0%" stop-color="#B0C3CB"/><stop offset="100%" stop-color="#78909C"/></linearGradient></defs><path fill="url(#a)" d="M12.5 0C5.598 0 0 5.508 0 12.303c0 5.436 3.581 10.047 8.55 11.673.625.113.853-.267.853-.592 0-.293-.011-1.263-.018-2.29-3.476.744-4.21-1.45-4.21-1.45-.57-1.422-1.389-1.8-1.389-1.8-1.136-.763.086-.748.086-.748 1.255.086 1.916 1.268 1.916 1.268 1.116 1.88 2.928 1.336 3.638 1.02.114-.792.437-1.336.794-1.642-2.775-.31-5.694-1.366-5.694-6.08 0-1.345.488-2.44 1.286-3.303-.127-.312-.558-1.563.124-3.257 0 0 1.048-.33 3.437 1.262A12.07 12.07 0 0 1 12.5 5.95a12.1 12.1 0 0 1 3.13.416c2.384-1.594 3.435-1.261 3.435-1.261.683 1.694.253 2.944.124 3.256.802.86 1.285 1.957 1.285 3.301 0 4.727-2.924 5.767-5.708 6.072.45.382.848 1.13.848 2.277 0 1.645-.017 2.97-.017 3.376 0 .328.227.71.86.59C21.422 22.347 25 17.737 25 12.304 25 5.51 19.403 0 12.5 0V0z" transform="translate(4 4)"/></svg>