<svg xmlns="http://www.w3.org/2000/svg" width="32" height="32"><defs><linearGradient id="a" x1="50%" x2="50%" y1="0%" y2="100%"><stop offset="0%" stop-color="#EA7D7F"/><stop offset="100%" stop-color="#D14748"/></linearGradient><linearGradient id="b" x1="50%" x2="50%" y1="0%" y2="100%"><stop offset="0%" stop-color="#FAE1AD"/><stop offset="100%" stop-color="#F4BF75"/></linearGradient><linearGradient id="c" x1="50%" x2="50%" y1="0%" y2="100%"><stop offset="0%" stop-color="#EA7D7F"/><stop offset="100%" stop-color="#D14748"/></linearGradient></defs><g fill="none"><path fill="url(#a)" d="M12.007 21.914l4.416-13.457H7.591z" transform="translate(4 5)"/><path fill="url(#b)" d="M12.007 21.914L1.402 8.457h6.189l4.416 13.457zM1.402 8.457l10.605 13.457L.392 13.56a.9.9 0 0 1-.332-1.013l1.342-4.089z" transform="translate(4 5)"/><path fill="url(#c)" d="M1.402 8.457h6.189L4.931.352c-.137-.417-.732-.417-.87 0L1.403 8.457z" transform="translate(4 5)"/><path fill="url(#b)" d="M12.007 21.914l4.416-13.457h6.189L12.007 21.914zM22.612 8.457l1.342 4.09a.9.9 0 0 1-.332 1.012l-11.615 8.355L22.612 8.457z" transform="translate(4 5)"/><path fill="url(#c)" d="M22.612 8.457h-6.189l2.66-8.105c.137-.417.732-.417.87 0l2.659 8.105z" transform="translate(4 5)"/></g></svg>