<svg xmlns="http://www.w3.org/2000/svg" width="32" height="32"><defs><linearGradient id="a" x1="50%" x2="50%" y1="0%" y2="100%"><stop offset="0%" stop-color="#FFA7CD"/><stop offset="100%" stop-color="#FF6E9F"/></linearGradient><linearGradient id="b" x1="50%" x2="50%" y1="0%" y2="100%"><stop offset="0%" stop-color="#FFA7CD"/><stop offset="100%" stop-color="#FF6E9F"/></linearGradient></defs><path fill="url(#a)" stroke="url(#b)" stroke-width=".5" d="M8.53 21.205l-4.815-2.833a2.068 2.068 0 0 1-3.32-.405 2.154 2.154 0 0 1 .765-2.907c.177-.104.362-.178.55-.225V9.166a2.07 2.07 0 0 1-.556-.226C.155 8.355-.186 7.051.39 6.033a2.07 2.07 0 0 1 3.324-.4L8.53 2.797a2.17 2.17 0 0 1-.085-.605c0-1.176.933-2.127 2.088-2.127 1.154 0 2.087.95 2.087 2.127 0 .211-.03.415-.086.608l4.816 2.834a2.07 2.07 0 0 1 3.326.398 2.154 2.154 0 0 1-.765 2.907 2.07 2.07 0 0 1-.556.226v5.67c.188.046.374.12.55.224a2.143 2.143 0 0 1 .766 2.907 2.07 2.07 0 0 1-3.37.353l-4.786 2.817c.068.21.105.436.105.67 0 1.17-.933 2.127-2.087 2.127-1.155 0-2.088-.95-2.088-2.127 0-.209.03-.411.085-.602zm.499-.874a2.063 2.063 0 0 1 3.047.043l4.797-2.822a2.178 2.178 0 0 1-.04-.14H4.232a2.176 2.176 0 0 1-.022.083l4.82 2.836zm-6.243-5.47L9.09 3.732l-.06-.06-4.826 2.84a2.16 2.16 0 0 1-.198 1.648 2.08 2.08 0 0 1-1.304 1.001v5.677c.028.007.055.014.083.023zm15.576-.024V9.161a2.08 2.08 0 0 1-1.304-1 2.16 2.16 0 0 1-.198-1.647l-4.828-2.84c-.018.02-.037.038-.056.057l6.305 11.128.08-.022zm-1.53 1.563a2.156 2.156 0 0 1 .588-1.038L11.116 4.236a2.057 2.057 0 0 1-1.165.001L3.646 15.365a2.137 2.137 0 0 1 .587 1.035h12.599z" transform="translate(6 4)"/></svg>