<svg xmlns="http://www.w3.org/2000/svg" width="32" height="32"><defs><linearGradient id="a" x1="50%" x2="50%" y1="0%" y2="100%"><stop offset="0%" stop-color="#F46B65"/><stop offset="100%" stop-color="#E53935"/></linearGradient></defs><path fill="url(#a)" d="M2.031 17.39a813.269 813.269 0 0 1-.625-6.645c.002-.056-.293-.101-.657-.101H.09V8.067h5.155v-5l2.433-1.5c1.481-.914 2.571-1.5 2.786-1.5.52 0 1.127.674 1.127 1.252 0 .253-.075.563-.166.69-.09.126-.938.706-1.883 1.287L7.82 4.353 7.786 6.21l-.037 1.857h5.164v2.576h-1.274l-.643 6.645-.644 6.644h-7.69l-.63-6.543z" transform="translate(10 4)"/></svg>