<svg xmlns="http://www.w3.org/2000/svg" width="32" height="32"><defs><linearGradient id="a" x1="50%" x2="50%" y1="0%" y2="100%"><stop offset="0%" stop-color="#B889D3"/><stop offset="100%" stop-color="#8251A8"/></linearGradient><linearGradient id="b" x1="50%" x2="50%" y1="0%" y2="100%"><stop offset="0%" stop-color="#6B9EDF"/><stop offset="100%" stop-color="#3965BD"/></linearGradient><linearGradient id="c" x1="50%" x2="50%" y1="0%" y2="100%"><stop offset="0%" stop-color="#B889D3"/><stop offset="100%" stop-color="#8251A8"/></linearGradient></defs><g fill="none" fill-rule="evenodd"><path fill="url(#a)" d="M5.636 16.753L11.307 8.5 5.636.247h4.253l11.307 16.504h-4.254l-3.527-5.138-3.528 5.138H5.633z" transform="translate(4 7)"/><path fill="url(#b)" d="M0 16.753L5.638 8.5 0 .247h4.22L9.891 8.5 4.22 16.753H0z" transform="translate(4 7)"/><path fill="#8251A8" d="M28 18.938h-4.713l-1.88-2.729H28z"/><path fill="url(#c)" d="M24 7.828h-7.518l-1.879-2.762h9.395v2.762z" transform="translate(4 7)"/></g></svg>