<svg xmlns="http://www.w3.org/2000/svg" width="32" height="32"><defs><linearGradient id="a" x1="50%" x2="50%" y1="0%" y2="100%"><stop offset="0%" stop-color="#FCC640"/><stop offset="100%" stop-color="#F7941E"/></linearGradient><linearGradient id="b" x1="50%" x2="50%" y1="0%" y2="100%"><stop offset="0%" stop-color="#FFDD2B"/><stop offset="100%" stop-color="#FDB813"/></linearGradient><linearGradient id="c" x1="50%" x2="50%" y1="0%" y2="100%"><stop offset="0%" stop-color="#FDD238"/><stop offset="100%" stop-color="#FAA61A"/></linearGradient><linearGradient id="d" x1="50%" x2="50%" y1="0%" y2="100%"><stop offset="0%" stop-color="#FAA845"/><stop offset="100%" stop-color="#F36F21"/></linearGradient><linearGradient id="e" x1="50%" x2="50%" y1="0%" y2="100%"><stop offset="0%" stop-color="#FBB843"/><stop offset="100%" stop-color="#F58220"/></linearGradient></defs><g fill="none"><path fill="url(#a)" d="M2.5 2.5h15v15h-15z" transform="translate(6 6)"/><path fill="url(#b)" d="M0 0l.625 5L2.5 10 10 2.5 5 .625z" transform="translate(6 6)"/><path fill="url(#c)" d="M0 20l5-.625 5-1.875L2.5 10 .625 15z" transform="translate(6 6)"/><path fill="url(#d)" d="M20 20l-.625-5-1.875-5-7.5 7.5 5 1.875z" transform="translate(6 6)"/><path fill="url(#e)" d="M20 0l-5 .625L10 2.5l7.5 7.5 1.875-5z" transform="translate(6 6)"/><path fill="#FFCB08" d="M6 6l10 2.5L11 6z"/><path fill="#FFF200" d="M6 6v5l2.5 5zM6 26l2.5-10L6 21z"/><path fill="#F4813C" d="M6 26h5l5-2.5z"/><path fill="#F7941E" d="M26 26l-10-2.5 5 2.5z"/><path fill="#F15922" d="M26 26v-5l-2.5-5zM26 6l-2.5 10 2.5-5z"/><path fill="#FFCB08" d="M26 6h-5l-5 2.5z"/></g></svg>