<svg xmlns="http://www.w3.org/2000/svg" width="32" height="32"><defs><linearGradient id="a" x1="50%" x2="50%" y1="0%" y2="100%"><stop offset="0%" stop-color="#D5AD91"/><stop offset="100%" stop-color="#AB7558"/></linearGradient><linearGradient id="b" x1="50%" x2="50%" y1="0%" y2="100%"><stop offset="0%" stop-color="#F8CC95"/><stop offset="100%" stop-color="#EE9D5C"/></linearGradient></defs><g fill="none"><path fill="url(#a)" d="M11 4.894H4.11l.75 8.626H11v4.57l-3.07-.854-.194-2.283H4.98l.387 4.483L11 21.071V26l-8.97-2.578L.037.134H11v4.76zm0 2.854v2.924H7.374L7.12 7.748H11z" transform="translate(5 3)"/><path fill="url(#b)" d="M11 21.055l5.609-1.619.755-8.764H11V7.748h6.612l.254-2.854H11V.134h10.964l-2.092 23.387L11 26v-4.945zm0-2.968v-4.56h3.373l-.32 3.709-3.053.851z" transform="translate(5 3)"/></g></svg>