<svg xmlns="http://www.w3.org/2000/svg" width="32" height="32"><defs><linearGradient id="a" x1="50%" x2="50%" y1="0%" y2="100%"><stop offset="0%" stop-color="#F8CC95"/><stop offset="100%" stop-color="#EE9D5C"/></linearGradient><linearGradient id="b" x1="50%" x2="50%" y1="0%" y2="100%"><stop offset="0%" stop-color="#FAE1AD"/><stop offset="100%" stop-color="#F4BF75"/></linearGradient></defs><g fill="none"><path fill="url(#a)" d="M18.965 7.002v2.386h2.385v11.925H9.425v-2.385H7.04v4.77h16.695V7.002z" transform="translate(4 4)"/><path fill="url(#b)" d="M.414.451h16.858v16.858H.414V.45zm4.43 14.085c.374.796 1.114 1.452 2.378 1.452 1.405 0 2.37-.75 2.37-2.388V8.187H8v5.375c0 .806-.328 1.012-.843 1.012-.543 0-.768-.375-1.021-.815l-1.292.777zm5.6-.168c.468.917 1.414 1.62 2.894 1.62 1.498 0 2.622-.777 2.622-2.21 0-1.32-.758-1.91-2.107-2.491l-.393-.169c-.684-.29-.974-.487-.974-.955 0-.384.29-.684.758-.684.45 0 .75.197 1.02.684l1.228-.815c-.515-.9-1.246-1.246-2.248-1.246-1.414 0-2.322.9-2.322 2.089 0 1.292.758 1.9 1.9 2.388l.394.168c.73.319 1.161.516 1.161 1.059 0 .45-.421.777-1.077.777-.777 0-1.226-.403-1.564-.965l-1.292.75z" transform="translate(4 4)"/></g></svg>