<svg xmlns="http://www.w3.org/2000/svg" width="32" height="32"><defs><linearGradient id="a" x1="50%" x2="50%" y1="0%" y2="100%"><stop offset="0%" stop-color="#D5ADCD"/><stop offset="100%" stop-color="#AA759F"/></linearGradient></defs><g fill="none" fill-rule="evenodd"><path fill="url(#a)" fill-rule="nonzero" d="M5 0h2v2H5v5a2 2 0 0 1-2 2 2 2 0 0 1 2 2v5h2v2H5c-1.07-.27-2-.9-2-2v-4a2 2 0 0 0-2-2H0V8h1a2 2 0 0 0 2-2V2a2 2 0 0 1 2-2zm14 0a2 2 0 0 1 2 2v4a2 2 0 0 0 2 2h1v2h-1a2 2 0 0 0-2 2v4a2 2 0 0 1-2 2h-2v-2h2v-5a2 2 0 0 1 2-2 2 2 0 0 1-2-2V2h-2V0h2z" transform="translate(4 7)"/><path fill="#AEE33E" d="M16 19a1 1 0 1 1 0 2 1 1 0 0 1 0-2zm-4 0a1 1 0 1 1 0 2 1 1 0 0 1 0-2zm8 0a1 1 0 1 1 0 2 1 1 0 0 1 0-2z"/></g></svg>