<svg xmlns="http://www.w3.org/2000/svg" width="32" height="32"><defs><linearGradient id="a" x1="50%" x2="50%" y1="0%" y2="100%"><stop offset="0%" stop-color="#A3CDDB"/><stop offset="100%" stop-color="#6A9FB5"/></linearGradient><linearGradient id="b" x1="50%" x2="50%" y1="0%" y2="100%"><stop offset="0%" stop-color="#B1E8F8"/><stop offset="100%" stop-color="#7ACCEE"/></linearGradient><linearGradient id="c" x1="50%" x2="50%" y1="0%" y2="100%"><stop offset="0%" stop-color="#B1E8F8"/><stop offset="100%" stop-color="#7ACCEE"/></linearGradient></defs><g fill="none" fill-rule="evenodd"><path fill="url(#a)" fill-rule="nonzero" d="M23.6 16.3c.832.274 1.75.76 1.75 1.92 0 1.162-.918 2.049-2.626 2.049-.811 0-1.793-.36-2.433-.887l.853-1.225c.577.444 1.11.655 1.644.655.577 0 .833-.211.833-.528 0-.422-.64-.633-1.302-.887-.769-.295-1.687-.823-1.687-1.858 0-1.16.982-1.984 2.434-1.984.982 0 1.707.422 2.241.823l-.854 1.12c-.47-.339-.896-.529-1.366-.529-.47 0-.726.19-.726.507 0 .422.598.57 1.238.823zm-5.167 0c.833.274 1.75.76 1.75 1.92 0 1.162-.917 2.049-2.625 2.049-.81 0-1.793-.36-2.433-.887l.832-1.225c.577.444 1.11.655 1.644.655.576 0 .832-.211.832-.528 0-.422-.64-.633-1.302-.887-.768-.295-1.686-.823-1.686-1.858 0-1.16.982-1.984 2.433-1.984.982 0 1.708.422 2.242.823l-.854 1.12c-.47-.339-.897-.529-1.366-.529-.47 0-.726.19-.726.507 0 .422.598.57 1.26.823zm-6.297-2.766c1.793 0 2.733 1.33 2.711 3.04 0 .338-.042.633-.064.781H10.92c.17.971.832 1.372 1.686 1.372.47 0 .918-.126 1.387-.4l.64 1.118c-.66.444-1.515.718-2.283.718-1.836 0-3.224-1.224-3.224-3.315-.042-2.027 1.452-3.314 3.01-3.314zm-1.216 2.66h2.305c0-.718-.299-1.246-1.067-1.246-.598 0-1.11.401-1.238 1.246zm-2.242 1.963c0 .402.47.528.598.507l.213 1.372a2.856 2.856 0 0 1-.96.148c-1.302 0-1.75-.844-1.75-2.132v-6.06V11h1.9v7.157z"/><path fill="url(#b)" d="M6.782 11H5.647c-1.153 0-1.665.443-1.665 1.816 0 .908.128 1.414.128 2.196 0 .443-.277.907-1.11.95v1.098c.833.02 1.11.485 1.11.928 0 .782-.128 1.246-.128 2.154 0 1.372.512 1.816 1.644 1.816h.832v-.971h-.256c-.534 0-.704-.212-.704-.908 0-.697.064-1.288.064-2.07 0-.97-.32-1.35-.961-1.498v-.064c.64-.148.96-.528.96-1.499 0-.76-.063-1.372-.063-2.069 0-.697.149-.887.704-.887h.58V11z"/><path fill="url(#c)" d="M27.89 15.012c0-.824.128-1.31.128-2.196 0-1.373-.512-1.816-1.644-1.816h-.832v.971h.256c.576 0 .704.19.704.887 0 .654-.064 1.309-.064 2.07 0 .97.32 1.35.961 1.498v.063c-.64.148-.96.528-.96 1.5 0 .76.063 1.372.063 2.069 0 .717-.149.907-.704.907v.022h-.256V22h.832c1.132 0 1.644-.443 1.644-1.816 0-.908-.128-1.372-.128-2.196 0-.443.277-.907 1.11-.95V15.94c-.833-.02-1.11-.485-1.11-.928z"/></g></svg>