<svg xmlns="http://www.w3.org/2000/svg" width="32" height="32"><defs><linearGradient id="a" x1="50%" x2="50%" y1="0%" y2="100%"><stop offset="0%" stop-color="#F8CC95"/><stop offset="100%" stop-color="#EE9D5C"/></linearGradient><linearGradient id="b" x1="50%" x2="50%" y1="0%" y2="100%"><stop offset="0%" stop-color="#FAE1AD"/><stop offset="100%" stop-color="#F4BF75"/></linearGradient></defs><g fill="none" fill-rule="evenodd"><path fill="url(#a)" d="M15.992 28C9.312 28 4 22.689 4 16.008 4 9.31 9.296 4 15.992 4 22.704 4 28 9.311 28 16.008 28 22.688 22.689 28 15.992 28zm0-2.526c5.327 0 9.512-4.185 9.512-9.466 0-5.312-4.185-9.482-9.512-9.482-5.311 0-9.496 4.185-9.496 9.482 0 5.28 4.185 9.466 9.496 9.466z"/><path fill="url(#b)" d="M21.578 14.38h-2.861c-.229-1.188-1.188-1.918-2.466-1.918-1.72 0-2.77 1.324-2.77 3.515 0 2.237 1.05 3.561 2.77 3.561 1.34 0 2.237-.67 2.466-1.826h2.86c-.288 2.679-2.328 4.322-5.341 4.322-3.592 0-5.814-2.328-5.814-6.057 0-3.683 2.237-6.011 5.799-6.011 2.952 0 5.068 1.735 5.357 4.413z"/></g></svg>