<svg xmlns="http://www.w3.org/2000/svg" width="32" height="32"><defs><linearGradient id="a" x1="50%" x2="50%" y1="0%" y2="100%"><stop offset="0%" stop-color="#A3CDDB"/><stop offset="100%" stop-color="#6A9FB5"/></linearGradient><linearGradient id="b" x1="50%" x2="50%" y1="0%" y2="100%"><stop offset="0%" stop-color="#EA7D7F"/><stop offset="100%" stop-color="#D14748"/></linearGradient></defs><g fill="none"><path fill="#7ACCEE" d="M9.755 15L4 17.009 8.451 20 12 16.661 9.755 15z"/><path fill="url(#a)" d="M16.91.002c-.518.068-.377.039-1.12.609-.71.545-2.755 3.795-3.849 4.888-.973.973-1.358.462-2.369 1.273C8.56 7.585 7 9.21 7 9.21L9.521 11l3.998-5.275c.944-1.246.933-1.41 1.448-2.716.251-.64.7-1.131 1.094-1.733.492-.751 1.19-1.318.849-1.274z" transform="translate(4 5)"/><path fill="url(#b)" d="M16.363 0c-1.166-.007-2.315 5.126-4.31 9.064C10.016 13.08 6 15.67 6 15.67c.677.308 1.294.183 2.023.873.5.604 1.943 3.585 2.804 5.458 0 0 .708-.385 1.604-1.034.897-.65 1.982-1.565 2.738-2.626 1.003-1.408 1.786-2.28 2.45-2.811.665-.532 1.21-.723 1.734-.768 1.874-.16 4.647 3.205 4.647 3.205S18.193.01 16.363 0z" transform="translate(4 5)"/></g></svg>