<svg xmlns="http://www.w3.org/2000/svg" width="32" height="32"><defs><linearGradient id="a" x1="50%" x2="50%" y1="0%" y2="100%"><stop offset="0%" stop-color="#EA7D7F"/><stop offset="100%" stop-color="#D14748"/></linearGradient><linearGradient id="b" x1="50%" x2="50%" y1="0%" y2="100%"><stop offset="0%" stop-color="#F8CC95"/><stop offset="100%" stop-color="#EE9D5C"/></linearGradient></defs><g fill="none"><path fill="url(#a)" d="M5 0H1a1 1 0 0 0-1 1v20a1 1 0 0 0 1 1h4V0z" transform="translate(4 5)"/><path fill="url(#b)" d="M7 0v22h16a1 1 0 0 0 1-1V1a1 1 0 0 0-1-1H7zm4 4h3v2h-3V4zm3 14h-3v-2h3v2zm3-4h-4v-2h4v2zm3-4h-6V8h6v2z" transform="translate(4 5)"/></g></svg>