<svg xmlns="http://www.w3.org/2000/svg" width="32" height="32"><defs><linearGradient id="a" x1="50%" x2="50%" y1="0%" y2="100%"><stop offset="0%" stop-color="#EA7D7F"/><stop offset="100%" stop-color="#D14748"/></linearGradient><filter id="c" width="141.7%" height="131.2%" x="-20.8%" y="-15.6%" filterUnits="objectBoundingBox"><feOffset dx="-1" in="SourceAlpha" result="shadowOffsetOuter1"/><feColorMatrix in="shadowOffsetOuter1" result="shadowMatrixOuter1" values="0 0 0 0 0 0 0 0 0 0 0 0 0 0 0 0 0 0 0.2 0"/><feMerge><feMergeNode in="shadowMatrixOuter1"/><feMergeNode in="SourceGraphic"/></feMerge></filter><linearGradient id="b" x1="50%" x2="50%" y1="0%" y2="100%"><stop offset="0%" stop-color="#FAE1AD"/><stop offset="100%" stop-color="#F4BF75"/></linearGradient></defs><g fill="none" fill-rule="evenodd"><path fill="url(#a)" d="M5.846 5.846v20.308h20.308V5.846H5.846zm0-1.846H28v24H4V4h1.846zm13.436 8.718H16v10.667H8.615V8.615h14.77v14.77h-4.103V12.718z"/><g fill="url(#b)" fill-rule="nonzero" filter="url(#c)" transform="translate(20 16)"><path d="M10.5 5.333h-.75V3.81C9.75 1.707 8.07 0 6 0 3.93 0 2.25 1.707 2.25 3.81v1.523H1.5c-.825 0-1.5.686-1.5 1.524v7.62C0 15.313.675 16 1.5 16h9c.825 0 1.5-.686 1.5-1.524V6.857c0-.838-.675-1.524-1.5-1.524zM6 12.19c-.825 0-1.5-.685-1.5-1.523 0-.838.675-1.524 1.5-1.524s1.5.686 1.5 1.524S6.825 12.19 6 12.19zm2.325-6.857h-4.65V3.81c0-1.303 1.043-2.362 2.325-2.362 1.282 0 2.325 1.059 2.325 2.362v1.523z"/></g></g></svg>