<svg xmlns="http://www.w3.org/2000/svg" width="32" height="32"><defs><linearGradient id="a" x1="50%" x2="50%" y1="0%" y2="100%"><stop offset="0%" stop-color="#B889D3"/><stop offset="100%" stop-color="#8251A8"/></linearGradient></defs><path fill="url(#a)" d="M9.643 15.6c-1.286 0-3.857 1.3-3.857 2.6 0 2.6 3.857 2.6 3.857 2.6v-1.3c-.71 0-1.286-.582-1.286-1.3 0-.718.576-1.3 1.286-1.3v-1.3zm0 6.5S4.5 21.45 4.5 18.85c0-3.9 3.857-4.875 5.143-4.875V12.35c-1.286 0-6.429 1.95-6.429 5.85 0 5.2 6.429 5.2 6.429 5.2v-1.3zM7.16 6.539l1.53.689c.553-3.172 2.032-5.278 2.032-5.278a26.783 26.783 0 0 0-1.144 3.315C11.134 2.015 14.284 0 14.284 0a20.677 20.677 0 0 0-3.394 4.589C12.921 2.405 15.737.975 15.737.975c-3.458 2.236-5.014 5.785-5.4 6.773l.707.104c0 .676 0 1.3.322 1.794.977 2.457 5.991 2.665 5.991 8.554S12.176 26 9.424 26C6.673 26 .643 24.739.643 18.2s6.364-6.591 7.496-9.204c.154-.494-.978-2.457-.978-2.457z" transform="translate(7 1)"/></svg>