<svg xmlns="http://www.w3.org/2000/svg" width="32" height="32"><defs><linearGradient id="a" x1="50%" x2="50%" y1="0%" y2="100%"><stop offset="0%" stop-color="#EA7D7F"/><stop offset="100%" stop-color="#D14748"/></linearGradient></defs><g fill="none"><path fill="#F4BF75" d="M22 27H10a1 1 0 1 1 0-2h12a1 1 0 1 1 0 2z"/><path fill="url(#a)" d="M23 0H1a1 1 0 0 0-1 1v16a1 1 0 0 0 1 1h22a1 1 0 0 0 1-1V1a1 1 0 0 0-1-1zm-7.485 9.857l-5 3a.994.994 0 0 1-1.008.013A.998.998 0 0 1 9 12V6a.998.998 0 0 1 1.515-.857l5 3a1 1 0 0 1 0 1.714z" transform="translate(4 5)"/></g></svg>