<svg xmlns="http://www.w3.org/2000/svg" width="32" height="32"><defs><linearGradient id="a" x1="50%" x2="50%" y1="0%" y2="100%"><stop offset="0%" stop-color="#B7E7E4"/><stop offset="100%" stop-color="#80CBC4"/></linearGradient><linearGradient id="b" x1="50%" x2="50%" y1="0%" y2="100%"><stop offset="0%" stop-color="#EA7D7F"/><stop offset="100%" stop-color="#D14748"/></linearGradient><linearGradient id="c" x1="50%" x2="50%" y1="0%" y2="100%"><stop offset="0%" stop-color="#D5ADCD"/><stop offset="100%" stop-color="#AA759F"/></linearGradient><linearGradient id="d" x1="50%" x2="50%" y1="0%" y2="100%"><stop offset="0%" stop-color="#EA7D7F"/><stop offset="100%" stop-color="#D14748"/></linearGradient><linearGradient id="e" x1="50%" x2="50%" y1="0%" y2="100%"><stop offset="0%" stop-color="#B7E7E4"/><stop offset="100%" stop-color="#80CBC4"/></linearGradient><linearGradient id="f" x1="50%" x2="50%" y1="0%" y2="100%"><stop offset="0%" stop-color="#D5ADCD"/><stop offset="100%" stop-color="#AA759F"/></linearGradient><linearGradient id="g" x1="50%" x2="50%" y1="0%" y2="100%"><stop offset="0%" stop-color="#FAE1AD"/><stop offset="100%" stop-color="#F4BF75"/></linearGradient><linearGradient id="h" x1="50%" x2="50%" y1="0%" y2="100%"><stop offset="0%" stop-color="#EA7D7F"/><stop offset="100%" stop-color="#D14748"/></linearGradient><linearGradient id="i" x1="50%" x2="50%" y1="0%" y2="100%"><stop offset="0%" stop-color="#FAE1AD"/><stop offset="100%" stop-color="#F4BF75"/></linearGradient><linearGradient id="j" x1="50%" x2="50%" y1="0%" y2="100%"><stop offset="0%" stop-color="#B7E7E4"/><stop offset="100%" stop-color="#80CBC4"/></linearGradient><linearGradient id="k" x1="50%" x2="50%" y1="0%" y2="100%"><stop offset="0%" stop-color="#FAE1AD"/><stop offset="100%" stop-color="#F4BF75"/></linearGradient><linearGradient id="l" x1="50%" x2="50%" y1="0%" y2="100%"><stop offset="0%" stop-color="#B7E7E4"/><stop offset="100%" stop-color="#80CBC4"/></linearGradient><linearGradient id="m" x1="50%" x2="50%" y1="0%" y2="100%"><stop offset="0%" stop-color="#FAE1AD"/><stop offset="100%" stop-color="#F4BF75"/></linearGradient><linearGradient id="n" x1="50%" x2="50%" y1="0%" y2="100%"><stop offset="0%" stop-color="#EA7D7F"/><stop offset="100%" stop-color="#D14748"/></linearGradient><linearGradient id="o" x1="50%" x2="50%" y1="0%" y2="100%"><stop offset="0%" stop-color="#D5ADCD"/><stop offset="100%" stop-color="#AA759F"/></linearGradient><linearGradient id="p" x1="50%" x2="50%" y1="0%" y2="100%"><stop offset="0%" stop-color="#B7E7E4"/><stop offset="100%" stop-color="#80CBC4"/></linearGradient><linearGradient id="q" x1="50%" x2="50%" y1="0%" y2="100%"><stop offset="0%" stop-color="#FAE1AD"/><stop offset="100%" stop-color="#F4BF75"/></linearGradient><linearGradient id="r" x1="50%" x2="50%" y1="0%" y2="100%"><stop offset="0%" stop-color="#D5ADCD"/><stop offset="100%" stop-color="#AA759F"/></linearGradient><linearGradient id="s" x1="50%" x2="50%" y1="0%" y2="100%"><stop offset="0%" stop-color="#FAE1AD"/><stop offset="100%" stop-color="#F4BF75"/></linearGradient><linearGradient id="t" x1="50%" x2="50%" y1="0%" y2="100%"><stop offset="0%" stop-color="#B7E7E4"/><stop offset="100%" stop-color="#80CBC4"/></linearGradient></defs><g fill="none" transform="translate(7 4)"><rect width="2.222" height="1.137" x="16.667" y="4.611" fill="url(#a)" rx=".568"/><rect width="6.667" height="1.137" y="22.8" fill="url(#b)" rx=".568"/><rect width="4.444" height="1.137" x="13.333" y="13.705" fill="url(#c)" rx=".568"/><rect width="5.556" height="1.137" x="6.667" y="13.705" fill="url(#d)" rx=".568"/><rect width="5.556" height="1.137" y="13.705" fill="url(#e)" rx=".568"/><rect width="6.667" height="1.137" y="18.253" fill="url(#f)" rx=".568"/><rect width="6.667" height="1.137" y="9.158" fill="url(#f)" rx=".568"/><rect width="12.222" height="1.137" x="5.556" y="2.337" fill="url(#g)" rx=".568"/><rect width="4.444" height="1.137" y="2.337" fill="url(#h)" rx=".568"/><rect width="2.222" height="1.137" x="4.444" y="20.526" fill="url(#i)" rx=".568"/><rect width="2.222" height="1.137" x="4.444" y="6.884" fill="url(#a)" rx=".568"/><rect width="3.333" height="1.137" y="20.526" fill="url(#j)" rx=".568"/><rect width="3.333" height="1.137" y="6.884" fill="url(#k)" rx=".568"/><rect width="10" height="1.137" x="8.889" y="11.432" fill="url(#l)" rx=".568"/><rect width="4.444" height="1.137" x="3.333" y="11.432" fill="url(#m)" rx=".568"/><rect width="2.222" height="1.137" y="11.432" fill="url(#n)" rx=".568"/><rect width="5.556" height="1.137" x="10" y="4.611" fill="url(#o)" rx=".568"/><rect width="8.889" height="1.137" y="4.611" fill="url(#p)" rx=".568"/><rect width="11.111" height="1.137" x="3.333" y="15.979" fill="url(#q)" rx=".568"/><rect width="2.222" height="1.137" y="15.979" fill="url(#r)" rx=".568"/><rect width="6.667" height="1.137" x="13.333" y="6.884" fill="url(#b)" rx=".568"/><rect width="6.667" height="1.137" x="13.333" y="9.158" fill="url(#s)" rx=".568"/><rect width="14.444" height="1.137" y=".063" fill="url(#t)" rx=".568"/></g></svg>