<svg xmlns="http://www.w3.org/2000/svg" width="32" height="32"><defs><linearGradient id="a" x1="50%" x2="50%" y1="0%" y2="100%"><stop offset="0%" stop-color="#B889D3"/><stop offset="100%" stop-color="#8251A8"/></linearGradient></defs><path fill="url(#a)" d="M19.707.045H2.294C1.092.045.117 1.01.117 2.197v19.606c0 1.189.975 2.152 2.177 2.152h17.413c1.202 0 2.177-.963 2.177-2.152V2.197c0-1.188-.975-2.152-2.177-2.152zM5.559 20.37v-4.782l2.72 2.39-2.72 2.392zm8.464 0v-7.14C14.012 12.67 13.74 12 12.512 12c-2.46 0-5.217 1.223-5.245 1.235L5.56 14V3.632h2.418v6.788c1.208-.389 2.896-.81 4.535-.81 1.495 0 2.39.58 2.877 1.068 1.04 1.04 1.054 2.365 1.053 2.518v7.173h-2.419zm.605-12.852H12.21c.95-1.233 1.547-2.53 1.813-3.885h2.419c-.163 1.358-.72 2.66-1.814 3.885z" transform="translate(5 4)"/></svg>