<svg xmlns="http://www.w3.org/2000/svg" width="32" height="32"><defs><linearGradient id="a" x1="50%" x2="50%" y1="0%" y2="100%"><stop offset="0%" stop-color="#636B7A"/><stop offset="100%" stop-color="#343944"/></linearGradient><linearGradient id="b" x1="50%" x2="50%" y1="0%" y2="100%"><stop offset="0%" stop-color="#A3CDDB"/><stop offset="100%" stop-color="#6A9FB5"/></linearGradient><linearGradient id="c" x1="50%" x2="50%" y1="0%" y2="100%"><stop offset="0%" stop-color="#B1E8F8"/><stop offset="100%" stop-color="#7ACCEE"/></linearGradient><linearGradient id="d" x1="50%" x2="50%" y1="0%" y2="100%"><stop offset="0%" stop-color="#CDF082"/><stop offset="100%" stop-color="#9DBD58"/></linearGradient><linearGradient id="e" x1="50%" x2="50%" y1="0%" y2="100%"><stop offset="0%" stop-color="#FFA7CD"/><stop offset="100%" stop-color="#FF6E9F"/></linearGradient></defs><g fill="none" fill-rule="evenodd"><path fill="url(#a)" d="M13 0L.987 7.02v14L13 28l12-7.1.013-13.8L13 0zm10.954 20.3L13 26.78 2.038 20.408V7.628L13 1.22 23.966 7.7l-.012 12.6z" transform="translate(3 2)"/><path fill="url(#b)" d="M22.569 11.654l-5.623 3.31-.003 7.926 5.647-3.325z" transform="translate(3 2)"/><path fill="url(#c)" d="M20.282 10.303l2.287 1.351-5.623 3.31-.003 7.926-2.616-1.52.021-7.495z" transform="translate(3 2)"/><path fill="#9DBD58" d="M22.512 10.35l.002 1.466-6.103 3.682.007 8.099-1.42.834-.004-9.575z"/><path fill="url(#d)" d="M17.008 6.871l2.504 1.479-7.518 4.506.004 9.575-2.804-1.63-.005-9.388z" transform="translate(3 2)"/><path fill="#AA759F" d="M19.226 6.606v1.768l-8.016 4.7v10.098l-1.402.816.027-11.711z"/><path fill="url(#e)" d="M13.16 2.784l-9.63 5.61-.001 11.677 3.298 1.917.008-11.711 9.4-5.671z" transform="translate(3 2)"/></g></svg>