<svg xmlns="http://www.w3.org/2000/svg" width="32" height="32"><defs><linearGradient id="a" x1="50%" x2="50%" y1="0%" y2="100%"><stop offset="0%" stop-color="#A3CDDB"/><stop offset="100%" stop-color="#6A9FB5"/></linearGradient><linearGradient id="b" x1="50%" x2="50%" y1="0%" y2="100%"><stop offset="0%" stop-color="#FAE1AD"/><stop offset="100%" stop-color="#F4BF75"/></linearGradient></defs><g fill="none" fill-rule="evenodd"><path fill="url(#a)" d="M9.096 11.572h5.774c.802 0 1.486-.286 2.053-.857.566-.571.85-1.253.85-2.045V3.23c0-.791-.29-1.456-.867-1.993A3.69 3.69 0 0 0 14.87.264c-.49-.089-.99-.155-1.502-.199A17.668 17.668 0 0 0 11.867 0c-.512.023-1.002.05-1.47.082a8.799 8.799 0 0 0-1.3.182C7.872.462 7.082.798 6.726 1.27c-.356.473-.534 1.127-.534 1.963v2.175h5.808v.726H4.025c-.846 0-1.603.248-2.27.743C1.086 7.372.63 8.09.384 9.035.14 10.113.012 11.064.001 11.888c-.012.825.116 1.808.384 2.95.222.857.584 1.555 1.085 2.093.502.54 1.174.808 2.019.808h1.97v-2.603c0-.946.361-1.776 1.084-2.49.724-.715 1.575-1.072 2.553-1.072v-.002zM8.73 3.954c-.312 0-.574-.11-.784-.329a1.062 1.062 0 0 1-.316-.757c0-.308.105-.567.316-.775.21-.208.472-.312.784-.312.289 0 .54.104.752.312.212.208.317.467.316.775 0 .285-.106.538-.316.757-.211.22-.462.33-.752.33z" transform="translate(4 4)"/><path fill="url(#b)" d="M23.547 9.031l.002-.002c.289 1.144.439 2.171.45 3.083a7.964 7.964 0 0 1-.45 2.72c-.29.879-.63 1.582-1.02 2.11-.388.527-1.005.791-1.851.791h-8.679v.726h5.774v2.175c0 .835-.3 1.478-.902 1.93-.6.45-1.268.786-2.003 1.006-1.091.306-2.098.45-3.02.428a10.74 10.74 0 0 1-2.754-.428 5.595 5.595 0 0 1-2.036-1.039c-.578-.47-.867-1.102-.867-1.894v-5.44c0-.77.283-1.446.85-2.028.567-.582 1.251-.874 2.053-.874h5.774c.957 0 1.803-.357 2.537-1.071.735-.715 1.103-1.567 1.103-2.556V6.13h2.17c.846.001 1.485.276 1.918.825.433.548.75 1.24.95 2.076zm-8.31 10.882c-.289 0-.544.11-.767.329-.222.22-.333.472-.333.758 0 .308.111.571.333.79.223.22.478.33.767.33.312 0 .573-.11.784-.33.211-.219.316-.482.316-.79 0-.286-.105-.539-.316-.758-.21-.22-.472-.33-.784-.33z" transform="translate(4 4)"/></g></svg>