<svg xmlns="http://www.w3.org/2000/svg" width="32" height="32"><defs><linearGradient id="a" x1="50%" x2="50%" y1="0%" y2="100%"><stop offset="0%" stop-color="#EA7D7F"/><stop offset="100%" stop-color="#D14748"/></linearGradient></defs><g fill="none" fill-rule="evenodd"><path fill="url(#a)" d="M0 0h24v24H0z" transform="translate(4 4)"/><path fill="#FFF" d="M15.916 25.913l-2.164-3.984h-1.29v3.984H10.26V15.478h3.685c1.313 0 2.295.266 2.947.797.651.531.977 1.297.977 2.297 0 .707-.184 1.308-.552 1.803-.368.495-.878.843-1.53 1.044l2.604 4.494h-2.476zm-.261-7.248c0-.485-.155-.842-.463-1.071-.308-.23-.8-.344-1.477-.344h-1.253v2.908h1.313c1.253 0 1.88-.498 1.88-1.493zm3.774 7.248V15.478h7.222v1.764H21.63v2.506h4.566v1.764H21.63v2.637h5.327v1.764h-7.528z"/></g></svg>