<svg xmlns="http://www.w3.org/2000/svg" width="32" height="32"><defs><linearGradient id="a" x1="50%" x2="50%" y1="0%" y2="100%"><stop offset="0%" stop-color="#EA7D7F"/><stop offset="100%" stop-color="#D14748"/></linearGradient><linearGradient id="b" x1="50%" x2="50%" y1="0%" y2="100%"><stop offset="0%" stop-color="#FAE1AD"/><stop offset="100%" stop-color="#F4BF75"/></linearGradient></defs><g fill="none" fill-rule="evenodd"><path fill="url(#a)" fill-rule="nonzero" d="M22.768 5.36A1 1 0 0 0 22 5H10a1 1 0 0 0-.768.36l-5 6a1 1 0 0 0-.039 1.231l11 15a1.003 1.003 0 0 0 1.614 0l11-15a1 1 0 0 0-.039-1.231l-5-6z"/><path fill="url(#b)" opacity=".9" d="M9 11h14v2H9z"/></g></svg>