<svg xmlns="http://www.w3.org/2000/svg" width="32" height="32"><defs><linearGradient id="a" x1="50%" x2="50%" y1="0%" y2="100%"><stop offset="0%" stop-color="#B1E8F8"/><stop offset="100%" stop-color="#7ACCEE"/></linearGradient><linearGradient id="b" x1="100%" x2="0%" y1="49.415%" y2="50.585%"><stop offset="0%" stop-color="#EA7D7F"/><stop offset="100%" stop-color="#D14748"/></linearGradient></defs><g fill="none"><path fill="url(#a)" d="M5 15.414L.293 10.707a.999.999 0 0 1 0-1.414L5 4.586 6.414 6l-4 4 4 4L5 15.414zm12 0L15.586 14l4-4-4-4L17 4.586l4.707 4.707a.999.999 0 0 1 0 1.414L17 15.414z" transform="translate(5 6)"/><path fill="url(#b)" transform="rotate(-75.954 17.343 9.797)" d="M1.754 9h18.493v2H1.754z"/></g></svg>