<svg xmlns="http://www.w3.org/2000/svg" width="32" height="32"><defs><linearGradient id="a" x1="50%" x2="50%" y1="0%" y2="100%"><stop offset="0%" stop-color="#D67677"/><stop offset="100%" stop-color="#AC4142"/></linearGradient><linearGradient id="b" x1="50%" x2="50%" y1="0%" y2="100%"><stop offset="0%" stop-color="#EA7D7F"/><stop offset="100%" stop-color="#D14748"/></linearGradient></defs><g fill="none"><path fill="url(#a)" d="M15.7 5h7.7L17.7.2c-.2-.1-.5-.2-.7-.2h-3.2l1.9 5z" transform="translate(4 4)"/><path fill="url(#b)" d="M16 7v7H8V7H0v16c0 .6.4 1 1 1h22c.6 0 1-.4 1-1V7h-8z" transform="translate(4 4)"/><path fill="url(#a)" d="M8.3 5l1.9-5H7c-.2 0-.5.1-.6.2L.6 5h7.7z" transform="translate(4 4)"/></g></svg>