<svg xmlns="http://www.w3.org/2000/svg" width="32" height="32"><defs><linearGradient id="a" x1="50%" x2="50%" y1="0%" y2="100%"><stop offset="0%" stop-color="#EA7D7F"/><stop offset="100%" stop-color="#D14748"/></linearGradient></defs><path fill="url(#a)" d="M17.931 20.195c-2.8 1.648-6.65 1.817-10.524.126C4.271 18.962 1.668 16.583 0 13.865c.8.68 1.735 1.223 2.736 1.699 4 1.91 8 1.779 10.814.005l-.004-.005C9.542 12.437 6.14 8.359 3.603 5.029 3.07 4.486 2.67 3.806 2.27 3.194c3.07 2.855 7.94 6.457 9.675 7.477-3.67-3.943-6.94-8.836-6.806-8.7 5.805 5.98 11.21 9.38 11.21 9.38.18.102.318.187.429.264a9.06 9.06 0 0 0 .306-.944c.934-3.467-.134-7.409-2.47-10.67 5.405 3.33 8.609 9.582 7.274 14.815-.035.142-.073.28-.114.418.016.019.032.038.047.059 2.67 3.398 1.935 7 1.602 6.32-1.448-2.885-4.128-2.003-5.49-1.418h-.001z" transform="translate(4 4)"/></svg>