<svg xmlns="http://www.w3.org/2000/svg" width="32" height="32"><defs><linearGradient id="a" x1="50%" x2="50%" y1="0%" y2="100%"><stop offset="0%" stop-color="#8EFBBC"/><stop offset="100%" stop-color="#2ECC71"/></linearGradient><linearGradient id="b" x1="50%" x2="50%" y1="0%" y2="100%"><stop offset="0%" stop-color="#8EFBBC"/><stop offset="100%" stop-color="#2ECC71"/></linearGradient><linearGradient id="c" x1="50%" x2="50%" y1="0%" y2="100%"><stop offset="0%" stop-color="#CDF082"/><stop offset="100%" stop-color="#9DBD58"/></linearGradient></defs><g fill="none" fill-rule="evenodd"><path fill="url(#a)" fill-rule="nonzero" d="M24 7H0V1a1 1 0 0 1 1-1h22a1 1 0 0 1 1 1v6z" transform="translate(4 5)"/><path fill="url(#b)" fill-rule="nonzero" d="M7 22H1a1 1 0 0 1-1-1V9h7v13z" transform="translate(4 5)"/><path fill="url(#c)" d="M23 22H9V9h15v12a1 1 0 0 1-1 1z" transform="translate(4 5)"/></g></svg>