<svg xmlns="http://www.w3.org/2000/svg" width="32" height="32"><defs><linearGradient id="a" x1="50%" x2="50%" y1="0%" y2="100%"><stop offset="0%" stop-color="#FAE1AD"/><stop offset="100%" stop-color="#F4BF75"/></linearGradient></defs><path fill="url(#a)" fill-rule="evenodd" d="M20.819 3.582c-.561-.5-1.181-.678-1.861-.533-.68.146-1.365.522-2.056 1.128-.108.084-.21.173-.307.266l-.306.297a15.827 15.827 0 0 0-1.716 2.16 23.906 23.906 0 0 0-1.538 2.644 26.696 26.696 0 0 0-1.214 2.817c-.346.95-.605 1.852-.778 2.708a10.059 10.059 0 0 1 .615 1.69c.023.085.039.153.049.205.01.052.025.11.047.172.022.126.044.225.065.297l.033.11-.033-.078-.098-.266a.127.127 0 0 0-.016-.063.203.203 0 0 1-.017-.094c-.022 0-.033-.01-.033-.032v-.032a8.351 8.351 0 0 0-.39-.719c-.173-.291-.302-.52-.39-.69-.086.23-.162.45-.225.658l-.195.627c.26.48.47 1.032.632 1.659l.242.94-.033-.11-.13-.362a4.147 4.147 0 0 0-.438-.829 5.582 5.582 0 0 1-.437-.767c-.13.438-.216.798-.259 1.08-.043.281-.043.454 0 .516.087.146.168.328.243.547.074.22.155.464.242.736.15.605.28 1.194.39 1.769l.161.86v.251c-.022.501-.027 1.007-.016 1.519.01.511.038.997.08 1.456.065.627.14 1.19.226 1.691.086.5.194.898.324 1.19l.195-.094a8.622 8.622 0 0 1-.405-1.925c-.074-.72-.09-1.508-.047-2.364.043-1.294.22-2.708.534-4.241.314-1.533.751-3.114 1.312-4.742a35.26 35.26 0 0 1 1.571-3.506 33.533 33.533 0 0 1 1.766-3.037 21.951 21.951 0 0 1 1.86-2.458c.636-.72 1.257-1.31 1.862-1.769-.561.48-1.154 1.194-1.78 2.144a40.993 40.993 0 0 0-1.797 3.005 58.15 58.15 0 0 0-1.554 3.067c-.465.99-.804 1.779-1.02 2.364a43.13 43.13 0 0 0-1.312 3.818 36.39 36.39 0 0 0-.858 3.632c.368-1.106.983-1.91 1.847-2.41l1.295-.751.777-.956 1.813-2.488c-.41.104-.896.224-1.456.36-.561.137-.96.246-1.198.33a18.37 18.37 0 0 0-.68.296l-.162.078 1.312-.72 2.736-1.157a53.348 53.348 0 0 0 1.86-3.162 17.99 17.99 0 0 0 1.426-3.333c.336-1.095.47-2.118.405-3.067-.067-.95-.456-1.727-1.167-2.332h.002z" transform="rotate(20 16 16)"/></svg>