<svg xmlns="http://www.w3.org/2000/svg" width="32" height="32"><defs><linearGradient id="a" x1="50%" x2="50%" y1="0%" y2="100%"><stop offset="0%" stop-color="#B1E8F8"/><stop offset="100%" stop-color="#7ACCEE"/></linearGradient><linearGradient id="b" x1="50%" x2="50%" y1="0%" y2="100%"><stop offset="0%" stop-color="#B1E8F8"/><stop offset="100%" stop-color="#7ACCEE"/></linearGradient></defs><g fill="none"><path fill="#6A9FB5" d="M9 17V5a1 1 0 0 0-2 0v12h2z"/><path fill="url(#a)" d="M7 15H1a1 1 0 0 0-1 1v4a1 1 0 0 0 1 1h2v2a1 1 0 0 0 2 0v-2h2a1 1 0 0 0 1-1v-4a1 1 0 0 0-1-1z" transform="translate(4 4)"/><path fill="#6A9FB5" d="M17 7V5a1 1 0 0 0-2 0v2h2z"/><path fill="url(#b)" d="M16 6a1 1 0 0 0-1-1H9a1 1 0 0 0-1 1v4a1 1 0 0 0 1 1h2v12a1 1 0 0 0 2 0V11h2a1 1 0 0 0 1-1V6z" transform="translate(4 4)"/><path fill="#6A9FB5" d="M25 17V5a1 1 0 0 0-2 0v12h2z"/><path fill="url(#a)" d="M23 15h-6a1 1 0 0 0-1 1v4a1 1 0 0 0 1 1h2v2a1 1 0 0 0 2 0v-2h2a1 1 0 0 0 1-1v-4a1 1 0 0 0-1-1z" transform="translate(4 4)"/></g></svg>