<svg xmlns="http://www.w3.org/2000/svg" width="32" height="32"><defs><linearGradient id="a" x1="50%" x2="50%" y1="0%" y2="100%"><stop offset="0%" stop-color="#6B9EDF"/><stop offset="100%" stop-color="#3965BD"/></linearGradient><linearGradient id="b" x1="50%" x2="50%" y1="0%" y2="100%"><stop offset="0%" stop-color="#6B9EDF"/><stop offset="100%" stop-color="#3965BD"/></linearGradient><linearGradient id="c" x1="50%" x2="50%" y1="0%" y2="100%"><stop offset="0%" stop-color="#6B9EDF"/><stop offset="100%" stop-color="#3965BD"/></linearGradient></defs><g fill="none" fill-rule="evenodd"><path fill="url(#a)" fill-rule="nonzero" d="M24 2H2v22h22V2zm2-2v26H0V0h26z" transform="translate(3 3)"/><path fill="url(#b)" d="M15.26 19.904a5.96 5.96 0 0 0 1.238.444 6.311 6.311 0 0 0 1.576.193c.579 0 1.02-.103 1.323-.31.303-.206.455-.476.455-.811 0-.31-.145-.574-.433-.794-.29-.219-.772-.432-1.45-.638-.93-.31-1.681-.713-2.253-1.21-.571-.496-.857-1.118-.857-1.866 0-.877.381-1.612 1.143-2.204.762-.592 1.806-.889 3.132-.89.635 0 1.189.052 1.662.155a7.03 7.03 0 0 1 1.216.367l-.572 1.877a7.273 7.273 0 0 0-.931-.33c-.396-.116-.868-.174-1.418-.174-.55 0-.959.1-1.227.3-.268.2-.402.434-.402.705 0 .323.162.58.486.774.324.193.853.418 1.587.677 1.001.335 1.738.75 2.211 1.247.473.497.71 1.112.709 1.847 0 .864-.37 1.611-1.11 2.244-.741.632-1.88.948-3.417.948a8.05 8.05 0 0 1-1.84-.203c-.578-.136-1.03-.281-1.355-.436l.53-1.915-.003.003z" transform="translate(3 3)"/><path fill="url(#c)" d="M9.204 22.455v-8.837H5.909v-1.8h8.824v1.8h-3.287v8.837z" transform="translate(3 3)"/></g></svg>