<svg xmlns="http://www.w3.org/2000/svg" width="32" height="32"><defs><linearGradient id="a" x1="50%" x2="50%" y1="0%" y2="100%"><stop offset="0%" stop-color="#B1E8F8"/><stop offset="100%" stop-color="#7ACCEE"/></linearGradient><linearGradient id="b" x1="50%" x2="50%" y1="0%" y2="100%"><stop offset="0%" stop-color="#6B9EDF"/><stop offset="100%" stop-color="#3965BD"/></linearGradient></defs><g fill="none"><path fill="#FFF" fill-opacity=".785" d="M23.962 21.129l-8.926 5.086-8.925-5.086V10.957l8.925-5.087 8.926 5.087z"/><path fill="url(#a)" d="M10.752.12c-.243 0-.475.067-.66.204L.944 5.398c-.37.194-.613.573-.613 1.007V16.69c0 .434.242.812.613 1.006l9.148 5.074c.185.137.417.205.66.205.243 0 .475-.068.66-.205l9.148-5.074c.37-.194.613-.572.613-1.006V6.405c0-.434-.242-.813-.613-1.007L11.413.324a1.104 1.104 0 0 0-.66-.205zm0 2.457l8.105 4.502v2.404h-.018V15.4h.018v.616l-8.105 4.503-8.105-4.503V7.08l8.105-4.502zm0 2.377L5.078 8.188l5.674 3.235 5.674-3.235-5.674-3.234zm-5.79 5.806v4.091l4.632 2.639v-4.092L4.963 10.76zm11.58 0l-4.632 2.638v4.092l4.632-2.639V10.76z" transform="translate(5 5)"/><path fill="url(#b)" d="M10.752 4.954L5.078 8.188l5.674 3.235 5.674-3.235-5.674-3.234zm-5.79 5.806v4.091l4.632 2.639v-4.092L4.963 10.76zm11.58 0l-4.632 2.638v4.092l4.632-2.639V10.76z" transform="translate(5 5)"/></g></svg>