/* XPM */
static char * linux_xpm[] = {
"20 20 78 1",
" 	c None",
".	c #253D48",
"+	c #253E4A",
"@	c #206A90",
"#	c #1F6F98",
"$	c #272D30",
"%	c #178EC8",
"&	c #1791CD",
"*	c #263238",
"=	c #1D536E",
"-	c #1794D1",
";	c #1C5D7C",
">	c #1784B9",
",	c #178AC2",
"'	c #1C2022",
")	c #152B35",
"!	c #1693D0",
"~	c #15455C",
"{	c #0F2732",
"]	c #124E6C",
"^	c #1582B7",
"/	c #0E3343",
"(	c #1692CF",
"_	c #115D82",
":	c #0E415A",
"<	c #147BAE",
"[	c #1587BE",
"}	c #0E374C",
"|	c #104966",
"1	c #157FB3",
"2	c #1689C2",
"3	c #0A1114",
"4	c #0E394E",
"5	c #104C69",
"6	c #1581B5",
"7	c #12658D",
"8	c #116085",
"9	c #168AC3",
"0	c #0A1216",
"a	c #0F4560",
"b	c #0B1921",
"c	c #0B161C",
"d	c #1691CD",
"e	c #105171",
"f	c #0A1215",
"g	c #1589C1",
"h	c #1581B6",
"i	c #157AAA",
"j	c #13709E",
"k	c #147EB2",
"l	c #0B151A",
"m	c #105272",
"n	c #1478A9",
"o	c #136D9B",
"p	c #1588BF",
"q	c #0D3142",
"r	c #0B1318",
"s	c #0B181F",
"t	c #168FC9",
"u	c #168CC7",
"v	c #12648C",
"w	c #125C7F",
"x	c #168EC9",
"y	c #114F6F",
"z	c #125F84",
"A	c #126991",
"B	c #0E3244",
"C	c #136F9B",
"D	c #105273",
"E	c #0D2632",
"F	c #12668E",
"G	c #0C1F29",
"H	c #0C222C",
"I	c #1690CC",
"J	c #0C1F28",
"K	c #0C2632",
"L	c #0C2734",
"M	c #0F4762",
"         .+         ",
"         @#         ",
"        $%&*        ",
"        =--;        ",
"        >--,'       ",
"       )!---~       ",
"       {]---^       ",
"      /(__!--:      ",
"      <------[      ",
"     }--------|     ",
"     1--------23    ",
"    4----11----5    ",
"    6---7  8---90   ",
"   a---(b  cd---e   ",
"  fg---h    i-!jkl  ",
"  m----n    o--pqr  ",
" st---uv    wx--(y  ",
" z-(AB        }C--D ",
"E(FG            HFIJ",
"|K                LM"};
