/* XPM */
static char * icewm_xpm[] = {
"25 20 121 2",
"  	c None",
". 	c #293349",
"+ 	c #293A5D",
"@ 	c #293D67",
"# 	c #293F6D",
"$ 	c #2B3751",
"% 	c #29406F",
"& 	c #294172",
"* 	c #283A62",
"= 	c #2B4273",
"- 	c #7288AE",
"; 	c #B4C3D9",
"> 	c #B9C8DD",
", 	c #899EC1",
"' 	c #2C477B",
") 	c #283A5E",
"! 	c #273B62",
"~ 	c #314878",
"{ 	c #C6D2E4",
"] 	c #FFFFFF",
"^ 	c #4E7AB9",
"/ 	c #2F5087",
"( 	c #273A61",
"_ 	c #223049",
": 	c #A4B5CF",
"< 	c #F8FAFC",
"[ 	c #A6B7D1",
"} 	c #8398BA",
"| 	c #7795C1",
"1 	c #3C6EB4",
"2 	c #3B6BB1",
"3 	c #2B4779",
"4 	c #222F48",
"5 	c #283F6E",
"6 	c #2E4576",
"7 	c #F6F8FB",
"8 	c #748AAF",
"9 	c #3764A4",
"0 	c #335893",
"a 	c #283F6D",
"b 	c #17191D",
"c 	c #1A253B",
"d 	c #4A618D",
"e 	c #F9FAFD",
"f 	c #2D4475",
"g 	c #31548F",
"h 	c #36609F",
"i 	c #19243A",
"j 	c #213257",
"k 	c #4F6692",
"l 	c #F2F5FA",
"m 	c #345B97",
"n 	c #345B98",
"o 	c #203257",
"p 	c #253A65",
"q 	c #F4F7FB",
"r 	c #294274",
"s 	c #30518A",
"t 	c #3B6DB2",
"u 	c #2E4F86",
"v 	c #253A64",
"w 	c #273E6D",
"x 	c #31548E",
"y 	c #3964A4",
"z 	c #CBD8E9",
"A 	c #F3F6FA",
"B 	c #F0F3F9",
"C 	c #A4BBDB",
"D 	c #365F9F",
"E 	c #273D6C",
"F 	c #283F6F",
"G 	c #3762A1",
"H 	c #4171B6",
"I 	c #EDF1F8",
"J 	c #C3D3E8",
"K 	c #325792",
"L 	c #294273",
"M 	c #253964",
"N 	c #3B6CB1",
"O 	c #365182",
"P 	c #48608D",
"Q 	c #7388AD",
"R 	c #F4F6FB",
"S 	c #324C7E",
"T 	c #2A4173",
"U 	c #3864A5",
"V 	c #4F6691",
"W 	c #172136",
"X 	c #3B6BAF",
"Y 	c #2C4A7F",
"Z 	c #546B96",
"` 	c #273E6C",
" .	c #8EA1C1",
"..	c #D6DFEC",
"+.	c #19253C",
"@.	c #32558F",
"#.	c #4D6B9E",
"$.	c #576F99",
"%.	c #889CBE",
"&.	c #F7F9FC",
"*.	c #889CBD",
"=.	c #202F53",
"-.	c #3761A1",
";.	c #779ACB",
">.	c #C2CEE2",
",.	c #2C4374",
"'.	c #203256",
").	c #23375E",
"!.	c #48689A",
"~.	c #D1DBEB",
"{.	c #F1F5F9",
"].	c #D6E0ED",
"^.	c #8DA0C1",
"/.	c #2C4375",
"(.	c #1A263F",
"_.	c #10151F",
":.	c #233760",
"<.	c #263D6B",
"[.	c #243963",
"}.	c #203155",
"|.	c #172237",
"              . + @ # @ + .                       ",
"          $ % & & & & & & & % $                   ",
"        * & & & & & = - ; > , ' )                 ",
"      ! & & & & & ~ { ] ] ] ] ^ / (               ",
"    _ & & & & & & : ] < [ } | 1 2 3 4             ",
"    5 & & & & & 6 7 ] 8 & & & 9 1 0 a b           ",
"  c & & & & & & d ] e f & & & g 1 h & i           ",
"  j & & & & & & k ] l & & & & m 1 n & o           ",
"  p & & & & & & k ] q & & r s t 1 u & v           ",
"  w & & x y z l q ] ] A B C 1 1 D & & E           ",
"  F & G 1 H I ] ] ] ] ] ] J 2 K L & & M           ",
"  F x 1 N g O P Q ] R P P S T & & & & o           ",
"  F U 1 x & & & V ] l & & & & & & & & W           ",
"  F X 1 Y & & & Z ] B & & & & & & & `             ",
"  F U 1 x & & &  .] ..& & & & & & & +.            ",
"  F @.1 N #.$.%.&.] *.& & & & & & =.              ",
"  5 T -.;.] ] ] ] >.,.& & & & & '.                ",
"  ).& & !.~.{.].^./.& & & & w (.                  ",
"  _.:.<.<.<.<.<.<.<.<.[.}.|.                      ",
"                                                  "};
