/* XPM */
static char *chromium_browser[] = {
/* columns rows colors chars-per-pixel */
"32 32 223 2 ",
"   c black",
".  c #1B2D3F",
"X  c #2E2E2E",
"o  c #2E343A",
"O  c gray20",
"+  c #34373A",
"@  c #3B3B3C",
"#  c #2D3343",
"$  c #2F3941",
"%  c #313B44",
"&  c #3C3E42",
"*  c #323A4C",
"=  c #2C3B5A",
"-  c #383F52",
";  c #303E59",
":  c #2B3C63",
">  c #273F70",
",  c #2E4657",
"<  c #3B4353",
"1  c #394B57",
"2  c #264464",
"3  c #2B426D",
"4  c #354464",
"5  c #354B67",
"6  c #2D467D",
"7  c #374B74",
"8  c #364D79",
"9  c #355A72",
"0  c #424344",
"q  c #474849",
"w  c #4B4B4C",
"e  c #504F4F",
"r  c #444B5A",
"t  c #525253",
"y  c #444D62",
"u  c #41506B",
"i  c #51626D",
"p  c #4D617A",
"a  c #536170",
"s  c #606162",
"d  c #66686A",
"f  c #676D74",
"g  c #606D7B",
"h  c #717275",
"j  c #747779",
"k  c #767A7E",
"l  c #274583",
"z  c #294883",
"x  c #2B4D8A",
"c  c #354E83",
"v  c #2E508C",
"b  c #32528E",
"n  c #39558C",
"m  c #255F97",
"M  c #355691",
"N  c #375892",
"B  c #3C5B95",
"V  c #1C6094",
"C  c #396395",
"Z  c #1878B4",
"A  c #2273B9",
"S  c #2B77BC",
"D  c #425883",
"F  c #405F95",
"G  c #4E6785",
"H  c #46678D",
"J  c #516881",
"K  c #5C6F86",
"L  c #49738F",
"P  c #406097",
"I  c #446399",
"U  c #49669C",
"Y  c #436A9A",
"T  c #4B699E",
"R  c #566C95",
"E  c #4B719C",
"W  c #5B749F",
"Q  c #5D7A9C",
"!  c #64778C",
"~  c #777C80",
"^  c #7C7E82",
"/  c #6B7E94",
"(  c #60759C",
")  c #657E9E",
"_  c #4F6CA0",
"`  c #516EA1",
"'  c #4670A2",
"]  c #4973A2",
"[  c #4172AB",
"{  c #5672A4",
"}  c #5974A4",
"|  c #577AA4",
" . c #5D78A8",
".. c #677DA1",
"X. c #637BA9",
"o. c #167EC6",
"O. c #237EC5",
"+. c #2A7AC3",
"@. c #337FC7",
"#. c #2882B9",
"$. c #7B8084",
"%. c #64889F",
"&. c #5F82AC",
"*. c #6A85A5",
"=. c #6C84AE",
"-. c #7084A7",
";. c #748CA8",
":. c #6E86B1",
">. c #6B8DB7",
",. c #7087B1",
"<. c #738BB4",
"1. c #798EB6",
"2. c #799EB6",
"3. c #7D92B8",
"4. c #0C84CE",
"5. c #1484CF",
"6. c #2E81C8",
"7. c #3484CC",
"8. c #248AD4",
"9. c #2D8FDD",
"0. c #3A8FDD",
"q. c #2792D5",
"w. c #2691D8",
"e. c #2D95DA",
"r. c #3C93E3",
"t. c #5387C4",
"y. c #5189CC",
"u. c #588ECD",
"i. c #4495C8",
"p. c #5C90CE",
"a. c #4F8ED7",
"s. c #4F8FDB",
"d. c #518DD3",
"f. c #508FDB",
"g. c #4E90DE",
"h. c #5690D4",
"j. c #5991D4",
"k. c #5693DE",
"l. c #5995DF",
"z. c #539BDE",
"x. c #6993C6",
"c. c #6B9AD1",
"v. c #629ADC",
"b. c #48A2DE",
"n. c #7DAECE",
"m. c #6DA0DC",
"M. c #7BA5D9",
"N. c #7AA8DF",
"B. c #73B0D6",
"V. c #7EB8DC",
"C. c #4595E5",
"Z. c #4D92E5",
"A. c #4B9AE6",
"S. c #4E93E8",
"D. c #5496E4",
"F. c #579AE6",
"G. c #5A99E5",
"H. c #5296E8",
"J. c #559AE9",
"K. c #5B9BE9",
"L. c #629DE3",
"P. c #619EE9",
"I. c #5FA3EB",
"U. c #65A0E6",
"Y. c #6CA3E5",
"T. c #62ABE7",
"R. c #64A2EB",
"E. c #6CA5EB",
"W. c #66A8EC",
"Q. c #6FACEC",
"!. c #72ADED",
"~. c #79AEEE",
"^. c #64B1E3",
"/. c #6FB5E7",
"(. c #7DBBE2",
"). c #76B5EB",
"_. c #7BB4EF",
"`. c #7DBAED",
"'. c #818386",
"]. c #818489",
"[. c #898D8F",
"{. c #8E9295",
"}. c #93979B",
"|. c #94989B",
" X c #889BBE",
".X c #9CA1A7",
"XX c #9EA4AA",
"oX c #A6A9AC",
"OX c #ACB1B7",
"+X c #8ABEDF",
"@X c #92B0D3",
"#X c #84B5EE",
"$X c #85B6F0",
"%X c #84BCF0",
"&X c #8AB9F0",
"*X c #94BEF1",
"=X c #BEC2C5",
"-X c #BFC4CB",
";X c #A7C8DD",
":X c #90C6F1",
">X c #9AC3F2",
",X c #95C9F1",
"<X c #A4C8F3",
"1X c #A4D5F3",
"2X c #C1C6CB",
"3X c #C3C8CE",
"4X c #C4CCD4",
"5X c #C9CED5",
"6X c #C6CFD9",
"7X c #C9D0D7",
"8X c #C7D1DA",
"9X c #CBD4DD",
"0X c #CCD7E1",
"qX c #CFDAE4",
"wX c #D0DBE6",
"eX c #D9DEE5",
"rX c #D5DEE8",
"tX c #D7E0E9",
"yX c #DBE3EC",
"uX c #E0E7EF",
"iX c #E1E8EF",
"pX c #E3EAF0",
"aX c None",
/* pixels */
"aXaXaXaXaXaXaXaXaXaXaXaXaXaXaXaXaXaXaXaXaXaXaXaXaXaXaXaXaXaXaXaX",
"aXaXaXaXaXaXaXaXaXaXaXaXaXaXaXaXaXaXaXaXaXaXaXaXaXaXaXaXaXaXaXaX",
"aXaXaX..:.:.:.:.:.:.:.;.<.<.:.<.<.<.<.<.>.<.<.<.<.<.<.<.-.aXaXaX",
"aXaXR I I U I U U I U U T T T T T T _ T _ _ _ _ ` _ ` ` { ( aXaX",
"aXaX` F B P B n 7 7 F ` ` { T U { { _ U U U _ U U _ T T _  .aXaX",
"aXaXU b 8 4 - 0 e e < I { ` P P I B B I I I I U I I I U I { aXaX",
"aXaXy 0 w t g -.x.&.e 8 P B B B B B B B B B B B P P P P I ` aXaX",
"aXaXf / >.m.P.J.K.k.t 4 M T  .=.=.{ U B B N B B B B B B B T aXaX",
"aXaXc.j.L.L.P.J.S.K.a r 3. X3.=.=.1. X,.U M M M M M M M N D aXaX",
"aXaXp.v.Y.Y.P.S.H.J.) q W c : = = : 6 { =.{ v v b b M M M 5 aXaX",
"aXaXp.v.Y.E.J.S.J.#X@Xw * & w e t q & = n X.U x x x x x v r aXaX",
"aXaXj.k.G.F.S.H.E.<XN.q w i %.2.2.%.a q * n } n x x x x z t aXaX",
"aXaXj.s.Z.Z.S.J.*X*XH w L n.V.(.(.+X;XL w = I U x x x x 3 t aXaX",
"aXaXj.g.Z.Z.S.K.>Xc.0 9 i.^./.).)./.`.B.9 & 6 U x x x x ; t aXaX",
"aXaXh.g.Z.Z.S.E.*X .0 Z w.T.Q.~.~.!.T.b.#.0 @ * : > l x & h aXaX",
"aXaXh.g.Z.Z.S.~.&XG 1 4.9.H.!.%X%X!.F.9.q.1 s j 0 @ + # 0 XXaXaX",
"aXaXd.g.Z.S.H.~.&XJ , 5.r.I._.:X:X`.I.r.e., $.iXeXOX{.$.XX0XaXaX",
"aXaXd.g.Z.S.S.Q.&XQ @ 5.r.W.%X1X1X%XW.C.8.& .XpXtXqXwXwXqX0XaXaX",
"aXaXd.g.Z.Z.S.R.&XM.@ V O.I.`.,X,X`.W.A.V & 4XpXrXwXqXqXqX0XaXaX",
"aXaXd.g.Z.Z.S.K.#X$X! % A O.z._.).Q.F.S % {.yXuXqXwXqXwX0X0XaXaX",
"aXaXd.f.Z.Z.Z.J.E.&X$X/ + m O.6.7.7.m % d rXuXrXwXwXqXwXqX0XaXaX",
"aXaXy.f.g.Z.Z.H.P.~.$X$X;.+ o 2 2 o @ |.tXiXyXwXwXqXwXqX0X9XaXaX",
"aXaXy.f.Z.Z.S.H.K.E.~.#XE @ j {.}.OX7XyXiXyXqXwXwXqX7X9X0X9XaXaX",
"aXaXy.d.g.Z.S.S.J.P.L.Y O [.yXyXyXyXuXyXrXwXwXqXqX8X9X9X5X4XaXaX",
"aXaXt.d.g.Z.Z.Z.H.F.C O ~ rXeXtXyXrXrXwXwXwXwXwX8X9X0X8X0X9XaXaX",
"aXaXt.y.g.Z.Z.Z.S.[ O ~ 0XwXqXqXqXqXqXqXqXqXqX8X7X9X7X9X7X5XaXaX",
"aXaXt.y.a.g.Z.Z.S.5 w 9XqXqXqXqXqXqXqXqXqX9X4X9X0X6X7X5X3X3XaXaX",
"aXaXt.y.d.f.Z.Z.S.U X ~ 9XqX0XqX0X0X0X0X6X7X9X6X4X6X4X3X2X2XaXaX",
"aXaX' t.y.g.g.Z.Z.F.p X ~ 8X8X4X7X7X5X3X5X-X6X4X4X3X2X=X=XoXaXaX",
"aXaX. ] u.h.l.G.G.K.L.K 0 ].8X4X0X9X8X4X4X3X4X3X2X2X=X2XoXw aXaX",
"aXaXaXaX                                                aXaXaXaX",
"aXaXaXaXaXaXaXaXaXaXaXaXaXaXaXaXaXaXaXaXaXaXaXaXaXaXaXaXaXaXaXaX"
};
