/* XPM */
static char *firefox[] = {
/* columns rows colors chars-per-pixel */
"32 32 256 2 ",
"   c black",
".  c #07082D",
"X  c #08092E",
"o  c #0B0D32",
"O  c #0E143B",
"+  c #231A33",
"@  c #54332C",
"#  c #693A37",
"$  c #5B4D2F",
"%  c #121B45",
"&  c #161949",
"*  c #161C54",
"=  c #0E1949",
"-  c #12234D",
";  c #182B55",
":  c #16315D",
">  c #2A2C50",
",  c #163865",
"<  c #1E316F",
"1  c #27256D",
"2  c #263667",
"3  c #223C75",
"4  c #4E2B4B",
"5  c #1A4A7B",
"6  c #184574",
"7  c #30547F",
"8  c #2F4B76",
"9  c #755148",
"0  c #5C4A62",
"q  c #4D536F",
"w  c #4D647B",
"e  c #7B6E6F",
"r  c #726C75",
"t  c #881E0D",
"y  c #8F2810",
"u  c #982816",
"i  c #9B3011",
"p  c #A6310C",
"a  c #A9360C",
"s  c #A12D12",
"d  c #AA3914",
"f  c #AB2F0B",
"g  c #9C511E",
"h  c #B9440E",
"j  c #B65B0F",
"k  c #BA5B0F",
"l  c #AD4118",
"z  c #AA4A19",
"x  c #BB4C14",
"c  c #B34C11",
"v  c #B65F11",
"b  c #B85B1A",
"n  c #A4581E",
"m  c #BC680A",
"M  c #BB6315",
"N  c #B6611A",
"B  c #BC631A",
"V  c #BB6519",
"C  c #934A2C",
"Z  c #995425",
"A  c #B25E25",
"S  c #B66724",
"D  c #B66922",
"F  c #B76A2A",
"G  c #BE6220",
"H  c #B16D2F",
"J  c #C9520D",
"K  c #C64D16",
"L  c #C35B15",
"P  c #CB5718",
"I  c #C64C0C",
"U  c #C46614",
"Y  c #C3661B",
"T  c #CB6B1D",
"R  c #C6691A",
"E  c #D26E1E",
"W  c #CA7218",
"Q  c #D4711C",
"!  c #DC751B",
"~  c #D47117",
"^  c #E2631D",
"/  c #E0781A",
"(  c #C45A2A",
")  c #CA6E23",
"_  c #C46821",
"`  c #D06E24",
"'  c #CB7025",
"]  c #DA7524",
"[  c #DD7923",
"{  c #DD7B2A",
"}  c #D57327",
"|  c #CA7E36",
" . c #E26A25",
".. c #E17C24",
"X. c #E17D2C",
"o. c #E77727",
"O. c #E57935",
"+. c #816249",
"@. c #876A58",
"#. c #9F7153",
"$. c #AB6D41",
"%. c #90786A",
"&. c #C68907",
"*. c #D18F0C",
"=. c #D8950C",
"-. c #CF9412",
";. c #E6920D",
":. c #E19719",
">. c #DEA308",
",. c #C2B11E",
"<. c #D5A90A",
"1. c #E9A909",
"2. c #F9BB1A",
"3. c #EEB410",
"4. c #CD942D",
"5. c #D6942C",
"6. c #D79A30",
"7. c #E2832B",
"8. c #E29825",
"9. c #E58A39",
"0. c #E38934",
"q. c #E9953D",
"w. c #D6AA26",
"e. c #C6A43E",
"r. c #DDB637",
"t. c #D4A635",
"y. c #F4AF29",
"u. c #CEC211",
"i. c #D9D20D",
"p. c #F3C808",
"a. c #EDDF04",
"s. c #F9D60B",
"d. c #F6C41A",
"f. c #F0DF1F",
"g. c #E8CD04",
"h. c #FAE607",
"j. c #FAE511",
"k. c #D0CA30",
"l. c #FBDC39",
"z. c #AE8E52",
"x. c #928F71",
"c. c #B99762",
"v. c #B2986D",
"b. c #CB954C",
"n. c #D98C45",
"m. c #E39848",
"M. c #E7934F",
"N. c #D0B454",
"B. c #EEA14C",
"V. c #E8AC4C",
"C. c #EB9E61",
"Z. c #D1A771",
"A. c #EFA265",
"S. c #F0B279",
"D. c #F2B36E",
"F. c #D4D143",
"G. c #F9C74B",
"H. c #F3D24F",
"J. c #F6D852",
"K. c #E2CD5C",
"L. c #D1CF6B",
"P. c #E6CD65",
"I. c #FDEA6A",
"U. c #1A4F80",
"Y. c #1C5586",
"T. c #1A5991",
"R. c #2D558D",
"E. c #386A93",
"W. c #336694",
"Q. c #1D75AF",
"!. c #226FA7",
"~. c #3C7CA3",
"^. c #3D7FB3",
"/. c #3672A7",
"(. c #485B93",
"). c #5B6887",
"_. c #5E728E",
"`. c #50679B",
"'. c #636892",
"]. c #787796",
"[. c #4D74A2",
"{. c #4F7AA5",
"}. c #4672A2",
"|. c #517EA8",
" X c #427AB0",
".X c #837F98",
"XX c #2F82B3",
"oX c #3588BB",
"OX c #73939F",
"+X c #4886AB",
"@X c #5485AD",
"#X c #5B82A6",
"$X c #568BB3",
"%X c #5D8EB1",
"&X c #5991B5",
"*X c #5E9ABC",
"=X c #5896B9",
"-X c #4C93B8",
";X c #6998AC",
":X c #7FA5AF",
">X c #248BC2",
",X c #3693C4",
"<X c #368DC0",
"1X c #489BC3",
"2X c #5E9DC1",
"3X c #5FAACE",
"4X c #56ABCD",
"5X c #51A4CD",
"6X c #62A4C3",
"7X c #66ACC9",
"8X c #68AECA",
"9X c #6AABC6",
"0X c #6CB5CD",
"qX c #6EBBCE",
"wX c #65B3CB",
"eX c #70BECF",
"rX c #62ACD2",
"tX c #6EBED1",
"yX c #67B3D3",
"uX c #76BED5",
"iX c #6FC0D2",
"pX c #72C1D1",
"aX c #7AC8D7",
"sX c #929492",
"dX c #AA9E85",
"fX c #A19A90",
"gX c #8EA59F",
"hX c #BAB080",
"jX c #BCA284",
"kX c #9492A2",
"lX c #83AFB1",
"zX c #9BBCB8",
"xX c #ACACAD",
"cX c #A7A6AB",
"vX c #B5B5B5",
"bX c #B9B9B9",
"nX c #A5B6AB",
"mX c #CAAE81",
"MX c #E2AE85",
"NX c #F4CD9D",
"BX c #F8DAAE",
"VX c #84BEDB",
"CX c #82B4D2",
"ZX c #81AAC9",
"AX c #8AC2DF",
"SX c #8AC7DC",
"DX c #91D1DC",
"FX c #9DD2E2",
"GX c #A4D6E5",
"HX c #ADDDE7",
"JX c #B2E2EA",
"KX c #C3C3C3",
"LX c #CCCCCC",
"PX c #D2D2D2",
"IX c #E2E2E2",
"UX c None",
/* pixels */
"UXUXUXUXUXUXUXUXUXUXUXUXUXUXUXUXUXUXUXUXUXUXUXUXUXUXUXUXUXUXUXUX",
"UXUXUXUXUXUXUXUXUXUXUXUXUXUXUXUXUXUXUXUXUXUXUXUXUXUXUXUXUXUXUXUX",
"UXUXUXPXIXIXIXIXIXIXIXIXIXIXIXIXIXIXIXIXIXIXIXIXIXIXIXIXPXUXUXUX",
"UXUXLXLXLXPXPXPXPXPXLXKXvXcXkX.X.XkXcXvXKXLXPXPXPXLXPXPXPXLXUXUX",
"UXUXPXLXLXLXLXLXKXxX].`.^.,X1XuX4X,X<X^.`.].vXKXKXLXLXLXLXPXUXUX",
"UXUXLXKXKXKXKXxX'.oX,XrXVXAXJXJXGXAXVXyXoX!.}._.vXKXKXKXKXLXUXUX",
"UXUXbXvXKXvX]. X>XrXAXAXAXAXHXJXJXGXAXAXvXhXx.q (.kXbXKXKXKXUXUX",
"UXUXZ.jXxX'.oX>XrXVXVXVXVXVXGXHXHXFXVXVXCXZXsXe.d.w.%.cXbXKXUXUX",
"UXUXD.m.(.!.Q.<X3X3X:XZ.mX0XDXDXDXDXyX3X2XOXc.z.6.d.3.5.fXvXUXUX",
"UXUXq.o.@.T.W.Q.oXv.B.M.-X0XaXtX,X4X,X1XwX-Xw c.H.l.I.G.:.dXUXUX",
"UXUXo.O.C.S.S.S.C.0.q.v.pXpXaX1XXXwXiXpXeX0XY.3 2 w.j.I.s.b.UXUX",
"UXUX .9.9.9.9...[ ..0.:XeXeXeXpXeXeXeXeXeXqX=X3 3 3 b.s.h.2.UXUX",
"UXUX7./ ....X.X.7.[ [ ( gXtXpXeXeXeXeXtXqXqX0X2X6X7X7Xt.p.2.UXUX",
"UXUX7./ / ..X.X.7.] { K ^ ^ ^ @.iXiXiXtX0X0X0X0X8X6X6X;X1.y.UXUX",
"UXUX0./ / ..X.X.{ X.X.P O. .A.nXtXqX0X0X+XT.@X9X6X6X*Xx.5.y.UXUX",
"UXUX7./ [ o.X.X.X.X.X.M.BXNXzX0XwX=XT.+X~.U.U.6X6X2X&Xc.y.G.UXUX",
"UXUX[ ! ] ..{ { { { { 0.MX9X8X8XwX6XY.5 5 5 6 +X*X@XR.z.J.G.UXUX",
"UXUX! ! ] ] [ { { { 0.q.dX6X6X6X6X6XW.5 6 6 6 E.&X$XE.x.h.G.UXUX",
"UXUX] Q ] ] ] { } | n.m.dX*X*X*X*X*X*XE., , : , 7 3 [.z.s.J.UXUX",
"UXUX~ E Q Q ) d u i #X$X%X&X&X&X&X&X&X7 : : : ; - > _.4.1.f.UXUX",
"UXUX~ E E E l u u d |.@X@X@X@X@X@X@X@XW.; - ; - O q 6.;.;.a.UXUX",
"UXUXE T T ` s s a K #.[.{.{.{.{.{.+X{.[.; - % % : ).V.;.1.g.UXUX",
"UXUXT T T ` f h h I ) $.r ).e $.4.b.c.q ; % O O ; q P.:.<.3.UXUX",
"UXUXU U T _ x h I J _ ) ) ) ' ' _ ) b.+.O O o o 2 0 K.r.>.>.UXUX",
"UXUXU U R Y Y J J J x z b _ B b x C + o o o o ; 0 +.i.<.=.=.UXUX",
"UXUXk k U Y _ Y L L L i t y i C 0 & o X o o * 9 9 -.u.<.6.r.UXUX",
"UXUXc c m M V V V B B B # & - 1 1 O X X X X 4 D H <.<.*.K.k.UXUX",
"UXUXf h k M B M M B M M N Z > * 1 1 & X X @ N B W &.&.e.F.i.UXUX",
"UXUXu a p M B v v v N v v N B n # 4 4 # g v N b m m &.L.u.,.UXUX",
"UXUX@ u p s S S N N D D D F F F F F F G F F S N j M k.k.,.$ UXUX",
"UXUXUXUX                                                UXUXUXUX",
"UXUXUXUXUXUXUXUXUXUXUXUXUXUXUXUXUXUXUXUXUXUXUXUXUXUXUXUXUXUXUXUX"
};
