/* XPM */
static char *midori[] = {
/* columns rows colors chars-per-pixel */
"32 32 176 2 ",
"   c black",
".  c #1D3A0A",
"X  c #4B5D3F",
"o  c #44632E",
"O  c #446A2B",
"+  c #447524",
"@  c #4A6636",
"#  c #59753F",
"$  c #484F44",
"%  c #4A5742",
"&  c #4A5840",
"*  c #53564F",
"=  c #535452",
"-  c #506540",
";  c #58654F",
":  c #60665B",
">  c #656C5E",
",  c #647653",
"<  c #64705A",
"1  c #656C61",
"2  c #6D716B",
"3  c #747E6B",
"4  c gray48",
"5  c #478F18",
"6  c #48901B",
"7  c #50A817",
"8  c #53A71B",
"9  c #54AA1C",
"0  c #58AF1F",
"q  c #508A29",
"w  c #529725",
"e  c #569E27",
"r  c #549629",
"t  c #599B2C",
"y  c #5E9F32",
"u  c #619437",
"i  c #689B37",
"p  c #669E3C",
"a  c #6C9D3F",
"s  c #56AB20",
"d  c #5AAE24",
"f  c #59A329",
"g  c #5DAC2A",
"h  c #5CB025",
"j  c #5EB129",
"k  c #62AE2D",
"l  c #61B326",
"z  c #63B32C",
"x  c #67B82D",
"c  c #65AD32",
"v  c #68A936",
"b  c #6DAF3D",
"n  c #66B333",
"m  c #69B633",
"M  c #6BBA34",
"N  c #6AB53A",
"B  c #6EBA39",
"V  c #74BD36",
"C  c #74BC3C",
"Z  c #75C035",
"A  c #7CC737",
"S  c #77C03B",
"D  c #7AC33D",
"F  c #7CC83F",
"G  c #6C8E4E",
"H  c #699F41",
"J  c #6C8857",
"K  c #6E875C",
"L  c #7A9B5A",
"P  c #6DA342",
"I  c #6FAA45",
"U  c #73AF44",
"Y  c #72A54F",
"T  c #75A948",
"R  c #76B545",
"E  c #77BC41",
"W  c #78BA45",
"Q  c #77B548",
"!  c #7AB74B",
"~  c #7CBC4D",
"^  c #77A753",
"/  c #7FB850",
"(  c #77856C",
")  c #788C68",
"_  c #7D8A74",
"`  c #7F837B",
"'  c #7DC443",
"]  c #7EC942",
"[  c #7EC04B",
"{  c #82CC3F",
"}  c #86D33E",
"|  c #82B354",
" . c #83BC54",
".. c #80B359",
"X. c #89BE58",
"o. c #808E75",
"O. c #80847D",
"+. c #859C74",
"@. c #89967E",
"#. c #82A763",
"$. c #84AC61",
"%. c #86B460",
"&. c #8EBC67",
"*. c #87A273",
"=. c #89A176",
"-. c #80C743",
";. c #82CB44",
":. c #81C44C",
">. c #83CB4B",
",. c #89CB4C",
"<. c #8BD644",
"1. c #8ED847",
"2. c #8DD44D",
"3. c #8FD94A",
"4. c #90D54F",
"5. c #91DA4E",
"6. c #84C452",
"7. c #88C354",
"8. c #86CA52",
"9. c #8ACB55",
"0. c #8DC75B",
"q. c #8ECD5A",
"w. c #90C85E",
"e. c #8ED254",
"r. c #8FD05A",
"t. c #92D553",
"y. c #95DB54",
"u. c #93D45B",
"i. c #97DB58",
"p. c #9ADE5C",
"a. c #8FC362",
"s. c #97D760",
"d. c #9CDC62",
"f. c #9DCC76",
"g. c #A1D676",
"h. c #A3D976",
"j. c #A1D578",
"k. c #A4DA79",
"l. c #9FE164",
"z. c #A1E267",
"x. c #A2E269",
"c. c #AAE078",
"v. c #868686",
"b. c #878D83",
"n. c #898D86",
"m. c #8B8C8B",
"M. c #8A9285",
"N. c #8F928C",
"B. c #91968C",
"V. c #939A8E",
"C. c #939392",
"Z. c #979B95",
"A. c #999C96",
"S. c #9D9D9C",
"D. c #92A186",
"F. c #9FA19B",
"G. c #A0A899",
"H. c #A2A2A2",
"J. c #A7A8A7",
"K. c #A8ACA6",
"L. c #ADADAD",
"P. c #AEB2AC",
"I. c #B3B4B1",
"U. c #B9BCB7",
"Y. c #BBBCBB",
"T. c #BEC1BC",
"R. c #C2C2C2",
"E. c #C7CAC5",
"W. c #CCCCCB",
"Q. c #CFD0CD",
"!. c #D4D4D4",
"~. c #DBDBDB",
"^. c #E3E3E3",
"/. c #E9E9E9",
"(. c #F2F2F2",
"). c None",
/* pixels */
").).).).).).).).).).).).).).).).).).).).).).).).).).).).).).).).",
").).).).).).).).).).).).).).).).).).).).).).).).).).).).).).).).",
").)...f.h.h.g.h.j.h.k.j.h.c.c.c.k.g.h.k.k.k.k.k.k.k.k.k.j.).).).",
").).w.A A V S D ] ' ] ] D 1.1.1.<.' ] ;.;.] ] ] ] ] ] F F w.).).",
").).:.V <.V D C ] 4.' ] ' 5.y.y.2.' ] >.>.>.>.' ' D D D S 9.).).",
").).i.{ S D ;.4.[ [ i.[ [ i.p.i.[ :.8.8.8.8.[ e.t.3.D V A t.).).",
").).i.} 1.5.i.8.[ r.s.8.[ z.u.[ 8.q.q.8.8.~ %. .i.e.' 1.<.i.).).",
").).i.1.3.i.u.:.8.0.[ 8.8.r.q.8.6./ *.D.V.M.L T d.p.i.3.1.i.).).",
").).i.3.5.p.t.[ 6.z.u.6.8.[ / =.G.P.E.V.K P 0.^ 6.p.i.5.1.i.).).",
").).i.3.y.p.l.s.6.z.x.d.~ *.A.Q.(.U._ H  .Q +.N.7.l.p.y.3.i.).).",
").).i.5.y.p.l.x.x.x.x.%.V.T.(.(.I.K I [ 6.M.R.F.X.d.p.y.5.i.).).",
").).5.5.y.p.l.x.x.x.&.C.(.(.(.~._ U [ Y M.W.~.Z.X.q.e.t.<.i.).).",
").).,.5.i.p.l.x.x.a.b./.(.(.(.N.p W ) F.~.~.~.N.7.:.>.2.S i.).).",
").).E 5.y.p.l.x.d._ W.^.^.^./.A._ M.E.~.!.!.!.n.P 9.p.y.] y.).).",
").).B D y.p.l.u.#.L.^.^.^.^.~.^.~.~.~.!.!.!.!.` ! 9.p.y.3.4.).).",
").).V z ' p.E b ( ^.^.^.~.~.~.~.~.~.!.Q.Q.Q.Q.3 u.d.e.i.' C ).).",
").).M x m [ e.! m./.^.~.!.~.~.!.!.!.Q.Q.W.W.W., s.d.,.y.<.m ).).",
").).x x M B C U C.^.~.L.^.~.!.!.W.W.W.W.E.R.H.G d.p.i.;.k n ).).",
").).x x x B B y m.^.!.C.^.~.!.W.Y.~.W.R.R.R.O.| p.p.i.;.l x ).).",
").).z z x M B y 4 ~.E.m.~.~.W.H.Y.!.W.R.T.R.1 6.p.p.5.n l x ).).",
").).l l z M M v < !.Y.m.!.!.W.m.W.W.R.R.R.L.- r.i.i.E l l l ).).",
").).h l x M M n q > Z.4 Q.W.R.v.I.R.R.R.R.2 u i.i.y.-.m l h ).).",
").).h h z z m m c q # * W.R.R.S.v.R.R.R.S.@ v y.y.5.c Z d h ).).",
").).h h h z z n n k ,.a : Y.R.L.= J.R.C.; t c t.y.C g l 0 d ).).",
").).0 0 0 j z x n k 4.,.i % $ X + o X O r k n C { g l d 0 0 ).).",
").).0 0 9 h j j l k 3.;.f e e e g g f g j l k j g g 0 0 0 0 ).).",
").).0 9 9 9 s h g z <.f g g h g d g h j j j j d d 0 0 9 9 9 ).).",
").).9 7 9 9 9 9 9 l Z s 0 9 0 9 s 9 s s s s s s 9 9 8 9 9 9 ).).",
").).6 7 7 7 7 7 9 8 l 7 9 8 9 9 9 7 9 9 7 9 9 8 7 7 7 7 7 5 ).).",
").).. 6 9 h d j j j k c n n N N N N n n n k j j g d d s 6 . ).).",
").).).).                                                ).).).).",
").).).).).).).).).).).).).).).).).).).).).).).).).).).).).).).)."
};
