/* XPM */
static char * bottom_active_xpm[] = {
"24 5 3 1",
" 	c None",
".	c #FFFFFF",
"+	c #000000",
"........................",
"++++++++++++++++++++++++",
"++++++++++++++++++++++++",
"++++++++++++++++++++++++",
"........................"};
