/* XPM */
static char * close_prelight_xpm[] = {
"26 26 3 1",
" 	c None",
".	c #FFFFFF",
"+	c #000000",
"                          ",
"..........................",
".++++++++++++++++++++++++.",
".++++++++++++++++++++++++.",
".++++++++++++++++++++++++.",
".++++++++++++++++++++++++.",
".++++++..++++++++..++++++.",
".++++++...++++++...++++++.",
".+++++++...++++...+++++++.",
".++++++++...++...++++++++.",
".+++++++++......+++++++++.",
".++++++++++....++++++++++.",
".++++++++++....++++++++++.",
".+++++++++......+++++++++.",
".++++++++...++...++++++++.",
".+++++++...++++...+++++++.",
".++++++...++++++...++++++.",
".++++++..++++++++..++++++.",
".++++++++++++++++++++++++.",
".++++++++++++++++++++++++.",
".++++++++++++++++++++++++.",
".++++++++++++++++++++++++.",
"..........................",
"                          ",
"                          ",
"                          "};
