/* XPM */
static char * shade_toggled_pressed_xpm[] = {
"26 26 3 1",
" 	c None",
".	c #FFFFFF",
"+	c #000000",
"                          ",
".+......................+.",
".+......................+.",
".+..++++++++++++++++++..+.",
".+..++++++++++++++++++..+.",
".+..++++++++++++++++++..+.",
".+..++++++++++++++++++..+.",
".+..+++............+++..+.",
".+..+++............+++..+.",
".+..++++++++++++++++++..+.",
".+..+++..++++++++..+++..+.",
".+..+++...++++++...+++..+.",
".+..++++...++++...++++..+.",
".+..+++++...++...+++++..+.",
".+..++++++......++++++..+.",
".+..+++++++....+++++++..+.",
".+..++++++++..++++++++..+.",
".+..++++++++++++++++++..+.",
".+..++++++++++++++++++..+.",
".+..++++++++++++++++++..+.",
".+..++++++++++++++++++..+.",
".+......................+.",
".+......................+.",
"                          ",
"                          ",
"                          "};
