/* XPM */
static char * title_3_inactive_xpm[] = {
"8 32 3 1",
" 	c None",
".	c #000000",
"+	c #FFFFFF",
"........",
"++++++++",
"........",
"........",
"++++++++",
"++++++++",
"++++++++",
"++++++++",
"++++++++",
"++++++++",
"++++++++",
"++++++++",
"++++++++",
"++++++++",
"++++++++",
"++++++++",
"++++++++",
"++++++++",
"++++++++",
"++++++++",
"++++++++",
"++++++++",
"++++++++",
"++++++++",
"++++++++",
"++++++++",
"........",
"........",
"++++++++",
"++++++++",
"++++++++",
"++++++++"};
