/* XPM */
static char * title_5_active_xpm[] = {
"8 32 3 1",
" 	c None",
".	c #FFFFFF",
"+	c #000000",
"........",
"++++++++",
"++++++++",
"++++++++",
"........",
"++++++++",
"++++++++",
"++++++++",
"++++++++",
"++++++++",
"++++++++",
"++++++++",
"++++++++",
"++++++++",
"++++++++",
"++++++++",
"++++++++",
"++++++++",
"++++++++",
"++++++++",
"++++++++",
"++++++++",
"++++++++",
"++++++++",
"++++++++",
"........",
"++++++++",
"++++++++",
"++++++++",
"........",
"........",
"........"};
