/* XPM */
static char * top_left_active_xpm[] = {
"5 32 3 1",
" 	c None",
".	c #FFFFFF",
"+	c #000000",
".....",
".++++",
".++++",
".++++",
".+++.",
".+++.",
".+++.",
".+++.",
".+++.",
".+++.",
".+++.",
".+++.",
".+++.",
".+++.",
".+++.",
".+++.",
".+++.",
".+++.",
".+++.",
".+++.",
".+++.",
".+++.",
".+++.",
".+++.",
".+++.",
".+++.",
".++++",
".++++",
".++++",
".+++.",
".+++.",
".+++."};
