/* XPM */
static char * top_right_active_xpm[] = {
"5 32 3 1",
" 	c None",
".	c #FFFFFF",
"+	c #000000",
".....",
"++++.",
"++++.",
"++++.",
".+++.",
".+++.",
".+++.",
".+++.",
".+++.",
".+++.",
".+++.",
".+++.",
".+++.",
".+++.",
".+++.",
".+++.",
".+++.",
".+++.",
".+++.",
".+++.",
".+++.",
".+++.",
".+++.",
".+++.",
".+++.",
".+++.",
"++++.",
"++++.",
"++++.",
".+++.",
".+++.",
".+++."};
