/* XPM */
static char * closeA_xpm[] = {
"19 44 171 2",
"  	c None",
". 	c #797979",
"+ 	c #505050",
"@ 	c #4E4E4E",
"# 	c #4D4D4D",
"$ 	c #4C4C4C",
"% 	c #4B4B4B",
"& 	c #494949",
"* 	c #484848",
"= 	c #464646",
"- 	c #474747",
"; 	c #454545",
"> 	c #E0E0E0",
", 	c #434343",
"' 	c #E1E1E1",
") 	c #3B3B3B",
"! 	c #3A3A3A",
"~ 	c #3C3C3C",
"{ 	c #202020",
"] 	c #1F1F1F",
"^ 	c #DFDFDF",
"/ 	c #212121",
"( 	c #222222",
"_ 	c #1A1A1A",
": 	c #1B1B1B",
"< 	c #4F4F4F",
"[ 	c #505052",
"} 	c #4A4F52",
"| 	c #435259",
"1 	c #3F535C",
"2 	c #3D535E",
"3 	c #3D5360",
"4 	c #425158",
"5 	c #376477",
"6 	c #2C6985",
"7 	c #286989",
"8 	c #27698B",
"9 	c #3C5059",
"0 	c #2B6884",
"a 	c #57AAD2",
"b 	c #53ABDB",
"c 	c #50ACDF",
"d 	c #50ACDD",
"e 	c #53ABD9",
"f 	c #384E59",
"g 	c #286786",
"h 	c #4FA7D5",
"i 	c #4AA7E0",
"j 	c #48A8E5",
"k 	c #49A9E6",
"l 	c #276886",
"m 	c #3A4E59",
"n 	c #374D58",
"o 	c #4BA3D3",
"p 	c #44A2DF",
"q 	c #44A3E3",
"r 	c #46A4E2",
"s 	c #46A3E0",
"t 	c #44A3E5",
"u 	c #4BA3D5",
"v 	c #374B56",
"w 	c #296887",
"x 	c #479DCC",
"y 	c #419ED9",
"z 	c #439DD9",
"A 	c #4A9BD2",
"B 	c #4D9ACE",
"C 	c #4A9BD3",
"D 	c #439DDB",
"E 	c #479DCE",
"F 	c #296889",
"G 	c #364A55",
"H 	c #2B6887",
"I 	c #4599C7",
"J 	c #4099D1",
"K 	c #4298D1",
"L 	c #4C96C7",
"M 	c #AEEFFF",
"N 	c #B5ECFF",
"O 	c #5C90B5",
"P 	c #5C91B3",
"Q 	c #B5EDFF",
"R 	c #AEEEFF",
"S 	c #344851",
"T 	c #2B6885",
"U 	c #4295BF",
"V 	c #3F95C8",
"W 	c #4293C8",
"X 	c #4A91BF",
"Y 	c #B6EBFF",
"Z 	c #CAE6FB",
"` 	c #D2E4F0",
" .	c #4293CA",
"..	c #3F94CA",
"+.	c #4295C1",
"@.	c #2C4047",
"#.	c #2E6880",
"$.	c #3888AB",
"%.	c #3687B2",
"&.	c #3986B0",
"*.	c #4283A9",
"=.	c #517F99",
"-.	c #D5E3EC",
";.	c #3986B2",
">.	c #3687B4",
",.	c #3888AD",
"'.	c #2C6882",
").	c #2D3F49",
"!.	c #12252B",
"~.	c #2F687B",
"{.	c #216D87",
"].	c #206D8B",
"^.	c #246B87",
"/.	c #2B6980",
"(.	c #396474",
"_.	c #D5E4E9",
":.	c #396475",
"<.	c #2B6982",
"[.	c #206D89",
"}.	c #306877",
"|.	c #236E83",
"1.	c #236E85",
"2.	c #266D81",
"3.	c #2E697B",
"4.	c #BEECF9",
"5.	c #CEE7EE",
"6.	c #D6E4E7",
"7.	c #D6E3E9",
"8.	c #BEECFB",
"9.	c #2C697B",
"0.	c #286C81",
"a.	c #246F84",
"b.	c #246F86",
"c.	c #276E82",
"d.	c #306B7D",
"e.	c #BAEDFE",
"f.	c #3C6672",
"g.	c #3C6674",
"h.	c #2E6B7D",
"i.	c #296D82",
"j.	c #306879",
"k.	c #13262C",
"l.	c #316978",
"m.	c #276E84",
"n.	c #2B6C80",
"o.	c #2E6B7E",
"p.	c #31697A",
"q.	c #2F6879",
"r.	c #236F86",
"s.	c #247087",
"t.	c #257087",
"u.	c #276F85",
"v.	c #286F83",
"w.	c #286F85",
"x.	c #267289",
"y.	c #257188",
"z.	c #2E6876",
"A.	c #267387",
"B.	c #28738A",
"C.	c #277289",
"D.	c #277488",
"E.	c #277287",
"F.	c #2F6776",
"G.	c #162528",
"H.	c #3A6470",
"I.	c #306A78",
"J.	c #2F6977",
"K.	c #172528",
"L.	c #1D2323",
"M.	c #1E2223",
"N.	c #232323",
". . . . . . . . . . . . . . . . . . . ",
"+ + + + + + + + + + + + + + + + + + + ",
"@ @ @ @ @ @ @ @ @ @ @ @ @ @ @ @ # @ @ ",
"# # # # # # # # # # # # # # # # # $ # ",
"% % % % % % % % % % % % % % % % % % % ",
"& & & & & & & & & & & & * & & & & & & ",
"* * * * * * * * * * * * * * * * * * * ",
"= = = = = = = = = = - = = = = = = - = ",
"; ; ; ; ; ; > > ; ; > > ; ; ; ; ; ; ; ",
", , , , , , > > > > ' > , , , , , , , ",
") ) ) ) ) ) ! > > > > ) ) ~ ) ) ) ) ) ",
"{ { { { { ] { > > > > { { { { { { ] { ",
"{ { { { { { > ^ > > > > { { { { { { { ",
"{ { { { { { > > { { > > { { { { { { { ",
"/ / / / / / / / / / / / / / / / / / / ",
"/ / / / / / / / / / / / / / / / / / / ",
"/ / / / / / / / / / / / / / / / / / / ",
"/ / / / / / / / / / / / / / / / / / / ",
"/ / / / / / / / / / / / / / / / / / / ",
"/ / / / / / / / / / / / / { / / / { / ",
"( ( ( ( ( ( ( ( ( ( ( ( ( ( ( ( ( ( ( ",
"_ _ _ _ _ _ _ _ _ _ _ _ _ _ _ _ : _ _ ",
". . . . . . . . . . . . . . . . . . . ",
"+ + < + + + + + + + + + + [ [ < + + + ",
"} | 1 2 2 2 2 2 2 2 2 2 3 3 2 1 | } @ ",
"4 5 6 7 8 8 8 8 8 8 8 8 8 8 7 6 5 4 # ",
"9 0 a b c d d c c d d c c d e a 0 9 % ",
"f g h i j j j j k k j j j j i h l m & ",
"n 7 o p q r s s s s s s r t p u 7 n & ",
"v w x y z A B B B B B B C D y E F v = ",
"G H I J K L M N O P Q R L K J I H G ; ",
"S T U V W X Y Z ` ` Z Y X  ...+.T S , ",
"@.#.$.%.&.*.=.-.> > -.=.*.;.>.,.'.).) ",
"!.~.{.].^./.(._.> > _.:.<.^.[.{.~.!.{ ",
"!.}.|.1.2.3.4.5.6.7.5.8.9.0.|.|.}.!.{ ",
"!.}.a.b.c.d.e.8.f.g.8.e.h.i.b.b.j.!.{ ",
"k.l.|.b.m.n.h.o.h.o.h.o.n.m.b.1.p.k.( ",
"k.q.r.s.t.u.v.w.v.w.v.w.u.t.s.r.q.k./ ",
"k.q.x.y.y.y.y.y.y.y.y.y.y.y.y.x.q.k./ ",
"k.z.A.B.C.A.A.C.C.A.A.C.C.A.D.E.F.k./ ",
"G.H.I.j.j.J.J.j.j.J.J.j.j.J.J.l.H.K.{ ",
"L.K.k.k.k.k.k.k.k.k.k.k.k.k.k.k.K.M./ ",
"( ( ( ( ( ( ( ( ( ( ( ( ( ( ( ( ( N.( ",
"_ _ _ _ _ _ _ _ _ _ _ _ _ _ _ _ : _ _ "};
