/* XPM */
static char * frameATR_xpm[] = {
"3 25 25 1",
" 	c None",
".	c #797979",
"+	c #505050",
"@	c #5E5F5E",
"#	c #4E4E4E",
"$	c #555455",
"%	c #4D4D4D",
"&	c #4A4B4A",
"*	c #4B4B4B",
"=	c #474747",
"-	c #494949",
";	c #484848",
">	c #464647",
",	c #464646",
"'	c #454545",
")	c #444443",
"!	c #434343",
"~	c #434242",
"{	c #3B3B3B",
"]	c #414141",
"^	c #202020",
"/	c #404040",
"(	c #212121",
"_	c #222222",
":	c #1A1A1A",
"   ",
"   ",
"   ",
"...",
"++@",
"##$",
"%%&",
"**=",
"--=",
";;>",
",,'",
"'')",
"!!~",
"{{]",
"^^/",
"^^/",
"^^/",
"((/",
"((/",
"((/",
"((/",
"((/",
"((/",
"__/",
"::/"};
