/* XPM */
static char * frameABL_xpm[] = {
"22 22 10 1",
" 	c None",
".	c #404040",
"+	c #1A1A1A",
"@	c #3E3E3D",
"#	c #3B3B3A",
"$	c #383838",
"%	c #363535",
"&	c #333333",
"*	c #313130",
"=	c #2E2E2E",
".++                   ",
".++                   ",
".++                   ",
".++                   ",
"@++                   ",
"#++                   ",
"$++                   ",
"%++                   ",
"&++                   ",
"*++                   ",
"=++                   ",
"=++                   ",
"=++                   ",
"=++                   ",
"=++                   ",
"=++                   ",
"=++                   ",
"=++                   ",
"=++                   ",
"=+++++++++++++++++++++",
"=+++++++++++++++++++++",
"======================"};
