/* XPM */
static char * maximizeA_xpm[] = {
"19 44 192 2",
"  	c None",
". 	c #797979",
"+ 	c #505050",
"@ 	c #4E4E4E",
"# 	c #4D4D4D",
"$ 	c #4C4C4C",
"% 	c #4B4B4B",
"& 	c #494949",
"* 	c #484848",
"= 	c #464646",
"- 	c #474747",
"; 	c #454545",
"> 	c #E0E0E0",
", 	c #434343",
"' 	c #3B3B3B",
") 	c #202020",
"! 	c #E1E1E1",
"~ 	c #1F1F1F",
"{ 	c #212121",
"] 	c #222222",
"^ 	c #1A1A1A",
"/ 	c #1B1B1B",
"( 	c #7A7A7A",
"_ 	c #50504E",
": 	c #515151",
"< 	c #435259",
"[ 	c #3F535C",
"} 	c #3D535E",
"| 	c #3D5360",
"1 	c #4A4F52",
"2 	c #376477",
"3 	c #2B6884",
"4 	c #286987",
"5 	c #27698B",
"6 	c #27698C",
"7 	c #286989",
"8 	c #296984",
"9 	c #366577",
"0 	c #425158",
"a 	c #2C6985",
"b 	c #57AAD2",
"c 	c #53ABD9",
"d 	c #50ACDD",
"e 	c #50ACDF",
"f 	c #53ABDB",
"g 	c #56ABD2",
"h 	c #3B4F58",
"i 	c #296887",
"j 	c #4FA7D5",
"k 	c #4AA7E0",
"l 	c #48A8E5",
"m 	c #374D58",
"n 	c #28688B",
"o 	c #4BA3D5",
"p 	c #45A3E0",
"q 	c #44A3E5",
"r 	c #45A3E1",
"s 	c #48A2E0",
"t 	c #49A2DC",
"u 	c #4BA1DA",
"v 	c #4BA1DC",
"w 	c #4BA3D3",
"x 	c #384E59",
"y 	c #286788",
"z 	c #489ECF",
"A 	c #419ED9",
"B 	c #439DDB",
"C 	c #4A9BD3",
"D 	c #509ACB",
"E 	c #5898C4",
"F 	c #5B96BE",
"G 	c #5B96C0",
"H 	c #5797C3",
"I 	c #4A9BD2",
"J 	c #439DD9",
"K 	c #479DCC",
"L 	c #374B56",
"M 	c #2B6887",
"N 	c #4599C8",
"O 	c #4099D1",
"P 	c #4398CF",
"Q 	c #4E94C5",
"R 	c #B2EDFF",
"S 	c #B9EBFF",
"T 	c #BDEAFF",
"U 	c #B2EEFF",
"V 	c #4E95C3",
"W 	c #4597CF",
"X 	c #4599C7",
"Y 	c #2A6786",
"Z 	c #364A55",
"` 	c #2B6885",
" .	c #4295C1",
"..	c #3F94CA",
"+.	c #4592C6",
"@.	c #548EB4",
"#.	c #BCEAFF",
"$.	c #BDEBFF",
"%.	c #BEEAFF",
"&.	c #C0E9FF",
"*.	c #BAEBFF",
"=.	c #538FB4",
"-.	c #4095CB",
";.	c #4295BF",
">.	c #344851",
",.	c #2B6781",
"'.	c #3888AD",
").	c #3586B3",
"!.	c #3D84AE",
"~.	c #4D809D",
"{.	c #C0EAFF",
"].	c #508097",
"^.	c #4E8097",
"/.	c #4E8099",
"(.	c #BEEBFF",
"_.	c #4B819D",
":.	c #3687B4",
"<.	c #2C6880",
"[.	c #2C4049",
"}.	c #2F687B",
"|.	c #216D87",
"1.	c #206D89",
"2.	c #276A84",
"3.	c #366579",
"4.	c #BEECFC",
"5.	c #2E687C",
"6.	c #286A80",
"7.	c #286A82",
"8.	c #2C697E",
"9.	c #BDECFC",
"0.	c #356579",
"a.	c #276A85",
"b.	c #206D8B",
"c.	c #216C89",
"d.	c #11252C",
"e.	c #316978",
"f.	c #236E83",
"g.	c #296C7F",
"h.	c #376877",
"i.	c #BDEDFB",
"j.	c #2E697B",
"k.	c #296A7C",
"l.	c #2D6A7C",
"m.	c #366776",
"n.	c #236E85",
"o.	c #2F6879",
"p.	c #12252B",
"q.	c #306879",
"r.	c #246F86",
"s.	c #2A6E83",
"t.	c #316A7B",
"u.	c #BDEEFC",
"v.	c #BEEEFC",
"w.	c #BEECFB",
"x.	c #BDEEFD",
"y.	c #2A6C82",
"z.	c #257085",
"A.	c #2F6977",
"B.	c #246E87",
"C.	c #276E84",
"D.	c #2B6C7E",
"E.	c #356977",
"F.	c #386876",
"G.	c #396776",
"H.	c #2E6C81",
"I.	c #237084",
"J.	c #13262C",
"K.	c #31697A",
"L.	c #257087",
"M.	c #247087",
"N.	c #276F85",
"O.	c #286F83",
"P.	c #2A6E81",
"Q.	c #2B6E81",
"R.	c #276E82",
"S.	c #247185",
"T.	c #2F6A78",
"U.	c #267188",
"V.	c #257188",
"W.	c #257286",
"X.	c #277289",
"Y.	c #267387",
"Z.	c #277488",
"`.	c #277287",
" +	c #306877",
".+	c #13242B",
"++	c #3A6472",
"@+	c #3A6470",
"#+	c #162427",
"$+	c #162329",
"%+	c #1E2223",
"&+	c #191B1A",
". . . . . . . . . . . . . . . . . . . ",
"+ + + + + + + + + + + + + + + + + + + ",
"@ @ @ @ @ @ @ @ @ @ @ @ @ @ @ @ # @ @ ",
"# # # # # # # # # # # # # # # # # $ # ",
"% % % % % % % % % % % % % % % % % % % ",
"& & & & & & & & & & & & & & & & & & & ",
"* * * * * * * * * * * * * * * * * * * ",
"= = = = = = = = = = = = = = = = = - = ",
"; ; ; ; ; ; > > > > > > ; ; ; ; ; ; ; ",
", , , , , , > > > > > > , , , , , , , ",
"' ' ' ' ' ' > ' ' ' ' > ' ' ' ' ' ' ' ",
") ) ) ) ) ) ! ) ) ) ) > ) ) ~ ) ) ~ ) ",
") ) ) ) ) ) > ) ) ) ) > ) ) ) ) ) ) ) ",
") ) ) ) ) ) > > > > > > ) ) ) ) ) ) ) ",
"{ { { { { { { { { { { { { { { { { { { ",
"{ { { { { { { { { { { { { { { { { { { ",
"{ { { { { { { { { { { { { { { { { { { ",
"{ { { { { { { { { { { { { { { { { { { ",
"{ { { { { { { { { { { { { { { { { { { ",
"{ { { { { { { { { { { { { { { { { ) { ",
"] ] ] ] ] ] ] ] ] ] ] ] ] ] ] ] ] ] ] ",
"^ ^ ^ ^ ^ ^ ^ ^ ^ ^ ^ ^ ^ ^ ^ ^ / ^ ^ ",
". . . . . . . . . . . . ( . . . . . . ",
"+ + + + + + + + + + + _ _ : + + + + + ",
"@ < [ } } | | } } } } } } } } [ < 1 @ ",
"# 2 3 4 5 6 6 5 5 5 5 5 5 5 7 8 9 0 # ",
"% a b c d e e e d e e d d e f g 8 h % ",
"& i j k l l l l l l l l l l k j 4 m & ",
"* n o p q r s t u v t s r q p w 7 x * ",
"= y z A B C D E F G H D I B J K i L = ",
"; M N O P Q R S T T S U V W O X Y Z ; ",
", `  ...+.@.#.$.%.&.%.*.=.+.-.;.` >., ",
"' ,.'.).!.~.{.].^./.].(._.!.:.'.<.[.' ",
") }.|.1.2.3.4.5.6.7.8.9.0.a.b.c.}.d.) ",
") e.f.f.g.h.i.j.k.g.l.i.m.g.n.n.o.p.) ",
") q.r.r.s.t.u.i.v.w.i.x.t.y.r.z.A.p.) ",
"{ q.r.B.C.D.t.E.F.G.h.t.H.C.r.I.A.J.{ ",
"{ K.L.M.L.N.O.P.Q.Q.Q.R.N.L.M.S.T.J.{ ",
"{ q.U.V.V.V.V.V.V.V.V.V.V.V.V.W.A.J.{ ",
"{ q.X.Y.Y.X.X.Y.Y.X.X.Z.W.X.X.`. +.+{ ",
"{ ++q.A.A.q.q.A.A.q.q.A.A.q.q. +@+#+{ ",
"{ $+J.J.J.J.J.J.J.J.J.J.J.J.J.J.#+%+{ ",
"] ] ] ] ] ] ] ] ] ] ] ] ] ] ] ] ] ] ] ",
"^ ^ ^ &+&+^ ^ ^ ^ ^ ^ / ^ ^ ^ / ^ ^ ^ "};
