/* XPM */
static char * menuButtonI_xpm[] = {
"22 44 21 1",
" 	c None",
".	c #797979",
"+	c #505050",
"@	c #4E4E4E",
"#	c #4D4D4D",
"$	c #4C4C4C",
"%	c #4B4B4B",
"&	c #494949",
"*	c #484848",
"=	c #464646",
"-	c #474747",
";	c #454545",
">	c #434343",
",	c #3B3B3B",
"'	c #3C3C3C",
")	c #202020",
"!	c #1F1F1F",
"~	c #212121",
"{	c #222222",
"]	c #1A1A1A",
"^	c #1B1B1B",
"......................",
"++++++++++++++++++++++",
"@@@@@@@@@@@@@@@@#@@@@@",
"#################$$$$$",
"%%%%%%%%%%%%%%%%%%%%%%",
"&&&&&&&&&&&&&&&&&&&&&&",
"**********************",
"=================-----",
";;;;;;;;;;;;;;;;;;;;;;",
">>>>>>>>>>>>>>>>>>>>>>",
",,,,,,,,,,,,,',,,,,,,,",
")))))))))))))))))!!!!!",
"))))))))))))))))))))))",
"))))))))))))))))))))))",
"~~~~~~~~~~~~~~~~~~~~~~",
"~~~~~~~~~~~~~~~~~~~~~~",
"~~~~~~~~~~~~~~~~~~~~~~",
"~~~~~~~~~~~~~~~~~~~~~~",
"~~~~~~~~~~~~~~~~~~~~~~",
"~~~~~~~~~~~~~)~~~)))))",
"{{{{{{{{{{{{{{{{{{{{{{",
"]]]]]]]]]]]]]]]]^]]]]]",
"......................",
"++++++++++++++++++++++",
"@@@@@@@@@@@@@@@@#@@@@@",
"#################$$$$$",
"%%%%%%%%%%%%%%%%%%%%%%",
"&&&&&&&&&&&&&&&&&&&&&&",
"**********************",
"=================-----",
";;;;;;;;;;;;;;;;;;;;;;",
">>>>>>>>>>>>>>>>>>>>>>",
",,,,,,,,,,,,,,,,,,,,,,",
")))))))))))))))))!!!!!",
"))))))))))))))))))))))",
"))))))))))))))))))))))",
"~~~~~~~~~~~~~~~~~~~~~~",
"~~~~~~~~~~~~~~~~~~~~~~",
"~~~~~~~~~~~~~~~~~~~~~~",
"~~~~~~~~~~~~~~~~~~~~~~",
"~~~~~~~~~~~~~~~~~~~~~~",
"~~~~~~~~~~~~~~~~~)))))",
"{{{{{{{{{{{{{{{{{{{{{{",
"]]]]]]]]]]]]]]]]^]]]]]"};
