/* XPM */
static char * minimizeA_xpm[] = {
"19 44 169 2",
"  	c None",
". 	c #797979",
"+ 	c #505050",
"@ 	c #4E4E4E",
"# 	c #4D4D4D",
"$ 	c #4C4C4C",
"% 	c #4B4B4B",
"& 	c #494949",
"* 	c #484848",
"= 	c #464646",
"- 	c #474747",
"; 	c #454545",
"> 	c #434343",
", 	c #3B3B3B",
"' 	c #202020",
") 	c #1F1F1F",
"! 	c #E0E0E0",
"~ 	c #E1E1E1",
"{ 	c #212121",
"] 	c #222222",
"^ 	c #1A1A1A",
"/ 	c #1B1B1B",
"( 	c #7A7879",
"_ 	c #514F50",
": 	c #4F5150",
"< 	c #50504E",
"[ 	c #4F4F4D",
"} 	c #485052",
"| 	c #445157",
"1 	c #40525C",
"2 	c #3D535E",
"3 	c #3F535E",
"4 	c #3C545E",
"5 	c #40535A",
"6 	c #445255",
"7 	c #4D4E50",
"8 	c #3E5259",
"9 	c #3D6272",
"0 	c #2E6782",
"a 	c #27698B",
"b 	c #2D6681",
"c 	c #474F51",
"d 	c #37525B",
"e 	c #33667B",
"f 	c #5BA9D0",
"g 	c #50ACDD",
"h 	c #50ACDF",
"i 	c #51ADDE",
"j 	c #444E50",
"k 	c #344F58",
"l 	c #32667E",
"m 	c #53A5D5",
"n 	c #48A8E5",
"o 	c #355059",
"p 	c #424C4E",
"q 	c #4FA0D5",
"r 	c #42A4E5",
"s 	c #41A3E4",
"t 	c #4EA1D5",
"u 	c #414B4D",
"v 	c #324D56",
"w 	c #33657E",
"x 	c #4B9BCE",
"y 	c #3F9EDE",
"z 	c #409EDC",
"A 	c #409EDE",
"B 	c #409FDF",
"C 	c #4A9CCE",
"D 	c #314E56",
"E 	c #404A4C",
"F 	c #314C55",
"G 	c #33657C",
"H 	c #4A98C8",
"I 	c #3D9AD5",
"J 	c #3F99D5",
"K 	c #3F99D7",
"L 	c #3D9AD7",
"M 	c #3C99D6",
"N 	c #4997C7",
"O 	c #304D55",
"P 	c #3E484A",
"Q 	c #2F4A53",
"R 	c #4892BF",
"S 	c #3C95CD",
"T 	c #3E94CD",
"U 	c #3E95CB",
"V 	c #3D93CC",
"W 	c #34647A",
"X 	c #2F4A51",
"Y 	c #3C4648",
"Z 	c #27424B",
"` 	c #356579",
" .	c #3D85AB",
"..	c #3587B6",
"+.	c #3886B4",
"@.	c #3B85B2",
"#.	c #3C85B0",
"$.	c #3687B6",
"%.	c #3486B5",
"&.	c #366579",
"*.	c #274249",
"=.	c #343E40",
"-.	c #0C2730",
";.	c #376676",
">.	c #276A84",
",.	c #206D8B",
"'.	c #246B87",
").	c #2E667D",
"!.	c #32657A",
"~.	c #35657B",
"{.	c #2F677E",
"].	c #256A87",
"^.	c #376575",
"/.	c #1A2328",
"(.	c #0B262F",
"_.	c #366473",
":.	c #2A6B7D",
"<.	c #236E83",
"[.	c #226E85",
"}.	c #296C7F",
"|.	c #BDEDF9",
"1.	c #C4EAF3",
"2.	c #C5E9F5",
"3.	c #2A6B7F",
"4.	c #236E85",
"5.	c #226D82",
"6.	c #376574",
"7.	c #192227",
"8.	c #386675",
"9.	c #2B6C80",
"0.	c #246F86",
"a.	c #BDEDFB",
"b.	c #C4EAF5",
"c.	c #192325",
"d.	c #0D2831",
"e.	c #296D82",
"f.	c #326A79",
"g.	c #386876",
"h.	c #396776",
"i.	c #257087",
"j.	c #1A2426",
"k.	c #2B6E81",
"l.	c #247087",
"m.	c #257085",
"n.	c #286F83",
"o.	c #2A6E81",
"p.	c #2A6E83",
"q.	c #2A6D80",
"r.	c #2C6F82",
"s.	c #257188",
"t.	c #247288",
"u.	c #2D7081",
"v.	c #267289",
"w.	c #267387",
"x.	c #277289",
"y.	c #12262D",
"z.	c #40626C",
"A.	c #336774",
"B.	c #2F6879",
"C.	c #306879",
"D.	c #2F6977",
"E.	c #356674",
"F.	c #1B2325",
"G.	c #192428",
"H.	c #14262A",
"I.	c #13262C",
"J.	c #202123",
"K.	c #212322",
"L.	c #191919",
". . . . . . . . . . . . . . . . . . . ",
"+ + + + + + + + + + + + + + + + + + + ",
"@ @ @ @ @ @ @ @ @ @ @ @ @ @ @ @ # @ @ ",
"# # # # # # # # # # # # # # # # # $ # ",
"% % % % % % % % % % % % % % % % % % % ",
"& & & & & & & & & & & & & & & & & & & ",
"* * * * * * * * * * * * * * * * * * * ",
"= = = = = = = = = = = = = = = = = - = ",
"; ; ; ; ; ; ; ; ; ; ; ; ; ; ; ; ; ; ; ",
"> > > > > > > > > > > > > > > > > > > ",
", , , , , , , , , , , , , , , , , , , ",
"' ' ' ' ' ' ' ' ' ' ' ' ' ' ) ' ' ) ' ",
"' ' ' ' ' ' ! ! ! ! ! ! ' ' ' ' ' ' ' ",
"' ' ' ' ' ' ! ! ! ! ! ~ ' ' ' ' ' ' ' ",
"{ { { { { { { { { { ] { { { { { { { { ",
"{ { { { { { { { { { { { { { { { { { { ",
"{ { { { { { { { { { { { { { { { { { { ",
"{ { { { { { { { { { { { { { { { { { { ",
"{ { { { { { { { { { { { { { { { { { { ",
"{ { { { { { { { { { { { { { { { { ' { ",
"] ] ] ] ] ] ] ] ] ] ] ] ] ] ] ] ] ] ] ",
"^ ^ ^ ^ ^ ^ ^ ^ ^ ^ ^ ^ ^ ^ ^ ^ / ^ ^ ",
". . . . . . . . ( . . . . . . . . . ( ",
"+ + + + _ _ + + + + + : + + < [ + + + ",
"} | 1 2 3 3 2 2 2 2 4 4 2 2 2 5 6 } 7 ",
"8 9 0 a a a a a a a a a a a a b 9 8 c ",
"d e f g g g g g h h g i h h i f e d j ",
"k l m n n n n n n n n n n n n m l o p ",
"k l q r r r r r r r r r s r r t l k u ",
"v w x y z z y y A A y B A A y C l D E ",
"F G H I J J K L K K M L K K L N G O P ",
"Q G R S T U V T T T T T T T T R W X Y ",
"Z `  .....+.@.#.#.#.#.@.$.%... .&.*.=.",
"-.;.>.,.,.'.).!.~.~.e {.].,.,.>.^.-./.",
"(._.:.<.[.}.|.1.2.2.1.|.3.4.5.:.6.-.7.",
"-.8.9.0.4.9.a.b.2.2.b.a.9.0.0.9.6.-.c.",
"d.6.9.0.0.e.f.g.h.h.g.f.e.i.4.9.6.d.j.",
"d.6.k.l.l.m.n.o.k.k.k.p.m.l.l.q.6.d.j.",
"d.6.r.s.s.s.s.t.s.s.s.s.s.s.s.r.6.d.j.",
"d.6.u.v.v.v.v.w.x.x.w.v.x.x.v.u.6.d.j.",
"y.z.A.B.B.C.B.D.B.B.D.B.C.B.B.E.z.y.F.",
"F.G.H.I.I.I.I.I.I.I.I.I.I.I.I.H.G.F.J.",
"] ] ] ] ] ] ] ] K.K.] ] ] ] K.K.] ] ] ",
"^ ^ ^ ^ ^ ^ ^ ^ ^ ^ ^ ^ ^ L.^ ^ ^ ^ ^ "};
