/* XPM */
static char * restoreA_xpm[] = {
"19 44 215 2",
"  	c None",
". 	c #797979",
"+ 	c #505050",
"@ 	c #4E4E4E",
"# 	c #4D4D4D",
"$ 	c #4D4D4B",
"% 	c #4C4C4C",
"& 	c #4B4B4B",
"* 	c #4B4B49",
"= 	c #494949",
"- 	c #4A4849",
"; 	c #484848",
"> 	c #494748",
", 	c #464646",
"' 	c #454545",
") 	c #474747",
"! 	c #474546",
"~ 	c #464445",
"{ 	c #E0E0E0",
"] 	c #E1E1E1",
"^ 	c #434343",
"/ 	c #444444",
"( 	c #3B3B3B",
"_ 	c #202020",
": 	c #1F1F1F",
"< 	c #202022",
"[ 	c #1F2120",
"} 	c #DFE1DE",
"| 	c #212121",
"1 	c #212123",
"2 	c #202221",
"3 	c #20221F",
"4 	c #21211F",
"5 	c #222222",
"6 	c #222220",
"7 	c #1A1A1A",
"8 	c #1A1A18",
"9 	c #797B7A",
"0 	c #787A79",
"a 	c #787878",
"b 	c #515151",
"c 	c #4F4F4F",
"d 	c #4A4F52",
"e 	c #435259",
"f 	c #3F535C",
"g 	c #3D535E",
"h 	c #405158",
"i 	c #376477",
"j 	c #2B6884",
"k 	c #286987",
"l 	c #27698B",
"m 	c #286989",
"n 	c #296984",
"o 	c #366577",
"p 	c #425158",
"q 	c #395058",
"r 	c #56ABD2",
"s 	c #53ABD9",
"t 	c #50ACDD",
"u 	c #50ACDF",
"v 	c #51ACDB",
"w 	c #2A6A85",
"x 	c #3C5059",
"y 	c #374D58",
"z 	c #4FA7D5",
"A 	c #49A8E0",
"B 	c #48A8E5",
"C 	c #46A8E5",
"D 	c #4AA7E0",
"E 	c #296887",
"F 	c #3A4E59",
"G 	c #384E59",
"H 	c #49A3D5",
"I 	c #45A3E0",
"J 	c #42A4E5",
"K 	c #45A3E3",
"L 	c #49A2DE",
"M 	c #4BA1DA",
"N 	c #4BA1DC",
"O 	c #49A2DC",
"P 	c #48A2E0",
"Q 	c #45A3E1",
"R 	c #44A3E5",
"S 	c #4BA3D3",
"T 	c #296889",
"U 	c #394D58",
"V 	c #374B56",
"W 	c #479DCE",
"X 	c #419ED9",
"Y 	c #3F9EDE",
"Z 	c #409EDE",
"` 	c #479CD5",
" .	c #5498C7",
"..	c #5B96BE",
"+.	c #5B96C0",
"@.	c #5696C2",
"#.	c #509ACB",
"$.	c #4B9CD3",
"%.	c #439DDB",
"&.	c #439DD9",
"*.	c #489ECD",
"=.	c #286786",
"-.	c #364A55",
";.	c #2B6887",
">.	c #4599C7",
",.	c #4099D1",
"'.	c #3F99D5",
").	c #4298D3",
"!.	c #4C95C8",
"~.	c #B7ECFF",
"{.	c #BEEAFF",
"].	c #BAEBFF",
"^.	c #B6ECFF",
"/.	c #B0EEFF",
"(.	c #4F96C4",
"_.	c #4597CF",
":.	c #364A53",
"<.	c #344851",
"[.	c #2C6785",
"}.	c #4295C1",
"|.	c #3F94CA",
"1.	c #4194CA",
"2.	c #4793C5",
"3.	c #518FB6",
"4.	c #C1E9FF",
"5.	c #6589A1",
"6.	c #588DAF",
"7.	c #548EB4",
"8.	c #538FB4",
"9.	c #4592C6",
"0.	c #434341",
"a.	c #2B3F48",
"b.	c #2E6782",
"c.	c #3989AE",
"d.	c #3687B4",
"e.	c #3986B2",
"f.	c #4282A8",
"g.	c #B8EDFF",
"h.	c #C1EAFE",
"i.	c #C3E9FE",
"j.	c #4D809F",
"k.	c #BDEBFF",
"l.	c #4B809F",
"m.	c #3D84AE",
"n.	c #3888AD",
"o.	c #2B677F",
"p.	c #2D4047",
"q.	c #3B3B39",
"r.	c #12252B",
"s.	c #2F687B",
"t.	c #216D87",
"u.	c #216E8A",
"v.	c #256B85",
"w.	c #32667C",
"x.	c #BCECFF",
"y.	c #326779",
"z.	c #C4E9F9",
"A.	c #406170",
"B.	c #356579",
"C.	c #276A85",
"D.	c #206D8B",
"E.	c #306877",
"F.	c #236E83",
"G.	c #296C7F",
"H.	c #366776",
"I.	c #BDEDFB",
"J.	c #2F6A7C",
"K.	c #316978",
"L.	c #C4EAF5",
"M.	c #C8E9F2",
"N.	c #C1EBF9",
"O.	c #336878",
"P.	c #286A80",
"Q.	c #236E85",
"R.	c #306879",
"S.	c #246F86",
"T.	c #296D82",
"U.	c #316A7B",
"V.	c #BCEDFC",
"W.	c #BEECFB",
"X.	c #356977",
"Y.	c #2E6B7E",
"Z.	c #2A6C82",
"`.	c #266E84",
" +	c #246F84",
".+	c #13262C",
"++	c #276E84",
"@+	c #2B6C80",
"#+	c #31697A",
"$+	c #257087",
"%+	c #247087",
"&+	c #276F85",
"*+	c #276E82",
"=+	c #2A6E81",
"-+	c #286F83",
";+	c #247088",
">+	c #247185",
",+	c #306A78",
"'+	c #267188",
")+	c #257188",
"!+	c #257286",
"~+	c #2F6977",
"{+	c #277287",
"]+	c #267387",
"^+	c #287388",
"/+	c #277289",
"(+	c #267289",
"_+	c #162427",
":+	c #3A6470",
"<+	c #396570",
"[+	c #172528",
"}+	c #1E2223",
"|+	c #152427",
"1+	c #232122",
"2+	c #1B1B1B",
". . . . . . . . . . . . . . . . . . . ",
"+ + + + + + + + + + + + + + + + + + + ",
"@ @ @ @ @ @ @ @ @ @ @ @ @ @ @ @ @ @ @ ",
"# $ $ # # # # # # # # # # # # # # % # ",
"& * * & & & & & & & & & & & & & & & & ",
"= - - = = = = = = = = = = = = = = = = ",
"; > > ; ; ; ; ; ; ; ; ; ; ; ; ; ; ; ; ",
", ' ) ! ! , , , , , , , , , ' , , ) , ",
"' ' ' ~ ! ' ' { ] { { ] ' ' ' ' ' ' ' ",
"^ ^ ^ ^ ^ ^ ^ { ^ ^ ^ { ^ ^ / ^ ^ ^ ^ ",
"( ( ( ( ( ( ] { { { ( { ( ( ( ( ( ( ( ",
"_ _ _ _ _ _ { _ _ { _ { _ _ _ _ _ : _ ",
"_ _ _ _ _ _ { _ _ { { { _ _ _ _ _ _ _ ",
"_ : _ < _ [ } { { { : _ _ _ _ _ _ _ _ ",
"| | | 1 | 2 3 | | | | | | | _ | | | | ",
"| | | | | | | | | | | | | | | | | | | ",
"| | | | | | | | | | | | | | | | | | | ",
"| | | | | | | | | | | | | | | | | | | ",
"| | | | | | | | | | | | | | | | | | | ",
"| | | 4 4 | | | | | | | | | | | | _ | ",
"5 5 5 6 6 5 5 5 5 5 5 5 5 5 5 5 5 5 5 ",
"7 7 7 7 7 8 8 7 7 7 7 7 7 7 7 7 7 7 7 ",
". . . . . 9 0 . . . . 0 0 . . . . . a ",
"+ + + + b + + + + + + + + + + + + c c ",
"d e f g g g g g g g g g g g g f e d @ ",
"h i j k l l l l l l l l l l m n o p # ",
"q j r s t u u t t u u t t u v r w x & ",
"y k z A B B B B B C C B B B D z E F = ",
"G m H I J J K L M N O P Q R I S T U ) ",
"V T W X Y Z `  ...+.@.#.$.%.&.*.=.V , ",
"-.;.>.,.'.).!.~.{.].^./.(._.,.>.;.:./ ",
"<.[.}.|.1.2.3.4.5.6.7.~.8.9.|.}.j <.0.",
"a.b.c.d.e.f.g.h.i.].j.k.l.m.d.n.o.p.q.",
"r.s.t.u.v.w.x.s.y.z.A.z.B.C.D.t.s.r._ ",
"r.E.F.F.G.H.I.J.K.L.M.N.O.P.Q.F.K.r.| ",
"r.R.S.S.T.U.V.I.I.W.X.Y.Z.`.S. +E.r._ ",
".+R.S.S.++@+U.X.X.U.@+++S.S.S. +E..+| ",
".+#+$+%+$+&+*+=+=+-+&+$+;+%+%+>+,+r.| ",
".+R.'+)+)+)+)+)+)+)+)+)+)+)+)+!+~+r.| ",
"r.E.{+]+]+!+^+]+]+/+/+(+(+/+/+]+~+r.| ",
"_+:+~+~+~+~+E.~+~+R.R.~+~+R.R.~+<+[+| ",
"}+_+.+.+.+.+.+.+.+.+.+.+.+.+.+.+|+}+| ",
"5 5 5 1+1+5 5 5 5 5 5 5 5 5 5 5 5 5 5 ",
"7 7 2+7 7 7 2+7 7 7 7 7 7 7 7 7 7 7 7 "};
