/* XPM */
static char * frameATR_xpm[] = {
"4 22 16 1",
" 	c None",
".	c #797979",
"+	c #505050",
"@	c #4E4E4E",
"#	c #4D4D4D",
"$	c #4B4B4B",
"%	c #494949",
"&	c #484848",
"*	c #464646",
"=	c #454545",
"-	c #434343",
";	c #3B3B3B",
">	c #202020",
",	c #212121",
"'	c #222222",
")	c #1A1A1A",
"....",
"++++",
"@@@@",
"####",
"$$$$",
"%%%%",
"&&&&",
"****",
"====",
"----",
";;;;",
">>>>",
">>>>",
">>>>",
",,,,",
",,,,",
",,,,",
",,,,",
",,,,",
",,,,",
"''''",
"))))"};
