/* XPM */
static char *gimp[] = {
/* columns rows colors chars-per-pixel */
"32 32 256 2 ",
"   c black",
".  c #39352D",
"X  c #483E29",
"o  c #6C5C45",
"O  c #BF6C27",
"+  c #B67C2C",
"@  c #BD7234",
"#  c #DC5803",
"$  c #C85911",
"%  c #E85700",
"&  c #E05300",
"*  c #FB5E00",
"=  c #DA6315",
"-  c #C87219",
";  c #FD6B01",
":  c #FC6505",
">  c #EB7508",
",  c #FE7602",
"<  c #FF7C01",
"1  c #FA7305",
"2  c #E66614",
"3  c #F17110",
"4  c #C86621",
"5  c #C67326",
"6  c #BF6E5E",
"7  c #BD7967",
"8  c #BD7370",
"9  c #CB555F",
"0  c #E0435B",
"q  c #CB4F62",
"w  c #DE4463",
"e  c #C65B6C",
"r  c #D84F71",
"t  c #CE5F75",
"y  c #DE5870",
"u  c #E64A6B",
"i  c #E64D72",
"p  c #E6527C",
"a  c #E45277",
"s  c #C16464",
"d  c #CA7E6A",
"f  c #C37A6C",
"g  c #D2726E",
"h  c #C16A7D",
"j  c #D86575",
"k  c #CF7E76",
"l  c #D27779",
"z  c #76A63A",
"x  c #799A4C",
"c  c #68A54F",
"v  c #76B847",
"b  c #7CBA44",
"n  c #75B64C",
"m  c #7ABC4A",
"M  c #7EB248",
"N  c #78A755",
"B  c #6CB058",
"V  c #7DB153",
"C  c #6AA665",
"Z  c #A09C24",
"A  c #92A52C",
"S  c #83AC33",
"D  c #87BF3F",
"F  c #8BB638",
"G  c #ADB338",
"H  c #B3B033",
"J  c #DC8F12",
"K  c #C29116",
"L  c #ED860A",
"P  c #FF8200",
"I  c #FB8905",
"U  c #FF820C",
"Y  c #F68609",
"T  c #F8960F",
"R  c #FF8315",
"E  c #C1A41F",
"W  c #CC8C2E",
"Q  c #C89E22",
"!  c #D39927",
"~  c #FF9021",
"^  c #D4A020",
"/  c #C0BC36",
"(  c #E2A522",
")  c #EBB329",
"_  c #F5BC2E",
"`  c #ECBB34",
"'  c #8BC13E",
"]  c #9DC33B",
"[  c #FBC22F",
"{  c #FAC534",
"}  c #F9CA3C",
"|  c #F1C63D",
" . c #8A9446",
".. c #96835D",
"X. c #99935B",
"o. c #BE8141",
"O. c #BA844A",
"+. c #B7854C",
"@. c #A48A5E",
"#. c #BB8F56",
"$. c #AD915E",
"%. c #BB925B",
"&. c #BB9557",
"*. c #83BD41",
"=. c #8EB747",
"-. c #87A459",
";. c #9DA75F",
":. c #A0BB45",
">. c #9F8961",
",. c #A98E62",
"<. c #BC8869",
"1. c #AC9360",
"2. c #B49D65",
"3. c #BD9B63",
"4. c #B29A6B",
"5. c #BD9B6B",
"6. c #B99467",
"7. c #B78777",
"8. c #BF9C72",
"9. c #B99871",
"0. c #87A760",
"q. c #9FA868",
"w. c #ACA161",
"e. c #B4A372",
"r. c #BCA272",
"t. c #CB8742",
"y. c #C49640",
"u. c #C38F54",
"i. c #C4975E",
"p. c #C19A5B",
"a. c #C9B155",
"s. c #C28A6F",
"d. c #C09D67",
"f. c #C48F7F",
"g. c #C59E7E",
"h. c #C4A367",
"j. c #C5A56A",
"k. c #C8A76A",
"l. c #C7A86C",
"z. c #C9A96C",
"x. c #CCA960",
"c. c #C3A471",
"v. c #C7A975",
"b. c #CAAC73",
"n. c #C7A47C",
"m. c #CBAE7A",
"M. c #C7A876",
"N. c #CEB17B",
"B. c #D0B47E",
"V. c #8AC74C",
"C. c #92CE4C",
"Z. c #9DD54E",
"A. c #D6C741",
"S. c #E7CD45",
"D. c #F8CE40",
"F. c #F3D54A",
"G. c #F5DA54",
"H. c #FADD64",
"J. c #FAE473",
"K. c #396EBD",
"L. c #687B8D",
"P. c #627191",
"I. c #5C6CB6",
"U. c #477ABE",
"Y. c #5079BD",
"T. c #6F6EB9",
"R. c #377BC8",
"E. c #3879C5",
"W. c #5976C2",
"Q. c #8A7686",
"!. c #AD73A5",
"~. c #AD70B3",
"^. c #DC598C",
"/. c #E55684",
"(. c #E55B8C",
"). c #E85B8B",
"_. c #E45E94",
"`. c #C67483",
"'. c #D87192",
"]. c #E5639B",
"[. c #E96299",
"{. c #D571B2",
"}. c #EA6DAD",
"|. c #EC76B8",
" X c #4B8F85",
".X c #5B8D8B",
"XX c #5F8598",
"oX c #798A8B",
"OX c #7E8C9C",
"+X c #4482A7",
"@X c #4C85AA",
"#X c #5390B6",
"$X c #6F8CA5",
"%X c #758BA6",
"&X c #6191AA",
"*X c #7997A4",
"=X c #3784C8",
"-X c #378BC9",
";X c #398CCC",
":X c #3A85C7",
">X c #3E94C8",
",X c #4386C4",
"<X c #5194C4",
"1X c #499CD2",
"2X c #4198D2",
"3X c #4AA4D6",
"4X c #8B8C85",
"5X c #9C9C8D",
"6X c #94928E",
"7X c #868D9D",
"8X c #8E9C9A",
"9X c #989791",
"0X c #AC9F87",
"qX c #B09C82",
"wX c #A09C94",
"eX c #B3A58D",
"rX c #BAA689",
"tX c #BCA98E",
"yX c #B4A184",
"uX c #AEA491",
"iX c #C99A81",
"pX c #C5A283",
"aX c #C3AB84",
"sX c #CBAD83",
"dX c #CAAA89",
"fX c #CEB282",
"gX c #CDB38D",
"hX c #D1B584",
"jX c #D3B986",
"kX c #D1B78B",
"lX c #D4BA8B",
"zX c #CFB592",
"xX c #C6B091",
"cX c #D5BC93",
"vX c #D8BF93",
"bX c #D6BE99",
"nX c #D8BF99",
"mX c #D0B591",
"MX c #D8C195",
"NX c #D7C09C",
"BX c #DAC29C",
"VX c #FBEA83",
"CX c #DCC6A2",
"ZX c #DEC9A4",
"AX c #D4C2A9",
"SX c #D9CBB3",
"DX c #DFD2BE",
"FX c #E0CBA6",
"GX c #E1CCAA",
"HX c #E1CFB8",
"JX c #E2D1B4",
"KX c #E5D4BD",
"LX c #E7D7C0",
"PX c #EADBC4",
"IX c #E7D8C1",
"UX c None",
/* pixels */
"UXUXUXUXUXUXUXUXUXUXUXUXUXUXUXUXUXUXUXUXUXUXUXUXUXUXUXUXUXUXUXUX",
"UXUXUXUXUXUXUXUXUXUXUXUXUXUXUXUXUXUXUXUXUXUXUXUXUXUXUXUXUXUXUXUX",
"UXUXUXSXPXLXPXPXPXLXDXKXPXPXKXPXHXLXLXIXKXHXIXIXKXHXPXLXDXUXUXUX",
"UXUXAXBXGXCXGXGXcXrXrXcXCXZXdXCXgXCXCXFXCXbXAXNXCXvXGXBXZXSXUXUX",
"UXUXCXCXBXZXGXFXeX+X>XeXCXAX6XgX6XxXnXbXCXbXzX`.gXbXZXnXCXJXUXUX",
"UXUXCXCXBXZXZXZXCXdXXX5XbXbX$XwXOXwXtX7XbXgXbXiXbXbXZXcXBXGXUXUX",
"UXUXBXBXMXZXZXZXCXcXqXuX*X<X1X,XOX%XU.tXzX'.pXNXCXBXcXg iXGXUXUX",
"UXUXBXMXBXZXZXZXcX5XyX@X1X3X2X;XR.E.E.eXgX`.iXbXnXpXdX0 d CXUXUX",
"UXUXCXnXBXZXBXZXkXoX0X8X>X-X=XR.R.E.E.K.P.Q.sXl l iXmXf fXZXUXUX",
"UXUXBXvXMXBXZXZXvXrX0X*X-X-X=X=XR.E.I.!.|.(.f.p u k BXmXBXBXUXUX",
"UXUXBXvXNXNXaXxXcXkXsX#X-X=X=XR.R.W.T.].[.[.).i w s.BXlXBXCXUXUX",
"UXUXBXcXvXkXN 0.dXcXkX&X-X-XE.Y.~.|.}.(./.p i u f kXBXkXMXMXUXUX",
"UXUXMXvXvXvXe.c V 0.q..X X+X4XL.{.|.[./.t r i 9 kXvXMXkXvXvXUXUX",
"UXUXMXkXlXMXhXV Z.C.m n B C ;.iX}.].(./.j 7 6 pXMXvXMXhXvXMXUXUX",
"UXUXMXkXlXvXfX-.C.v v v n v b 7.].(./.p y d.9.aXMXlXvXfXkXvXUXUX",
"UXUXvXjXkX4.x n V.v v v b b *.X.^././.i q s.n.fXMXlXvXjXjXvXUXUX",
"UXUXvXjXjXsXe.M b b b b b D D =.8 e e s M.sX<.d hXlXlXhXlXlXUXUX",
"UXUXjXfXfXhXe.z z b *.D ' z z z :.4.m.kXkXkX9.6 hXlXhXhXjXlXUXUX",
"UXUXsXw.w.c.r.&.Q ' D ' ' A.F.G.G a.sXlXfXsXfXhXjXjXhXhXjXjXUXUX",
"UXUXm. . .+ W I E Z A ' F ] S.VXJ.F.x.fXc.9.m.kXlXjXhXN.B.jXUXUX",
"UXUXN.v.c.i., P K J ^ z H H F.H.H.} | 5.5.v.r.e.hXhXhXN.B.N.UXUX",
"UXUXN.N.m.i.R U P P I ) { { D.D.} { ` 3.c.o UXUX. ..N.m.N.N.UXUX",
"UXUXm.m.m.t.R ~ U < I T ) [ [ [ [ _ y.p.4.UXUXUXUXUX@.m.N.N.UXUX",
"UXUXb.b.b.3.3 R , , , L L J ! ( ! ! v.N.4.UXUXUXUXUXUXj.N.b.UXUX",
"UXUXb.b.b.d.: 1 ; Y , , 1 - 3.%.h.p.h.m.v.UXUXUXUXUXUX@.b.b.UXUX",
"UXUXb.z.u.= $ * * > ; ; 5 t.2.3.b.b.b.m.b.,.UXUXUXUXUX$.b.z.UXUX",
"UXUXz.j.@ O.d.2 # % # O o.o.c.b.b.v.b.b.b.b.,.UXUXUXUXj.z.j.UXUX",
"UXUXk.k.j.j.3.4 6.@ %.h.j.h.l.l.l.j.z.z.l.z.l.h.6.2.k.j.z.j.UXUX",
"UXUX$.j.k.h.3.O.j.j.h.h.k.j.k.k.j.j.k.k.k.j.k.j.k.k.j.h.j.$.UXUX",
"UXUXX $.z.b.b.c.b.m.m.m.B.B.fXfXhXfXfXB.N.N.m.b.b.b.b.j.$.X UXUX",
"UXUXUXUX                                                UXUXUXUX",
"UXUXUXUXUXUXUXUXUXUXUXUXUXUXUXUXUXUXUXUXUXUXUXUXUXUXUXUXUXUXUXUX"
};
