/* XPM */
static char * pcmanfm_xpm[] = {
"32 32 639 2",
"  	c None",
". 	c #BB7D67",
"+ 	c #BC7B64",
"@ 	c #BC7B65",
"# 	c #BD7C65",
"$ 	c #BE7C66",
"% 	c #BF7D66",
"& 	c #C07E66",
"* 	c #C07E67",
"= 	c #C17E66",
"- 	c #C17F66",
"; 	c #C28067",
"> 	c #C38067",
", 	c #C38167",
"' 	c #C48268",
") 	c #C48168",
"! 	c #C58168",
"~ 	c #C58268",
"{ 	c #C78267",
"] 	c #C68268",
"^ 	c #C78367",
"/ 	c #C88367",
"( 	c #C48369",
"_ 	c #B16E58",
": 	c #A04D31",
"< 	c #A35134",
"[ 	c #A45235",
"} 	c #A55437",
"| 	c #A65539",
"1 	c #A8573A",
"2 	c #A9593C",
"3 	c #A0553A",
"4 	c #905138",
"5 	c #945539",
"6 	c #92533A",
"7 	c #94543A",
"8 	c #97583E",
"9 	c #995B3F",
"0 	c #985A3F",
"a 	c #96573D",
"b 	c #96583E",
"c 	c #99593E",
"d 	c #85533A",
"e 	c #AF6446",
"f 	c #B56648",
"g 	c #B66748",
"h 	c #B76748",
"i 	c #B66647",
"j 	c #B15F41",
"k 	c #AF6D56",
"l 	c #AC6249",
"m 	c #9F4F33",
"n 	c #A05135",
"o 	c #A25337",
"p 	c #A4553A",
"q 	c #A6583C",
"r 	c #BD2C00",
"s 	c #601C00",
"t 	c #9F8034",
"u 	c #A98A39",
"v 	c #A18037",
"w 	c #9A792E",
"x 	c #9C7D30",
"y 	c #A18032",
"z 	c #B99441",
"A 	c #D6AE56",
"B 	c #EAC860",
"C 	c #F5CF67",
"D 	c #FED672",
"E 	c #FFD469",
"F 	c #823000",
"G 	c #D1480F",
"H 	c #B5694B",
"I 	c #B5684A",
"J 	c #B56748",
"K 	c #B46647",
"L 	c #AD5E40",
"M 	c #AA6047",
"N 	c #A86048",
"O 	c #9D4F34",
"P 	c #9F5136",
"Q 	c #A1543A",
"R 	c #A3573D",
"S 	c #A55A40",
"T 	c #C23403",
"U 	c #5E3904",
"V 	c #DAAA51",
"W 	c #DFB35A",
"X 	c #EABE65",
"Y 	c #E5BB63",
"Z 	c #F0C26B",
"` 	c #F7CF6C",
" .	c #FCD86B",
"..	c #FCD86C",
"+.	c #FFDD72",
"@.	c #FFDF75",
"#.	c #FFE379",
"$.	c #8B6122",
"%.	c #D84F1A",
"&.	c #B46A4D",
"*.	c #B3684C",
"=.	c #B36649",
"-.	c #B26547",
";.	c #A4573B",
">.	c #A75F47",
",.	c #A55E46",
"'.	c #9B4E33",
").	c #9C5137",
"!.	c #A0553B",
"~.	c #A1593F",
"{.	c #A55C43",
"].	c #8F2700",
"^.	c #9A7930",
"/.	c #E7BE63",
"(.	c #F7CB74",
"_.	c #F5C86E",
":.	c #F7C86E",
"<.	c #FBD470",
"[.	c #FEDA6B",
"}.	c #FFDC70",
"|.	c #FFE179",
"1.	c #FFDF77",
"2.	c #C0A14C",
"3.	c #C04215",
"4.	c #B36C50",
"5.	c #B16A4D",
"6.	c #B0684A",
"7.	c #B06548",
"8.	c #984C32",
"9.	c #A45D45",
"0.	c #A25D45",
"a.	c #984D34",
"b.	c #9A5139",
"c.	c #9E563D",
"d.	c #A05A41",
"e.	c #A45E46",
"f.	c #672300",
"g.	c #FBCB67",
"h.	c #FED679",
"i.	c #FED379",
"j.	c #FBD175",
"k.	c #FFD677",
"l.	c #FFD87B",
"m.	c #FFDD79",
"n.	c #FFE17B",
"o.	c #FFDF7F",
"p.	c #FFE37D",
"q.	c #FFE87F",
"r.	c #863206",
"s.	c #B16C51",
"t.	c #B16A4F",
"u.	c #B1684D",
"v.	c #A0573D",
"w.	c #964B32",
"x.	c #A15C44",
"y.	c #9E5A42",
"z.	c #954C33",
"A.	c #995239",
"B.	c #9D563D",
"C.	c #A45F46",
"D.	c #744A11",
"E.	c #FFDD82",
"F.	c #FFE88A",
"G.	c #FFF593",
"H.	c #FFF793",
"I.	c #FFF991",
"J.	c #FFF591",
"K.	c #FFF996",
"L.	c #FFFC98",
"M.	c #FFFB98",
"N.	c #FFF396",
"O.	c #FFEE93",
"P.	c #FFEE8F",
"Q.	c #9E6022",
"R.	c #B16C52",
"S.	c #AE6A4F",
"T.	c #9E5940",
"U.	c #944D35",
"V.	c #934A31",
"W.	c #9D5942",
"X.	c #9C5841",
"Y.	c #934C34",
"Z.	c #985139",
"`.	c #9B563E",
" +	c #9D5A43",
".+	c #A25D46",
"++	c #9A8034",
"@+	c #FFFFA3",
"#+	c #FFFFA5",
"$+	c #FFFFB7",
"%+	c #FFFFB5",
"&+	c #FFFFAE",
"*+	c #FFFFA7",
"=+	c #FFFFA9",
"-+	c #FFFFAC",
";+	c #FFFBA1",
">+	c #BE9F58",
",+	c #A25C45",
"'+	c #97533D",
")+	c #954F38",
"!+	c #934D35",
"~+	c #914A33",
"{+	c #9B5741",
"]+	c #97553F",
"^+	c #904A33",
"/+	c #965039",
"(+	c #9A563E",
"_+	c #9C5A43",
":+	c #89533E",
"<+	c #6B5627",
"[+	c #745C2B",
"}+	c #6C5323",
"|+	c #5A4211",
"1+	c #553B0F",
"2+	c #4C3406",
"3+	c #5C4113",
"4+	c #583F0A",
"5+	c #553B06",
"6+	c #604411",
"7+	c #583B04",
"8+	c #5A3F04",
"9+	c #604208",
"0+	c #65440C",
"a+	c #65440D",
"b+	c #58410A",
"c+	c #924F3A",
"d+	c #944F3A",
"e+	c #934E37",
"f+	c #8F4B34",
"g+	c #8D4931",
"h+	c #97553E",
"i+	c #94523E",
"j+	c #8E4932",
"k+	c #995640",
"l+	c #9B5942",
"m+	c #935640",
"n+	c #604C15",
"o+	c #937534",
"p+	c #C49F55",
"q+	c #C29C4F",
"r+	c #C09A4D",
"s+	c #B59146",
"t+	c #B9944A",
"u+	c #AC8841",
"v+	c #9A7937",
"w+	c #8F7030",
"x+	c #987734",
"y+	c #9E7B37",
"z+	c #A5843F",
"A+	c #694F17",
"B+	c #705618",
"C+	c #94503B",
"D+	c #924F39",
"E+	c #8F4D37",
"F+	c #8D4A35",
"G+	c #8B4832",
"H+	c #94523D",
"I+	c #90503B",
"J+	c #8C4932",
"K+	c #945039",
"L+	c #98563F",
"M+	c #985841",
"N+	c #9D5943",
"O+	c #584615",
"P+	c #8B6B2C",
"Q+	c #9E7F34",
"R+	c #9C7D37",
"S+	c #9F7D36",
"T+	c #9E7D36",
"U+	c #9F7F37",
"V+	c #9E7F37",
"W+	c #9E7D34",
"X+	c #462E00",
"Y+	c #725617",
"Z+	c #92513D",
"`+	c #8E503B",
" @	c #8C4D37",
".@	c #8A4934",
"+@	c #884730",
"@@	c #8D4E3A",
"#@	c #884731",
"$@	c #924E37",
"%@	c #96543E",
"&@	c #97563F",
"*@	c #9B5842",
"=@	c #6E5318",
"-@	c #98792E",
";@	c #96772B",
">@	c #9E792C",
",@	c #A17B2C",
"'@	c #98772B",
")@	c #98792B",
"!@	c #9A792B",
"~@	c #9A7B2E",
"{@	c #583D04",
"]@	c #694D11",
"^@	c #90503C",
"/@	c #8B4E39",
"(@	c #8A4B36",
"_@	c #884733",
":@	c #854531",
"<@	c #894C37",
"[@	c #864530",
"}@	c #904D36",
"|@	c #94523C",
"1@	c #96553E",
"2@	c #9A5740",
"3@	c #634D17",
"4@	c #65480D",
"5@	c #9F7B2B",
"6@	c #9E792B",
"7@	c #A37D2C",
"8@	c #A37D2E",
"9@	c #A37B2B",
"0@	c #A17B34",
"a@	c #A38034",
"b@	c #9C7B2E",
"c@	c #9A792C",
"d@	c #5E440C",
"e@	c #8E4F3C",
"f@	c #894C38",
"g@	c #864935",
"h@	c #844732",
"i@	c #83442F",
"j@	c #864936",
"k@	c #84442F",
"l@	c #8E4B35",
"m@	c #92513A",
"n@	c #94533D",
"o@	c #995540",
"p@	c #654611",
"q@	c #65460D",
"r@	c #966E27",
"s@	c #98792C",
"t@	c #987529",
"u@	c #A1792C",
"v@	c #9A7427",
"w@	c #A17929",
"x@	c #A37B2C",
"y@	c #A17D2E",
"z@	c #533403",
"A@	c #56410C",
"B@	c #8C4D39",
"C@	c #864A36",
"D@	c #844735",
"E@	c #824633",
"F@	c #80432F",
"G@	c #824734",
"H@	c #81422E",
"I@	c #8D4A33",
"J@	c #914F39",
"K@	c #92513B",
"L@	c #97543E",
"M@	c #6B410D",
"N@	c #60440F",
"O@	c #9A772C",
"P@	c #563B06",
"Q@	c #8B7036",
"R@	c #987532",
"S@	c #AE8B3F",
"T@	c #9F803F",
"U@	c #72561E",
"V@	c #A57D2B",
"W@	c #A77D2C",
"X@	c #4A3000",
"Y@	c #673B06",
"Z@	c #884A36",
"`@	c #834733",
" #	c #814533",
".#	c #7E4430",
"+#	c #7D412D",
"@#	c #7F4532",
"##	c #7F412D",
"$#	c #8B4932",
"%#	c #8F4F38",
"&#	c #96543D",
"*#	c #633908",
"=#	c #513200",
"-#	c #8A6925",
";#	c #8D6B25",
">#	c #917229",
",#	c #79581C",
"'#	c #4C370A",
")#	c #5A3D0C",
"!#	c #563D08",
"~#	c #5C410F",
"{#	c #8F6C29",
"]#	c #936C27",
"^#	c #947025",
"/#	c #936C23",
"(#	c #482C00",
"_#	c #603603",
":#	c #834633",
"<#	c #7E4432",
"[#	c #794230",
"}#	c #7A402D",
"|#	c #7B4230",
"1#	c #7C402D",
"2#	c #8A4731",
"3#	c #8D4C35",
"4#	c #8E4E37",
"5#	c #91503A",
"6#	c #6C3201",
"7#	c #8A6323",
"8#	c #7D5E1C",
"9#	c #63480C",
"0#	c #654608",
"a#	c #614206",
"b#	c #755515",
"c#	c #846120",
"d#	c #8A6522",
"e#	c #7F5E1E",
"f#	c #77581C",
"g#	c #826323",
"h#	c #745317",
"i#	c #6C4C11",
"j#	c #7F5E22",
"k#	c #512B00",
"l#	c #7C4433",
"m#	c #784331",
"n#	c #764130",
"o#	c #77402E",
"p#	c #773E2D",
"q#	c #77402F",
"r#	c #763E2C",
"s#	c #874630",
"t#	c #8B4A34",
"u#	c #8C4C36",
"v#	c #8D4E38",
"w#	c #5E2300",
"x#	c #60410A",
"y#	c #B5934A",
"z#	c #C29F51",
"A#	c #B9964C",
"B#	c #B08F44",
"C#	c #A3803B",
"D#	c #9E7F39",
"E#	c #9C7936",
"F#	c #A1823B",
"G#	c #A1803F",
"H#	c #A7843F",
"I#	c #93702B",
"J#	c #533703",
"K#	c #482300",
"L#	c #784332",
"M#	c #764131",
"N#	c #74402F",
"O#	c #753F2E",
"P#	c #743D2D",
"Q#	c #743E2C",
"R#	c #723D2C",
"S#	c #8A4933",
"T#	c #8A4A35",
"U#	c #884B37",
"V#	c #461100",
"W#	c #7B5615",
"X#	c #98752C",
"Y#	c #967029",
"Z#	c #946B27",
"`#	c #946E27",
" $	c #946C27",
".$	c #986E29",
"+$	c #69480D",
"@$	c #481E00",
"#$	c #774332",
"$$	c #754130",
"%$	c #73402F",
"&$	c #733E2D",
"*$	c #713D2C",
"=$	c #703C2B",
"-$	c #6E3B2B",
";$	c #844530",
">$	c #854732",
",$	c #560D00",
"'$	c #725113",
")$	c #845E1C",
"!$	c #966C29",
"~$	c #966B29",
"{$	c #96722B",
"]$	c #6B4A0F",
"^$	c #4C1A00",
"/$	c #744131",
"($	c #723F30",
"_$	c #713E2E",
":$	c #713D2D",
"<$	c #6E3C2C",
"[$	c #6D3A2A",
"}$	c #6C3A2B",
"|$	c #6D3B2C",
"1$	c #734131",
"2$	c #420100",
"3$	c #84601C",
"4$	c #755315",
"5$	c #9A752B",
"6$	c #98752B",
"7$	c #986C27",
"8$	c #946B29",
"9$	c #936925",
"0$	c #8D651E",
"a$	c #7B5817",
"b$	c #441300",
"c$	c #724031",
"d$	c #713F2F",
"e$	c #6F3D2D",
"f$	c #6D3C2C",
"g$	c #6C3A2A",
"h$	c #6A3929",
"i$	c #68382A",
"j$	c #6A3A2C",
"k$	c #6C3B2C",
"l$	c #6C3C2D",
"m$	c #6C3C2E",
"n$	c #300000",
"o$	c #86601E",
"p$	c #6C4C0F",
"q$	c #8B6522",
"r$	c #7B5815",
"s$	c #806329",
"t$	c #946B25",
"u$	c #886322",
"v$	c #75561A",
"w$	c #8A6520",
"x$	c #946922",
"y$	c #7F5817",
"z$	c #86611C",
"A$	c #370800",
"B$	c #6D3C2E",
"C$	c #6A3A2B",
"D$	c #68392A",
"E$	c #663729",
"F$	c #653729",
"G$	c #67392A",
"H$	c #673A2B",
"I$	c #673A2C",
"J$	c #683A2B",
"K$	c #360000",
"L$	c #745615",
"M$	c #704C13",
"N$	c #86611E",
"O$	c #86631E",
"P$	c #7F5E1A",
"Q$	c #4A3406",
"R$	c #6C531C",
"S$	c #5A4615",
"T$	c #6C5318",
"U$	c #583D0A",
"V$	c #886520",
"W$	c #775617",
"X$	c #8B6520",
"Y$	c #250000",
"Z$	c #653728",
"`$	c #643728",
" %	c #643628",
".%	c #683829",
"+%	c #623628",
"@%	c #623528",
"#%	c #633629",
"$%	c #64382A",
"%%	c #63382A",
"&%	c #623729",
"*%	c #2E0000",
"=%	c #744F15",
"-%	c #885E1E",
";%	c #886320",
">%	c #826123",
",%	c #795C23",
"'%	c #79581E",
")%	c #694D1E",
"!%	c #866320",
"~%	c #745315",
"{%	c #886522",
"]%	c #2B0000",
"^%	c #613528",
"/%	c #613527",
"(%	c #643729",
"_%	c #623527",
":%	c #5E3426",
"<%	c #5F3427",
"[%	c #603528",
"}%	c #372300",
"|%	c #866118",
"1%	c #745513",
"2%	c #705313",
"3%	c #6E5111",
"4%	c #5A3D06",
"5%	c #553903",
"6%	c #614208",
"7%	c #6C4D11",
"8%	c #5E4208",
"9%	c #63460C",
"0%	c #270000",
"a%	c #5F3426",
"b%	c #5F3528",
"c%	c #5B3225",
"d%	c #5C3226",
"e%	c #5B3226",
"f%	c #5D3327",
"g%	c #5D3326",
"h%	c #000000",
"i%	c #604106",
"j%	c #7F5E18",
"k%	c #916E27",
"l%	c #9C7529",
"m%	c #9C752B",
"n%	c #8D6923",
"o%	c #936B25",
"p%	c #8D6925",
"q%	c #8A6322",
"r%	c #7F5A1C",
"s%	c #654A0F",
"t%	c #1E0000",
"u%	c #5C3227",
"v%	c #5C3326",
"w%	c #583226",
"x%	c #583124",
"y%	c #593225",
"z%	c #593326",
"A%	c #2C0000",
"B%	c #130000",
"C%	c #0D0000",
"D%	c #200000",
"E%	c #110000",
"F%	c #180000",
"G%	c #22140F",
"H%	c #583329",
"I%	c #5E382D",
"J%	c #603A2F",
"K%	c #613B30",
"L%	c #623D32",
"M%	c #643E34",
"N%	c #654036",
"O%	c #664137",
"P%	c #674339",
"Q%	c #68453B",
"R%	c #69463C",
"S%	c #6B483D",
"T%	c #6C493F",
"U%	c #573329",
"V%	c #22130F",
"                                                                ",
"                                                                ",
"      . + @ # # $ % & * = - - ; > > , ' ) ! ~ { ] ^ / ^ (       ",
"    _ : < [ } | 1 2 3 4 5 6 7 8 9 0 a b c d e f g g h i j k     ",
"    l m n o p q r s t u v w x y z A B C D E F G H I J K L M     ",
"    N O P Q R S T U V W X Y Z `  ...+.@.@.#.$.%.&.*.=.-.;.>.    ",
"    ,.'.).!.~.{.].^./.(._.:.<.[.}.+.|.1.|.|.2.3.4.5.6.7.8.9.    ",
"    0.a.b.c.d.e.f.g.h.i.j.k.l.m.1.n.|.|.o.p.q.r.s.t.u.v.w.x.    ",
"    y.z.A.B.y.C.D.m.E.F.G.H.I.J.K.L.M.M.N.O.P.Q.R.S.T.U.V.W.    ",
"    X.Y.Z.`. +.+++@+#+$+%+%+%+&+#+*+=+#+=+-+;+>+,+'+)+!+~+{+    ",
"    ]+^+/+(+_+:+<+[+}+|+1+2+3+4+5+6+7+8+9+0+a+b+c+d+e+f+g+h+    ",
"    i+j+)+k+l+m+n+o+p+q+r+s+t+u+v+w+x+v+y+z+A+B+C+D+E+F+G+H+    ",
"    I+J+K+L+M+N+O+P+Q+R+S+T+U+S+T+U+V+W+y+U+X+Y+Z+`+ @.@+@I+    ",
"    @@#@$@%@&@*@n+=@-@;@>@,@w '@)@;@!@w ;@~@{@]@^@/@(@_@:@@@    ",
"    <@[@}@|@1@2@3@4@;@;@5@!@6@7@8@9@0@a@b@c@{@d@e@f@g@h@i@<@    ",
"    j@k@l@m@n@o@p@q@r@s@;@6@t@7@u@v@w@x@,@y@z@A@B@C@D@E@F@j@    ",
"    G@H@I@J@K@L@M@N@O@s@s@P@Q@R@S@T@U@7@V@W@X@Y@Z@`@ #.#+#G@    ",
"    @###$#E+%#&#*#=#-#;#>#,#'#)#!#~#{#]#^#/#(#_#:#<#[#[#}#@#    ",
"    |#1#2#3#4#5#6#7#8#9#0#a#b#c#d#e#f#g#h#i#j#k#l#m#n#o#p#|#    ",
"    q#r#s#t#u#v#w#x#y#z#A#B#C#D#E#C#F#G#H#I#J#K#L#M#N#O#P#q#    ",
"    Q#R#i@S#T#U#V#W#X#Y#Z#Z#Z#Z#]#`# $Z#Z#.$+$@$#$$$%$&$*$Q#    ",
"    =$-$}#;$>$<#,$'$)$!$~$ $;@s@{$Z#!$!$!$.$]$^$/$($_$:$<$=$    ",
"    [$}$|$_$%$1$2$3$4$!$!$!$5$s@s@6$7$8$9$0$a$b$c$d$e$f$g$[$    ",
"    h$i$j$k$l$m$n$o$p$Z#q$r$s$`#t$u$v$w$x$y$z$A$l$B$C$D$D$h$    ",
"    E$F$G$H$I$J$K$L$M$N$O$P$Q$R$S$T$U$V$w$W$X$Y$Z$Z$`$ %F$.%    ",
"    +%@%#%$%%%&%*%9#=%-%;%O$>%,%'%)%V$!%O$~%{%]%^%/%@%/%+%(%    ",
"    _%:%:%<%^%[%n$}%|%1%W$2%3%4%5%6%7%9+8%9%Y#0%<%a%a%<%a%_%    ",
"    b%c%d%e%f%g%K$h%i%j%k%r@`#l%m%n%o%p%q%r%s%t%u%d%e%v%c%b%    ",
"    w%x%x%y%y%z%A%n$B%C%h%C%D%Y$0%0%Y$D%E%F%D%A%z%y%y%x%x%w%    ",
"    G%H%I%J%K%L%M%N%O%P%Q%R%S%T%T%S%R%Q%P%O%N%M%L%K%J%I%U%V%    ",
"        h%h%h%h%h%h%h%h%h%h%h%h%h%h%h%h%h%h%h%h%h%h%h%h%        ",
"                                                                "};
