/* XPM */
static char * spacefm_xpm[] = {
"32 32 702 2",
"  	c None",
". 	c #86B3D7",
"+ 	c #8BB9DF",
"@ 	c #85B3DC",
"# 	c #7CAEDC",
"$ 	c #75A8D8",
"% 	c #6FA1D3",
"& 	c #6D9DD2",
"* 	c #6D9CCF",
"= 	c #6B98CA",
"- 	c #6994C6",
"; 	c #6591C6",
"> 	c #6092C6",
", 	c #6194CA",
"' 	c #6196CB",
") 	c #5F97CC",
"! 	c #5F98CC",
"~ 	c #6099CC",
"{ 	c #6399CF",
"] 	c #679CD0",
"^ 	c #6BA0D3",
"/ 	c #70A3D4",
"( 	c #76A6D6",
"_ 	c #7BA9D7",
": 	c #81ADD9",
"< 	c #8AB4DE",
"[ 	c #87B2D6",
"} 	c #79AAD3",
"| 	c #5F9BD2",
"1 	c #4F90CB",
"2 	c #4486C6",
"3 	c #3F83C4",
"4 	c #3B7EBF",
"5 	c #3775BA",
"6 	c #3871B6",
"7 	c #366FB2",
"8 	c #3468AB",
"9 	c #3264A8",
"0 	c #3065AA",
"a 	c #2F68AE",
"b 	c #2D6BB1",
"c 	c #2D70B4",
"d 	c #2B73B7",
"e 	c #2B73B8",
"f 	c #2D75B9",
"g 	c #2E76B9",
"h 	c #3077B9",
"i 	c #357ABB",
"j 	c #3C7BBC",
"k 	c #427EBC",
"l 	c #4781BD",
"m 	c #4D85BE",
"n 	c #578AC2",
"o 	c #6197CA",
"p 	c #7BA9CD",
"q 	c #79B0E1",
"r 	c #4F8FC9",
"s 	c #3F83C3",
"t 	c #367DC2",
"u 	c #3077BF",
"v 	c #2E71BA",
"w 	c #2C6AB2",
"x 	c #2B67AD",
"y 	c #2A64AC",
"z 	c #295DA5",
"A 	c #295BA1",
"B 	c #285CA4",
"C 	c #2861A8",
"D 	c #2463AB",
"E 	c #2067B0",
"F 	c #246BB5",
"G 	c #256FB6",
"H 	c #2670B7",
"I 	c #2872B7",
"J 	c #2A71B2",
"K 	c #2D72B2",
"L 	c #3073B2",
"M 	c #3475B2",
"N 	c #3C78B4",
"O 	c #457FB6",
"P 	c #558CBE",
"Q 	c #7AACD7",
"R 	c #73ACDD",
"S 	c #4A8AC7",
"T 	c #387EC1",
"U 	c #3079BF",
"V 	c #2D76BE",
"W 	c #2B70B7",
"X 	c #2969B1",
"Y 	c #2864AC",
"Z 	c #2961A9",
"` 	c #275BA1",
" .	c #26589D",
"..	c #275AA1",
"+.	c #235DA4",
"@.	c #2564AC",
"#.	c #6791C0",
"$.	c #266EB5",
"%.	c #246BB4",
"&.	c #2770B5",
"*.	c #206DB5",
"=.	c #226EB3",
"-.	c #266FB2",
";.	c #2B70B1",
">.	c #2F73B2",
",.	c #3072B1",
"'.	c #3172B1",
").	c #3976B3",
"!.	c #4881B7",
"~.	c #71A4CF",
"{.	c #6BA5D8",
"].	c #4283C0",
"^.	c #357CBF",
"/.	c #2E77BC",
"(.	c #2B73BA",
"_.	c #2A6EB6",
":.	c #2867AF",
"<.	c #2762A8",
"[.	c #2760A7",
"}.	c #275AA0",
"|.	c #27579C",
"1.	c #22579E",
"2.	c #2E64A8",
"3.	c #91AAC7",
"4.	c #CDCDD2",
"5.	c #8AA8C6",
"6.	c #206BB3",
"7.	c #4381BB",
"8.	c #90ADC7",
"9.	c #84A5C2",
"0.	c #6692BE",
"a.	c #286DAF",
"b.	c #2C70AF",
"c.	c #2C6FAD",
"d.	c #2E71AE",
"e.	c #3271B0",
"f.	c #407DB5",
"g.	c #699CCB",
"h.	c #68A2D4",
"i.	c #3E80BD",
"j.	c #3479BD",
"k.	c #2A72B9",
"l.	c #296CB5",
"m.	c #2966AE",
"n.	c #2860A7",
"o.	c #285CA0",
"p.	c #26579C",
"q.	c #295DA2",
"r.	c #7E9ABC",
"s.	c #D1D1D3",
"t.	c #CACED2",
"u.	c #CCCFD1",
"v.	c #87A5C5",
"w.	c #588DC0",
"x.	c #CACAD0",
"y.	c #C3C6CD",
"z.	c #A0B2C4",
"A.	c #276BAC",
"B.	c #2A6CAC",
"C.	c #2B6DAC",
"D.	c #2C6EAC",
"E.	c #2E6EAD",
"F.	c #3B77B2",
"G.	c #669BCB",
"H.	c #649ED1",
"I.	c #3F80BC",
"J.	c #357ABC",
"K.	c #2E75BB",
"L.	c #2C71B8",
"M.	c #2A6CB3",
"N.	c #2866AD",
"O.	c #2862A9",
"P.	c #2861A7",
"Q.	c #255A9F",
"R.	c #305FA1",
"S.	c #96A9C2",
"T.	c #CCCED1",
"U.	c #CACDD2",
"V.	c #C7CAD0",
"W.	c #C3CACF",
"X.	c #CACBCE",
"Y.	c #A5B7CA",
"Z.	c #BFC3CB",
"`.	c #9BAFC5",
" +	c #276BAB",
".+	c #2A6CAD",
"++	c #2A6BAC",
"@+	c #2B6DAB",
"#+	c #2F6FAC",
"$+	c #3775B0",
"%+	c #5F96C6",
"&+	c #629BCF",
"*+	c #3F7FBC",
"=+	c #2F76BB",
"-+	c #2D73BA",
";+	c #2B6EB4",
">+	c #2867AD",
",+	c #2863AA",
"'+	c #3166A8",
")+	c #7C98BC",
"!+	c #CCCDD1",
"~+	c #C9CCD0",
"{+	c #C6CACF",
"]+	c #C4C8CF",
"^+	c #C3C8CE",
"/+	c #C3C7CE",
"(+	c #C3C7CC",
"_+	c #BEC2CA",
":+	c #BDC2C9",
"<+	c #9BAFC4",
"[+	c #2366A7",
"}+	c #2466A9",
"|+	c #2465A8",
"1+	c #2768A9",
"2+	c #2C6CAB",
"3+	c #3470AD",
"4+	c #568DBE",
"5+	c #619ACD",
"6+	c #4180BC",
"7+	c #3A7BBB",
"8+	c #3578BB",
"9+	c #3176BB",
"0+	c #3071B8",
"a+	c #2F6CB1",
"b+	c #2B66AB",
"c+	c #2D66A9",
"d+	c #819DC1",
"e+	c #D0D0D2",
"f+	c #C4C9CF",
"g+	c #C2C8CF",
"h+	c #C2C7CD",
"i+	c #C0C4CD",
"j+	c #BEC3CD",
"k+	c #BDC3CA",
"l+	c #BDC1C9",
"m+	c #A2B4C5",
"n+	c #2364A6",
"o+	c #2163A6",
"p+	c #2162A5",
"q+	c #2364A7",
"r+	c #2667A7",
"s+	c #2E6AA9",
"t+	c #528BC1",
"u+	c #6097CB",
"v+	c #4481BA",
"w+	c #3D7EBA",
"x+	c #3B7CBB",
"y+	c #3978BA",
"z+	c #3771B2",
"A+	c #326AAB",
"B+	c #7997BC",
"C+	c #C7CACF",
"D+	c #C1C7CD",
"E+	c #C0C5CD",
"F+	c #BFC5CB",
"G+	c #BFC2CB",
"H+	c #BEC2CB",
"I+	c #BCC2C8",
"J+	c #BBBFC7",
"K+	c #BBC0C9",
"L+	c #3370AB",
"M+	c #1D5EA4",
"N+	c #2061A5",
"O+	c #2A68A6",
"P+	c #568FC4",
"Q+	c #5D95C8",
"R+	c #4681BA",
"S+	c #417EBA",
"T+	c #427FBA",
"U+	c #427CB7",
"V+	c #346CAD",
"W+	c #6A8EB9",
"X+	c #C1C6CB",
"Y+	c #C5C9CD",
"Z+	c #C2C6CC",
"`+	c #C2C5CB",
" @	c #C0C4CB",
".@	c #BFC4CB",
"+@	c #BEC3CA",
"@@	c #BDC0C9",
"#@	c #BDC0C8",
"$@	c #BCC0C8",
"%@	c #BABFC7",
"&@	c #BFBFC6",
"*@	c #A3B3C5",
"=@	c #3773AE",
"-@	c #1D5DA3",
";@	c #1F60A3",
">@	c #1F5FA3",
",@	c #2C68A7",
"'@	c #548CC3",
")@	c #578EC1",
"!@	c #4881B8",
"~@	c #4580B8",
"{@	c #4580B9",
"]@	c #467EB7",
"^@	c #336CAE",
"/@	c #5682B4",
"(@	c #BCC2C9",
"_@	c #BFC4CC",
":@	c #BEC2CC",
"<@	c #BCC1CA",
"[@	c #BCC1C9",
"}@	c #BBBFC9",
"|@	c #BABEC6",
"1@	c #B9BDC6",
"2@	c #B9BDC5",
"3@	c #C0C0C6",
"4@	c #A7B3C3",
"5@	c #1C5CA1",
"6@	c #1758A0",
"7@	c #1E5EA2",
"8@	c #2D69A6",
"9@	c #538AC0",
"0@	c #578CBE",
"a@	c #4A80B7",
"b@	c #477FB7",
"c@	c #4881B5",
"d@	c #3770AE",
"e@	c #5583B6",
"f@	c #B4BBC7",
"g@	c #C0C2C9",
"h@	c #BDC2CA",
"i@	c #BDC1CA",
"j@	c #BBBEC8",
"k@	c #B9BEC5",
"l@	c #B9BDC4",
"m@	c #B9BDC3",
"n@	c #B7BBC3",
"o@	c #C3C2C5",
"p@	c #99AABD",
"q@	c #2663A3",
"r@	c #1A5CA0",
"s@	c #2E6AA7",
"t@	c #578BBF",
"u@	c #4D81B6",
"v@	c #487EB4",
"w@	c #4C7DB3",
"x@	c #B5BBC5",
"y@	c #C1C2C6",
"z@	c #BDC1C8",
"A@	c #BCBFC7",
"B@	c #BBC0C7",
"C@	c #BCBFC6",
"D@	c #BBBFC6",
"E@	c #BABDC6",
"F@	c #B8BCC4",
"G@	c #B8BBC3",
"H@	c #B9BCC3",
"I@	c #B9BCC4",
"J@	c #A9B0BC",
"K@	c #859DB7",
"L@	c #517EAE",
"M@	c #16579D",
"N@	c #306BA7",
"O@	c #548ABF",
"P@	c #5B8DC0",
"Q@	c #4079B3",
"R@	c #326BAC",
"S@	c #9CB2C7",
"T@	c #B2BAC6",
"U@	c #BBBEC7",
"V@	c #B9BEC6",
"W@	c #BABEC5",
"X@	c #B8BDC4",
"Y@	c #B7BCC4",
"Z@	c #B7BCC3",
"`@	c #889DB4",
" #	c #1157A0",
".#	c #0E539C",
"+#	c #17599D",
"@#	c #2F6AA7",
"##	c #5086BC",
"$#	c #5A8EC0",
"%#	c #4D84BA",
"&#	c #3679BA",
"*#	c #3168AD",
"=#	c #4C7BB0",
"-#	c #5582B4",
";#	c #7899BC",
">#	c #B8BCC2",
",#	c #B7BCC5",
"'#	c #B7BDC5",
")#	c #B6BCC3",
"!#	c #B5BBC2",
"~#	c #B7BBC2",
"{#	c #B6BBC3",
"]#	c #B5BAC2",
"^#	c #B5BAC3",
"/#	c #B5B9C2",
"(#	c #B6BAC1",
"_#	c #B7BAC1",
":#	c #859AB3",
"<#	c #175A9F",
"[#	c #15599E",
"}#	c #185A9E",
"|#	c #2D68A5",
"1#	c #4C83BA",
"2#	c #5B8DBE",
"3#	c #5287B9",
"4#	c #3980BD",
"5#	c #2E79BA",
"6#	c #2C76BA",
"7#	c #2C75B9",
"8#	c #4F7FB3",
"9#	c #B7BDC4",
"0#	c #B6BBC4",
"a#	c #BEBEC2",
"b#	c #BCBEC3",
"c#	c #B9BCC1",
"d#	c #B5BBC1",
"e#	c #B5BAC1",
"f#	c #B5B9C1",
"g#	c #B4B9C0",
"h#	c #B8BCC1",
"i#	c #879CB4",
"j#	c #185B9F",
"k#	c #14579C",
"l#	c #185C9E",
"m#	c #2B66A4",
"n#	c #457CB4",
"o#	c #5789B9",
"p#	c #538ABB",
"q#	c #4285BF",
"r#	c #2C81C2",
"s#	c #2B82C5",
"t#	c #2985C9",
"u#	c #467FB7",
"v#	c #B9BDC0",
"w#	c #B6BBC2",
"x#	c #B0B9C4",
"y#	c #98ADC2",
"z#	c #95AABF",
"A#	c #8EA3BB",
"B#	c #98AABC",
"C#	c #B0B7BF",
"D#	c #B4B9C1",
"E#	c #B3B8C0",
"F#	c #B4B8C0",
"G#	c #B8BCC0",
"H#	c #8CA0B6",
"I#	c #195CA1",
"J#	c #11579A",
"K#	c #165A9D",
"L#	c #2A68A5",
"M#	c #4078B0",
"N#	c #5385B4",
"O#	c #548CBC",
"P#	c #4A8ABF",
"Q#	c #3687C6",
"R#	c #2481C8",
"S#	c #2580C4",
"T#	c #5083B3",
"U#	c #B8BBC1",
"V#	c #95ACC2",
"W#	c #0B67B3",
"X#	c #1068B1",
"Y#	c #0E66B1",
"Z#	c #0E65AE",
"`#	c #94A8BA",
" $	c #B3B8BF",
".$	c #B7BBC1",
"+$	c #8EA2B9",
"@$	c #1A5EA1",
"#$	c #11589E",
"$$	c #155B9E",
"%$	c #2868A6",
"&$	c #4E81B4",
"*$	c #518BBD",
"=$	c #4A8DC0",
"-$	c #3B8AC4",
";$	c #2885C7",
">$	c #267DC2",
",$	c #5583B4",
"'$	c #98AEC3",
")$	c #1D79BB",
"!$	c #1476BD",
"~$	c #1575BC",
"{$	c #1873B7",
"]$	c #8BA7BC",
"^$	c #B3B6BE",
"/$	c #B2B6BF",
"($	c #B2B5BE",
"_$	c #91A5BA",
":$	c #1A5FA4",
"<$	c #125AA1",
"[$	c #155EA3",
"}$	c #2868A7",
"|$	c #3D77AF",
"1$	c #4A80B1",
"2$	c #4F8CBE",
"3$	c #478DC2",
"4$	c #3388C5",
"5$	c #2482C6",
"6$	c #1F77C0",
"7$	c #5280B2",
"8$	c #B6B9BF",
"9$	c #B4BAC1",
"0$	c #B3B7C0",
"a$	c #9BB1C4",
"b$	c #237DC0",
"c$	c #1B7BC0",
"d$	c #1A79BF",
"e$	c #1C77BC",
"f$	c #88A4BD",
"g$	c #B2B7BE",
"h$	c #B4B7BE",
"i$	c #B2B6BE",
"j$	c #B6B9C0",
"k$	c #92A5BB",
"l$	c #1C61A5",
"m$	c #155FA5",
"n$	c #1862A7",
"o$	c #296CAB",
"p$	c #3A73AD",
"q$	c #487CAF",
"r$	c #4E8CBF",
"s$	c #3C8AC4",
"t$	c #2682C6",
"u$	c #207FC6",
"v$	c #1D76BE",
"w$	c #4C7EB2",
"x$	c #B5B9C0",
"y$	c #B2B8BE",
"z$	c #B2B7BF",
"A$	c #91B0C6",
"B$	c #227EBF",
"C$	c #1E7BC0",
"D$	c #1D7AC0",
"E$	c #8BA6BD",
"F$	c #B4B6BD",
"G$	c #B6B6BB",
"H$	c #B2B7BD",
"I$	c #95A9BE",
"J$	c #2369AB",
"K$	c #1B65A9",
"L$	c #1E67A9",
"M$	c #3C73AB",
"N$	c #467AAD",
"O$	c #4C8CC0",
"P$	c #3287C5",
"Q$	c #2582C7",
"R$	c #1E7EC5",
"S$	c #217ABE",
"T$	c #4E7EB4",
"U$	c #B8B9BD",
"V$	c #B5B7BD",
"W$	c #B7B7BC",
"X$	c #B4B7BD",
"Y$	c #96B1C5",
"Z$	c #267EC1",
"`$	c #227CC1",
" %	c #237CC1",
".%	c #247EC0",
"+%	c #8DA6BD",
"@%	c #B9B8BE",
"#%	c #B4B8BE",
"$%	c #ACB6C1",
"%%	c #91AABE",
"&%	c #2871B0",
"*%	c #216AAC",
"=%	c #246BAD",
"-%	c #2D6EAC",
";%	c #3A72AA",
">%	c #487DB2",
",%	c #498AC1",
"'%	c #3385C7",
")%	c #2785CA",
"!%	c #217FC7",
"~%	c #237ABF",
"{%	c #3E7AB6",
"]%	c #538DBF",
"^%	c #538EC1",
"/%	c #4F90C2",
"(%	c #5190C2",
"_%	c #478CC4",
":%	c #2B7DC0",
"<%	c #257CC1",
"[%	c #257DC0",
"}%	c #247DC1",
"|%	c #2F7BB5",
"1%	c #377BB3",
"2%	c #367AB1",
"3%	c #3B7BB2",
"4%	c #417DB0",
"5%	c #3675AE",
"6%	c #236DB0",
"7%	c #246EB0",
"8%	c #2872B2",
"9%	c #3275B0",
"0%	c #4074AA",
"a%	c #437AB0",
"b%	c #4086C0",
"c%	c #2E85C6",
"d%	c #2687CC",
"e%	c #2283CA",
"f%	c #207DC5",
"g%	c #2578C0",
"h%	c #2D7CBF",
"i%	c #2C79BD",
"j%	c #2C78B9",
"k%	c #2B76BA",
"l%	c #2D76BA",
"m%	c #2C77B8",
"n%	c #2679BC",
"o%	c #217DC2",
"p%	c #217BC1",
"q%	c #1F75BB",
"r%	c #1E71B7",
"s%	c #1D6FB4",
"t%	c #1F70B4",
"u%	c #1F6FB4",
"v%	c #1F70B3",
"w%	c #2270B4",
"x%	c #2474B6",
"y%	c #2B76B7",
"z%	c #3477B2",
"A%	c #376A9F",
"B%	c #3C81BC",
"C%	c #2F82C1",
"D%	c #2683C8",
"E%	c #2383CA",
"F%	c #2181C9",
"G%	c #227FC6",
"H%	c #227DC5",
"I%	c #237DC5",
"J%	c #237DC3",
"K%	c #227CC3",
"L%	c #247DC3",
"M%	c #237EC3",
"N%	c #207EC2",
"O%	c #1F80C4",
"P%	c #207DC2",
"Q%	c #207ABF",
"R%	c #2078BD",
"S%	c #2077BC",
"T%	c #2178BB",
"U%	c #2278BB",
"V%	c #2278BC",
"W%	c #2378BB",
"X%	c #267ABB",
"Y%	c #2E79B8",
"Z%	c #3474AE",
"`%	c #2B6097",
" &	c #34689C",
".&	c #3576B1",
"+&	c #307AB9",
"@&	c #2B7DBE",
"#&	c #297EC2",
"$&	c #287EC4",
"%&	c #257EC5",
"&&	c #257DC3",
"*&	c #237DC2",
"=&	c #247EC2",
"-&	c #247DC2",
";&	c #287DBF",
">&	c #2C7EBE",
",&	c #297CBE",
"'&	c #247DBF",
")&	c #217BC0",
"!&	c #227ABD",
"~&	c #2479BB",
"{&	c #2477B8",
"]&	c #2377B6",
"^&	c #2576B5",
"/&	c #2776B4",
"(&	c #2876B3",
"_&	c #2A75B3",
":&	c #2D75B3",
"<&	c #3072AD",
"[&	c #326BA3",
"}&	c #2A5689",
"|&	c #0D2036",
"1&	c #285F96",
"2&	c #2D69A2",
"3&	c #2B659C",
"4&	c #2B69A1",
"5&	c #2D6CA4",
"6&	c #2D6BA4",
"7&	c #2B6AA2",
"8&	c #2C6AA3",
"9&	c #2C6AA1",
"0&	c #2F6AA0",
"a&	c #326A9E",
"b&	c #33689A",
"c&	c #306698",
"d&	c #316799",
"e&	c #2E6699",
"f&	c #2D6599",
"g&	c #2D6597",
"h&	c #2A6294",
"i&	c #285D8E",
"j&	c #275A89",
"k&	c #285D8B",
"l&	c #2B5E8F",
"m&	c #2C6294",
"n&	c #34699F",
"o&	c #366BA2",
"p&	c #2C598E",
"q&	c #09172C",
"r&	c #000000",
"s&	c #000205",
"                                                                ",
"                                                                ",
"      . + @ # $ % & * = - ; > , ' ) ! ~ { ] ^ / ( _ : < [       ",
"    } | 1 2 3 4 5 6 7 8 9 0 a b c d e f g h i j k l m n o p     ",
"    q r s t u v w x y z A B C D E F G H I d J K L M N O P Q     ",
"    R S T U V W X Y Z `  ...+.@.#.$.%.&.*.=.-.;.>.,.'.).!.~.    ",
"    {.].^./.(._.:.<.[.}.|.1.2.3.4.5.6.7.8.9.0.a.b.c.d.e.f.g.    ",
"    h.i.j./.k.l.m.C n.o.p.q.r.s.t.u.v.w.x.y.z.A.B.C.D.E.F.G.    ",
"    H.I.J.K.L.M.N.O.P.Q.R.S.T.U.V.W.X.Y.Z.Z.`. +.+++@+#+$+%+    ",
"    &+*+i =+-+;+>+,+<.'+)+!+~+{+]+^+/+(+_+:+<+[+}+|+1+2+3+4+    ",
"    5+6+7+8+9+0+a+b+c+d+e+f+f+f+g+h+i+j+k+l+m+n+o+p+q+r+s+t+    ",
"    u+v+w+x+7+y+z+A+B+C+]+^+h+D+E+F+G+H+I+J+K+L+M+p+N+p+O+P+    ",
"    Q+R+S+T+S+U+V+W+X+Y+y.Z+`+ @.@+@@@#@$@%@&@*@=@-@;@>@,@'@    ",
"    )@!@~@{@]@^@/@(@Z+_@G+:@H+_+<@[@}@J+|@1@2@3@4@5@6@7@8@9@    ",
"    0@a@b@c@d@e@f@g@H+G+h@i@l+I+[@j@J+%@k@l@m@n@o@p@q@r@s@9@    ",
"    t@u@v@d@w@x@y@z@A@B@A@C@|@J+D@E@2@F@F@G@H@I@J@K@L@M@N@O@    ",
"    P@u@Q@R@S@T@%@U@V@W@2@1@1@2@X@Y@Y@n@Z@n@Z@F@`@ #.#+#@###    ",
"    $#%#&#*#=#-#;#>#,#'#Y@,#Y@)#!#~#{#]#^#/#(#_#:#<#[#}#|#1#    ",
"    2#3#4#5#6#7#8#>#9#Z@n@0#Y@a#a#b#c#d#e#f#g#h#i#j#k#l#m#n#    ",
"    o#p#q#r#s#t#u#v#!#(#w#)#x#y#z#A#B#C#D#E#F#G#H#I#J#K#L#M#    ",
"    N#O#P#Q#R#S#T#U#w#e#e#~#V#W#X#Y#Z#`# $ $ $.$+$@$#$$$%$M#    ",
"    &$*$=$-$;$>$,$.$w#E#F#e#'$)$!$~${$]$^$/$($(#_$:$<$[$}$|$    ",
"    1$2$3$4$5$6$7$8$9$0$E#D#a$b$c$d$e$f$g$h$i$j$k$l$m$n$o$p$    ",
"    q$r$s$t$u$v$w$x$y$z$z$ $A$B$C$D$C$E$i$F$G$H$I$J$K$L$B.M$    ",
"    N$O$P$Q$R$S$T$U$V$W$X$(#Y$Z$`$ %.%+%@%#%$%i$%%&%*%=%-%;%    ",
"    >%,%'%)%!%~%{%O#]%^%/%(%_%:%<%[%}%|%1%2%3%4%5%6%7%8%9%0%    ",
"    a%b%c%d%e%f%g%h%i%j%k%l%m%n%`$o%p%q%r%s%t%u%v%w%x%y%z%A%    ",
"    u#B%C%D%E%F%G%H%I%J%K%K%L%M%N%O%P%Q%R%S%T%U%V%W%X%Y%Z%`%    ",
"     &.&+&@&#&$&%&&&*&=&-&;&>&,&'&)&!&~&{&]&^&/&(&_&:&<&[&}&    ",
"    |&1&2&3&4&5&6&7&8&9&0&a&b&c&d&e&f&g&h&i&j&k&l&m&n&o&p&q&    ",
"    r&r&r&s&s&s&r&r&r&r&r&r&r&r&r&r&r&r&r&r&r&r&r&r&r&r&r&r&    ",
"                                                                "};
