/* XPM */
static char * spacefm_root_xpm[] = {
"32 32 713 2",
"  	c None",
". 	c #D95A91",
"+ 	c #DF6198",
"@ 	c #DC5A91",
"# 	c #DB5189",
"$ 	c #D84A81",
"% 	c #D3457A",
"& 	c #D24375",
"* 	c #D04374",
"= 	c #CB4170",
"- 	c #C93E6B",
"; 	c #CA3A68",
"> 	c #C83767",
", 	c #CB386A",
"' 	c #CD386D",
") 	c #CE376D",
"! 	c #CE376E",
"~ 	c #CE376F",
"{ 	c #D03970",
"] 	c #D13D73",
"^ 	c #D34178",
"/ 	c #D5457C",
"( 	c #D64A80",
"_ 	c #D74F83",
": 	c #D8568A",
"< 	c #DE5F93",
"[ 	c #D75B92",
"} 	c #D54C84",
"| 	c #D13570",
"1 	c #CC2962",
"2 	c #C72155",
"3 	c #C61E52",
"4 	c #C21C4B",
"5 	c #BD1940",
"6 	c #B9193C",
"7 	c #B7183A",
"8 	c #B11632",
"9 	c #AE152F",
"0 	c #B0152F",
"a 	c #B41432",
"b 	c #B51333",
"c 	c #B81339",
"d 	c #BB133D",
"e 	c #BC133D",
"f 	c #BD1440",
"g 	c #BD1541",
"h 	c #BD1543",
"i 	c #BD1746",
"j 	c #BE1B47",
"k 	c #BF1F4C",
"l 	c #C02351",
"m 	c #C02756",
"n 	c #C52E5E",
"o 	c #CC386D",
"p 	c #D04F84",
"q 	c #E04C89",
"r 	c #CA2861",
"s 	c #C51D50",
"t 	c #C41949",
"u 	c #C21642",
"v 	c #BD153B",
"w 	c #B61334",
"x 	c #B2132F",
"y 	c #B1112B",
"z 	c #AA1224",
"A 	c #A71223",
"B 	c #AA1123",
"C 	c #AE1128",
"D 	c #B10F2A",
"E 	c #B40E2D",
"F 	c #B81034",
"G 	c #B91138",
"H 	c #BB1139",
"I 	c #BB123B",
"J 	c #BA143D",
"K 	c #B6123C",
"L 	c #B6143C",
"M 	c #B6153F",
"N 	c #B61741",
"O 	c #B81B46",
"P 	c #BA224F",
"Q 	c #C32D5F",
"R 	c #D84D87",
"S 	c #DD4785",
"T 	c #C8255B",
"U 	c #C3194B",
"V 	c #C21644",
"W 	c #C01440",
"X 	c #BA1339",
"Y 	c #B61231",
"Z 	c #AF1129",
"` 	c #A81021",
" .	c #A51320",
"..	c #A71020",
"+.	c #AA0E22",
"@.	c #B10C2A",
"#.	c #C43E68",
"$.	c #B91136",
"%.	c #B9113A",
"&.	c #B80D35",
"*.	c #B70E37",
"=.	c #B61038",
"-.	c #B61238",
";.	c #B7143E",
">.	c #B6153C",
",.	c #B71943",
"'.	c #BB2352",
").	c #D2447B",
"!.	c #D93E7C",
"~.	c #C21F51",
"{.	c #C21848",
"].	c #BF1542",
"^.	c #BE143D",
"/.	c #BA1337",
"(.	c #B3112E",
"_.	c #AF1029",
":.	c #AD1026",
"<.	c #A71121",
"[.	c #A41320",
"}.	c #A50F1D",
"|.	c #AE142B",
"1.	c #CB678C",
"2.	c #D7B0C1",
"3.	c #CA608A",
"4.	c #B70D32",
"5.	c #BF204F",
"6.	c #C96691",
"7.	c #C35D88",
"8.	c #C0446F",
"9.	c #B41135",
"0.	c #B3133A",
"a.	c #B21339",
"b.	c #B3143A",
"c.	c #B5163D",
"d.	c #B91D4B",
"e.	c #CD3D74",
"f.	c #D53C78",
"g.	c #C01D4D",
"h.	c #C01845",
"i.	c #BF1442",
"j.	c #BD133B",
"k.	c #B91235",
"l.	c #B3112C",
"m.	c #AE1129",
"n.	c #AD1126",
"o.	c #A71123",
"p.	c #A4121F",
"q.	c #A90F25",
"r.	c #C25478",
"s.	c #DAB7C6",
"t.	c #D0C1CA",
"u.	c #D2BCC8",
"v.	c #CA5D85",
"w.	c #C52B61",
"x.	c #C6CBD2",
"y.	c #C3C4CD",
"z.	c #BA9EAD",
"A.	c #B20E32",
"B.	c #B21135",
"C.	c #B21237",
"D.	c #B21338",
"E.	c #B21439",
"F.	c #B71A44",
"G.	c #CD3A71",
"H.	c #D33873",
"I.	c #C01D4E",
"J.	c #BF1847",
"K.	c #BF153F",
"L.	c #BB143C",
"M.	c #B81335",
"N.	c #B2112C",
"O.	c #AE112A",
"P.	c #AD1127",
"Q.	c #A61121",
"R.	c #A7152A",
"S.	c #C86E8E",
"T.	c #D5B4C4",
"U.	c #CBCBD1",
"V.	c #C6CAD1",
"W.	c #C3CBD0",
"X.	c #CEC2C9",
"Y.	c #CD7F9F",
"Z.	c #BEC4CC",
"`.	c #BFC3CB",
" +	c #B59BAF",
".+	c #B00E34",
"++	c #B21236",
"@+	c #B21233",
"#+	c #B01237",
"$+	c #B2143A",
"%+	c #B41942",
"&+	c #CA346A",
"*+	c #D03771",
"=+	c #BF1D4C",
"-+	c #BF1848",
";+	c #BF1540",
">+	c #BE153D",
",+	c #B81338",
"'+	c #B2112E",
")+	c #AF112A",
"!+	c #AE1029",
"~+	c #AD1430",
"{+	c #C25275",
"]+	c #D3BCC8",
"^+	c #C9CBD0",
"/+	c #C6CACF",
"(+	c #C4C8CF",
"_+	c #C3C8CE",
":+	c #C3C7CE",
"<+	c #C4C5CC",
"[+	c #BEC2C9",
"}+	c #BDC2C9",
"|+	c #B59BAE",
"1+	c #AF0B2D",
"2+	c #AE0F2E",
"3+	c #AE0F2D",
"4+	c #AE1031",
"5+	c #B01336",
"6+	c #B3173B",
"7+	c #C32D5E",
"8+	c #CF366E",
"9+	c #BF1E4E",
"0+	c #BF1A48",
"a+	c #BF1844",
"b+	c #BF1642",
"c+	c #BB163C",
"d+	c #B61434",
"e+	c #AF122E",
"f+	c #AF142F",
"g+	c #C6577C",
"h+	c #D3C0CB",
"i+	c #C4C9D0",
"j+	c #C4C9CF",
"k+	c #C2C8CF",
"l+	c #C2C7CD",
"m+	c #C0C4CD",
"n+	c #BFC3CC",
"o+	c #BDC3CA",
"p+	c #BEC0C8",
"q+	c #B9A2B1",
"r+	c #AB0D2B",
"s+	c #AC0D2B",
"t+	c #AC0D29",
"u+	c #AC0F2B",
"v+	c #AD102F",
"w+	c #AF1333",
"x+	c #C62A5B",
"y+	c #CE356C",
"z+	c #BE2050",
"A+	c #BD1B4A",
"B+	c #BF1B49",
"C+	c #BD1A44",
"D+	c #B6193E",
"E+	c #B01534",
"F+	c #C14D74",
"G+	c #D2B4C1",
"H+	c #C5C7CD",
"I+	c #C4C7CE",
"J+	c #C1C7CD",
"K+	c #C0C5CD",
"L+	c #BFC5CB",
"M+	c #BFC2CB",
"N+	c #BEC2CB",
"O+	c #BCC2C8",
"P+	c #BCBEC6",
"Q+	c #C4B4C0",
"R+	c #AF1A3C",
"S+	c #AA0C23",
"T+	c #AB0D29",
"U+	c #AB0D27",
"V+	c #AB0D28",
"W+	c #AC1231",
"X+	c #C82D5F",
"Y+	c #CB3269",
"Z+	c #BD2350",
"`+	c #BD1E4C",
" @	c #BD1F4E",
".@	c #BB1F4B",
"+@	c #B21736",
"@@	c #BE3F67",
"#@	c #CEA9BA",
"$@	c #C4C9CD",
"%@	c #C3C5CC",
"&@	c #C2C6CC",
"*@	c #C2C5CB",
"=@	c #C0C4CB",
"-@	c #BFC4CB",
";@	c #BEC3CA",
">@	c #BDC0C9",
",@	c #BDC0C8",
"'@	c #BCC0C8",
")@	c #BABFC7",
"!@	c #BEBFC7",
"~@	c #BA91AE",
"{@	c #B21A40",
"]@	c #AA0B21",
"^@	c #AA0C26",
"/@	c #A90D25",
"(@	c #AE1232",
"_@	c #C72C5D",
":@	c #C52E60",
"<@	c #BC2451",
"[@	c #BC2250",
"}@	c #B9224E",
"|@	c #B31636",
"1@	c #BA3056",
"2@	c #CCA2B5",
"3@	c #C2C7CC",
"4@	c #BFC4CC",
"5@	c #BEC2CC",
"6@	c #BEC2CA",
"7@	c #BCC1CA",
"8@	c #BCC1C9",
"9@	c #BBBFC9",
"0@	c #BBBFC7",
"a@	c #BABEC6",
"b@	c #B9BDC6",
"c@	c #B9BDC5",
"d@	c #C0C1C6",
"e@	c #C293A8",
"f@	c #A80C1F",
"g@	c #A70A19",
"h@	c #A90C24",
"i@	c #AC1333",
"j@	c #C52B5B",
"k@	c #C32E5F",
"l@	c #BB2550",
"m@	c #BB234F",
"n@	c #B92351",
"o@	c #B3183C",
"p@	c #BA3057",
"q@	c #C798AE",
"r@	c #C0C0C8",
"s@	c #BDC2CA",
"t@	c #BDC1CA",
"u@	c #BDC1C9",
"v@	c #BBBEC8",
"w@	c #B9BEC5",
"x@	c #B9BDC4",
"y@	c #B9BDC3",
"z@	c #B7BBC3",
"A@	c #C5BCC3",
"B@	c #C36F91",
"C@	c #A8102B",
"D@	c #A60B21",
"E@	c #AE1434",
"F@	c #C32E5E",
"G@	c #BA2652",
"H@	c #B8244F",
"I@	c #B4193C",
"J@	c #B7284E",
"K@	c #CA9BAE",
"L@	c #C2BFC4",
"M@	c #BDBFC8",
"N@	c #BCBFC7",
"O@	c #BBC0C7",
"P@	c #BCBFC6",
"Q@	c #BBBFC6",
"R@	c #BABDC6",
"S@	c #B8BCC4",
"T@	c #B8BBC3",
"U@	c #B9BBC3",
"V@	c #BABAC2",
"W@	c #B0A6B4",
"X@	c #B95F83",
"Y@	c #B52A51",
"Z@	c #A40919",
"`@	c #AC1437",
" #	c #C52C5B",
".#	c #C43160",
"+#	c #BA2753",
"@#	c #B71E48",
"##	c #B11435",
"$#	c #CD7198",
"%#	c #BDA4B8",
"&#	c #BBBCC5",
"*#	c #BBBEC6",
"=#	c #B9BEC6",
"-#	c #BABEC5",
";#	c #B8BDC4",
">#	c #B7BCC4",
",#	c #B7BCC3",
"'#	c #B56B85",
")#	c #A70418",
"!#	c #A30612",
"~#	c #A4091B",
"{#	c #C22956",
"]#	c #C43061",
"^#	c #BD2756",
"/#	c #BD1845",
"(#	c #B21532",
"_#	c #B52C4C",
":#	c #B63558",
"<#	c #BA5B7F",
"[#	c #B9B7C0",
"}#	c #B7BCC5",
"|#	c #B7BDC5",
"1#	c #B6BCC3",
"2#	c #B5BBC2",
"3#	c #B7BBC2",
"4#	c #B6BBC3",
"5#	c #B5BAC2",
"6#	c #B5BAC3",
"7#	c #B5B9C2",
"8#	c #B6BAC1",
"9#	c #AD728B",
"0#	c #A5091F",
"a#	c #A5091B",
"b#	c #A50A1F",
"c#	c #AB1333",
"d#	c #BF2652",
"e#	c #C33060",
"f#	c #BD2B5B",
"g#	c #C01A4D",
"h#	c #BC1545",
"i#	c #BE1340",
"j#	c #BC133E",
"k#	c #B82F52",
"l#	c #B9B5BF",
"m#	c #B7BDC4",
"n#	c #B6BBC4",
"o#	c #B6BDC5",
"p#	c #BCBFC3",
"q#	c #BDBFC4",
"r#	c #BBBFC5",
"s#	c #B8BDC2",
"t#	c #B4BBC1",
"u#	c #B5BAC1",
"v#	c #B5B9C1",
"w#	c #B4B9C0",
"x#	c #B7BCC2",
"y#	c #A77E95",
"z#	c #A40A22",
"A#	c #A30919",
"B#	c #A50A20",
"C#	c #AA1230",
"D#	c #BA2149",
"E#	c #BF2E5D",
"F#	c #BF2B5D",
"G#	c #C12055",
"H#	c #C4134C",
"I#	c #C7134D",
"J#	c #CA124F",
"K#	c #BB2D52",
"L#	c #BAB6BD",
"M#	c #B5BCC2",
"N#	c #B6BBC2",
"O#	c #B6BCC4",
"P#	c #BFA0B3",
"Q#	c #C27498",
"R#	c #BC7798",
"S#	c #B17797",
"T#	c #B283A0",
"U#	c #BD9BAD",
"V#	c #B3BBC2",
"W#	c #B3B8C0",
"X#	c #B4B8C0",
"Y#	c #B7BDC1",
"Z#	c #A98599",
"`#	c #A40B23",
" $	c #A10817",
".$	c #A4091E",
"+$	c #AA1233",
"@$	c #B61D46",
"#$	c #BB2B56",
"$$	c #C02C5F",
"%$	c #C1255B",
"&$	c #C71954",
"*$	c #C9104A",
"=$	c #C6114A",
"-$	c #B63256",
";$	c #B8B5BE",
">$	c #B6BCC2",
",$	c #C8708F",
"'$	c #B7022B",
")$	c #B7052D",
"!$	c #B50429",
"~$	c #B40228",
"{$	c #C07790",
"]$	c #B2BAC1",
"^$	c #B3B8BF",
"/$	c #AE839A",
"($	c #A50A23",
"_$	c #A5081A",
":$	c #A6091F",
"<$	c #AB1231",
"[$	c #B61D44",
"}$	c #BA2751",
"|$	c #C12B5E",
"1$	c #C3255D",
"2$	c #C61B58",
"3$	c #C81250",
"4$	c #C51147",
"5$	c #B83257",
"6$	c #BAB2BC",
"7$	c #CA7694",
"8$	c #BE0C42",
"9$	c #BF0A3D",
"0$	c #BF0A3C",
"a$	c #BA093B",
"b$	c #BF6D8E",
"c$	c #B1B9C0",
"d$	c #B2B6BF",
"e$	c #B2B5BE",
"f$	c #B67F95",
"g$	c #A90A25",
"h$	c #A8091D",
"i$	c #A90922",
"j$	c #AD1132",
"k$	c #B51C42",
"l$	c #B82550",
"m$	c #C1295E",
"n$	c #C4235E",
"o$	c #C71855",
"p$	c #C8104D",
"q$	c #C20E40",
"r$	c #B7B3BC",
"s$	c #B4BAC1",
"t$	c #B3B7C0",
"u$	c #B4BAC2",
"v$	c #C97898",
"w$	c #C30E47",
"x$	c #C30C43",
"y$	c #C20C42",
"z$	c #BF0B40",
"A$	c #C56084",
"B$	c #B0BAC1",
"C$	c #B4B7BE",
"D$	c #B2B6BE",
"E$	c #B38599",
"F$	c #AB0927",
"G$	c #AB0922",
"H$	c #AD0A27",
"I$	c #B01235",
"J$	c #B3193E",
"K$	c #B5234C",
"L$	c #C2285E",
"M$	c #C51C59",
"N$	c #C8114D",
"O$	c #C70F47",
"P$	c #C10D3E",
"Q$	c #B62D50",
"R$	c #B8B0BB",
"S$	c #B2B8BE",
"T$	c #B2B7BF",
"U$	c #B3B9C0",
"V$	c #C77298",
"W$	c #C10D47",
"X$	c #C30D43",
"Y$	c #C46486",
"Z$	c #B4B6BD",
"`$	c #B6B6BB",
" %	c #B1B9BE",
".%	c #B7859D",
"+%	c #B20D31",
"@%	c #AE0B2C",
"#%	c #AF0C2E",
"$%	c #B11235",
"%%	c #B31B3F",
"&%	c #B42148",
"*%	c #C3275D",
"=%	c #C61753",
"-%	c #C8114C",
";%	c #C60D47",
">%	c #C10E42",
",%	c #B92D51",
"'%	c #BCACB6",
")%	c #B5B4BC",
"!%	c #B6B5BC",
"~%	c #B7B4BE",
"{%	c #C97196",
"]%	c #C31049",
"^%	c #C30F45",
"/%	c #C31045",
"(%	c #C20F47",
"_%	c #C3688A",
":%	c #B8B3BC",
"<%	c #B5B0BC",
"[%	c #AEADBD",
"}%	c #B5AFBB",
"|%	c #BD7595",
"1%	c #B5103A",
"2%	c #B20F32",
"3%	c #B31034",
"4%	c #B2193E",
"5%	c #BA234C",
"6%	c #C3245A",
"7%	c #C91752",
"8%	c #CB114F",
"9%	c #C70F48",
"0%	c #C21043",
"a%	c #BA1D47",
"b%	c #BD3664",
"c%	c #BE3766",
"d%	c #C13665",
"e%	c #BE386B",
"f%	c #C33466",
"g%	c #C6275E",
"h%	c #C21348",
"i%	c #C31145",
"j%	c #C31146",
"k%	c #C41047",
"l%	c #BA1C48",
"m%	c #B92549",
"n%	c #B42449",
"o%	c #B5274C",
"p%	c #B6274D",
"q%	c #B31E42",
"r%	c #B41036",
"s%	c #B61037",
"t%	c #B51641",
"u%	c #B11D40",
"v%	c #B72048",
"w%	c #C21E55",
"x%	c #C81551",
"y%	c #CB1152",
"z%	c #C90F4D",
"A%	c #C60F46",
"B%	c #C21141",
"C%	c #C21447",
"D%	c #C01443",
"E%	c #BD1443",
"F%	c #BD1341",
"G%	c #BC1443",
"H%	c #BF1144",
"I%	c #C40F46",
"J%	c #C30F43",
"K%	c #BE0D3E",
"L%	c #BA0D39",
"M%	c #B90C37",
"N%	c #B80D39",
"O%	c #B80D38",
"P%	c #B80E37",
"Q%	c #B80F38",
"R%	c #BA103E",
"S%	c #BA1441",
"T%	c #B61743",
"U%	c #A91935",
"V%	c #BD214C",
"W%	c #BF1B4E",
"X%	c #C3154E",
"Y%	c #C9114C",
"Z%	c #CA104C",
"`%	c #C80F4A",
" &	c #C70F45",
".&	c #C71046",
"+&	c #C51047",
"@&	c #C50F44",
"#&	c #C40F44",
"$&	c #C40F47",
"%&	c #C50D48",
"&&	c #C20F43",
"*&	c #C00F40",
"=&	c #BF0F40",
"-&	c #BF1041",
";&	c #B31740",
">&	c #A01228",
",&	c #A51833",
"'&	c #B51742",
")&	c #BC1647",
"!&	c #C11449",
"~&	c #C41249",
"{&	c #C61249",
"]&	c #C71148",
"^&	c #C51145",
"/&	c #C41046",
"(&	c #C51046",
"_&	c #C41048",
":&	c #C21247",
"<&	c #C0144A",
"[&	c #C11246",
"}&	c #C21146",
"|&	c #C21045",
"1&	c #C01043",
"2&	c #BF1044",
"3&	c #BB1040",
"4&	c #BA0F40",
"5&	c #B9103F",
"6&	c #B91141",
"7&	c #B61241",
"8&	c #B71340",
"9&	c #B71440",
"0&	c #B2153D",
"a&	c #A91536",
"b&	c #941525",
"c&	c #3F100C",
"d&	c #A11228",
"e&	c #A5122D",
"f&	c #A91130",
"g&	c #AD1336",
"h&	c #AD1334",
"i&	c #AB1233",
"j&	c #AA1333",
"k&	c #A91434",
"l&	c #A71535",
"m&	c #A41632",
"n&	c #A11531",
"o&	c #A31532",
"p&	c #A31430",
"q&	c #A21330",
"r&	c #A1132E",
"s&	c #9F112A",
"t&	c #981125",
"u&	c #941123",
"v&	c #971026",
"w&	c #9A1227",
"x&	c #9E132B",
"y&	c #A91633",
"z&	c #AB1735",
"A&	c #9A1526",
"B&	c #350F09",
"C&	c #000000",
"D&	c #000205",
"                                                                ",
"                                                                ",
"      . + @ # $ % & * = - ; > , ' ) ! ~ { ] ^ / ( _ : < [       ",
"    } | 1 2 3 4 5 6 7 8 9 0 a b c d e f g h i j k l m n o p     ",
"    q r s t u v w x y z A B C D E F G H I J K L M N O P Q R     ",
"    S T U V W X Y y Z `  ...+.@.#.$.F %.&.*.=.-.;.>.>.,.'.).    ",
"    !.~.{.].^./.(._.:.<.[.}.|.1.2.3.4.5.6.7.8.9.0.a.b.c.d.e.    ",
"    f.g.h.i.j.k.l.m.n.o.p.q.r.s.t.u.v.w.x.y.z.A.B.C.D.E.F.G.    ",
"    H.I.J.K.L.M.N.O.P.Q.R.S.T.U.V.W.X.Y.Z.`. +.+++@+#+$+%+&+    ",
"    *+=+-+;+>+,+'+)+!+~+{+]+^+/+(+_+:+<+[+}+|+1+2+3+4+5+6+7+    ",
"    8+9+0+a+b+c+d+e+f+g+h+i+j+j+k+l+m+n+o+p+q+r+s+t+u+v+w+x+    ",
"    y+z+A+B+0+C+D+E+F+G+H+I+l+J+K+L+M+N+O+P+Q+R+S+T+U+V+W+X+    ",
"    Y+Z+`+ @`+.@+@@@#@$@%@&@*@=@-@;@>@,@'@)@!@~@{@]@^@/@(@_@    ",
"    :@<@[@[@}@|@1@2@3@4@M+5@N+6@7@8@9@0@a@b@c@d@e@f@g@h@i@j@    ",
"    k@l@m@n@o@p@q@r@N+M+s@t@u@O+8@v@0@)@w@x@y@z@A@B@C@D@E@j@    ",
"    F@G@H@I@J@K@L@M@N@O@N@P@a@0@Q@R@c@S@S@T@U@V@W@X@Y@Z@`@ #    ",
"    .#+#@###$#%#&#*#=#-#c@b@b@c@;#>#>#z@,#z@,#U@'#)#!#~#E@{#    ",
"    ]#^#/#(#_#:#<#[#}#|#>#}#>#1#2#3#4#5#6#7#8#8#9#0#a#b#c#d#    ",
"    e#f#g#h#i#j#k#l#m#,#z@n#o#p#q#r#s#t#u#v#w#x#y#z#A#B#C#D#    ",
"    E#F#G#H#I#J#K#L#M#8#N#O#P#Q#R#S#T#U#V#W#X#Y#Z#`# $.$+$@$    ",
"    #$$$%$&$*$=$-$;$>$u#u#1#,$'$)$!$~${$]$^$^$>$/$($_$:$<$[$    ",
"    }$|$1$2$3$4$5$6$N#W#X#u#7$8$9$0$a$b$c$d$e$2#f$g$h$i$j$k$    ",
"    l$m$n$o$p$q$-$r$s$t$W#u$v$w$x$y$z$A$B$C$D$u#E$F$G$H$I$J$    ",
"    K$L$M$N$O$P$Q$R$S$T$T$U$V$W$X$X$x$Y$B$Z$`$ %.%+%@%#%$%%%    ",
"    &%*%=%-%;%>%,%'%)%!%D$~%{%]%^%/%(%_%:%<%[%}%|%1%2%3%D.4%    ",
"    5%6%7%8%9%0%a%b%c%d%e%f%g%h%i%j%k%l%m%n%o%p%q%r%s%K t%u%    ",
"    v%w%x%y%z%A%B%C%D%E%F%g G%H%/%I%J%K%L%M%N%O%P%Q%R%S%T%U%    ",
"    V%W%X%Y%Z%`%9% &.&+&@&#&+&+&$&%&I%&&*&=&=&=&=&-&H%h#;&>&    ",
"    ,&'&)&!&~&{&]&^&/&(&_&:&<&[&}&|&1&2&3&4&5&6&7&8&9&0&a&b&    ",
"    c&d&<$e&f&g&h&i&i@j&k&l&m&n&o&p&q&r&s&t&u&v&w&x&y&z&A&B&    ",
"    C&C&C&D&D&D&C&C&C&C&C&C&C&C&C&C&C&C&C&C&C&C&C&C&C&C&C&C&    ",
"                                                                "};
