/* XPM */
static char * spacefm_find_xpm[] = {
"32 32 735 2",
"  	c None",
". 	c #86B4D9",
"+ 	c #8CBAE1",
"@ 	c #86B4DE",
"# 	c #7DAFDE",
"$ 	c #76A9DA",
"% 	c #6FA2D4",
"& 	c #699CD2",
"* 	c #699ACE",
"= 	c #6998CA",
"- 	c #6793C7",
"; 	c #6190C6",
"> 	c #5D90C5",
", 	c #6194CA",
"' 	c #6196CB",
") 	c #5F96CC",
"! 	c #5F98CC",
"~ 	c #6099CC",
"{ 	c #6399CF",
"] 	c #679CD0",
"^ 	c #6BA0D3",
"/ 	c #70A3D4",
"( 	c #76A6D6",
"_ 	c #7BA9D7",
": 	c #81ADD9",
"< 	c #8AB4DE",
"[ 	c #87B2D6",
"} 	c #7BACD6",
"| 	c #5F9BD2",
"1 	c #4F90CB",
"2 	c #4486C6",
"3 	c #3F83C4",
"4 	c #3A7CBF",
"5 	c #3072B7",
"6 	c #83A3C1",
"7 	c #A7B3C1",
"8 	c #939DAA",
"9 	c #939CA9",
"0 	c #A7B0BE",
"a 	c #8CA4BD",
"b 	c #2C6AAE",
"c 	c #2C70B5",
"d 	c #2A72B6",
"e 	c #2B73B7",
"f 	c #2D75B9",
"g 	c #2E76B9",
"h 	c #3077B9",
"i 	c #357ABB",
"j 	c #3C7BBC",
"k 	c #427EBC",
"l 	c #4781BD",
"m 	c #4D85BE",
"n 	c #578AC2",
"o 	c #6197CA",
"p 	c #7DABD0",
"q 	c #7BB3E5",
"r 	c #4F8FC9",
"s 	c #3F83C3",
"t 	c #377EC2",
"u 	c #347AC0",
"v 	c #5686B6",
"w 	c #9B9D9B",
"x 	c #39434B",
"y 	c #081E31",
"z 	c #0C283E",
"A 	c #0B263C",
"B 	c #05192A",
"C 	c #323A42",
"D 	c #979595",
"E 	c #4477AD",
"F 	c #286CB3",
"G 	c #256FB6",
"H 	c #2670B7",
"I 	c #2872B7",
"J 	c #2A71B2",
"K 	c #2D71B1",
"L 	c #2F72B1",
"M 	c #3474B2",
"N 	c #3C78B4",
"O 	c #457FB6",
"P 	c #558CBE",
"Q 	c #7CAFDB",
"R 	c #75AFE0",
"S 	c #4A8AC7",
"T 	c #387EC1",
"U 	c #2E77BE",
"V 	c #4380BB",
"W 	c #5A5C5E",
"X 	c #4D6373",
"Y 	c #7B9BB3",
"Z 	c #9CB5C9",
"` 	c #89A7BF",
" .	c #7196B6",
"..	c #5E89AE",
"+.	c #426B8D",
"@.	c #2D4254",
"#.	c #49494B",
"$.	c #98A3AF",
"%.	c #216AB4",
"&.	c #2B72B4",
"*.	c #2970B3",
"=.	c #2770B2",
"-.	c #286EB1",
";.	c #2B6DAD",
">.	c #2A6EAE",
",.	c #2D70B0",
"'.	c #3172B1",
").	c #3976B3",
"!.	c #4881B7",
"~.	c #73A7D3",
"{.	c #6DA8DB",
"].	c #4284C0",
"^.	c #367CBF",
"/.	c #6995BF",
"(.	c #6C6D6D",
"_.	c #5D7E96",
":.	c #D3DEE7",
"<.	c #D2D6D8",
"[.	c #AAB6BF",
"}.	c #8BA3B5",
"|.	c #7898B4",
"1.	c #5F8EB8",
"2.	c #5792C6",
"3.	c #518AC0",
"4.	c #284F78",
"5.	c #4E525B",
"6.	c #8C9BAD",
"7.	c #3371AE",
"8.	c #3170AC",
"9.	c #2D6DAB",
"0.	c #2C6BAA",
"a.	c #2769AB",
"b.	c #276AAA",
"c.	c #2A6DAC",
"d.	c #2D70AF",
"e.	c #3271B0",
"f.	c #407DB5",
"g.	c #6B9FCE",
"h.	c #69A4D7",
"i.	c #3E82BF",
"j.	c #4A7EAA",
"k.	c #787E82",
"l.	c #5B7D96",
"m.	c #DFE6EC",
"n.	c #D6DADD",
"o.	c #B7C0C7",
"p.	c #A1AFBC",
"q.	c #7E9FBC",
"r.	c #4383BF",
"s.	c #3983C9",
"t.	c #3880C6",
"u.	c #3579BF",
"v.	c #326EB5",
"w.	c #113765",
"x.	c #63656B",
"y.	c #5075A4",
"z.	c #2F6FAE",
"A.	c #2969A9",
"B.	c #2869A9",
"C.	c #2668A9",
"D.	c #296BAB",
"E.	c #2C6EAC",
"F.	c #2E6EAD",
"G.	c #3B77B2",
"H.	c #679ECE",
"I.	c #65A0D4",
"J.	c #327AB9",
"K.	c #7D8F9D",
"L.	c #466784",
"M.	c #6586A2",
"N.	c #CED1D5",
"O.	c #C5CDD2",
"P.	c #AAB6C1",
"Q.	c #98AAB9",
"R.	c #6191BC",
"S.	c #4287C8",
"T.	c #4285C4",
"U.	c #4081BF",
"V.	c #3D7BB8",
"W.	c #3972B2",
"X.	c #366AAC",
"Y.	c #233754",
"Z.	c #768496",
"`.	c #316BA8",
" +	c #2E6EAC",
".+	c #2A6AA9",
"++	c #296AA9",
"@+	c #2568A9",
"#+	c #2769A9",
"$+	c #2A6CAA",
"%+	c #2F6FAC",
"&+	c #3775B0",
"*+	c #6098C9",
"=+	c #649ED3",
"-+	c #26639A",
";+	c #939BA2",
">+	c #4E759A",
",+	c #D0DCE5",
"'+	c #678092",
")+	c #B2BCC4",
"!+	c #A2B1BD",
"~+	c #8FA5B8",
"{+	c #6595C0",
"]+	c #518BC1",
"^+	c #4F89BE",
"/+	c #4D85BA",
"(+	c #4A80B5",
"_+	c #467AAE",
":+	c #4173AC",
"<+	c #305387",
"[+	c #808286",
"}+	c #3F6FA8",
"|+	c #3372AE",
"1+	c #2E6DAB",
"2+	c #2767A8",
"3+	c #2466A7",
"4+	c #2565A7",
"5+	c #2668A8",
"6+	c #2C6CAB",
"7+	c #3470AD",
"8+	c #568EC1",
"9+	c #629DD1",
"0+	c #3C6588",
"a+	c #7F8A95",
"b+	c #829DB9",
"c+	c #E9EAEB",
"d+	c #ACC1CF",
"e+	c #6C879C",
"f+	c #98AAB8",
"g+	c #849FB5",
"h+	c #749DBD",
"i+	c #6091BD",
"j+	c #5F8FBA",
"k+	c #5D8CB6",
"l+	c #5B88B2",
"m+	c #5683AD",
"n+	c #4F7BAB",
"o+	c #3F649D",
"p+	c #8A8D94",
"q+	c #4F75A2",
"r+	c #3371AD",
"s+	c #2768A8",
"t+	c #2567A8",
"u+	c #2465A7",
"v+	c #2667A7",
"w+	c #2E6AA9",
"x+	c #528BC3",
"y+	c #6099CF",
"z+	c #456681",
"A+	c #7F8B9A",
"B+	c #94AAC2",
"C+	c #DBDEE1",
"D+	c #C6CDD4",
"E+	c #A4B8C7",
"F+	c #7F98AE",
"G+	c #86A0B5",
"H+	c #87A5BD",
"I+	c #749ABC",
"J+	c #7398BA",
"K+	c #7196B7",
"L+	c #6E93B4",
"M+	c #6990B2",
"N+	c #6088AE",
"O+	c #4E71A8",
"P+	c #979DA8",
"Q+	c #54759B",
"R+	c #3471AE",
"S+	c #2768AA",
"T+	c #2868A8",
"U+	c #2566A7",
"V+	c #2365A6",
"W+	c #2162A5",
"X+	c #2968A6",
"Y+	c #558FC6",
"Z+	c #5D97CC",
"`+	c #30516D",
" @	c #939BA7",
".@	c #97ACC7",
"+@	c #D5D9DD",
"@@	c #C2CAD1",
"#@	c #B4BEC8",
"$@	c #9FB1C1",
"%@	c #94A9B9",
"&@	c #9BB0C1",
"*@	c #8CA9C0",
"=@	c #8AA7BE",
"-@	c #87A5BE",
";@	c #84A3BB",
">@	c #7DA1B8",
",@	c #7194B7",
"'@	c #5E7EB3",
")@	c #A8ACB3",
"!@	c #52739C",
"~@	c #3571AE",
"{@	c #2F6EAC",
"]@	c #296AAA",
"^@	c #2567A9",
"/@	c #2265A7",
"(@	c #2062A5",
"_@	c #2B67A7",
":@	c #548DC4",
"<@	c #5790C5",
"[@	c #062D52",
"}@	c #A6A9AD",
"|@	c #8FA6C9",
"1@	c #D2D7DE",
"2@	c #C9D0D6",
"3@	c #BDC6CE",
"4@	c #A9B9C5",
"5@	c #A8B9C4",
"6@	c #AFBFC9",
"7@	c #A5B9C8",
"8@	c #A4B9C7",
"9@	c #A0B8C7",
"0@	c #9BB8C6",
"a@	c #91B2C3",
"b@	c #7E9FC3",
"c@	c #7792C3",
"d@	c #ACADAE",
"e@	c #466D9C",
"f@	c #3573AE",
"g@	c #2466A8",
"h@	c #2164A6",
"i@	c #2063A5",
"j@	c #2B68A7",
"k@	c #548CC2",
"l@	c #588FC3",
"m@	c #0D3F72",
"n@	c #7A7E81",
"o@	c #98ADD1",
"p@	c #C2D3E1",
"q@	c #CCDADF",
"r@	c #C4D4DA",
"s@	c #B9CDD3",
"t@	c #BDCCD2",
"u@	c #C2D1D6",
"v@	c #BDCED6",
"w@	c #BBCED6",
"x@	c #B7CED5",
"y@	c #AECDD5",
"z@	c #A0C1D5",
"A@	c #83A2D3",
"B@	c #A4B6D8",
"C@	c #8F959D",
"D@	c #34649D",
"E@	c #3472AE",
"F@	c #3070AD",
"G@	c #2B6BAA",
"H@	c #2366A8",
"I@	c #2163A5",
"J@	c #2C69A8",
"K@	c #588DC2",
"L@	c #2D73B1",
"M@	c #1E3043",
"N@	c #CFD2D2",
"O@	c #A7BFEC",
"P@	c #C3DBED",
"Q@	c #C9E4EB",
"R@	c #C9E6E9",
"S@	c #CFE7E9",
"T@	c #D5E9EA",
"U@	c #D2E8EA",
"V@	c #CFE8EA",
"W@	c #C9E6EA",
"X@	c #BDDDEA",
"Y@	c #A6C4EA",
"Z@	c #99B4E9",
"`@	c #DEE1E5",
" #	c #526B89",
".#	c #3872B2",
"+#	c #3473AE",
"@#	c #3270AC",
"##	c #2B6CAA",
"$#	c #2667A9",
"%#	c #2364A6",
"&#	c #1F61A5",
"*#	c #2D6AA6",
"=#	c #548BC1",
"-#	c #5C8EC2",
";#	c #4B83BB",
">#	c #003B69",
",#	c #75797E",
"'#	c #EBF2FD",
")#	c #B4CDFF",
"!#	c #BDDCFE",
"~#	c #CAEBFE",
"{#	c #D4F7FE",
"]#	c #D9FAFE",
"^#	c #D5F6FE",
"/#	c #CAECFE",
"(#	c #B7D7FE",
"_#	c #A6C2FE",
":#	c #EEF6FF",
"<#	c #929497",
"[#	c #35659B",
"}#	c #417AB7",
"|#	c #3D73B0",
"1#	c #3270AD",
"2#	c #2566A8",
"3#	c #2465A6",
"4#	c #1F61A3",
"5#	c #2D68A8",
"6#	c #5087BE",
"7#	c #5B8FC3",
"8#	c #4C84BA",
"9#	c #2672B2",
"0#	c #00233F",
"a#	c #828386",
"b#	c #F0F5FE",
"c#	c #B3CBFF",
"d#	c #A5C4FF",
"e#	c #B6D6FF",
"f#	c #BDDDFF",
"g#	c #BDDEFF",
"h#	c #A5C5FF",
"i#	c #AFC8FF",
"j#	c #F0F7FF",
"k#	c #BFBEC0",
"l#	c #9DA2A9",
"m#	c #7699BD",
"n#	c #437AB5",
"o#	c #3971AD",
"p#	c #2869A8",
"q#	c #2C68A6",
"r#	c #4C84BC",
"s#	c #5C8FC0",
"t#	c #4F86BA",
"u#	c #3B81BE",
"v#	c #1369A6",
"w#	c #01253E",
"x#	c #6D7276",
"y#	c #E5E5E5",
"z#	c #DDE8FF",
"A#	c #BCD1FF",
"B#	c #B2CAFF",
"C#	c #BCD0FF",
"D#	c #DCE8FF",
"E#	c #EAEAE8",
"F#	c #797C82",
"G#	c #4E5760",
"H#	c #DADCDD",
"I#	c #C4C1BF",
"J#	c #BDCCDC",
"K#	c #4279B1",
"L#	c #2866A7",
"M#	c #2667A8",
"N#	c #2263A5",
"O#	c #1E61A2",
"P#	c #2A66A4",
"Q#	c #467DB6",
"R#	c #588BBB",
"S#	c #538ABB",
"T#	c #4285BF",
"U#	c #2D82C4",
"V#	c #1D75B5",
"W#	c #033559",
"X#	c #1C2934",
"Y#	c #5B5D60",
"Z#	c #A3A5A6",
"`#	c #C6C7CB",
" $	c #C8C8CB",
".$	c #A4A5A6",
"+$	c #616263",
"@$	c #2D3B48",
"#$	c #31608A",
"$$	c #1C4E7B",
"%$	c #909294",
"&$	c #848689",
"*$	c #7E7F81",
"=$	c #CFD7DF",
"-$	c #437EB4",
";$	c #1B62A7",
">$	c #1F65A7",
",$	c #1E61A3",
"'$	c #1A5DA0",
")$	c #2A68A4",
"!$	c #407AB2",
"~$	c #5486B7",
"{$	c #548CBC",
"]$	c #4A8ABF",
"^$	c #3587C6",
"/$	c #2481C8",
"($	c #237FC5",
"_$	c #11548A",
":$	c #04345B",
"<$	c #0B2842",
"[$	c #243645",
"}$	c #172E42",
"|$	c #173C5B",
"1$	c #245E8D",
"2$	c #2F7BB8",
"3$	c #1E74BB",
"4$	c #2573B5",
"5$	c #243E54",
"6$	c #A8AAAC",
"7$	c #7B7E81",
"8$	c #87898C",
"9$	c #D1D7DD",
"0$	c #4D8CC0",
"a$	c #1D6BAE",
"b$	c #1E64A6",
"c$	c #195EA2",
"d$	c #185DA0",
"e$	c #2868A5",
"f$	c #4079B2",
"g$	c #4F82B6",
"h$	c #518BBD",
"i$	c #4A8DC0",
"j$	c #3A8AC4",
"k$	c #2783C6",
"l$	c #247BBF",
"m$	c #2876BA",
"n$	c #2079BF",
"o$	c #1F79BF",
"p$	c #287BBE",
"q$	c #2779BD",
"r$	c #277ABD",
"s$	c #2B7CBF",
"t$	c #2077BC",
"u$	c #1677BE",
"v$	c #1475BD",
"w$	c #1F6EA9",
"x$	c #304A5C",
"y$	c #B3B4B6",
"z$	c #8A8C8F",
"A$	c #9C9EA0",
"B$	c #D4D8DC",
"C$	c #6BA9D4",
"D$	c #1D67AC",
"E$	c #155CA1",
"F$	c #155EA3",
"G$	c #2868A7",
"H$	c #3E78B1",
"I$	c #4B81B3",
"J$	c #4F8CBE",
"K$	c #478DC2",
"L$	c #3388C5",
"M$	c #2481C5",
"N$	c #2179C0",
"O$	c #2579BB",
"P$	c #237BBE",
"Q$	c #2879BC",
"R$	c #237CC0",
"S$	c #267CBE",
"T$	c #247ABE",
"U$	c #287BBC",
"V$	c #2078BD",
"W$	c #1D78BE",
"X$	c #1B79BE",
"Y$	c #207ABE",
"Z$	c #1C6A9E",
"`$	c #415765",
" %	c #A4A7A9",
".%	c #9C9FA1",
"+%	c #A3A5A7",
"@%	c #D8DDDF",
"#%	c #4B95CA",
"$%	c #0E62AB",
"%%	c #1862A7",
"&%	c #296CAB",
"*%	c #3B75AF",
"=%	c #497EB1",
"-%	c #4E8CBF",
";%	c #3C8AC4",
">%	c #2682C6",
",%	c #207EC5",
"'%	c #207ABF",
")%	c #227CC0",
"!%	c #287DBF",
"~%	c #247CBF",
"{%	c #227CBF",
"]%	c #257CBF",
"^%	c #257CC0",
"/%	c #2179BD",
"(%	c #1E7ABF",
"_%	c #1E79BF",
":%	c #1F78BD",
"<%	c #2581C5",
"[%	c #11619A",
"}%	c #5A6A76",
"|%	c #B9BABA",
"1%	c #B5B7B9",
"2%	c #C6C7C8",
"3%	c #D9DFE3",
"4%	c #488EC6",
"5%	c #1863A7",
"6%	c #3C74AC",
"7%	c #477BAF",
"8%	c #4C8CC0",
"9%	c #3287C5",
"0%	c #2582C7",
"a%	c #1E7EC5",
"b%	c #1F7BC0",
"c%	c #227ABE",
"d%	c #227BC0",
"e%	c #237BBF",
"f%	c #297EBF",
"g%	c #287EBF",
"h%	c #1F7CC0",
"i%	c #217ABE",
"j%	c #227ABF",
"k%	c #004374",
"l%	c #62707B",
"m%	c #ABADAE",
"n%	c #CACBCD",
"o%	c #CECFD1",
"p%	c #D1D5D7",
"q%	c #3B6F9F",
"r%	c #2A6BA8",
"s%	c #3B74AC",
"t%	c #497EB4",
"u%	c #498AC1",
"v%	c #3385C7",
"w%	c #2785CA",
"x%	c #217FC7",
"y%	c #237ABF",
"z%	c #247ABD",
"A%	c #247DC0",
"B%	c #217CC0",
"C%	c #227BBF",
"D%	c #217BC0",
"E%	c #2179BE",
"F%	c #2177BB",
"G%	c #1B6FB1",
"H%	c #124778",
"I%	c #65696E",
"J%	c #BCBFC0",
"K%	c #E0E1E1",
"L%	c #E7E8E8",
"M%	c #D1D7DC",
"N%	c #4276A5",
"O%	c #3F75AD",
"P%	c #447CB3",
"Q%	c #4086C0",
"R%	c #2E85C6",
"S%	c #2687CC",
"T%	c #2283CA",
"U%	c #207DC5",
"V%	c #2478C0",
"W%	c #2C7CBF",
"X%	c #2E79BD",
"Y%	c #2C79BB",
"Z%	c #217BBF",
"`%	c #227CC1",
" &	c #217DC2",
".&	c #227BC1",
"+&	c #1E76BB",
"@&	c #1E72B4",
"#&	c #2071B3",
"$&	c #07355B",
"%&	c #676F75",
"&&	c #B4B7B8",
"*&	c #E9EAEA",
"=&	c #E1E1E2",
"-&	c #CAD5DF",
";&	c #4674A4",
">&	c #4781BA",
",&	c #3C81BC",
"'&	c #2F82C1",
")&	c #2683C8",
"!&	c #2383CA",
"~&	c #2181C9",
"{&	c #227FC6",
"]&	c #227DC5",
"^&	c #237DC5",
"/&	c #237DC3",
"(&	c #227CC3",
"_&	c #247DC2",
":&	c #237EC3",
"<&	c #207EC2",
"[&	c #1F80C4",
"}&	c #207DC2",
"|&	c #2178BB",
"1&	c #2277BB",
"2&	c #16507E",
"3&	c #5C666E",
"4&	c #C8C9CA",
"5&	c #EBECEC",
"6&	c #D4DADF",
"7&	c #366290",
"8&	c #35699F",
"9&	c #3576B1",
"0&	c #307AB9",
"a&	c #2B7DBE",
"b&	c #297EC2",
"c&	c #287EC4",
"d&	c #257EC5",
"e&	c #257DC3",
"f&	c #237DC2",
"g&	c #247EC2",
"h&	c #2C7EBE",
"i&	c #297CBE",
"j&	c #247DBF",
"k&	c #227ABD",
"l&	c #2479BB",
"m&	c #2477B8",
"n&	c #2377B6",
"o&	c #2576B5",
"p&	c #2776B4",
"q&	c #2875B1",
"r&	c #134168",
"s&	c #545F68",
"t&	c #A0A4A7",
"u&	c #426384",
"v&	c #29568A",
"w&	c #0C1E33",
"x&	c #286098",
"y&	c #2D6AA3",
"z&	c #2C659E",
"A&	c #2B6AA2",
"B&	c #2D6DA5",
"C&	c #2D6CA5",
"D&	c #2C6BA3",
"E&	c #2D6BA4",
"F&	c #2D6BA2",
"G&	c #306BA1",
"H&	c #336B9F",
"I&	c #33699B",
"J&	c #316799",
"K&	c #31689A",
"L&	c #2F679A",
"M&	c #2D669A",
"N&	c #2D6598",
"O&	c #2A6295",
"P&	c #285E8E",
"Q&	c #275A8A",
"R&	c #285E8C",
"S&	c #2B5F90",
"T&	c #2D6295",
"U&	c #2E5B8B",
"V&	c #335F8D",
"W&	c #2A598E",
"X&	c #09162A",
"Y&	c #000000",
"Z&	c #000205",
"                                                                ",
"                                                                ",
"      . + @ # $ % & * = - ; > , ' ) ! ~ { ] ^ / ( _ : < [       ",
"    } | 1 2 3 4 5 6 7 8 9 0 a b c d e f g h i j k l m n o p     ",
"    q r s t u v w x y z A B C D E F G H I e J K L M N O P Q     ",
"    R S T U V W X Y Z `  ...+.@.#.$.%.&.*.=.-.;.>.,.'.).!.~.    ",
"    {.].^./.(._.:.<.[.}.|.1.2.3.4.5.6.7.8.9.0.a.b.c.d.e.f.g.    ",
"    h.i.j.k.l.m.n.o.p.q.r.s.t.u.v.w.x.y.z.A.B.B.C.D.E.F.G.H.    ",
"    I.J.K.L.M.N.O.P.Q.R.S.T.U.V.W.X.Y.Z.`. +.+++@+#+$+%+&+*+    ",
"    =+-+;+>+,+'+)+!+~+{+]+^+/+(+_+:+<+[+}+|+1+2+3+4+5+6+7+8+    ",
"    9+0+a+b+c+d+e+f+g+h+i+j+k+l+m+n+o+p+q+r+9.s+t+3+u+v+w+x+    ",
"    y+z+A+B+C+D+E+F+G+H+I+J+K+L+M+N+O+P+Q+R+6+S+T+U+V+W+X+Y+    ",
"    Z+`+ @.@+@@@#@$@%@&@*@=@-@;@>@,@'@)@!@~@{@]@B.^@/@(@_@:@    ",
"    <@[@}@|@1@2@3@4@5@6@7@8@9@0@a@b@c@d@e@f@ +B.5+g@h@i@j@k@    ",
"    l@m@n@o@p@q@r@s@t@u@v@w@x@y@z@A@B@C@D@E@F@G@C.g@H@I@J@k@    ",
"    K@L@M@N@O@P@Q@R@S@T@U@V@W@X@Y@Z@`@ #.#+#@###$#V+%#&#*#=#    ",
"    -#;#>#,#'#)#!#~#{#]#]#^#/#(#_#:#<#[#}#|#1#.+2#3#3#4#5#6#    ",
"    7#8#9#0#a#b#c#d#e#f#g#e#h#i#j#k#l#m#n#o#1+p#2#2#3#4#q#r#    ",
"    s#t#u#v#w#x#y#z#A#B#B#C#D#E#F#G#H#I#J#K#L#M#2#3+N#O#P#Q#    ",
"    R#S#T#U#V#W#X#Y#Z#`# $.$+$@$#$$$%$&$*$=$-$;$>$I@,$'$)$!$    ",
"    ~${$]$^$/$($_$:$<$[$}$|$1$2$3$4$5$6$7$8$9$0$a$b$c$d$e$f$    ",
"    g$h$i$j$k$l$m$n$o$p$q$r$s$t$u$v$w$x$y$z$A$B$C$D$E$F$G$H$    ",
"    I$J$K$L$M$N$O$P$Q$R$S$T$U$V$W$X$Y$Z$`$ %.%+%@%#%$%%%&%*%    ",
"    =%-%;%>%,%'%T$)%!%~%{%]%^%/%(%_%:%<%[%}%|%1%2%3%4%5%++6%    ",
"    7%8%9%0%a%b%c%d%)%e%f%g%h%d%d%d%i%T$j%k%l%m%n%o%p%q%r%s%    ",
"    t%u%v%w%x%y%z%'%j%d%A%B%b%C%~%A%D%E%F%G%H%I%J%K%L%M%N%O%    ",
"    P%Q%R%S%T%U%V%W%X%Y%j%j%Z%C%`% &.&:%+&@&#&$&%&&&*&=&-&;&    ",
"    >&,&'&)&!&~&{&]&^&/&(&(&_&:&<&[&}&'%V$t$|&1&2&3&4&5&6&7&    ",
"    8&9&0&a&b&c&d&e&f&g&_&!%h&i&j&D%k&l&m&n&o&p&q&r&s&t&u&v&    ",
"    w&x&y&z&A&B&C&D&E&F&G&H&I&J&K&L&M&N&O&P&Q&R&S&T&U&V&W&X&    ",
"    Y&Y&Y&Z&Z&Z&Y&Y&Y&Y&Y&Y&Y&Y&Y&Y&Y&Y&Y&Y&Y&Y&Y&Y&Y&Y&Y&Y&    ",
"                                                                "};
