/* XPM */
static char *thunderbird[] = {
/* columns rows colors chars-per-pixel */
"32 32 256 2 ",
"   c black",
".  c #0D0D0D",
"X  c #121213",
"o  c #16181A",
"O  c #19181B",
"+  c #17171A",
"@  c #1D1D20",
"#  c #1F2326",
"$  c #1D2C3F",
"%  c #232324",
"&  c #362B27",
"*  c #292C30",
"=  c #2E373B",
"-  c #353537",
";  c #33393F",
":  c #30323D",
">  c #453E37",
",  c #653C3F",
"<  c #484234",
"1  c #544637",
"2  c #162642",
"3  c #1F355C",
"4  c #333E43",
"5  c #3D3D47",
"6  c #263B5A",
"7  c #121A6A",
"8  c #162E6E",
"9  c #1C326E",
"0  c #142870",
"q  c #183177",
"w  c #1C3B7E",
"e  c #163578",
"r  c #3E4146",
"t  c #394348",
"y  c #1E437F",
"u  c #27466E",
"i  c #30496D",
"p  c #354165",
"a  c #234575",
"s  c #24467F",
"d  c #335177",
"f  c #4E4E4E",
"g  c #404950",
"h  c #4C4E52",
"j  c #45535A",
"k  c #525252",
"l  c #675D4A",
"z  c #665B56",
"x  c #7A674A",
"c  c #6C6A5D",
"v  c #455266",
"b  c #475969",
"n  c #535966",
"m  c #495C75",
"M  c #52636C",
"N  c #5B6164",
"B  c #4C6179",
"V  c #566972",
"C  c #6D6D6D",
"Z  c #666667",
"A  c #72786D",
"S  c #60747E",
"D  c #826636",
"F  c #9B783F",
"G  c #907347",
"H  c #A07B48",
"J  c #937D60",
"K  c #B5853A",
"L  c #9A825D",
"P  c #B68740",
"I  c #A38758",
"U  c #B89259",
"Y  c #9A8564",
"T  c #928679",
"R  c #A68C6A",
"E  c #AE9667",
"W  c #BB9964",
"Q  c #AA9673",
"!  c #AE9B7C",
"~  c #BA9B74",
"^  c #B09B7A",
"/  c #BFA067",
"(  c #BAA277",
")  c #C89F5A",
"_  c #C69852",
"`  c #C8A15E",
"'  c #C7A366",
"]  c #C7A578",
"[  c #D6B27A",
"{  c #193D89",
"}  c #1B4584",
"|  c #1C4C95",
" . c #1C5697",
".. c #274C84",
"X. c #2A548B",
"o. c #355887",
"O. c #204B90",
"+. c #275698",
"@. c #375F9B",
"#. c #21639F",
"$. c #38649A",
"%. c #2C6CA5",
"&. c #336BA5",
"*. c #3D6AA5",
"=. c #3B6FA9",
"-. c #3160A0",
";. c #3574AB",
":. c #3B7AAE",
">. c #3F7FB1",
",. c #45558D",
"<. c #445F92",
"1. c #475F98",
"2. c #475593",
"3. c #4A668A",
"4. c #456493",
"5. c #43679B",
"6. c #4B639D",
"7. c #456B9C",
"8. c #4F739B",
"9. c #56749C",
"0. c #426EA6",
"q. c #4F6BA4",
"w. c #4274AB",
"e. c #4A79AF",
"r. c #4B72AA",
"t. c #517BAC",
"y. c #5877AA",
"u. c #417FB2",
"i. c #527BB1",
"p. c #6B828D",
"a. c #6A839C",
"s. c #6A889B",
"d. c #718A93",
"f. c #778A97",
"g. c #76909E",
"h. c #5E84A8",
"j. c #4684B5",
"k. c #4D8BB9",
"l. c #4C86B7",
"z. c #5384B6",
"x. c #5B8BB9",
"c. c #558DB9",
"v. c #5593BF",
"b. c #5995BF",
"n. c #6B8BAB",
"m. c #758DA1",
"M. c #7993AC",
"N. c #7A96A9",
"B. c #6184B2",
"V. c #6C8DB5",
"C. c #6588B4",
"Z. c #6593BE",
"A. c #6C93BD",
"S. c #7A96B1",
"D. c #7F9BB5",
"F. c #7799BD",
"G. c #7CA2BD",
"H. c #5795C0",
"J. c #5A97C2",
"K. c #5F9BC3",
"L. c #639DC5",
"P. c #739AC1",
"I. c #7497C0",
"U. c #74A5C8",
"Y. c #7DA6C5",
"T. c #868686",
"R. c #8B8B8B",
"E. c #8C9B90",
"W. c #9D9D9D",
"Q. c gray59",
"!. c #BCAC8A",
"~. c #BFAC84",
"^. c #BCB08D",
"/. c #BAAE90",
"(. c #B9B69F",
"). c #8A9FA9",
"_. c #839AB8",
"`. c #84A2B1",
"'. c #86A4BD",
"]. c #9AACB7",
"[. c #A5A5A5",
"{. c gray67",
"}. c #B4B4B4",
"|. c #BEBEBE",
" X c #C6AD84",
".X c #D4AF83",
"XX c #CAB487",
"oX c #D6B988",
"OX c #CCB993",
"+X c #CCBC9B",
"@X c #D4BB93",
"#X c #D8BF96",
"$X c #E3BF8E",
"%X c #CDC497",
"&X c #D8C294",
"*X c #DAC49B",
"=X c #D6C396",
"-X c #E7C795",
";X c #F5CE99",
":X c #F4D19E",
">X c #CEC9AB",
",X c #DBCCA5",
"<X c #D3CCAC",
"1X c #D8CBA9",
"2X c #DBD1AC",
"3X c #D4D2B3",
"4X c #DEDABC",
"5X c #EED6A6",
"6X c #EED8AD",
"7X c #F6D5A3",
"8X c #F7DAAA",
"9X c #F8DBAC",
"0X c #F4D8A8",
"qX c #E4DAB4",
"wX c #EEDDB3",
"eX c #E5DCB9",
"rX c #F9DFB2",
"tX c #E9E1BB",
"yX c #F9E2B4",
"uX c #F9E5BA",
"iX c #F6E4B9",
"pX c #829EC5",
"aX c #8AA7C3",
"sX c #8CAAC5",
"dX c #8FADC8",
"fX c #85A2C2",
"gX c #97AEC7",
"hX c #91ADC8",
"jX c #81B0CC",
"kX c #9EB6CE",
"lX c #96B9CA",
"zX c #99BBCB",
"xX c #86B5D1",
"cX c #A7B8D1",
"vX c #95C2D9",
"bX c #99C6D8",
"nX c #A1C9DC",
"mX c #B5C4D5",
"MX c #C3C3C3",
"NX c #CDCDCD",
"BX c #C6CCD4",
"VX c #D3D3D3",
"CX c #DDDDDD",
"ZX c #EBE7C6",
"AX c #F3EBC7",
"SX c #F2EECA",
"DX c #F9E9C1",
"FX c #F3F2D1",
"GX c #FEFDDC",
"HX c #FAF9D7",
"JX c #C6D1E1",
"KX c #E4E4E4",
"LX c #ECECEC",
"PX c #F3F3F3",
"IX c gray98",
"UX c None",
/* pixels */
"UXUXUXUXUXUXUXUXUXUXUXUXUXUXUXUXUXUXUXUXUXUXUXUXUXUXUXUXUXUXUXUX",
"UXUXUXUXUXUXUXUXUXUXUXUXUXUXUXUXUXUXUXUXUXUXUXUXUXUXUXUXUXUXUXUX",
"UXUXUXPXUXUXUXIXIXKXUXUXPXIXPXUXUXKXIXIXUXUXUXIXIXCXUXUXPXUXUXUX",
"UXUXKXPXPXLXPXPXPXPXLXLXJXcXIXPXLXPXPXPXPXLXPXPXPXPXLXPXPXLXUXUX",
"UXUXUXKXPXPXPXPXPXPXPXmXV.mX].N.m.a.a.m.BXPXPXPXPXPXPXPXKXUXUXUX",
"UXUXUXNXPXkXhXhXhXhXF.x.h.G.jXU.b.z.:.-.+...9.hXhXsXkXPXNXUXUXUX",
"UXUXNXPXPXdXlXzX'.o.x.jXvXxXU.L.i.=.z.H.v.H.c.x.G.zXdXPXPXNXUXUX",
"UXUXPXLXPXdXzX3.@.3.bXbXxXF.A.t.l.v.H.v.v.L.H.k.:.B.dXPXLXPXUXUX",
"UXUXPXLXLXhX8.0.9 ).vXF.B.I.z.=.l.K.K.b.K.k.b.j.:.&.fXPXLXPXUXUX",
"UXUXT.LXPXV.z.y & nXA.q.pXx.e.*.s 3 w.k.v.l.u.u.;.%.z.LXKXT.UXUX",
"UXUXUXMXLXA.=.< K vX2., P.e.*.+.O.w 2 $.>.;.;.%.=.#.r.LXMXUXUXUX",
"UXUXUXKXLXZ.u H ) pXB._.4.N x z h : o o &.;.&.%.e. .6.LXKXUXUXUX",
"UXUXLXLXLXP.t ' !.mXa.Z P K _ 5XyX7XW D i &.=.&.i.7 2.LXLXPXUXUX",
"UXUXLXLXLXP.c ,X!.f.3X) ` ' yXuXyX8X:X[ > &.t.O.+.7 1.LXLXLXUXUX",
"UXUXMXLXLXG.A HXSX! GXoX[ 5XDX,X*X#X@XoXG 0.0.q { 0 4.LXKXMXUXUX",
"UXUXUXMXLXn.d.GXGXqX+XwX&X,X2XwX6X0X@X] L i } w | q <.LXMXUXUXUX",
"UXUXUXMXLXn.E.FXGXGX X>X2XAXeX+X! J Q @XXX3.7.a $.8 <.LXMXUXUXUX",
"UXUXVXLXKXC.=XtXGXGX<X! eX/.Q Q ~.OX*X#X@Xn.j t.o.w 5.LXLXNXUXUX",
"UXUXLXKXLXV.SXFXGX4XAX^.Y !.OX6XyX9X8X0X(.A - d +.y 7.KXKXLXUXUX",
"UXUXKXKXKX6.T GXZXZXeXeX,XwXyXyX9X8X7X7X:XF 4 $.$.O.o.LXKXKXUXUX",
"UXUX% VXKXq.p %X3XtX<X2XtXuXuXrX8X7X-X7X;XU - s } } 4.CXVX% UXUX",
"UXUXUX{.KXF.$.+ & l ! ,XuXiXyX9X8X7X] ~ ] .X@ 6 X.a 8.MX{.UXUXUX",
"UXUX[.CXKXaX9.6 . o o < E [ *X8X7X$XR L ] z X 2 a 3 B MXCX[.UXUX",
"UXUXKXKXKXsXlXd $ X M * h g 1 x ] -X$X] ~ r . X . . a.VXVXKXUXUX",
"UXUXKXCXKXsXlX`.s.t t d.S j 4 = 5 x I / Z X . # . = aXNXVXKXUXUX",
"UXUXC CXCXaXlX`.`.`.V d.g.p.M V B V V n * . + + # N.aXNXNXC UXUX",
"UXUXUXW.CXgXfXM._.'.M.sX'.G.S.S.M.a.v v v b B a.D.D.gXNXW.UXUXUX",
"UXUXUXMXCXCXCX|.CXCXMXCXCXCXCXCXVX}.R.W.VXCXCXCX|.CXCX|.MXUXUXUX",
"UXUXMXCXVXW.VXVXMXCX{.{.CXCXCXMX}.CX}.CXVX[.VXCX|.CX{.[.CXMXUXUX",
"UXUXk |.f UXf KX|.W.UXUXMXKXVXUXUXW.KXKXk UXk |.CXQ.UXUX}.k UXUX",
"UXUXUXUXUXUXUX    UXUXUX    UXUXUXUX    UXUXUX    UXUXUXUXUXUXUX",
"UXUXUXUXUXUXUXUXUXUXUXUXUXUXUXUXUXUXUXUXUXUXUXUXUXUXUXUXUXUXUXUX"
};
