/* XPM */
static char *Thunar[] = {
/* columns rows colors chars-per-pixel */
"32 32 239 2 ",
"   c black",
".  c #3A3C3C",
"X  c #461515",
"o  c #7D0404",
"O  c #730A02",
"+  c #701212",
"@  c #7D1919",
"#  c #683F0A",
"$  c #703307",
"%  c #6A3C10",
"&  c #752222",
"*  c #7A4807",
"=  c #744A0A",
"-  c #7A4C0A",
";  c #7C5314",
":  c #7E551C",
">  c #7D512B",
",  c #5E4140",
"<  c #4F5251",
"1  c #575452",
"2  c #5A5554",
"3  c #575853",
"4  c #595A57",
"5  c #5C5D5A",
"6  c #644747",
"7  c #635F5F",
"8  c #765858",
"9  c #7D5E5E",
"0  c #726248",
"q  c #60615E",
"w  c #796B52",
"e  c #7B725F",
"r  c #656362",
"t  c #6E6160",
"y  c #676865",
"u  c #6A6967",
"i  c #6D6D6A",
"p  c #7F6363",
"a  c #7D7462",
"s  c #71726F",
"d  c #747672",
"f  c #797A77",
"g  c #7B7D79",
"h  c #840505",
"j  c #8D0303",
"k  c #8E0C03",
"l  c #8A0D0A",
"z  c #970202",
"x  c #811808",
"c  c #881313",
"v  c #801F1F",
"b  c #AF0808",
"n  c #A41414",
"m  c #A71917",
"M  c #A31C1C",
"N  c #B51717",
"B  c #B61E1E",
"V  c #8A250C",
"C  c #9B371A",
"Z  c #A8220E",
"A  c #B6291C",
"S  c #BC331F",
"D  c #802121",
"F  c #8D2626",
"G  c #8E2E2E",
"H  c #932A2A",
"J  c #9D2F2F",
"K  c #9F3030",
"L  c #913937",
"P  c #933B3A",
"I  c #A72020",
"U  c #AC2F2C",
"Y  c #AB3535",
"T  c #A23D3D",
"R  c #B33636",
"E  c #D90F0F",
"W  c #CB110B",
"Q  c #C31817",
"!  c #CE1A1A",
"~  c #D11212",
"^  c #DF1D1D",
"/  c #E51F1F",
"(  c #C12E16",
")  c #DF2B17",
"_  c #E72C1C",
"`  c #E3331C",
"'  c #CA2C23",
"]  c #C93D3D",
"[  c #E82121",
"{  c #EB2824",
"}  c #E73422",
"|  c #EC3022",
" . c #F13A29",
".. c #835813",
"X. c #815819",
"o. c #955D1E",
"O. c #B3431C",
"+. c #8B601C",
"@. c #97691F",
"#. c #814D23",
"$. c #834F2C",
"%. c #875F29",
"&. c #AB472E",
"*. c #AD4D33",
"=. c #926825",
"-. c #9C6E27",
";. c #9D6F28",
":. c #9D722D",
">. c #836534",
",. c #8A6436",
"<. c #A8792F",
"1. c #A17634",
"2. c #AA7B31",
"3. c #B47E3D",
"4. c #C3422C",
"5. c #C0482F",
"6. c #DD4E24",
"7. c #D54629",
"8. c #D75424",
"9. c #F3522D",
"0. c #D9642F",
"q. c #E1682E",
"w. c #F0762D",
"e. c #944141",
"r. c #964847",
"t. c #9D4D4D",
"y. c #9F5858",
"u. c #B24141",
"i. c #A45352",
"p. c #AC5454",
"a. c #A15A5A",
"s. c #BB5555",
"d. c #BF5F5F",
"f. c #917447",
"g. c #A76941",
"h. c #8F6160",
"j. c #956866",
"k. c #8F7574",
"l. c #8B7D7A",
"z. c #A77777",
"x. c #A87C7C",
"c. c #BC7575",
"v. c #B97A7A",
"b. c #C44343",
"n. c #CB4343",
"m. c #C34C4C",
"M. c #CD4C4C",
"N. c #C75555",
"B. c #CE5252",
"V. c #C55B5B",
"C. c #CB5A5A",
"Z. c #D05151",
"A. c #D25B5B",
"S. c #C5744C",
"D. c #C16464",
"F. c #C96363",
"G. c #C36F6F",
"H. c #CC6C6C",
"J. c #D46464",
"K. c #D66B6B",
"L. c #D86E6E",
"P. c #C07373",
"I. c #CD7575",
"U. c #D07777",
"Y. c #D97474",
"T. c #D37D7D",
"R. c #DB7C7C",
"E. c #7F807D",
"W. c #AC8342",
"Q. c #AB854C",
"!. c #B38741",
"~. c #B88A40",
"^. c #BF9046",
"/. c #81827E",
"(. c #8A837E",
"). c #C49955",
"_. c #CDA15E",
"`. c #D3A45B",
"'. c #CAA262",
"]. c #D7A260",
"[. c #E2B46C",
"{. c #E0B57A",
"}. c #E9BE7B",
"|. c #EDC07B",
" X c #848582",
".X c #8B8482",
"XX c #8B8A87",
"oX c #8B8C89",
"OX c #908E8A",
"+X c #8F918E",
"@X c #92928E",
"#X c #969692",
"$X c #979895",
"%X c #999A96",
"&X c #9C9D9A",
"*X c #A09F9A",
"=X c #A1A39E",
"-X c #A5A6A2",
";X c #A7A8A4",
":X c #AAABA7",
">X c #ACAEAA",
",X c #AFB0AC",
"<X c #B1B2AE",
"1X c #B5B6B2",
"2X c #B7B8B4",
"3X c #B9BAB6",
"4X c #BDBDBA",
"5X c #D68787",
"6X c #DC8383",
"7X c #D78888",
"8X c #DD8A8A",
"9X c #D39797",
"0X c #DB9494",
"qX c #DE9A9A",
"wX c #E08F8F",
"eX c #E29494",
"rX c #E49C9C",
"tX c #DDA9A9",
"yX c #E6A4A4",
"uX c #E7AAAA",
"iX c #E9ADAD",
"pX c #E3B3B3",
"aX c #EAB2B2",
"sX c #BFC0BD",
"dX c #C0C1BE",
"fX c #C4C5C2",
"gX c #C6C8C4",
"hX c #C9CAC7",
"jX c #CDCDCA",
"kX c #CFD0CD",
"lX c #D2D2CF",
"zX c #D5D5D3",
"xX c #D9DAD7",
"cX c #DDDDDB",
"vX c #F0C7C7",
"bX c #F1CBCB",
"nX c #F3D1D1",
"mX c #DFE0DD",
"MX c None",
/* pixels */
"MXMXMXMXMXMXMXMXMXMXMXMXMXMXMXMXMXMXMXMXMXMXMXMXMXMXMXMXMXMXMXMX",
"MXMXMXMXMXMXMXMXMXMXMXMXMXMXMXMXMXMXMXMXMXMXMXMXMXMXMXMXMXMXMXMX",
"MXMXMXtXiXiXiXvXnXnXnXnXnXaXiXiXiXiXaXnXnXnXnXnXbXiXiXiXtXMXMXMX",
"MXMX9X6X6X6X6X7XpXaXpXpXpX0X5XT.T.T.0XpXpXpXpXpX8X6X6X6X6X9XMXMX",
"MXMXeX6X6X6XP.4XfXfX4X3X1X<X>X-X&X%X#X#X@X@X@XOX(.c.6X6X6XeXMXMX",
"MXMXwXR.R.R.j.kXdX1X>X,X1X,X:X&X=X:X:X1X=X=X=X=X;Xh.R.R.R.wXMXMX",
"MXMXwXR.R.U.l.&X-X-X%X&XdX;X:X2X4X=X1X4X-X;X<X<X>Xl.R.R.R.wXMXMX",
"MXMXiX6XR.I.OX&X<XzXfX<X<XdX1X2X3XfXhX4X3XhXkX3X<X.XU.R.R.uXMXMX",
"MXMXaXyXeXG.@XsXfXzX4X<X:X>XzXjXfXhX,X1X4XfXlXjXhX@XG.wXyXaXMXMX",
"MXMXaXyXyXx.&XjXhXcXfX,X,X1XhXhXgXfX2X3X3XjXmXzXzX=Xz.yXyXiXMXMX",
"MXMXuXyXyXk.jX4X4X4X1X1X2X2X3XxXzX4XsXsXsXdXfXfXfX1Xp yXyXuXMXMX",
"MXMXyXrXqX.XzXlXjXfX4X1X>X-X&X$X%X$X&X&X+X4X4X,X1X2Xt qXrXuXMXMX",
"MXMXrXrXeXp g f s i y r q 4 4 3 3 4 5 q s hXs f E. X8 0XrXrXMXMX",
"MXMXR.Y.6Xc.s  Xg s d s i i f.W.1.>.i s  Xg /. XoXi v.6XR.R.MXMX",
"MXMXL.J.K.F.6 XXXX< g /./.a '.~.<.:.a  X XoX+X#X+X, F.K.J.K.MXMX",
"MXMXK.J.J.J.t.4 r . . u i w '.~.<.-.0 i u r r 7 1 t.K.J.J.K.MXMX",
"MXMXJ.J.J.J.F.p.p.i.i.a.y.&.q.8.O.o.> a.a.i.p.p.p.F.J.J.J.J.MXMX",
"MXMXJ.A.J.J.K.L.R.R.8X8X5X5.9. ._ Z #.5X8X7X6XY.L.J.J.J.A.J.MXMX",
"MXMXJ.K.Y.6X6X8X8X6X8X6XH.*.4.A Q E x H.6X6X8X8XwX6XR.L.J.J.MXMX",
"MXMXR.R.6XR.6X6X6X6XY.J.C.g.6.{ ~ b k I M T T.6X6XR.6X6XR.R.MXMX",
"MXMXR.Y.R.R.6XR.R.J.A.A.V.0. .' C V O ` ) W c U.R.R.R.R.R.R.MXMX",
"MXMXY.Y.Y.Y.Y.K.C.N.N.V.D.7.4.3.<.=.$ ( k o h H K.Y.R.Y.L.Y.MXMX",
"MXMXL.L.L.K.A.u.B B B m c A `.`.<.@.* h h j z + N.A.L.L.L.L.MXMX",
"MXMXK.K.A.Z.m.S | / / n l S.|.[.^.@.- D & v & P B.B.Z.A.K.K.MXMX",
"MXMXA.Z.M.M.U w.} ^ ! N m {.|.).!.-.- i.d.s.m.M.Z.M.M.M.M.J.MXMX",
"MXMXn.n.n.b.H F F G e.r.r.Q.: : ; = = p.J.J.Z.M.M.M.M.n.n.n.MXMX",
"MXMXn.n.n.n.b.b.b.A.J.A.s.,.:.=.+...# s.J.J.A.n.n.n.n.n.n.n.MXMX",
"MXMXn.] n.] ] n.M.A.C.A.B.P > %.: % L B.A.A.A.M.n.n.n.] ] n.MXMX",
"MXMXY ] ] ] ] ] M.Z.Z.Z.Z.b.R J J R b.Z.Z.Z.Z.M.] ] ] ] ] Y MXMX",
"MXMXX Y ] n.n.Z.A.A.A.A.A.Z.Z.Z.B.B.B.A.A.A.A.A.Z.n.] n.Y X MXMX",
"MXMXMXMX                                                MXMXMXMX",
"MXMXMXMXMXMXMXMXMXMXMXMXMXMXMXMXMXMXMXMXMXMXMXMXMXMXMXMXMXMXMXMX"
};
