/* XPM */
static char * windows_xpm[] = {
"32 32 459 2",
"  	c None",
". 	c #E8E8E8",
"+ 	c #F1F1F1",
"@ 	c #F2F2F2",
"# 	c #DCDCDC",
"$ 	c #E3E3E3",
"% 	c #E9E9E9",
"& 	c #EAEAEA",
"* 	c #EBEBEB",
"= 	c #DEDEDE",
"- 	c #E2E2E2",
"; 	c #CCCCCC",
"> 	c #A1A6AF",
", 	c #969DAA",
"' 	c #A3A8B1",
") 	c #D4D4D4",
"! 	c #E6E6E6",
"~ 	c #E0E0E0",
"{ 	c #0D3275",
"] 	c #0F367C",
"^ 	c #0E337C",
"/ 	c #0E347C",
"( 	c #0F3782",
"_ 	c #3B5E9A",
": 	c #3A5C96",
"< 	c #3A5B96",
"[ 	c #3B5E96",
"} 	c #254885",
"| 	c #A5A9B2",
"1 	c #E4E4E4",
"2 	c #989FAC",
"3 	c #5673AB",
"4 	c #6784B8",
"5 	c #617EB4",
"6 	c #23478D",
"7 	c #4A6BA3",
"8 	c #7592BE",
"9 	c #7793C0",
"0 	c #718DBA",
"a 	c #99A0AC",
"b 	c #E5E5E5",
"c 	c #9AA1AE",
"d 	c #6481B7",
"e 	c #5373AE",
"f 	c #365797",
"g 	c #365999",
"h 	c #7491BE",
"i 	c #6A8ABA",
"j 	c #7592BF",
"k 	c #375994",
"l 	c #9BA2AE",
"m 	c #DADADA",
"n 	c #9BA2AF",
"o 	c #627FB5",
"p 	c #5071AD",
"q 	c #2F5395",
"r 	c #6A88B9",
"s 	c #6887B9",
"t 	c #355694",
"u 	c #9CA3AF",
"v 	c #E1E1E1",
"w 	c #DFDFDF",
"x 	c #D9D9D9",
"y 	c #9DA4B1",
"z 	c #5F7DB4",
"A 	c #4D6EAC",
"B 	c #4E70AD",
"C 	c #4E70AE",
"D 	c #4E71AE",
"E 	c #355899",
"F 	c #305597",
"G 	c #5879B2",
"H 	c #6685B9",
"I 	c #6585B9",
"J 	c #6484B7",
"K 	c #718EBD",
"L 	c #335593",
"M 	c #9DA4B0",
"N 	c #D7D7D7",
"O 	c #9FA6B3",
"P 	c #5C7BB3",
"Q 	c #496BAA",
"R 	c #4A6DAB",
"S 	c #4B6EAD",
"T 	c #4C70AE",
"U 	c #4C71AF",
"V 	c #4D71B0",
"W 	c #4D72B1",
"X 	c #385C9C",
"Y 	c #33589A",
"Z 	c #3F68AB",
"` 	c #6E8DBE",
" .	c #6486B9",
"..	c #6485B9",
"+.	c #6384B7",
"@.	c #6283B7",
"#.	c #6182B5",
"$.	c #6F8DBC",
"%.	c #325391",
"&.	c #9FA6B2",
"*.	c #D5D5D5",
"=.	c #A0A7B4",
"-.	c #5978B1",
";.	c #486BAB",
">.	c #496DAC",
",.	c #4A6FAF",
"'.	c #4B70B0",
").	c #4C72B2",
"!.	c #4D72B3",
"~.	c #4D74B3",
"{.	c #4D74B4",
"].	c #395FA0",
"^.	c #345B9E",
"/.	c #3C67AD",
"(.	c #6285BC",
"_.	c #6385BB",
":.	c #6285BA",
"<.	c #6283BA",
"[.	c #6183B8",
"}.	c #6081B6",
"|.	c #5F7FB6",
"1.	c #6C8ABA",
"2.	c #305290",
"3.	c #A0A7B3",
"4.	c #D8D8D8",
"5.	c #D3D3D3",
"6.	c #A1A8B5",
"7.	c #0E347D",
"8.	c #5879B3",
"9.	c #476CAD",
"0.	c #486FAF",
"a.	c #4A70B1",
"b.	c #4B73B3",
"c.	c #4B73B4",
"d.	c #4C75B6",
"e.	c #4D76B7",
"f.	c #4D77B8",
"g.	c #3B62A4",
"h.	c #375FA2",
"i.	c #3D6AB1",
"j.	c #547BB9",
"k.	c #6488BF",
"l.	c #6185BD",
"m.	c #6084BB",
"n.	c #6082BA",
"o.	c #5F82B9",
"p.	c #5E7FB6",
"q.	c #6C89BB",
"r.	c #2E508F",
"s.	c #A1A8B4",
"t.	c #D6D6D6",
"u.	c #D1D1D1",
"v.	c #A4ABB7",
"w.	c #103880",
"x.	c #587BB5",
"y.	c #466EAF",
"z.	c #4871B2",
"A.	c #4972B4",
"B.	c #4A74B7",
"C.	c #4C76B8",
"D.	c #4D77B9",
"E.	c #4D78BB",
"F.	c #3C65A7",
"G.	c #3862A6",
"H.	c #3F6DB6",
"I.	c #406EB5",
"J.	c #688BC2",
"K.	c #5F86BE",
"L.	c #5E83BD",
"M.	c #5E82BB",
"N.	c #5D81B9",
"O.	c #5B7FB8",
"P.	c #6989BC",
"Q.	c #2E5290",
"R.	c #A4AAB7",
"S.	c #D0D0D0",
"T.	c #A5ADB9",
"U.	c #123A83",
"V.	c #5377B5",
"W.	c #456FB2",
"X.	c #4771B4",
"Y.	c #4873B7",
"Z.	c #4976B9",
"`.	c #4B77BB",
" +	c #4C79BC",
".+	c #4C7ABD",
"++	c #4F7DBF",
"@+	c #3964A7",
"#+	c #3561A7",
"$+	c #4172BA",
"%+	c #3F70B8",
"&+	c #5C86C1",
"*+	c #5D85C1",
"=+	c #5C84BF",
"-+	c #5B82BD",
";+	c #5980BB",
">+	c #597EB9",
",+	c #6586BB",
"'+	c #2D5292",
")+	c #A5ACB8",
"!+	c #D2D2D2",
"~+	c #CECECE",
"{+	c #A7AFBC",
"]+	c #16438E",
"^+	c #275098",
"/+	c #3861A4",
"(+	c #3963A6",
"_+	c #3B65A8",
":+	c #3C67AA",
"<+	c #3D68AB",
"[+	c #3D6AAD",
"}+	c #3E6BAE",
"|+	c #3A68AA",
"1+	c #2459AA",
"2+	c #3864AB",
"3+	c #3B68AD",
"4+	c #4973B2",
"5+	c #597FB7",
"6+	c #567CB5",
"7+	c #557BB3",
"8+	c #5579B2",
"9+	c #5378AF",
"0+	c #486CA7",
"a+	c #2E579A",
"b+	c #A7AFBB",
"c+	c #CFCFCF",
"d+	c #A9B0BD",
"e+	c #194691",
"f+	c #29549B",
"g+	c #3B64A6",
"h+	c #3D66A8",
"i+	c #3E68AB",
"j+	c #3F6AAD",
"k+	c #406CAF",
"l+	c #426DB0",
"m+	c #426FB1",
"n+	c #3D6CAE",
"o+	c #275FB0",
"p+	c #426EB0",
"q+	c #5E84BB",
"r+	c #597FB8",
"s+	c #587EB6",
"t+	c #567CB4",
"u+	c #476DA9",
"v+	c #2D579C",
"w+	c #A9B0BC",
"x+	c #CACACA",
"y+	c #AAB2BF",
"z+	c #18438C",
"A+	c #587FBD",
"B+	c #4C79BD",
"C+	c #4E7CC0",
"D+	c #507FC2",
"E+	c #5182C6",
"F+	c #5384C8",
"G+	c #5586CA",
"H+	c #5587CB",
"I+	c #598BCE",
"J+	c #4070B3",
"K+	c #598ACE",
"L+	c #6490CD",
"M+	c #6590CB",
"N+	c #648EC8",
"O+	c #638BC6",
"P+	c #6189C3",
"Q+	c #6B8EC4",
"R+	c #2A5295",
"S+	c #AAB1BE",
"T+	c #CDCDCD",
"U+	c #CBCBCB",
"V+	c #C9C9C9",
"W+	c #ABB3C0",
"X+	c #18458D",
"Y+	c #5C85C2",
"Z+	c #4C7BBF",
"`+	c #4E7EC2",
" @	c #5081C5",
".@	c #5284C8",
"+@	c #5486CB",
"@@	c #5589CD",
"#@	c #568AD0",
"$@	c #578CD1",
"%@	c #4677BB",
"&@	c #5C8BCD",
"*@	c #618DCA",
"=@	c #5F89C7",
"-@	c #5D87C5",
";@	c #6B90C6",
">@	c #285294",
",@	c #ABB3BF",
"'@	c #C8C8C8",
")@	c #C7C7C7",
"!@	c #AEB6C2",
"~@	c #1A4790",
"{@	c #5C85C4",
"]@	c #4C7CC0",
"^@	c #4E7FC5",
"/@	c #5083C8",
"(@	c #5286CB",
"_@	c #5589CE",
":@	c #568CD1",
"<@	c #578DD3",
"[@	c #598FD5",
"}@	c #487BBF",
"|@	c #5588CE",
"1@	c #6291CF",
"2@	c #5E8DCB",
"3@	c #5D89C9",
"4@	c #5B86C4",
"5@	c #698FC7",
"6@	c #265096",
"7@	c #ADB5C2",
"8@	c #C5C5C5",
"9@	c #AFB7C4",
"0@	c #1A4891",
"a@	c #5C86C5",
"b@	c #4B7CC2",
"c@	c #4E81C6",
"d@	c #5084CA",
"e@	c #5387CE",
"f@	c #558BD1",
"g@	c #568ED5",
"h@	c #5890D7",
"i@	c #5A93DA",
"j@	c #4B7FC3",
"k@	c #5B8DD0",
"l@	c #5B8CCD",
"m@	c #5988C9",
"n@	c #5684C5",
"o@	c #668EC8",
"p@	c #234F95",
"q@	c #AFB7C3",
"r@	c #C6C6C6",
"s@	c #C3C3C3",
"t@	c #B0B8C5",
"u@	c #1B4993",
"v@	c #5A86C5",
"w@	c #4A7CC3",
"x@	c #4C81C7",
"y@	c #4F84CC",
"z@	c #5188D0",
"A@	c #548BD3",
"B@	c #5690D7",
"C@	c #5893DB",
"D@	c #5A96DD",
"E@	c #4D83C7",
"F@	c #5892DB",
"G@	c #548AD0",
"H@	c #5689CE",
"I@	c #5385C9",
"J@	c #5181C5",
"K@	c #608BC7",
"L@	c #214E95",
"M@	c #B0B8C4",
"N@	c #C4C4C4",
"O@	c #C1C1C1",
"P@	c #B2BAC7",
"Q@	c #1C4994",
"R@	c #5985C6",
"S@	c #497CC3",
"T@	c #4B80C8",
"U@	c #4E84CC",
"V@	c #5189D0",
"W@	c #538DD5",
"X@	c #5690D9",
"Y@	c #5895DD",
"Z@	c #5B98E1",
"`@	c #4F86CB",
" #	c #5B98E0",
".#	c #538CD4",
"+#	c #5186CD",
"@#	c #4E82C8",
"##	c #4C7EC3",
"$#	c #5B87C6",
"%#	c #1E4B94",
"&#	c #B2BAC6",
"*#	c #C2C2C2",
"=#	c #C0C0C0",
"-#	c #B3BBC8",
";#	c #1C4A94",
">#	c #5785C5",
",#	c #477CC4",
"'#	c #4D84CC",
")#	c #5088D1",
"!#	c #528DD5",
"~#	c #5591DA",
"{#	c #5895DE",
"]#	c #5A99E3",
"^#	c #5088CE",
"/#	c #5590DA",
"(#	c #528CD5",
"_#	c #4D83CC",
":#	c #4A7FC8",
"<#	c #477BC3",
"[#	c #5784C5",
"}#	c #B3BBC7",
"|#	c #BFBFBF",
"1#	c #BEBEBE",
"2#	c #B5BDCA",
"3#	c #467AC2",
"4#	c #487EC7",
"5#	c #4B82CC",
"6#	c #4E87D0",
"7#	c #518BD5",
"8#	c #538FD9",
"9#	c #5694DD",
"0#	c #5997E2",
"a#	c #4F86CC",
"b#	c #5897E2",
"c#	c #B5BDC9",
"d#	c #BDBDBD",
"e#	c #BCBCBC",
"f#	c #B6BECB",
"g#	c #1D4D94",
"h#	c #4D78BA",
"i#	c #5785C7",
"j#	c #5A89CB",
"k#	c #5C8DCF",
"l#	c #5E91D3",
"m#	c #6194D7",
"n#	c #6298DB",
"o#	c #649BDE",
"p#	c #6299DE",
"q#	c #3E77C1",
"r#	c #6094D7",
"s#	c #1C4C94",
"t#	c #B6BECA",
"u#	c #BBBBBB",
"v#	c #BABABA",
"w#	c #C2C8D2",
"x#	c #1B498E",
"y#	c #1F4F98",
"z#	c #205099",
"A#	c #22539C",
"B#	c #2456A0",
"C#	c #275AA4",
"D#	c #275DA7",
"E#	c #295FAA",
"F#	c #2B63AD",
"G#	c #2D66B0",
"H#	c #3371BF",
"I#	c #2D65B0",
"J#	c #C2C8D1",
"K#	c #B8B8B8",
"L#	c #C3CAD3",
"M#	c #B8C1CD",
"N#	c #B9C1CE",
"O#	c #B9C2CF",
"P#	c #BAC3CF",
"Q#	c #BAC3D0",
"R#	c #BAC4D1",
"S#	c #BBC4D1",
"T#	c #BBC5D1",
"U#	c #BBC5D2",
"V#	c #9C9C9C",
"W#	c #B7B7B7",
"X#	c #424242",
"Y#	c #9E9E9E",
"Z#	c #000000",
"                                                                ",
"                                                                ",
"      . + + + + + + + + + + + @ @ @ @ @ @ @ @ @ @ @ @ @ .       ",
"    # $ $ $ $ $ $ $ $ $ $ $ $ % & & & & & & & & & & & * & =     ",
"    . - ; > , , , , , , , , , , , , , , , , , , , , ' ) & &     ",
"    ! ~ ' { ] ^ ^ ^ ^ ^ ^ ^ / ( _ : < < < < < < < [ } | . .     ",
"    1 = 2 ] 3 4 4 4 4 4 4 4 5 6 7 8 9 9 9 9 9 9 9 0 : a b !     ",
"    - # c ^ d e e e e e e e e f g h i i i i i i i j k l $ 1     ",
"    ~ m n ^ o p p p p p p p p f q r s s s s s s s h t u v -     ",
"    w x y ^ z A A A A A B C D E F G H I J J J J J K L M ~ v     ",
"    # N O ^ P Q Q R S T U V W X Y Z `  ...+.@.#.#.$.%.&.= =     ",
"    m *.=.^ -.;.>.,.'.).!.~.{.].^./.(._.:.<.[.}.|.1.2.3.# #     ",
"    4.5.6.7.8.9.0.a.b.c.d.e.f.g.h.i.j.k.l.m.n.o.p.q.r.s.m m     ",
"    t.u.v.w.x.y.z.A.B.C.D.E.E.F.G.H.I.J.K.L.M.N.O.P.Q.R.N 4.    ",
"    ) S.T.U.V.W.X.Y.Z.`. +.+++@+#+$+%+&+*+=+-+;+>+,+'+)+t.t.    ",
"    !+~+{+]+^+/+(+_+:+<+[+}+|+1+1+2+3+4+5+6+7+8+9+0+a+b+5.)     ",
"    c+; d+e+f+g+h+i+j+k+l+m+n+o+o+n+m+p+q+r+s+t+8+u+v+w+u.u.    ",
"    ; x+y+z+A+B+C+D+E+F+G+H+I+J+J+K+H+G+L+M+N+O+P+Q+R+S+c+T+    ",
"    U+V+W+X+Y+Z+`+ @.@+@@@#@$@%@%@$@#@@@&@L+*@=@-@;@>@,@T+;     ",
"    '@)@!@~@{@]@^@/@(@_@:@<@[@}@}@[@<@:@|@1@2@3@4@5@6@7@x+V+    ",
"    8@8@9@0@a@b@c@d@e@f@g@h@i@j@j@i@h@g@f@k@l@m@n@o@p@q@'@r@    ",
"    s@s@t@u@v@w@x@y@z@A@B@C@D@E@E@D@F@B@A@G@H@I@J@K@L@M@8@N@    ",
"    O@O@P@Q@R@S@T@U@V@W@X@Y@Z@`@`@ #Y@X@.#V@+#@###$#%#&#*#*#    ",
"    =#=#-#;#>#,#T@'#)#!#~#{#]#^#^#]#{#/#(#)#_#:#<#[#Q@}#O@=#    ",
"    |#1#2#Q@[#3#4#5#6#7#8#9#0#a#`@b#9#8#7#6#5#4#3#[#Q@c#1#|#    ",
"    d#e#f#g#h#i#j#k#l#m#n#o#p#q#q#p#o#n#r#l#k#j#i#h#s#t#e#d#    ",
"    u#v#w#x#y#z#A#B#C#D#E#F#G#H#H#I#F#E#D#C#B#A#z#y#x#J#v#u#    ",
"    v#K#x+L#M#N#O#P#Q#R#S#T#U#U#U#U#T#S#R#Q#P#O#N#M#L#x+K#v#    ",
"    V#W#W#W#W#W#W#W#W#W#W#W#W#W#W#W#W#W#W#W#W#W#W#W#W#W#W#V#    ",
"    X#Y#u#e#d#1#|#O@*#s@N@8@)@'@'@)@8@N@s@*#O@|#1#d#e#u#Y#X#    ",
"        Z#Z#Z#Z#Z#Z#Z#Z#Z#Z#Z#Z#Z#Z#Z#Z#Z#Z#Z#Z#Z#Z#Z#Z#        ",
"                                                                "};
