/* XPM */
static char * workspacebuttonbg_xpm[] = {
"30 34 67 1",
" 	c None",
".	c #424A55",
"+	c #575F67",
"@	c #5B646B",
"#	c #2C3543",
"$	c #3B4252",
"%	c #757F87",
"&	c #1F2D3E",
"*	c #1E2C3B",
"=	c #1E2C3D",
"-	c #66737C",
";	c #223143",
">	c #626D77",
",	c #616D77",
"'	c #415469",
")	c #5E6670",
"!	c #5D6670",
"~	c #405266",
"{	c #758088",
"]	c #213042",
"^	c #768188",
"/	c #485B6E",
"(	c #68767F",
"_	c #43576B",
":	c #67747E",
"<	c #63707B",
"[	c #42556A",
"}	c #616E7A",
"|	c #41546A",
"1	c #5F6B78",
"2	c #405369",
"3	c #5C6876",
"4	c #3F5268",
"5	c #586473",
"6	c #202F41",
"7	c #3E5167",
"8	c #1C2A39",
"9	c #1C2937",
"0	c #535F6E",
"a	c #3C4F66",
"b	c #414F5F",
"c	c #364A60",
"d	c #3C4A5C",
"e	c #34485F",
"f	c #3A4659",
"g	c #34475E",
"h	c #384555",
"i	c #33465D",
"j	c #374354",
"k	c #364051",
"l	c #32455C",
"m	c #333C4F",
"n	c #31435B",
"o	c #31394C",
"p	c #31425A",
"q	c #2D3748",
"r	c #314862",
"s	c #2F4259",
"t	c #2D3648",
"u	c #1B2733",
"v	c #252D3F",
"w	c #151F2A",
"x	c #091424",
"y	c #081424",
"z	c #131D2F",
"A	c #121C2E",
"B	c #1E2436",
"..............................",
"++++++++++++++++++++++++++++++",
"@@@@@@@@@@@@@@@@@@@@@@@@@@@@@@",
"##############################",
"$$$$$$$$$$$$$$$$$$$$$$$$$$$$$$",
"%%&&*======********======*&&%%",
"-;;>>,,,,,>>>>>>>>>>>>>>>>>;;-",
">;>>>,,,,,>>>>>>>>>>>>>>>>>';>",
");)))!!!!!)))))))))))))))))~;)",
"{]{{{^^^^^{{{{{{{{{{{{{{{{{/]{",
"(](((((((((((((((((((((((((_](",
":]:::::::::::::::::::::::::_]:",
"<]<<<<<<<<<<<<<<<<<<<<<<<<<[]<",
"}]}}}}}}}}}}}}}}}}}}}}}}}}}|]}",
"1]11111111111111111111111112]1",
"3]33333333333333333333333334]3",
"565555555555555555555555555765",
"585555555555555555555555555785",
"595555555555555555555555555795",
"090000000000000000000000000a80",
"b9bbbbbbbbbbbbbbbbbbbbbbbbbc9b",
"d9ddddddddddddddddddddddddde9d",
"f9fffffffffffffffffffffffffg9f",
"h9hhhhhhhhhhhhhhhhhhhhhhhhhi9h",
"j9jjjjjjjjjjjjjjjjjjjjjjjjji9j",
"k9kkkkkkkkkkkkkkkkkkkkkkkkkl9k",
"m9mmmmmmmmmmmmmmmmmmmmmmmmmn8m",
"o9ooooooooooooooooooooooooop8o",
"q9rsqqqqqqqqqqqqqqqqqqqqqqsr9q",
"tuurrrrrrrrrrrrrrrrrrrrrrrruut",
"vvwwwwwwwwwwwwwwwwwwwwwwwwwwvv",
"xxxxyyxxxxyyxxxxxxxxxxxxxxxxxx",
"zzzzzzzzzzAAzzzzzzzzzzzzzzzzzz",
"BBBBBBBBBBBBBBBBBBBBBBBBBBBBBB"};
